{
  "header": {
    "PPQ": 480,
    "timeSignature": [
      4,
      4
    ],
    "bpm": 120,
    "name": ""
  },
  "tempo": [
    {
      "absoluteTime": 0,
      "seconds": 0,
      "bpm": 120
    },
    {
      "absoluteTime": 94079,
      "seconds": 97.99895833333333,
      "bpm": 120
    }
  ],
  "timeSignature": [
    {
      "absoluteTime": 0,
      "seconds": 0,
      "numerator": 4,
      "denominator": 2,
      "click": 24,
      "notesQ": 8
    }
  ],
  "startTime": 0.875,
  "duration": 201.94895833333504,
  "tracks": [
    {
      "startTime": 2,
      "duration": 200.97395833333334,
      "length": 1056,
      "notes": [
        {
          "name": "C#4",
          "midi": 61,
          "time": 2,
          "velocity": 0.6299212598425197,
          "duration": 0.7114583333333333
        },
        {
          "name": "F4",
          "midi": 65,
          "time": 2,
          "velocity": 0.6299212598425197,
          "duration": 0.7114583333333333
        },
        {
          "name": "A#4",
          "midi": 70,
          "time": 2,
          "velocity": 0.6299212598425197,
          "duration": 0.7114583333333333
        },
        {
          "name": "C#5",
          "midi": 73,
          "time": 2,
          "velocity": 0.6299212598425197,
          "duration": 0.7114583333333333
        },
        {
          "name": "D#4",
          "midi": 63,
          "time": 2.75,
          "velocity": 0.6299212598425197,
          "duration": 0.7114583333333333
        },
        {
          "name": "G#4",
          "midi": 68,
          "time": 2.75,
          "velocity": 0.6299212598425197,
          "duration": 0.7114583333333333
        },
        {
          "name": "C5",
          "midi": 72,
          "time": 2.75,
          "velocity": 0.6299212598425197,
          "duration": 0.7114583333333333
        },
        {
          "name": "D#5",
          "midi": 75,
          "time": 2.75,
          "velocity": 0.6299212598425197,
          "duration": 0.7114583333333333
        },
        {
          "name": "G#3",
          "midi": 56,
          "time": 3.5,
          "velocity": 0.6299212598425197,
          "duration": 0.4739583333333335
        },
        {
          "name": "C4",
          "midi": 60,
          "time": 3.5,
          "velocity": 0.6299212598425197,
          "duration": 0.4739583333333335
        },
        {
          "name": "D#4",
          "midi": 63,
          "time": 3.5,
          "velocity": 0.6299212598425197,
          "duration": 0.4739583333333335
        },
        {
          "name": "G#4",
          "midi": 68,
          "time": 3.5,
          "velocity": 0.6299212598425197,
          "duration": 0.4739583333333335
        },
        {
          "name": "D#4",
          "midi": 63,
          "time": 4,
          "velocity": 0.6299212598425197,
          "duration": 0.7114583333333329
        },
        {
          "name": "G#4",
          "midi": 68,
          "time": 4,
          "velocity": 0.6299212598425197,
          "duration": 0.7114583333333329
        },
        {
          "name": "C5",
          "midi": 72,
          "time": 4,
          "velocity": 0.6299212598425197,
          "duration": 0.7114583333333329
        },
        {
          "name": "D#5",
          "midi": 75,
          "time": 4,
          "velocity": 0.6299212598425197,
          "duration": 0.7114583333333329
        },
        {
          "name": "F4",
          "midi": 65,
          "time": 4.749999999999999,
          "velocity": 0.6299212598425197,
          "duration": 0.7114583333333337
        },
        {
          "name": "A#4",
          "midi": 70,
          "time": 4.749999999999999,
          "velocity": 0.6299212598425197,
          "duration": 0.7114583333333337
        },
        {
          "name": "C#5",
          "midi": 73,
          "time": 4.749999999999999,
          "velocity": 0.6299212598425197,
          "duration": 0.7114583333333337
        },
        {
          "name": "F5",
          "midi": 77,
          "time": 4.749999999999999,
          "velocity": 0.6299212598425197,
          "duration": 0.7114583333333337
        },
        {
          "name": "A#4",
          "midi": 70,
          "time": 5.499999999999999,
          "velocity": 0.6299212598425197,
          "duration": 0.11770833333333375
        },
        {
          "name": "G#5",
          "midi": 80,
          "time": 5.499999999999999,
          "velocity": 0.6299212598425197,
          "duration": 0.11770833333333375
        },
        {
          "name": "A#4",
          "midi": 70,
          "time": 5.624999999999999,
          "velocity": 0.6299212598425197,
          "duration": 0.11770833333333375
        },
        {
          "name": "F#5",
          "midi": 78,
          "time": 5.624999999999999,
          "velocity": 0.6299212598425197,
          "duration": 0.11770833333333375
        },
        {
          "name": "A#4",
          "midi": 70,
          "time": 5.749999999999999,
          "velocity": 0.6299212598425197,
          "duration": 0.11770833333333375
        },
        {
          "name": "F5",
          "midi": 77,
          "time": 5.749999999999999,
          "velocity": 0.6299212598425197,
          "duration": 0.11770833333333375
        },
        {
          "name": "C#5",
          "midi": 73,
          "time": 5.874999999999999,
          "velocity": 0.6299212598425197,
          "duration": 0.11770833333333375
        },
        {
          "name": "D#5",
          "midi": 75,
          "time": 5.874999999999999,
          "velocity": 0.6299212598425197,
          "duration": 0.11770833333333375
        },
        {
          "name": "C#4",
          "midi": 61,
          "time": 5.999999999999999,
          "velocity": 0.6299212598425197,
          "duration": 0.7114583333333337
        },
        {
          "name": "F4",
          "midi": 65,
          "time": 5.999999999999999,
          "velocity": 0.6299212598425197,
          "duration": 0.7114583333333337
        },
        {
          "name": "A#4",
          "midi": 70,
          "time": 5.999999999999999,
          "velocity": 0.6299212598425197,
          "duration": 0.7114583333333337
        },
        {
          "name": "C#5",
          "midi": 73,
          "time": 5.999999999999999,
          "velocity": 0.6299212598425197,
          "duration": 0.7114583333333337
        },
        {
          "name": "D#4",
          "midi": 63,
          "time": 6.749999999999999,
          "velocity": 0.6299212598425197,
          "duration": 0.7114583333333337
        },
        {
          "name": "G#4",
          "midi": 68,
          "time": 6.749999999999999,
          "velocity": 0.6299212598425197,
          "duration": 0.7114583333333337
        },
        {
          "name": "C5",
          "midi": 72,
          "time": 6.749999999999999,
          "velocity": 0.6299212598425197,
          "duration": 0.7114583333333337
        },
        {
          "name": "D#5",
          "midi": 75,
          "time": 6.749999999999999,
          "velocity": 0.6299212598425197,
          "duration": 0.7114583333333337
        },
        {
          "name": "G#3",
          "midi": 56,
          "time": 7.499999999999999,
          "velocity": 0.6299212598425197,
          "duration": 0.47395833333333304
        },
        {
          "name": "C4",
          "midi": 60,
          "time": 7.499999999999999,
          "velocity": 0.6299212598425197,
          "duration": 0.47395833333333304
        },
        {
          "name": "D#4",
          "midi": 63,
          "time": 7.499999999999999,
          "velocity": 0.6299212598425197,
          "duration": 0.47395833333333304
        },
        {
          "name": "G#4",
          "midi": 68,
          "time": 7.499999999999999,
          "velocity": 0.6299212598425197,
          "duration": 0.47395833333333304
        },
        {
          "name": "D#4",
          "midi": 63,
          "time": 7.999999999999999,
          "velocity": 0.6299212598425197,
          "duration": 0.7114583333333337
        },
        {
          "name": "F4",
          "midi": 65,
          "time": 8.75,
          "velocity": 0.6299212598425197,
          "duration": 0.4739583333333339
        },
        {
          "name": "G#4",
          "midi": 68,
          "time": 9.25,
          "velocity": 0.6299212598425197,
          "duration": 0.11770833333333286
        },
        {
          "name": "G#4",
          "midi": 68,
          "time": 9.375,
          "velocity": 0.6299212598425197,
          "duration": 0.11770833333333286
        },
        {
          "name": "A#4",
          "midi": 70,
          "time": 9.5,
          "velocity": 0.6299212598425197,
          "duration": 0.11770833333333286
        },
        {
          "name": "C#5",
          "midi": 73,
          "time": 9.625,
          "velocity": 0.6299212598425197,
          "duration": 0.35520833333333357
        },
        {
          "name": "C#4",
          "midi": 61,
          "time": 10,
          "velocity": 0.6299212598425197,
          "duration": 0.7114583333333329
        },
        {
          "name": "F4",
          "midi": 65,
          "time": 10,
          "velocity": 0.6299212598425197,
          "duration": 0.7114583333333329
        },
        {
          "name": "A#4",
          "midi": 70,
          "time": 10,
          "velocity": 0.6299212598425197,
          "duration": 0.7114583333333329
        },
        {
          "name": "C#5",
          "midi": 73,
          "time": 10,
          "velocity": 0.6299212598425197,
          "duration": 0.7114583333333329
        },
        {
          "name": "D#4",
          "midi": 63,
          "time": 10.75,
          "velocity": 0.6299212598425197,
          "duration": 0.7114583333333329
        },
        {
          "name": "G#4",
          "midi": 68,
          "time": 10.75,
          "velocity": 0.6299212598425197,
          "duration": 0.7114583333333329
        },
        {
          "name": "C5",
          "midi": 72,
          "time": 10.75,
          "velocity": 0.6299212598425197,
          "duration": 0.7114583333333329
        },
        {
          "name": "D#5",
          "midi": 75,
          "time": 10.75,
          "velocity": 0.6299212598425197,
          "duration": 0.7114583333333329
        },
        {
          "name": "G#3",
          "midi": 56,
          "time": 11.5,
          "velocity": 0.6299212598425197,
          "duration": 0.4739583333333339
        },
        {
          "name": "C4",
          "midi": 60,
          "time": 11.5,
          "velocity": 0.6299212598425197,
          "duration": 0.4739583333333339
        },
        {
          "name": "D#4",
          "midi": 63,
          "time": 11.5,
          "velocity": 0.6299212598425197,
          "duration": 0.4739583333333339
        },
        {
          "name": "G#4",
          "midi": 68,
          "time": 11.5,
          "velocity": 0.6299212598425197,
          "duration": 0.4739583333333339
        },
        {
          "name": "D#4",
          "midi": 63,
          "time": 12,
          "velocity": 0.6299212598425197,
          "duration": 0.7114583333333329
        },
        {
          "name": "G#4",
          "midi": 68,
          "time": 12,
          "velocity": 0.6299212598425197,
          "duration": 0.7114583333333329
        },
        {
          "name": "C5",
          "midi": 72,
          "time": 12,
          "velocity": 0.6299212598425197,
          "duration": 0.7114583333333329
        },
        {
          "name": "D#5",
          "midi": 75,
          "time": 12,
          "velocity": 0.6299212598425197,
          "duration": 0.7114583333333329
        },
        {
          "name": "F4",
          "midi": 65,
          "time": 12.75,
          "velocity": 0.6299212598425197,
          "duration": 0.7114583333333329
        },
        {
          "name": "A#4",
          "midi": 70,
          "time": 12.75,
          "velocity": 0.6299212598425197,
          "duration": 0.7114583333333329
        },
        {
          "name": "C#5",
          "midi": 73,
          "time": 12.75,
          "velocity": 0.6299212598425197,
          "duration": 0.7114583333333329
        },
        {
          "name": "F5",
          "midi": 77,
          "time": 12.75,
          "velocity": 0.6299212598425197,
          "duration": 0.7114583333333329
        },
        {
          "name": "A#4",
          "midi": 70,
          "time": 13.5,
          "velocity": 0.6299212598425197,
          "duration": 0.11770833333333286
        },
        {
          "name": "G#5",
          "midi": 80,
          "time": 13.5,
          "velocity": 0.6299212598425197,
          "duration": 0.11770833333333286
        },
        {
          "name": "A#4",
          "midi": 70,
          "time": 13.625,
          "velocity": 0.6299212598425197,
          "duration": 0.11770833333333286
        },
        {
          "name": "F#5",
          "midi": 78,
          "time": 13.625,
          "velocity": 0.6299212598425197,
          "duration": 0.11770833333333286
        },
        {
          "name": "A#4",
          "midi": 70,
          "time": 13.75,
          "velocity": 0.6299212598425197,
          "duration": 0.11770833333333286
        },
        {
          "name": "F5",
          "midi": 77,
          "time": 13.75,
          "velocity": 0.6299212598425197,
          "duration": 0.11770833333333286
        },
        {
          "name": "C#5",
          "midi": 73,
          "time": 13.875,
          "velocity": 0.6299212598425197,
          "duration": 0.11770833333333286
        },
        {
          "name": "D#5",
          "midi": 75,
          "time": 13.875,
          "velocity": 0.6299212598425197,
          "duration": 0.11770833333333286
        },
        {
          "name": "C#4",
          "midi": 61,
          "time": 14,
          "velocity": 0.6299212598425197,
          "duration": 0.7114583333333329
        },
        {
          "name": "F4",
          "midi": 65,
          "time": 14,
          "velocity": 0.6299212598425197,
          "duration": 0.7114583333333329
        },
        {
          "name": "A#4",
          "midi": 70,
          "time": 14,
          "velocity": 0.6299212598425197,
          "duration": 0.7114583333333329
        },
        {
          "name": "C#5",
          "midi": 73,
          "time": 14,
          "velocity": 0.6299212598425197,
          "duration": 0.7114583333333329
        },
        {
          "name": "D#4",
          "midi": 63,
          "time": 14.75,
          "velocity": 0.6299212598425197,
          "duration": 0.7114583333333329
        },
        {
          "name": "G#4",
          "midi": 68,
          "time": 14.75,
          "velocity": 0.6299212598425197,
          "duration": 0.7114583333333329
        },
        {
          "name": "C5",
          "midi": 72,
          "time": 14.75,
          "velocity": 0.6299212598425197,
          "duration": 0.7114583333333329
        },
        {
          "name": "D#5",
          "midi": 75,
          "time": 14.75,
          "velocity": 0.6299212598425197,
          "duration": 0.7114583333333329
        },
        {
          "name": "G#3",
          "midi": 56,
          "time": 15.5,
          "velocity": 0.6299212598425197,
          "duration": 0.4739583333333339
        },
        {
          "name": "C4",
          "midi": 60,
          "time": 15.5,
          "velocity": 0.6299212598425197,
          "duration": 0.4739583333333339
        },
        {
          "name": "D#4",
          "midi": 63,
          "time": 15.5,
          "velocity": 0.6299212598425197,
          "duration": 0.4739583333333339
        },
        {
          "name": "G#4",
          "midi": 68,
          "time": 15.5,
          "velocity": 0.6299212598425197,
          "duration": 0.4739583333333339
        },
        {
          "name": "D#4",
          "midi": 63,
          "time": 16,
          "velocity": 0.6299212598425197,
          "duration": 0.7114583333333329
        },
        {
          "name": "F4",
          "midi": 65,
          "time": 16.75,
          "velocity": 0.6299212598425197,
          "duration": 0.47395833333333215
        },
        {
          "name": "G#4",
          "midi": 68,
          "time": 17.25,
          "velocity": 0.6299212598425197,
          "duration": 0.11770833333333286
        },
        {
          "name": "G#4",
          "midi": 68,
          "time": 17.375,
          "velocity": 0.6299212598425197,
          "duration": 0.11770833333333286
        },
        {
          "name": "A#4",
          "midi": 70,
          "time": 17.5,
          "velocity": 0.6299212598425197,
          "duration": 0.11770833333333286
        },
        {
          "name": "C#5",
          "midi": 73,
          "time": 17.625,
          "velocity": 0.6299212598425197,
          "duration": 0.35520833333333357
        },
        {
          "name": "A#4",
          "midi": 70,
          "time": 18.5,
          "velocity": 0.6299212598425197,
          "duration": 0.236458333333335
        },
        {
          "name": "C5",
          "midi": 72,
          "time": 18.75,
          "velocity": 0.6299212598425197,
          "duration": 0.236458333333335
        },
        {
          "name": "C#5",
          "midi": 73,
          "time": 19,
          "velocity": 0.6299212598425197,
          "duration": 0.236458333333335
        },
        {
          "name": "C#5",
          "midi": 73,
          "time": 19.25,
          "velocity": 0.6299212598425197,
          "duration": 0.236458333333335
        },
        {
          "name": "D#5",
          "midi": 75,
          "time": 19.5,
          "velocity": 0.6299212598425197,
          "duration": 0.236458333333335
        },
        {
          "name": "C5",
          "midi": 72,
          "time": 19.75,
          "velocity": 0.6299212598425197,
          "duration": 0.47395833333333215
        },
        {
          "name": "A#4",
          "midi": 70,
          "time": 20.25,
          "velocity": 0.6299212598425197,
          "duration": 0.11770833333333286
        },
        {
          "name": "G#4",
          "midi": 68,
          "time": 20.375,
          "velocity": 0.6299212598425197,
          "duration": 1.0677083333333321
        },
        {
          "name": "A#4",
          "midi": 70,
          "time": 22.25,
          "velocity": 0.6299212598425197,
          "duration": 0.236458333333335
        },
        {
          "name": "A#4",
          "midi": 70,
          "time": 22.5,
          "velocity": 0.6299212598425197,
          "duration": 0.236458333333335
        },
        {
          "name": "C5",
          "midi": 72,
          "time": 22.75,
          "velocity": 0.6299212598425197,
          "duration": 0.236458333333335
        },
        {
          "name": "C#5",
          "midi": 73,
          "time": 23,
          "velocity": 0.6299212598425197,
          "duration": 0.236458333333335
        },
        {
          "name": "A#4",
          "midi": 70,
          "time": 23.25,
          "velocity": 0.6299212598425197,
          "duration": 0.47395833333333215
        },
        {
          "name": "G#4",
          "midi": 68,
          "time": 23.75,
          "velocity": 0.6299212598425197,
          "duration": 0.236458333333335
        },
        {
          "name": "G#5",
          "midi": 80,
          "time": 24,
          "velocity": 0.6299212598425197,
          "duration": 0.47395833333333215
        },
        {
          "name": "G#5",
          "midi": 80,
          "time": 24.5,
          "velocity": 0.6299212598425197,
          "duration": 0.236458333333335
        },
        {
          "name": "D#5",
          "midi": 75,
          "time": 24.75,
          "velocity": 0.6299212598425197,
          "duration": 0.35520833333333357
        },
        {
          "name": "F5",
          "midi": 77,
          "time": 25.125,
          "velocity": 0.6299212598425197,
          "duration": 0.11770833333333286
        },
        {
          "name": "D#5",
          "midi": 75,
          "time": 25.25,
          "velocity": 0.6299212598425197,
          "duration": 0.7114583333333329
        },
        {
          "name": "A#4",
          "midi": 70,
          "time": 26.25,
          "velocity": 0.6299212598425197,
          "duration": 0.236458333333335
        },
        {
          "name": "A#4",
          "midi": 70,
          "time": 26.5,
          "velocity": 0.6299212598425197,
          "duration": 0.236458333333335
        },
        {
          "name": "C5",
          "midi": 72,
          "time": 26.75,
          "velocity": 0.6299212598425197,
          "duration": 0.236458333333335
        },
        {
          "name": "C#5",
          "midi": 73,
          "time": 27,
          "velocity": 0.6299212598425197,
          "duration": 0.236458333333335
        },
        {
          "name": "A#4",
          "midi": 70,
          "time": 27.25,
          "velocity": 0.6299212598425197,
          "duration": 0.236458333333335
        },
        {
          "name": "C#5",
          "midi": 73,
          "time": 27.5,
          "velocity": 0.6299212598425197,
          "duration": 0.236458333333335
        },
        {
          "name": "D#5",
          "midi": 75,
          "time": 27.75,
          "velocity": 0.6299212598425197,
          "duration": 0.47395833333333215
        },
        {
          "name": "C5",
          "midi": 72,
          "time": 28.25,
          "velocity": 0.6299212598425197,
          "duration": 0.236458333333335
        },
        {
          "name": "A#4",
          "midi": 70,
          "time": 28.5,
          "velocity": 0.6299212598425197,
          "duration": 0.236458333333335
        },
        {
          "name": "C5",
          "midi": 72,
          "time": 28.75,
          "velocity": 0.6299212598425197,
          "duration": 0.11770833333333286
        },
        {
          "name": "A#4",
          "midi": 70,
          "time": 28.875,
          "velocity": 0.6299212598425197,
          "duration": 0.11770833333333286
        },
        {
          "name": "G#4",
          "midi": 68,
          "time": 29,
          "velocity": 0.6299212598425197,
          "duration": 0.47395833333333215
        },
        {
          "name": "A#4",
          "midi": 70,
          "time": 30.25,
          "velocity": 0.6299212598425197,
          "duration": 0.236458333333335
        },
        {
          "name": "A#4",
          "midi": 70,
          "time": 30.5,
          "velocity": 0.6299212598425197,
          "duration": 0.236458333333335
        },
        {
          "name": "C5",
          "midi": 72,
          "time": 30.75,
          "velocity": 0.6299212598425197,
          "duration": 0.236458333333335
        },
        {
          "name": "C#5",
          "midi": 73,
          "time": 31,
          "velocity": 0.6299212598425197,
          "duration": 0.236458333333335
        },
        {
          "name": "A#4",
          "midi": 70,
          "time": 31.25,
          "velocity": 0.6299212598425197,
          "duration": 0.236458333333335
        },
        {
          "name": "G#4",
          "midi": 68,
          "time": 31.5,
          "velocity": 0.6299212598425197,
          "duration": 0.47395833333333215
        },
        {
          "name": "D#5",
          "midi": 75,
          "time": 32,
          "velocity": 0.6299212598425197,
          "duration": 0.23645833333333144
        },
        {
          "name": "D#5",
          "midi": 75,
          "time": 32.25,
          "velocity": 0.6299212598425197,
          "duration": 0.23645833333333144
        },
        {
          "name": "D#5",
          "midi": 75,
          "time": 32.5,
          "velocity": 0.6299212598425197,
          "duration": 0.23645833333333144
        },
        {
          "name": "F5",
          "midi": 77,
          "time": 32.75,
          "velocity": 0.6299212598425197,
          "duration": 0.23645833333333144
        },
        {
          "name": "D#5",
          "midi": 75,
          "time": 33,
          "velocity": 0.6299212598425197,
          "duration": 0.94895833333333
        },
        {
          "name": "C#5",
          "midi": 73,
          "time": 34,
          "velocity": 0.6299212598425197,
          "duration": 0.94895833333333
        },
        {
          "name": "D#5",
          "midi": 75,
          "time": 35.25,
          "velocity": 0.6299212598425197,
          "duration": 0.23645833333333144
        },
        {
          "name": "F5",
          "midi": 77,
          "time": 35.5,
          "velocity": 0.6299212598425197,
          "duration": 0.23645833333333144
        },
        {
          "name": "C#5",
          "midi": 73,
          "time": 35.75,
          "velocity": 0.6299212598425197,
          "duration": 0.23645833333333144
        },
        {
          "name": "D#5",
          "midi": 75,
          "time": 36,
          "velocity": 0.6299212598425197,
          "duration": 0.23645833333333144
        },
        {
          "name": "D#5",
          "midi": 75,
          "time": 36.25,
          "velocity": 0.6299212598425197,
          "duration": 0.23645833333333144
        },
        {
          "name": "D#5",
          "midi": 75,
          "time": 36.5,
          "velocity": 0.6299212598425197,
          "duration": 0.23645833333333144
        },
        {
          "name": "F5",
          "midi": 77,
          "time": 36.75,
          "velocity": 0.6299212598425197,
          "duration": 0.23645833333333144
        },
        {
          "name": "D#5",
          "midi": 75,
          "time": 37,
          "velocity": 0.6299212598425197,
          "duration": 0.4739583333333357
        },
        {
          "name": "G#4",
          "midi": 68,
          "time": 37.5,
          "velocity": 0.6299212598425197,
          "duration": 0.4739583333333357
        },
        {
          "name": "A#4",
          "midi": 70,
          "time": 39,
          "velocity": 0.6299212598425197,
          "duration": 0.23645833333333144
        },
        {
          "name": "C5",
          "midi": 72,
          "time": 39.25,
          "velocity": 0.6299212598425197,
          "duration": 0.23645833333333144
        },
        {
          "name": "C#5",
          "midi": 73,
          "time": 39.5,
          "velocity": 0.6299212598425197,
          "duration": 0.23645833333333144
        },
        {
          "name": "A#4",
          "midi": 70,
          "time": 39.75,
          "velocity": 0.6299212598425197,
          "duration": 0.4739583333333357
        },
        {
          "name": "D#5",
          "midi": 75,
          "time": 40.25,
          "velocity": 0.6614173228346457,
          "duration": 0.23645833333333144
        },
        {
          "name": "F5",
          "midi": 77,
          "time": 40.5,
          "velocity": 0.6929133858267716,
          "duration": 0.23645833333333144
        },
        {
          "name": "D#5",
          "midi": 75,
          "time": 40.75,
          "velocity": 0.7244094488188977,
          "duration": 0.4739583333333357
        },
        {
          "name": "G#4",
          "midi": 68,
          "time": 41.5,
          "velocity": 0.8188976377952756,
          "duration": 0.11770833333333286
        },
        {
          "name": "A#4",
          "midi": 70,
          "time": 41.625,
          "velocity": 0.8346456692913385,
          "duration": 0.11770833333333286
        },
        {
          "name": "C#5",
          "midi": 73,
          "time": 41.75,
          "velocity": 0.8503937007874016,
          "duration": 0.11770833333333286
        },
        {
          "name": "A#4",
          "midi": 70,
          "time": 41.875,
          "velocity": 0.8661417322834646,
          "duration": 0.11770833333333286
        },
        {
          "name": "F4",
          "midi": 65,
          "time": 42,
          "velocity": 0.8818897637795275,
          "duration": 0.35520833333333
        },
        {
          "name": "A#4",
          "midi": 70,
          "time": 42,
          "velocity": 0.8818897637795275,
          "duration": 0.35520833333333
        },
        {
          "name": "C#5",
          "midi": 73,
          "time": 42,
          "velocity": 0.8818897637795275,
          "duration": 0.35520833333333
        },
        {
          "name": "F5",
          "midi": 77,
          "time": 42,
          "velocity": 0.8818897637795275,
          "duration": 0.35520833333333
        },
        {
          "name": "F4",
          "midi": 65,
          "time": 42.375,
          "velocity": 0.8818897637795275,
          "duration": 0.35520833333333
        },
        {
          "name": "A#4",
          "midi": 70,
          "time": 42.375,
          "velocity": 0.8818897637795275,
          "duration": 0.35520833333333
        },
        {
          "name": "C#5",
          "midi": 73,
          "time": 42.375,
          "velocity": 0.8818897637795275,
          "duration": 0.35520833333333
        },
        {
          "name": "F5",
          "midi": 77,
          "time": 42.375,
          "velocity": 0.8818897637795275,
          "duration": 0.35520833333333
        },
        {
          "name": "D#4",
          "midi": 63,
          "time": 42.75,
          "velocity": 0.8818897637795275,
          "duration": 0.4739583333333357
        },
        {
          "name": "G#4",
          "midi": 68,
          "time": 42.75,
          "velocity": 0.8818897637795275,
          "duration": 0.4739583333333357
        },
        {
          "name": "C5",
          "midi": 72,
          "time": 42.75,
          "velocity": 0.8818897637795275,
          "duration": 0.4739583333333357
        },
        {
          "name": "D#5",
          "midi": 75,
          "time": 42.75,
          "velocity": 0.8818897637795275,
          "duration": 0.4739583333333357
        },
        {
          "name": "G#4",
          "midi": 68,
          "time": 43.5,
          "velocity": 0.8818897637795275,
          "duration": 0.11770833333333286
        },
        {
          "name": "A#4",
          "midi": 70,
          "time": 43.625,
          "velocity": 0.8818897637795275,
          "duration": 0.11770833333333286
        },
        {
          "name": "C#5",
          "midi": 73,
          "time": 43.75,
          "velocity": 0.8818897637795275,
          "duration": 0.11770833333333286
        },
        {
          "name": "A#4",
          "midi": 70,
          "time": 43.875,
          "velocity": 0.8818897637795275,
          "duration": 0.11770833333333286
        },
        {
          "name": "D#4",
          "midi": 63,
          "time": 44,
          "velocity": 0.8818897637795275,
          "duration": 0.35520833333333
        },
        {
          "name": "G#4",
          "midi": 68,
          "time": 44,
          "velocity": 0.8818897637795275,
          "duration": 0.35520833333333
        },
        {
          "name": "C5",
          "midi": 72,
          "time": 44,
          "velocity": 0.8818897637795275,
          "duration": 0.35520833333333
        },
        {
          "name": "D#5",
          "midi": 75,
          "time": 44,
          "velocity": 0.8818897637795275,
          "duration": 0.35520833333333
        },
        {
          "name": "D#4",
          "midi": 63,
          "time": 44.375,
          "velocity": 0.8818897637795275,
          "duration": 0.35520833333333
        },
        {
          "name": "G#4",
          "midi": 68,
          "time": 44.375,
          "velocity": 0.8818897637795275,
          "duration": 0.35520833333333
        },
        {
          "name": "C5",
          "midi": 72,
          "time": 44.375,
          "velocity": 0.8818897637795275,
          "duration": 0.35520833333333
        },
        {
          "name": "D#5",
          "midi": 75,
          "time": 44.375,
          "velocity": 0.8818897637795275,
          "duration": 0.35520833333333
        },
        {
          "name": "C#4",
          "midi": 61,
          "time": 44.75,
          "velocity": 0.8818897637795275,
          "duration": 0.35520833333333
        },
        {
          "name": "F4",
          "midi": 65,
          "time": 44.75,
          "velocity": 0.8818897637795275,
          "duration": 0.35520833333333
        },
        {
          "name": "A#4",
          "midi": 70,
          "time": 44.75,
          "velocity": 0.8818897637795275,
          "duration": 0.35520833333333
        },
        {
          "name": "C#5",
          "midi": 73,
          "time": 44.75,
          "velocity": 0.8818897637795275,
          "duration": 0.35520833333333
        },
        {
          "name": "C5",
          "midi": 72,
          "time": 45.125,
          "velocity": 0.8818897637795275,
          "duration": 0.11770833333333286
        },
        {
          "name": "A#4",
          "midi": 70,
          "time": 45.25,
          "velocity": 0.8818897637795275,
          "duration": 0.23645833333333144
        },
        {
          "name": "G#4",
          "midi": 68,
          "time": 45.5,
          "velocity": 0.8818897637795275,
          "duration": 0.11770833333333286
        },
        {
          "name": "A#4",
          "midi": 70,
          "time": 45.625,
          "velocity": 0.8818897637795275,
          "duration": 0.11770833333333286
        },
        {
          "name": "C#5",
          "midi": 73,
          "time": 45.75,
          "velocity": 0.8818897637795275,
          "duration": 0.11770833333333286
        },
        {
          "name": "A#4",
          "midi": 70,
          "time": 45.875,
          "velocity": 0.8818897637795275,
          "duration": 0.11770833333333286
        },
        {
          "name": "C#4",
          "midi": 61,
          "time": 46,
          "velocity": 0.8818897637795275,
          "duration": 0.4739583333333357
        },
        {
          "name": "F4",
          "midi": 65,
          "time": 46,
          "velocity": 0.8818897637795275,
          "duration": 0.4739583333333357
        },
        {
          "name": "A#4",
          "midi": 70,
          "time": 46,
          "velocity": 0.8818897637795275,
          "duration": 0.4739583333333357
        },
        {
          "name": "C#5",
          "midi": 73,
          "time": 46,
          "velocity": 0.8818897637795275,
          "duration": 0.4739583333333357
        },
        {
          "name": "F4",
          "midi": 65,
          "time": 46.5,
          "velocity": 0.8818897637795275,
          "duration": 0.23645833333333144
        },
        {
          "name": "A#4",
          "midi": 70,
          "time": 46.5,
          "velocity": 0.8818897637795275,
          "duration": 0.23645833333333144
        },
        {
          "name": "D#5",
          "midi": 75,
          "time": 46.5,
          "velocity": 0.8818897637795275,
          "duration": 0.23645833333333144
        },
        {
          "name": "A#4",
          "midi": 70,
          "time": 46.75,
          "velocity": 0.8818897637795275,
          "duration": 0.05833333333333002
        },
        {
          "name": "C4",
          "midi": 60,
          "time": 46.8125,
          "velocity": 0.8818897637795275,
          "duration": 0.2958333333333343
        },
        {
          "name": "D#4",
          "midi": 63,
          "time": 46.8125,
          "velocity": 0.8818897637795275,
          "duration": 0.2958333333333343
        },
        {
          "name": "G#4",
          "midi": 68,
          "time": 46.8125,
          "velocity": 0.8818897637795275,
          "duration": 0.2958333333333343
        },
        {
          "name": "C5",
          "midi": 72,
          "time": 46.8125,
          "velocity": 0.8818897637795275,
          "duration": 0.2958333333333343
        },
        {
          "name": "A#4",
          "midi": 70,
          "time": 47.125,
          "velocity": 0.8818897637795275,
          "duration": 0.11770833333333286
        },
        {
          "name": "G#4",
          "midi": 68,
          "time": 47.25,
          "velocity": 0.8818897637795275,
          "duration": 0.4739583333333357
        },
        {
          "name": "G#4",
          "midi": 68,
          "time": 47.75,
          "velocity": 0.8818897637795275,
          "duration": 0.23645833333333144
        },
        {
          "name": "D#4",
          "midi": 63,
          "time": 48,
          "velocity": 0.8818897637795275,
          "duration": 0.4739583333333357
        },
        {
          "name": "G#4",
          "midi": 68,
          "time": 48,
          "velocity": 0.8818897637795275,
          "duration": 0.4739583333333357
        },
        {
          "name": "C5",
          "midi": 72,
          "time": 48,
          "velocity": 0.8818897637795275,
          "duration": 0.4739583333333357
        },
        {
          "name": "D#5",
          "midi": 75,
          "time": 48,
          "velocity": 0.8818897637795275,
          "duration": 0.4739583333333357
        },
        {
          "name": "C#4",
          "midi": 61,
          "time": 48.5,
          "velocity": 0.8818897637795275,
          "duration": 0.4739583333333357
        },
        {
          "name": "F4",
          "midi": 65,
          "time": 48.5,
          "velocity": 0.8818897637795275,
          "duration": 0.4739583333333357
        },
        {
          "name": "A#4",
          "midi": 70,
          "time": 48.5,
          "velocity": 0.8818897637795275,
          "duration": 0.4739583333333357
        },
        {
          "name": "C#5",
          "midi": 73,
          "time": 48.5,
          "velocity": 0.8818897637795275,
          "duration": 0.4739583333333357
        },
        {
          "name": "G#4",
          "midi": 68,
          "time": 49.5,
          "velocity": 0.8818897637795275,
          "duration": 0.11770833333333286
        },
        {
          "name": "A#4",
          "midi": 70,
          "time": 49.625,
          "velocity": 0.8818897637795275,
          "duration": 0.11770833333333286
        },
        {
          "name": "C#5",
          "midi": 73,
          "time": 49.75,
          "velocity": 0.8818897637795275,
          "duration": 0.11770833333333286
        },
        {
          "name": "A#4",
          "midi": 70,
          "time": 49.875,
          "velocity": 0.8818897637795275,
          "duration": 0.11770833333333286
        },
        {
          "name": "F4",
          "midi": 65,
          "time": 50,
          "velocity": 0.8818897637795275,
          "duration": 0.35520833333333
        },
        {
          "name": "A#4",
          "midi": 70,
          "time": 50,
          "velocity": 0.8818897637795275,
          "duration": 0.35520833333333
        },
        {
          "name": "C#5",
          "midi": 73,
          "time": 50,
          "velocity": 0.8818897637795275,
          "duration": 0.35520833333333
        },
        {
          "name": "F5",
          "midi": 77,
          "time": 50,
          "velocity": 0.8818897637795275,
          "duration": 0.35520833333333
        },
        {
          "name": "F4",
          "midi": 65,
          "time": 50.375,
          "velocity": 0.8818897637795275,
          "duration": 0.35520833333333
        },
        {
          "name": "A#4",
          "midi": 70,
          "time": 50.375,
          "velocity": 0.8818897637795275,
          "duration": 0.35520833333333
        },
        {
          "name": "C#5",
          "midi": 73,
          "time": 50.375,
          "velocity": 0.8818897637795275,
          "duration": 0.35520833333333
        },
        {
          "name": "F5",
          "midi": 77,
          "time": 50.375,
          "velocity": 0.8818897637795275,
          "duration": 0.35520833333333
        },
        {
          "name": "D#4",
          "midi": 63,
          "time": 50.75,
          "velocity": 0.8818897637795275,
          "duration": 0.4739583333333357
        },
        {
          "name": "G#4",
          "midi": 68,
          "time": 50.75,
          "velocity": 0.8818897637795275,
          "duration": 0.4739583333333357
        },
        {
          "name": "C5",
          "midi": 72,
          "time": 50.75,
          "velocity": 0.8818897637795275,
          "duration": 0.4739583333333357
        },
        {
          "name": "D#5",
          "midi": 75,
          "time": 50.75,
          "velocity": 0.8818897637795275,
          "duration": 0.4739583333333357
        },
        {
          "name": "G#4",
          "midi": 68,
          "time": 51.5,
          "velocity": 0.8818897637795275,
          "duration": 0.11770833333333286
        },
        {
          "name": "A#4",
          "midi": 70,
          "time": 51.625,
          "velocity": 0.8818897637795275,
          "duration": 0.11770833333333286
        },
        {
          "name": "C#5",
          "midi": 73,
          "time": 51.75,
          "velocity": 0.8818897637795275,
          "duration": 0.11770833333333286
        },
        {
          "name": "A#4",
          "midi": 70,
          "time": 51.875,
          "velocity": 0.8818897637795275,
          "duration": 0.11770833333333286
        },
        {
          "name": "G#4",
          "midi": 68,
          "time": 52,
          "velocity": 0.8818897637795275,
          "duration": 0.4739583333333357
        },
        {
          "name": "C5",
          "midi": 72,
          "time": 52,
          "velocity": 0.8818897637795275,
          "duration": 0.4739583333333357
        },
        {
          "name": "F5",
          "midi": 77,
          "time": 52,
          "velocity": 0.8818897637795275,
          "duration": 0.4739583333333357
        },
        {
          "name": "G#5",
          "midi": 80,
          "time": 52,
          "velocity": 0.8818897637795275,
          "duration": 0.4739583333333357
        },
        {
          "name": "C5",
          "midi": 72,
          "time": 52.5,
          "velocity": 0.8818897637795275,
          "duration": 0.23645833333333144
        },
        {
          "name": "C#4",
          "midi": 61,
          "time": 52.75,
          "velocity": 0.8818897637795275,
          "duration": 0.35520833333333
        },
        {
          "name": "F4",
          "midi": 65,
          "time": 52.75,
          "velocity": 0.8818897637795275,
          "duration": 0.35520833333333
        },
        {
          "name": "A#4",
          "midi": 70,
          "time": 52.75,
          "velocity": 0.8818897637795275,
          "duration": 0.35520833333333
        },
        {
          "name": "C#5",
          "midi": 73,
          "time": 52.75,
          "velocity": 0.8818897637795275,
          "duration": 0.35520833333333
        },
        {
          "name": "C5",
          "midi": 72,
          "time": 53.125,
          "velocity": 0.8818897637795275,
          "duration": 0.11770833333333286
        },
        {
          "name": "A#4",
          "midi": 70,
          "time": 53.25,
          "velocity": 0.8818897637795275,
          "duration": 0.23645833333333144
        },
        {
          "name": "G#4",
          "midi": 68,
          "time": 53.5,
          "velocity": 0.8818897637795275,
          "duration": 0.11770833333333286
        },
        {
          "name": "A#4",
          "midi": 70,
          "time": 53.625,
          "velocity": 0.8818897637795275,
          "duration": 0.11770833333333286
        },
        {
          "name": "C#5",
          "midi": 73,
          "time": 53.75,
          "velocity": 0.8818897637795275,
          "duration": 0.11770833333333286
        },
        {
          "name": "A#4",
          "midi": 70,
          "time": 53.875,
          "velocity": 0.8818897637795275,
          "duration": 0.11770833333333286
        },
        {
          "name": "C#4",
          "midi": 61,
          "time": 54,
          "velocity": 0.8818897637795275,
          "duration": 0.4739583333333357
        },
        {
          "name": "F4",
          "midi": 65,
          "time": 54,
          "velocity": 0.8818897637795275,
          "duration": 0.4739583333333357
        },
        {
          "name": "A#4",
          "midi": 70,
          "time": 54,
          "velocity": 0.8818897637795275,
          "duration": 0.4739583333333357
        },
        {
          "name": "C#5",
          "midi": 73,
          "time": 54,
          "velocity": 0.8818897637795275,
          "duration": 0.4739583333333357
        },
        {
          "name": "F4",
          "midi": 65,
          "time": 54.5,
          "velocity": 0.8818897637795275,
          "duration": 0.23645833333333144
        },
        {
          "name": "A#4",
          "midi": 70,
          "time": 54.5,
          "velocity": 0.8818897637795275,
          "duration": 0.23645833333333144
        },
        {
          "name": "D#5",
          "midi": 75,
          "time": 54.5,
          "velocity": 0.8818897637795275,
          "duration": 0.23645833333333144
        },
        {
          "name": "A#4",
          "midi": 70,
          "time": 54.75,
          "velocity": 0.8818897637795275,
          "duration": 0.05833333333333002
        },
        {
          "name": "C4",
          "midi": 60,
          "time": 54.8125,
          "velocity": 0.8818897637795275,
          "duration": 0.2958333333333343
        },
        {
          "name": "D#4",
          "midi": 63,
          "time": 54.8125,
          "velocity": 0.8818897637795275,
          "duration": 0.2958333333333343
        },
        {
          "name": "G#4",
          "midi": 68,
          "time": 54.8125,
          "velocity": 0.8818897637795275,
          "duration": 0.2958333333333343
        },
        {
          "name": "C5",
          "midi": 72,
          "time": 54.8125,
          "velocity": 0.8818897637795275,
          "duration": 0.2958333333333343
        },
        {
          "name": "A#4",
          "midi": 70,
          "time": 55.125,
          "velocity": 0.8818897637795275,
          "duration": 0.11770833333333286
        },
        {
          "name": "G#4",
          "midi": 68,
          "time": 55.25,
          "velocity": 0.8818897637795275,
          "duration": 0.4739583333333357
        },
        {
          "name": "G#4",
          "midi": 68,
          "time": 55.75,
          "velocity": 0.8818897637795275,
          "duration": 0.23645833333333144
        },
        {
          "name": "D#4",
          "midi": 63,
          "time": 56,
          "velocity": 0.8818897637795275,
          "duration": 0.4739583333333357
        },
        {
          "name": "G#4",
          "midi": 68,
          "time": 56,
          "velocity": 0.8818897637795275,
          "duration": 0.4739583333333357
        },
        {
          "name": "C5",
          "midi": 72,
          "time": 56,
          "velocity": 0.8818897637795275,
          "duration": 0.4739583333333357
        },
        {
          "name": "D#5",
          "midi": 75,
          "time": 56,
          "velocity": 0.8818897637795275,
          "duration": 0.4739583333333357
        },
        {
          "name": "C#4",
          "midi": 61,
          "time": 56.5,
          "velocity": 0.8818897637795275,
          "duration": 0.4739583333333357
        },
        {
          "name": "F4",
          "midi": 65,
          "time": 56.5,
          "velocity": 0.8818897637795275,
          "duration": 0.4739583333333357
        },
        {
          "name": "A#4",
          "midi": 70,
          "time": 56.5,
          "velocity": 0.8818897637795275,
          "duration": 0.4739583333333357
        },
        {
          "name": "C#5",
          "midi": 73,
          "time": 56.5,
          "velocity": 0.8818897637795275,
          "duration": 0.4739583333333357
        },
        {
          "name": "A#4",
          "midi": 70,
          "time": 58.25,
          "velocity": 0.6299212598425197,
          "duration": 0.23645833333333144
        },
        {
          "name": "C#5",
          "midi": 73,
          "time": 58.5,
          "velocity": 0.6299212598425197,
          "duration": 0.23645833333333144
        },
        {
          "name": "A#4",
          "midi": 70,
          "time": 58.75,
          "velocity": 0.6299212598425197,
          "duration": 0.23645833333333144
        },
        {
          "name": "C#5",
          "midi": 73,
          "time": 59,
          "velocity": 0.6299212598425197,
          "duration": 0.23645833333333144
        },
        {
          "name": "D#5",
          "midi": 75,
          "time": 59.25,
          "velocity": 0.6299212598425197,
          "duration": 0.94895833333333
        },
        {
          "name": "C5",
          "midi": 72,
          "time": 60.25,
          "velocity": 0.6299212598425197,
          "duration": 0.23645833333333144
        },
        {
          "name": "A#4",
          "midi": 70,
          "time": 60.5,
          "velocity": 0.6299212598425197,
          "duration": 0.23645833333333144
        },
        {
          "name": "C5",
          "midi": 72,
          "time": 60.75,
          "velocity": 0.6299212598425197,
          "duration": 0.11770833333333286
        },
        {
          "name": "A#4",
          "midi": 70,
          "time": 60.875,
          "velocity": 0.6299212598425197,
          "duration": 0.11770833333333286
        },
        {
          "name": "G#4",
          "midi": 68,
          "time": 61,
          "velocity": 0.6299212598425197,
          "duration": 0.4739583333333357
        },
        {
          "name": "A#4",
          "midi": 70,
          "time": 62.25,
          "velocity": 0.6299212598425197,
          "duration": 0.23645833333333144
        },
        {
          "name": "A#4",
          "midi": 70,
          "time": 62.5,
          "velocity": 0.6299212598425197,
          "duration": 0.23645833333333144
        },
        {
          "name": "C5",
          "midi": 72,
          "time": 62.75,
          "velocity": 0.6299212598425197,
          "duration": 0.23645833333333144
        },
        {
          "name": "C#5",
          "midi": 73,
          "time": 63,
          "velocity": 0.6299212598425197,
          "duration": 0.23645833333333144
        },
        {
          "name": "A#4",
          "midi": 70,
          "time": 63.25,
          "velocity": 0.6299212598425197,
          "duration": 0.23645833333333144
        },
        {
          "name": "G#4",
          "midi": 68,
          "time": 63.5,
          "velocity": 0.6299212598425197,
          "duration": 0.4739583333333357
        },
        {
          "name": "G#5",
          "midi": 80,
          "time": 64.25,
          "velocity": 0.6299212598425197,
          "duration": 0.23645833333333144
        },
        {
          "name": "G#5",
          "midi": 80,
          "time": 64.5,
          "velocity": 0.6299212598425197,
          "duration": 0.23645833333333144
        },
        {
          "name": "D#5",
          "midi": 75,
          "time": 64.75,
          "velocity": 0.6299212598425197,
          "duration": 0.4739583333333286
        },
        {
          "name": "F5",
          "midi": 77,
          "time": 65.25,
          "velocity": 0.6299212598425197,
          "duration": 0.23645833333333144
        },
        {
          "name": "D#5",
          "midi": 75,
          "time": 65.5,
          "velocity": 0.6299212598425197,
          "duration": 0.23645833333333144
        },
        {
          "name": "C#5",
          "midi": 73,
          "time": 65.75,
          "velocity": 0.6299212598425197,
          "duration": 0.23645833333333144
        },
        {
          "name": "A#4",
          "midi": 70,
          "time": 66.25,
          "velocity": 0.6299212598425197,
          "duration": 0.23645833333333144
        },
        {
          "name": "C#5",
          "midi": 73,
          "time": 66.5,
          "velocity": 0.6299212598425197,
          "duration": 0.23645833333333144
        },
        {
          "name": "A#4",
          "midi": 70,
          "time": 66.75,
          "velocity": 0.6299212598425197,
          "duration": 0.23645833333333144
        },
        {
          "name": "C#5",
          "midi": 73,
          "time": 67,
          "velocity": 0.6299212598425197,
          "duration": 0.23645833333333144
        },
        {
          "name": "A#4",
          "midi": 70,
          "time": 67.25,
          "velocity": 0.6299212598425197,
          "duration": 0.23645833333333144
        },
        {
          "name": "C#5",
          "midi": 73,
          "time": 67.5,
          "velocity": 0.6299212598425197,
          "duration": 0.23645833333333144
        },
        {
          "name": "D#5",
          "midi": 75,
          "time": 67.75,
          "velocity": 0.6299212598425197,
          "duration": 0.4739583333333286
        },
        {
          "name": "C5",
          "midi": 72,
          "time": 68.25,
          "velocity": 0.6299212598425197,
          "duration": 0.23645833333333144
        },
        {
          "name": "A#4",
          "midi": 70,
          "time": 68.5,
          "velocity": 0.6299212598425197,
          "duration": 0.23645833333333144
        },
        {
          "name": "C5",
          "midi": 72,
          "time": 68.75,
          "velocity": 0.6299212598425197,
          "duration": 0.11770833333333997
        },
        {
          "name": "A#4",
          "midi": 70,
          "time": 68.875,
          "velocity": 0.6299212598425197,
          "duration": 0.11770833333333997
        },
        {
          "name": "G#4",
          "midi": 68,
          "time": 69,
          "velocity": 0.6299212598425197,
          "duration": 0.4739583333333286
        },
        {
          "name": "A#4",
          "midi": 70,
          "time": 70.25,
          "velocity": 0.6299212598425197,
          "duration": 0.23645833333333144
        },
        {
          "name": "A#4",
          "midi": 70,
          "time": 70.5,
          "velocity": 0.6299212598425197,
          "duration": 0.23645833333333144
        },
        {
          "name": "C5",
          "midi": 72,
          "time": 70.75,
          "velocity": 0.6299212598425197,
          "duration": 0.23645833333333144
        },
        {
          "name": "C#5",
          "midi": 73,
          "time": 71,
          "velocity": 0.6299212598425197,
          "duration": 0.23645833333333144
        },
        {
          "name": "A#4",
          "midi": 70,
          "time": 71.25,
          "velocity": 0.6299212598425197,
          "duration": 0.23645833333333144
        },
        {
          "name": "G#4",
          "midi": 68,
          "time": 71.5,
          "velocity": 0.6299212598425197,
          "duration": 0.4739583333333286
        },
        {
          "name": "D#5",
          "midi": 75,
          "time": 72.25,
          "velocity": 0.6299212598425197,
          "duration": 0.23645833333333144
        },
        {
          "name": "F5",
          "midi": 77,
          "time": 72.5,
          "velocity": 0.6299212598425197,
          "duration": 0.23645833333333144
        },
        {
          "name": "F5",
          "midi": 77,
          "time": 72.75,
          "velocity": 0.6299212598425197,
          "duration": 0.4739583333333286
        },
        {
          "name": "D#5",
          "midi": 75,
          "time": 73.25,
          "velocity": 0.6299212598425197,
          "duration": 0.4739583333333286
        },
        {
          "name": "C#5",
          "midi": 73,
          "time": 74,
          "velocity": 0.6299212598425197,
          "duration": 0.9489583333333371
        },
        {
          "name": "D#5",
          "midi": 75,
          "time": 75.25,
          "velocity": 0.6299212598425197,
          "duration": 0.23645833333333144
        },
        {
          "name": "F5",
          "midi": 77,
          "time": 75.5,
          "velocity": 0.6299212598425197,
          "duration": 0.23645833333333144
        },
        {
          "name": "D#5",
          "midi": 75,
          "time": 75.75,
          "velocity": 0.6299212598425197,
          "duration": 0.4739583333333286
        },
        {
          "name": "D#5",
          "midi": 75,
          "time": 76.25,
          "velocity": 0.6299212598425197,
          "duration": 0.23645833333333144
        },
        {
          "name": "D#5",
          "midi": 75,
          "time": 76.5,
          "velocity": 0.6299212598425197,
          "duration": 0.23645833333333144
        },
        {
          "name": "F5",
          "midi": 77,
          "time": 76.75,
          "velocity": 0.6299212598425197,
          "duration": 0.23645833333333144
        },
        {
          "name": "D#5",
          "midi": 75,
          "time": 77,
          "velocity": 0.6299212598425197,
          "duration": 0.4739583333333286
        },
        {
          "name": "G#4",
          "midi": 68,
          "time": 77.5,
          "velocity": 0.6299212598425197,
          "duration": 0.4739583333333286
        },
        {
          "name": "G#4",
          "midi": 68,
          "time": 78.75,
          "velocity": 0.6299212598425197,
          "duration": 0.23645833333333144
        },
        {
          "name": "A#4",
          "midi": 70,
          "time": 79,
          "velocity": 0.6299212598425197,
          "duration": 0.23645833333333144
        },
        {
          "name": "C5",
          "midi": 72,
          "time": 79.25,
          "velocity": 0.6299212598425197,
          "duration": 0.23645833333333144
        },
        {
          "name": "C#5",
          "midi": 73,
          "time": 79.5,
          "velocity": 0.6299212598425197,
          "duration": 0.23645833333333144
        },
        {
          "name": "A#4",
          "midi": 70,
          "time": 79.75,
          "velocity": 0.6299212598425197,
          "duration": 0.4739583333333286
        },
        {
          "name": "D#5",
          "midi": 75,
          "time": 80.25,
          "velocity": 0.6614173228346457,
          "duration": 0.23645833333333144
        },
        {
          "name": "F5",
          "midi": 77,
          "time": 80.5,
          "velocity": 0.6929133858267716,
          "duration": 0.23645833333333144
        },
        {
          "name": "D#5",
          "midi": 75,
          "time": 80.75,
          "velocity": 0.7244094488188977,
          "duration": 0.4739583333333286
        },
        {
          "name": "G#4",
          "midi": 68,
          "time": 81.5,
          "velocity": 0.8188976377952756,
          "duration": 0.11770833333333997
        },
        {
          "name": "A#4",
          "midi": 70,
          "time": 81.625,
          "velocity": 0.8346456692913385,
          "duration": 0.11770833333333997
        },
        {
          "name": "C#5",
          "midi": 73,
          "time": 81.75,
          "velocity": 0.8503937007874016,
          "duration": 0.11770833333333997
        },
        {
          "name": "A#4",
          "midi": 70,
          "time": 81.875,
          "velocity": 0.8661417322834646,
          "duration": 0.11770833333333997
        },
        {
          "name": "F4",
          "midi": 65,
          "time": 82,
          "velocity": 0.8818897637795275,
          "duration": 0.3552083333333371
        },
        {
          "name": "A#4",
          "midi": 70,
          "time": 82,
          "velocity": 0.8818897637795275,
          "duration": 0.3552083333333371
        },
        {
          "name": "C#5",
          "midi": 73,
          "time": 82,
          "velocity": 0.8818897637795275,
          "duration": 0.3552083333333371
        },
        {
          "name": "F5",
          "midi": 77,
          "time": 82,
          "velocity": 0.8818897637795275,
          "duration": 0.3552083333333371
        },
        {
          "name": "F4",
          "midi": 65,
          "time": 82.375,
          "velocity": 0.8818897637795275,
          "duration": 0.3552083333333371
        },
        {
          "name": "A#4",
          "midi": 70,
          "time": 82.375,
          "velocity": 0.8818897637795275,
          "duration": 0.3552083333333371
        },
        {
          "name": "C#5",
          "midi": 73,
          "time": 82.375,
          "velocity": 0.8818897637795275,
          "duration": 0.3552083333333371
        },
        {
          "name": "F5",
          "midi": 77,
          "time": 82.375,
          "velocity": 0.8818897637795275,
          "duration": 0.3552083333333371
        },
        {
          "name": "D#4",
          "midi": 63,
          "time": 82.75,
          "velocity": 0.8818897637795275,
          "duration": 0.4739583333333286
        },
        {
          "name": "G#4",
          "midi": 68,
          "time": 82.75,
          "velocity": 0.8818897637795275,
          "duration": 0.4739583333333286
        },
        {
          "name": "C5",
          "midi": 72,
          "time": 82.75,
          "velocity": 0.8818897637795275,
          "duration": 0.4739583333333286
        },
        {
          "name": "D#5",
          "midi": 75,
          "time": 82.75,
          "velocity": 0.8818897637795275,
          "duration": 0.4739583333333286
        },
        {
          "name": "G#4",
          "midi": 68,
          "time": 83.5,
          "velocity": 0.8818897637795275,
          "duration": 0.11770833333333997
        },
        {
          "name": "A#4",
          "midi": 70,
          "time": 83.625,
          "velocity": 0.8818897637795275,
          "duration": 0.11770833333333997
        },
        {
          "name": "C#5",
          "midi": 73,
          "time": 83.75,
          "velocity": 0.8818897637795275,
          "duration": 0.11770833333333997
        },
        {
          "name": "A#4",
          "midi": 70,
          "time": 83.875,
          "velocity": 0.8818897637795275,
          "duration": 0.11770833333333997
        },
        {
          "name": "D#4",
          "midi": 63,
          "time": 84,
          "velocity": 0.8818897637795275,
          "duration": 0.3552083333333371
        },
        {
          "name": "G#4",
          "midi": 68,
          "time": 84,
          "velocity": 0.8818897637795275,
          "duration": 0.3552083333333371
        },
        {
          "name": "C5",
          "midi": 72,
          "time": 84,
          "velocity": 0.8818897637795275,
          "duration": 0.3552083333333371
        },
        {
          "name": "D#5",
          "midi": 75,
          "time": 84,
          "velocity": 0.8818897637795275,
          "duration": 0.3552083333333371
        },
        {
          "name": "D#4",
          "midi": 63,
          "time": 84.375,
          "velocity": 0.8818897637795275,
          "duration": 0.3552083333333371
        },
        {
          "name": "G#4",
          "midi": 68,
          "time": 84.375,
          "velocity": 0.8818897637795275,
          "duration": 0.3552083333333371
        },
        {
          "name": "C5",
          "midi": 72,
          "time": 84.375,
          "velocity": 0.8818897637795275,
          "duration": 0.3552083333333371
        },
        {
          "name": "D#5",
          "midi": 75,
          "time": 84.375,
          "velocity": 0.8818897637795275,
          "duration": 0.3552083333333371
        },
        {
          "name": "C#4",
          "midi": 61,
          "time": 84.75,
          "velocity": 0.8818897637795275,
          "duration": 0.3552083333333371
        },
        {
          "name": "F4",
          "midi": 65,
          "time": 84.75,
          "velocity": 0.8818897637795275,
          "duration": 0.3552083333333371
        },
        {
          "name": "A#4",
          "midi": 70,
          "time": 84.75,
          "velocity": 0.8818897637795275,
          "duration": 0.3552083333333371
        },
        {
          "name": "C#5",
          "midi": 73,
          "time": 84.75,
          "velocity": 0.8818897637795275,
          "duration": 0.3552083333333371
        },
        {
          "name": "C5",
          "midi": 72,
          "time": 85.125,
          "velocity": 0.8818897637795275,
          "duration": 0.11770833333333997
        },
        {
          "name": "A#4",
          "midi": 70,
          "time": 85.25,
          "velocity": 0.8818897637795275,
          "duration": 0.23645833333333144
        },
        {
          "name": "G#4",
          "midi": 68,
          "time": 85.5,
          "velocity": 0.8818897637795275,
          "duration": 0.11770833333333997
        },
        {
          "name": "A#4",
          "midi": 70,
          "time": 85.625,
          "velocity": 0.8818897637795275,
          "duration": 0.11770833333333997
        },
        {
          "name": "C#5",
          "midi": 73,
          "time": 85.75,
          "velocity": 0.8818897637795275,
          "duration": 0.11770833333333997
        },
        {
          "name": "A#4",
          "midi": 70,
          "time": 85.875,
          "velocity": 0.8818897637795275,
          "duration": 0.11770833333333997
        },
        {
          "name": "C#4",
          "midi": 61,
          "time": 86,
          "velocity": 0.8818897637795275,
          "duration": 0.4739583333333286
        },
        {
          "name": "F4",
          "midi": 65,
          "time": 86,
          "velocity": 0.8818897637795275,
          "duration": 0.4739583333333286
        },
        {
          "name": "A#4",
          "midi": 70,
          "time": 86,
          "velocity": 0.8818897637795275,
          "duration": 0.4739583333333286
        },
        {
          "name": "C#5",
          "midi": 73,
          "time": 86,
          "velocity": 0.8818897637795275,
          "duration": 0.4739583333333286
        },
        {
          "name": "F4",
          "midi": 65,
          "time": 86.5,
          "velocity": 0.8818897637795275,
          "duration": 0.23645833333333144
        },
        {
          "name": "A#4",
          "midi": 70,
          "time": 86.5,
          "velocity": 0.8818897637795275,
          "duration": 0.23645833333333144
        },
        {
          "name": "D#5",
          "midi": 75,
          "time": 86.5,
          "velocity": 0.8818897637795275,
          "duration": 0.23645833333333144
        },
        {
          "name": "A#4",
          "midi": 70,
          "time": 86.75,
          "velocity": 0.8818897637795275,
          "duration": 0.05833333333333712
        },
        {
          "name": "C4",
          "midi": 60,
          "time": 86.8125,
          "velocity": 0.8818897637795275,
          "duration": 0.2958333333333343
        },
        {
          "name": "D#4",
          "midi": 63,
          "time": 86.8125,
          "velocity": 0.8818897637795275,
          "duration": 0.2958333333333343
        },
        {
          "name": "G#4",
          "midi": 68,
          "time": 86.8125,
          "velocity": 0.8818897637795275,
          "duration": 0.2958333333333343
        },
        {
          "name": "C5",
          "midi": 72,
          "time": 86.8125,
          "velocity": 0.8818897637795275,
          "duration": 0.2958333333333343
        },
        {
          "name": "A#4",
          "midi": 70,
          "time": 87.125,
          "velocity": 0.8818897637795275,
          "duration": 0.11770833333333997
        },
        {
          "name": "G#4",
          "midi": 68,
          "time": 87.25,
          "velocity": 0.8818897637795275,
          "duration": 0.4739583333333286
        },
        {
          "name": "G#4",
          "midi": 68,
          "time": 87.75,
          "velocity": 0.8818897637795275,
          "duration": 0.23645833333333144
        },
        {
          "name": "D#4",
          "midi": 63,
          "time": 88,
          "velocity": 0.8818897637795275,
          "duration": 0.4739583333333286
        },
        {
          "name": "G#4",
          "midi": 68,
          "time": 88,
          "velocity": 0.8818897637795275,
          "duration": 0.4739583333333286
        },
        {
          "name": "C5",
          "midi": 72,
          "time": 88,
          "velocity": 0.8818897637795275,
          "duration": 0.4739583333333286
        },
        {
          "name": "D#5",
          "midi": 75,
          "time": 88,
          "velocity": 0.8818897637795275,
          "duration": 0.4739583333333286
        },
        {
          "name": "C#4",
          "midi": 61,
          "time": 88.5,
          "velocity": 0.8818897637795275,
          "duration": 0.4739583333333286
        },
        {
          "name": "F4",
          "midi": 65,
          "time": 88.5,
          "velocity": 0.8818897637795275,
          "duration": 0.4739583333333286
        },
        {
          "name": "A#4",
          "midi": 70,
          "time": 88.5,
          "velocity": 0.8818897637795275,
          "duration": 0.4739583333333286
        },
        {
          "name": "C#5",
          "midi": 73,
          "time": 88.5,
          "velocity": 0.8818897637795275,
          "duration": 0.4739583333333286
        },
        {
          "name": "G#4",
          "midi": 68,
          "time": 89.5,
          "velocity": 0.8818897637795275,
          "duration": 0.11770833333333997
        },
        {
          "name": "A#4",
          "midi": 70,
          "time": 89.625,
          "velocity": 0.8818897637795275,
          "duration": 0.11770833333333997
        },
        {
          "name": "C#5",
          "midi": 73,
          "time": 89.75,
          "velocity": 0.8818897637795275,
          "duration": 0.11770833333333997
        },
        {
          "name": "A#4",
          "midi": 70,
          "time": 89.875,
          "velocity": 0.8818897637795275,
          "duration": 0.11770833333333997
        },
        {
          "name": "F4",
          "midi": 65,
          "time": 90,
          "velocity": 0.8818897637795275,
          "duration": 0.3552083333333371
        },
        {
          "name": "A#4",
          "midi": 70,
          "time": 90,
          "velocity": 0.8818897637795275,
          "duration": 0.3552083333333371
        },
        {
          "name": "C#5",
          "midi": 73,
          "time": 90,
          "velocity": 0.8818897637795275,
          "duration": 0.3552083333333371
        },
        {
          "name": "F5",
          "midi": 77,
          "time": 90,
          "velocity": 0.8818897637795275,
          "duration": 0.3552083333333371
        },
        {
          "name": "F4",
          "midi": 65,
          "time": 90.375,
          "velocity": 0.8818897637795275,
          "duration": 0.3552083333333371
        },
        {
          "name": "A#4",
          "midi": 70,
          "time": 90.375,
          "velocity": 0.8818897637795275,
          "duration": 0.3552083333333371
        },
        {
          "name": "C#5",
          "midi": 73,
          "time": 90.375,
          "velocity": 0.8818897637795275,
          "duration": 0.3552083333333371
        },
        {
          "name": "F5",
          "midi": 77,
          "time": 90.375,
          "velocity": 0.8818897637795275,
          "duration": 0.3552083333333371
        },
        {
          "name": "D#4",
          "midi": 63,
          "time": 90.75,
          "velocity": 0.8818897637795275,
          "duration": 0.4739583333333286
        },
        {
          "name": "G#4",
          "midi": 68,
          "time": 90.75,
          "velocity": 0.8818897637795275,
          "duration": 0.4739583333333286
        },
        {
          "name": "C5",
          "midi": 72,
          "time": 90.75,
          "velocity": 0.8818897637795275,
          "duration": 0.4739583333333286
        },
        {
          "name": "D#5",
          "midi": 75,
          "time": 90.75,
          "velocity": 0.8818897637795275,
          "duration": 0.4739583333333286
        },
        {
          "name": "G#4",
          "midi": 68,
          "time": 91.5,
          "velocity": 0.8818897637795275,
          "duration": 0.11770833333333997
        },
        {
          "name": "A#4",
          "midi": 70,
          "time": 91.625,
          "velocity": 0.8818897637795275,
          "duration": 0.11770833333333997
        },
        {
          "name": "C#5",
          "midi": 73,
          "time": 91.75,
          "velocity": 0.8818897637795275,
          "duration": 0.11770833333333997
        },
        {
          "name": "A#4",
          "midi": 70,
          "time": 91.875,
          "velocity": 0.8818897637795275,
          "duration": 0.11770833333333997
        },
        {
          "name": "G#4",
          "midi": 68,
          "time": 92,
          "velocity": 0.8818897637795275,
          "duration": 0.4739583333333286
        },
        {
          "name": "C5",
          "midi": 72,
          "time": 92,
          "velocity": 0.8818897637795275,
          "duration": 0.4739583333333286
        },
        {
          "name": "F5",
          "midi": 77,
          "time": 92,
          "velocity": 0.8818897637795275,
          "duration": 0.4739583333333286
        },
        {
          "name": "G#5",
          "midi": 80,
          "time": 92,
          "velocity": 0.8818897637795275,
          "duration": 0.4739583333333286
        },
        {
          "name": "C5",
          "midi": 72,
          "time": 92.5,
          "velocity": 0.8818897637795275,
          "duration": 0.23645833333333144
        },
        {
          "name": "C#4",
          "midi": 61,
          "time": 92.75,
          "velocity": 0.8818897637795275,
          "duration": 0.3552083333333371
        },
        {
          "name": "F4",
          "midi": 65,
          "time": 92.75,
          "velocity": 0.8818897637795275,
          "duration": 0.3552083333333371
        },
        {
          "name": "A#4",
          "midi": 70,
          "time": 92.75,
          "velocity": 0.8818897637795275,
          "duration": 0.3552083333333371
        },
        {
          "name": "C#5",
          "midi": 73,
          "time": 92.75,
          "velocity": 0.8818897637795275,
          "duration": 0.3552083333333371
        },
        {
          "name": "C5",
          "midi": 72,
          "time": 93.125,
          "velocity": 0.8818897637795275,
          "duration": 0.11770833333333997
        },
        {
          "name": "A#4",
          "midi": 70,
          "time": 93.25,
          "velocity": 0.8818897637795275,
          "duration": 0.23645833333333144
        },
        {
          "name": "G#4",
          "midi": 68,
          "time": 93.5,
          "velocity": 0.8818897637795275,
          "duration": 0.11770833333333997
        },
        {
          "name": "A#4",
          "midi": 70,
          "time": 93.625,
          "velocity": 0.8818897637795275,
          "duration": 0.11770833333333997
        },
        {
          "name": "C#5",
          "midi": 73,
          "time": 93.75,
          "velocity": 0.8818897637795275,
          "duration": 0.11770833333333997
        },
        {
          "name": "A#4",
          "midi": 70,
          "time": 93.875,
          "velocity": 0.8818897637795275,
          "duration": 0.11770833333333997
        },
        {
          "name": "C#4",
          "midi": 61,
          "time": 94,
          "velocity": 0.8818897637795275,
          "duration": 0.4739583333333286
        },
        {
          "name": "F4",
          "midi": 65,
          "time": 94,
          "velocity": 0.8818897637795275,
          "duration": 0.4739583333333286
        },
        {
          "name": "A#4",
          "midi": 70,
          "time": 94,
          "velocity": 0.8818897637795275,
          "duration": 0.4739583333333286
        },
        {
          "name": "C#5",
          "midi": 73,
          "time": 94,
          "velocity": 0.8818897637795275,
          "duration": 0.4739583333333286
        },
        {
          "name": "F4",
          "midi": 65,
          "time": 94.5,
          "velocity": 0.8818897637795275,
          "duration": 0.23645833333333144
        },
        {
          "name": "A#4",
          "midi": 70,
          "time": 94.5,
          "velocity": 0.8818897637795275,
          "duration": 0.23645833333333144
        },
        {
          "name": "D#5",
          "midi": 75,
          "time": 94.5,
          "velocity": 0.8818897637795275,
          "duration": 0.23645833333333144
        },
        {
          "name": "A#4",
          "midi": 70,
          "time": 94.75,
          "velocity": 0.8818897637795275,
          "duration": 0.05833333333333712
        },
        {
          "name": "C4",
          "midi": 60,
          "time": 94.8125,
          "velocity": 0.8818897637795275,
          "duration": 0.2958333333333343
        },
        {
          "name": "D#4",
          "midi": 63,
          "time": 94.8125,
          "velocity": 0.8818897637795275,
          "duration": 0.2958333333333343
        },
        {
          "name": "G#4",
          "midi": 68,
          "time": 94.8125,
          "velocity": 0.8818897637795275,
          "duration": 0.2958333333333343
        },
        {
          "name": "C5",
          "midi": 72,
          "time": 94.8125,
          "velocity": 0.8818897637795275,
          "duration": 0.2958333333333343
        },
        {
          "name": "A#4",
          "midi": 70,
          "time": 95.125,
          "velocity": 0.8818897637795275,
          "duration": 0.11770833333333997
        },
        {
          "name": "G#4",
          "midi": 68,
          "time": 95.25,
          "velocity": 0.8818897637795275,
          "duration": 0.4739583333333286
        },
        {
          "name": "G#4",
          "midi": 68,
          "time": 95.75,
          "velocity": 0.8818897637795275,
          "duration": 0.23645833333333144
        },
        {
          "name": "D#4",
          "midi": 63,
          "time": 96,
          "velocity": 0.8818897637795275,
          "duration": 0.4739583333333286
        },
        {
          "name": "G#4",
          "midi": 68,
          "time": 96,
          "velocity": 0.8818897637795275,
          "duration": 0.4739583333333286
        },
        {
          "name": "C5",
          "midi": 72,
          "time": 96,
          "velocity": 0.8818897637795275,
          "duration": 0.4739583333333286
        },
        {
          "name": "D#5",
          "midi": 75,
          "time": 96,
          "velocity": 0.8818897637795275,
          "duration": 0.4739583333333286
        },
        {
          "name": "C#4",
          "midi": 61,
          "time": 96.5,
          "velocity": 0.8818897637795275,
          "duration": 0.4739583333333286
        },
        {
          "name": "F4",
          "midi": 65,
          "time": 96.5,
          "velocity": 0.8818897637795275,
          "duration": 0.4739583333333286
        },
        {
          "name": "A#4",
          "midi": 70,
          "time": 96.5,
          "velocity": 0.8818897637795275,
          "duration": 0.4739583333333286
        },
        {
          "name": "C#5",
          "midi": 73,
          "time": 96.5,
          "velocity": 0.8818897637795275,
          "duration": 0.4739583333333286
        },
        {
          "name": "G#4",
          "midi": 68,
          "time": 97.5,
          "velocity": 0.8818897637795275,
          "duration": 0.11770833333333997
        },
        {
          "name": "A#4",
          "midi": 70,
          "time": 97.625,
          "velocity": 0.8818897637795275,
          "duration": 0.11770833333333997
        },
        {
          "name": "C#5",
          "midi": 73,
          "time": 97.75,
          "velocity": 0.8818897637795275,
          "duration": 0.11770833333333997
        },
        {
          "name": "A#4",
          "midi": 70,
          "time": 97.875,
          "velocity": 0.8818897637795275,
          "duration": 0.11770833333333997
        },
        {
          "name": "F4",
          "midi": 65,
          "time": 98,
          "velocity": 0.8818897637795275,
          "duration": 0.3552083333333371
        },
        {
          "name": "A#4",
          "midi": 70,
          "time": 98,
          "velocity": 0.8818897637795275,
          "duration": 0.3552083333333371
        },
        {
          "name": "C#5",
          "midi": 73,
          "time": 98,
          "velocity": 0.8818897637795275,
          "duration": 0.3552083333333371
        },
        {
          "name": "F5",
          "midi": 77,
          "time": 98,
          "velocity": 0.8818897637795275,
          "duration": 0.3552083333333371
        },
        {
          "name": "F4",
          "midi": 65,
          "time": 98.375,
          "velocity": 0.8818897637795275,
          "duration": 0.3552083333333371
        },
        {
          "name": "A#4",
          "midi": 70,
          "time": 98.375,
          "velocity": 0.8818897637795275,
          "duration": 0.3552083333333371
        },
        {
          "name": "C#5",
          "midi": 73,
          "time": 98.375,
          "velocity": 0.8818897637795275,
          "duration": 0.3552083333333371
        },
        {
          "name": "F5",
          "midi": 77,
          "time": 98.375,
          "velocity": 0.8818897637795275,
          "duration": 0.3552083333333371
        },
        {
          "name": "D#4",
          "midi": 63,
          "time": 98.75,
          "velocity": 0.8818897637795275,
          "duration": 0.4739583333333286
        },
        {
          "name": "G#4",
          "midi": 68,
          "time": 98.75,
          "velocity": 0.8818897637795275,
          "duration": 0.4739583333333286
        },
        {
          "name": "C5",
          "midi": 72,
          "time": 98.75,
          "velocity": 0.8818897637795275,
          "duration": 0.4739583333333286
        },
        {
          "name": "D#5",
          "midi": 75,
          "time": 98.75,
          "velocity": 0.8818897637795275,
          "duration": 0.4739583333333286
        },
        {
          "name": "G#4",
          "midi": 68,
          "time": 99.5,
          "velocity": 0.8818897637795275,
          "duration": 0.11770833333333997
        },
        {
          "name": "A#4",
          "midi": 70,
          "time": 99.625,
          "velocity": 0.8818897637795275,
          "duration": 0.11770833333333997
        },
        {
          "name": "C#5",
          "midi": 73,
          "time": 99.75,
          "velocity": 0.8818897637795275,
          "duration": 0.11770833333333997
        },
        {
          "name": "A#4",
          "midi": 70,
          "time": 99.875,
          "velocity": 0.8818897637795275,
          "duration": 0.11770833333333997
        },
        {
          "name": "D#4",
          "midi": 63,
          "time": 100,
          "velocity": 0.8818897637795275,
          "duration": 0.3552083333333371
        },
        {
          "name": "G#4",
          "midi": 68,
          "time": 100,
          "velocity": 0.8818897637795275,
          "duration": 0.3552083333333371
        },
        {
          "name": "C5",
          "midi": 72,
          "time": 100,
          "velocity": 0.8818897637795275,
          "duration": 0.3552083333333371
        },
        {
          "name": "D#5",
          "midi": 75,
          "time": 100,
          "velocity": 0.8818897637795275,
          "duration": 0.3552083333333371
        },
        {
          "name": "D#4",
          "midi": 63,
          "time": 100.375,
          "velocity": 0.8818897637795275,
          "duration": 0.3552083333333371
        },
        {
          "name": "G#4",
          "midi": 68,
          "time": 100.375,
          "velocity": 0.8818897637795275,
          "duration": 0.3552083333333371
        },
        {
          "name": "C5",
          "midi": 72,
          "time": 100.375,
          "velocity": 0.8818897637795275,
          "duration": 0.3552083333333371
        },
        {
          "name": "D#5",
          "midi": 75,
          "time": 100.375,
          "velocity": 0.8818897637795275,
          "duration": 0.3552083333333371
        },
        {
          "name": "C#4",
          "midi": 61,
          "time": 100.75,
          "velocity": 0.8818897637795275,
          "duration": 0.3552083333333371
        },
        {
          "name": "F4",
          "midi": 65,
          "time": 100.75,
          "velocity": 0.8818897637795275,
          "duration": 0.3552083333333371
        },
        {
          "name": "A#4",
          "midi": 70,
          "time": 100.75,
          "velocity": 0.8818897637795275,
          "duration": 0.3552083333333371
        },
        {
          "name": "C#5",
          "midi": 73,
          "time": 100.75,
          "velocity": 0.8818897637795275,
          "duration": 0.3552083333333371
        },
        {
          "name": "C5",
          "midi": 72,
          "time": 101.125,
          "velocity": 0.8818897637795275,
          "duration": 0.11770833333333997
        },
        {
          "name": "A#4",
          "midi": 70,
          "time": 101.25,
          "velocity": 0.8818897637795275,
          "duration": 0.23645833333333144
        },
        {
          "name": "G#4",
          "midi": 68,
          "time": 101.5,
          "velocity": 0.8818897637795275,
          "duration": 0.11770833333333997
        },
        {
          "name": "A#4",
          "midi": 70,
          "time": 101.625,
          "velocity": 0.8818897637795275,
          "duration": 0.11770833333333997
        },
        {
          "name": "C#5",
          "midi": 73,
          "time": 101.75,
          "velocity": 0.8818897637795275,
          "duration": 0.11770833333333997
        },
        {
          "name": "A#4",
          "midi": 70,
          "time": 101.875,
          "velocity": 0.8818897637795275,
          "duration": 0.11770833333333997
        },
        {
          "name": "C#4",
          "midi": 61,
          "time": 102,
          "velocity": 0.8818897637795275,
          "duration": 0.4739583333333286
        },
        {
          "name": "F4",
          "midi": 65,
          "time": 102,
          "velocity": 0.8818897637795275,
          "duration": 0.4739583333333286
        },
        {
          "name": "A#4",
          "midi": 70,
          "time": 102,
          "velocity": 0.8818897637795275,
          "duration": 0.4739583333333286
        },
        {
          "name": "C#5",
          "midi": 73,
          "time": 102,
          "velocity": 0.8818897637795275,
          "duration": 0.4739583333333286
        },
        {
          "name": "F4",
          "midi": 65,
          "time": 102.5,
          "velocity": 0.8818897637795275,
          "duration": 0.23645833333333144
        },
        {
          "name": "A#4",
          "midi": 70,
          "time": 102.5,
          "velocity": 0.8818897637795275,
          "duration": 0.23645833333333144
        },
        {
          "name": "D#5",
          "midi": 75,
          "time": 102.5,
          "velocity": 0.8818897637795275,
          "duration": 0.23645833333333144
        },
        {
          "name": "A#4",
          "midi": 70,
          "time": 102.75,
          "velocity": 0.8818897637795275,
          "duration": 0.05833333333333712
        },
        {
          "name": "C4",
          "midi": 60,
          "time": 102.8125,
          "velocity": 0.8818897637795275,
          "duration": 0.2958333333333343
        },
        {
          "name": "D#4",
          "midi": 63,
          "time": 102.8125,
          "velocity": 0.8818897637795275,
          "duration": 0.2958333333333343
        },
        {
          "name": "G#4",
          "midi": 68,
          "time": 102.8125,
          "velocity": 0.8818897637795275,
          "duration": 0.2958333333333343
        },
        {
          "name": "C5",
          "midi": 72,
          "time": 102.8125,
          "velocity": 0.8818897637795275,
          "duration": 0.2958333333333343
        },
        {
          "name": "A#4",
          "midi": 70,
          "time": 103.125,
          "velocity": 0.8818897637795275,
          "duration": 0.11770833333333997
        },
        {
          "name": "G#4",
          "midi": 68,
          "time": 103.25,
          "velocity": 0.8818897637795275,
          "duration": 0.4739583333333286
        },
        {
          "name": "G#4",
          "midi": 68,
          "time": 103.75,
          "velocity": 0.8818897637795275,
          "duration": 0.23645833333333144
        },
        {
          "name": "D#4",
          "midi": 63,
          "time": 104,
          "velocity": 0.8818897637795275,
          "duration": 0.4739583333333286
        },
        {
          "name": "G#4",
          "midi": 68,
          "time": 104,
          "velocity": 0.8818897637795275,
          "duration": 0.4739583333333286
        },
        {
          "name": "C5",
          "midi": 72,
          "time": 104,
          "velocity": 0.8818897637795275,
          "duration": 0.4739583333333286
        },
        {
          "name": "D#5",
          "midi": 75,
          "time": 104,
          "velocity": 0.8818897637795275,
          "duration": 0.4739583333333286
        },
        {
          "name": "C#4",
          "midi": 61,
          "time": 104.5,
          "velocity": 0.8818897637795275,
          "duration": 0.4739583333333286
        },
        {
          "name": "F4",
          "midi": 65,
          "time": 104.5,
          "velocity": 0.8818897637795275,
          "duration": 0.4739583333333286
        },
        {
          "name": "A#4",
          "midi": 70,
          "time": 104.5,
          "velocity": 0.8818897637795275,
          "duration": 0.4739583333333286
        },
        {
          "name": "C#5",
          "midi": 73,
          "time": 104.5,
          "velocity": 0.8818897637795275,
          "duration": 0.4739583333333286
        },
        {
          "name": "G#4",
          "midi": 68,
          "time": 105.5,
          "velocity": 0.8818897637795275,
          "duration": 0.11770833333333997
        },
        {
          "name": "A#4",
          "midi": 70,
          "time": 105.625,
          "velocity": 0.8818897637795275,
          "duration": 0.11770833333333997
        },
        {
          "name": "C#5",
          "midi": 73,
          "time": 105.75,
          "velocity": 0.8818897637795275,
          "duration": 0.11770833333333997
        },
        {
          "name": "A#4",
          "midi": 70,
          "time": 105.875,
          "velocity": 0.8818897637795275,
          "duration": 0.11770833333333997
        },
        {
          "name": "F4",
          "midi": 65,
          "time": 106,
          "velocity": 0.8818897637795275,
          "duration": 0.3552083333333371
        },
        {
          "name": "A#4",
          "midi": 70,
          "time": 106,
          "velocity": 0.8818897637795275,
          "duration": 0.3552083333333371
        },
        {
          "name": "C#5",
          "midi": 73,
          "time": 106,
          "velocity": 0.8818897637795275,
          "duration": 0.3552083333333371
        },
        {
          "name": "F5",
          "midi": 77,
          "time": 106,
          "velocity": 0.8818897637795275,
          "duration": 0.3552083333333371
        },
        {
          "name": "F4",
          "midi": 65,
          "time": 106.375,
          "velocity": 0.8818897637795275,
          "duration": 0.3552083333333371
        },
        {
          "name": "A#4",
          "midi": 70,
          "time": 106.375,
          "velocity": 0.8818897637795275,
          "duration": 0.3552083333333371
        },
        {
          "name": "C#5",
          "midi": 73,
          "time": 106.375,
          "velocity": 0.8818897637795275,
          "duration": 0.3552083333333371
        },
        {
          "name": "F5",
          "midi": 77,
          "time": 106.375,
          "velocity": 0.8818897637795275,
          "duration": 0.3552083333333371
        },
        {
          "name": "D#4",
          "midi": 63,
          "time": 106.75,
          "velocity": 0.8818897637795275,
          "duration": 0.4739583333333286
        },
        {
          "name": "G#4",
          "midi": 68,
          "time": 106.75,
          "velocity": 0.8818897637795275,
          "duration": 0.4739583333333286
        },
        {
          "name": "C5",
          "midi": 72,
          "time": 106.75,
          "velocity": 0.8818897637795275,
          "duration": 0.4739583333333286
        },
        {
          "name": "D#5",
          "midi": 75,
          "time": 106.75,
          "velocity": 0.8818897637795275,
          "duration": 0.4739583333333286
        },
        {
          "name": "G#4",
          "midi": 68,
          "time": 107.5,
          "velocity": 0.8818897637795275,
          "duration": 0.11770833333333997
        },
        {
          "name": "A#4",
          "midi": 70,
          "time": 107.625,
          "velocity": 0.8818897637795275,
          "duration": 0.11770833333333997
        },
        {
          "name": "C#5",
          "midi": 73,
          "time": 107.75,
          "velocity": 0.8818897637795275,
          "duration": 0.11770833333333997
        },
        {
          "name": "A#4",
          "midi": 70,
          "time": 107.875,
          "velocity": 0.8818897637795275,
          "duration": 0.11770833333333997
        },
        {
          "name": "G#4",
          "midi": 68,
          "time": 108,
          "velocity": 0.8818897637795275,
          "duration": 0.4739583333333286
        },
        {
          "name": "C5",
          "midi": 72,
          "time": 108,
          "velocity": 0.8818897637795275,
          "duration": 0.4739583333333286
        },
        {
          "name": "F5",
          "midi": 77,
          "time": 108,
          "velocity": 0.8818897637795275,
          "duration": 0.4739583333333286
        },
        {
          "name": "G#5",
          "midi": 80,
          "time": 108,
          "velocity": 0.8818897637795275,
          "duration": 0.4739583333333286
        },
        {
          "name": "C5",
          "midi": 72,
          "time": 108.5,
          "velocity": 0.8818897637795275,
          "duration": 0.23645833333333144
        },
        {
          "name": "C#4",
          "midi": 61,
          "time": 108.75,
          "velocity": 0.8818897637795275,
          "duration": 0.3552083333333371
        },
        {
          "name": "F4",
          "midi": 65,
          "time": 108.75,
          "velocity": 0.8818897637795275,
          "duration": 0.3552083333333371
        },
        {
          "name": "A#4",
          "midi": 70,
          "time": 108.75,
          "velocity": 0.8818897637795275,
          "duration": 0.3552083333333371
        },
        {
          "name": "C#5",
          "midi": 73,
          "time": 108.75,
          "velocity": 0.8818897637795275,
          "duration": 0.3552083333333371
        },
        {
          "name": "C5",
          "midi": 72,
          "time": 109.125,
          "velocity": 0.8818897637795275,
          "duration": 0.11770833333333997
        },
        {
          "name": "A#4",
          "midi": 70,
          "time": 109.25,
          "velocity": 0.8818897637795275,
          "duration": 0.23645833333333144
        },
        {
          "name": "G#4",
          "midi": 68,
          "time": 109.5,
          "velocity": 0.8818897637795275,
          "duration": 0.11770833333333997
        },
        {
          "name": "A#4",
          "midi": 70,
          "time": 109.625,
          "velocity": 0.8818897637795275,
          "duration": 0.11770833333333997
        },
        {
          "name": "C#5",
          "midi": 73,
          "time": 109.75,
          "velocity": 0.8818897637795275,
          "duration": 0.11770833333333997
        },
        {
          "name": "A#4",
          "midi": 70,
          "time": 109.875,
          "velocity": 0.8818897637795275,
          "duration": 0.11770833333333997
        },
        {
          "name": "C#4",
          "midi": 61,
          "time": 110,
          "velocity": 0.8818897637795275,
          "duration": 0.4739583333333286
        },
        {
          "name": "F4",
          "midi": 65,
          "time": 110,
          "velocity": 0.8818897637795275,
          "duration": 0.4739583333333286
        },
        {
          "name": "A#4",
          "midi": 70,
          "time": 110,
          "velocity": 0.8818897637795275,
          "duration": 0.4739583333333286
        },
        {
          "name": "C#5",
          "midi": 73,
          "time": 110,
          "velocity": 0.8818897637795275,
          "duration": 0.4739583333333286
        },
        {
          "name": "F4",
          "midi": 65,
          "time": 110.5,
          "velocity": 0.8818897637795275,
          "duration": 0.23645833333333144
        },
        {
          "name": "A#4",
          "midi": 70,
          "time": 110.5,
          "velocity": 0.8818897637795275,
          "duration": 0.23645833333333144
        },
        {
          "name": "D#5",
          "midi": 75,
          "time": 110.5,
          "velocity": 0.8818897637795275,
          "duration": 0.23645833333333144
        },
        {
          "name": "A#4",
          "midi": 70,
          "time": 110.75,
          "velocity": 0.8818897637795275,
          "duration": 0.05833333333333712
        },
        {
          "name": "C4",
          "midi": 60,
          "time": 110.8125,
          "velocity": 0.8818897637795275,
          "duration": 0.2958333333333343
        },
        {
          "name": "D#4",
          "midi": 63,
          "time": 110.8125,
          "velocity": 0.8818897637795275,
          "duration": 0.2958333333333343
        },
        {
          "name": "G#4",
          "midi": 68,
          "time": 110.8125,
          "velocity": 0.8818897637795275,
          "duration": 0.2958333333333343
        },
        {
          "name": "C5",
          "midi": 72,
          "time": 110.8125,
          "velocity": 0.8818897637795275,
          "duration": 0.2958333333333343
        },
        {
          "name": "A#4",
          "midi": 70,
          "time": 111.125,
          "velocity": 0.8818897637795275,
          "duration": 0.11770833333333997
        },
        {
          "name": "G#4",
          "midi": 68,
          "time": 111.25,
          "velocity": 0.8818897637795275,
          "duration": 0.4739583333333286
        },
        {
          "name": "G#4",
          "midi": 68,
          "time": 111.75,
          "velocity": 0.8818897637795275,
          "duration": 0.23645833333333144
        },
        {
          "name": "D#4",
          "midi": 63,
          "time": 112,
          "velocity": 0.8818897637795275,
          "duration": 0.4739583333333286
        },
        {
          "name": "G#4",
          "midi": 68,
          "time": 112,
          "velocity": 0.8818897637795275,
          "duration": 0.4739583333333286
        },
        {
          "name": "C5",
          "midi": 72,
          "time": 112,
          "velocity": 0.8818897637795275,
          "duration": 0.4739583333333286
        },
        {
          "name": "D#5",
          "midi": 75,
          "time": 112,
          "velocity": 0.8818897637795275,
          "duration": 0.4739583333333286
        },
        {
          "name": "C#4",
          "midi": 61,
          "time": 112.5,
          "velocity": 0.8818897637795275,
          "duration": 0.4739583333333286
        },
        {
          "name": "F4",
          "midi": 65,
          "time": 112.5,
          "velocity": 0.8818897637795275,
          "duration": 0.4739583333333286
        },
        {
          "name": "A#4",
          "midi": 70,
          "time": 112.5,
          "velocity": 0.8818897637795275,
          "duration": 0.4739583333333286
        },
        {
          "name": "C#5",
          "midi": 73,
          "time": 112.5,
          "velocity": 0.8818897637795275,
          "duration": 0.4739583333333286
        },
        {
          "name": "G#4",
          "midi": 68,
          "time": 114,
          "velocity": 0.6299212598425197,
          "duration": 1.89895833333334
        },
        {
          "name": "G#5",
          "midi": 80,
          "time": 114,
          "velocity": 0.6299212598425197,
          "duration": 1.89895833333334
        },
        {
          "name": "F4",
          "midi": 65,
          "time": 116,
          "velocity": 0.6299212598425197,
          "duration": 0.3552083333333371
        },
        {
          "name": "A#4",
          "midi": 70,
          "time": 116,
          "velocity": 0.6299212598425197,
          "duration": 0.3552083333333371
        },
        {
          "name": "F5",
          "midi": 77,
          "time": 116,
          "velocity": 0.6299212598425197,
          "duration": 0.3552083333333371
        },
        {
          "name": "F4",
          "midi": 65,
          "time": 116.375,
          "velocity": 0.6299212598425197,
          "duration": 0.3552083333333371
        },
        {
          "name": "A#4",
          "midi": 70,
          "time": 116.375,
          "velocity": 0.6299212598425197,
          "duration": 0.3552083333333371
        },
        {
          "name": "F5",
          "midi": 77,
          "time": 116.375,
          "velocity": 0.6299212598425197,
          "duration": 0.3552083333333371
        },
        {
          "name": "D#4",
          "midi": 63,
          "time": 116.75,
          "velocity": 0.6299212598425197,
          "duration": 0.4739583333333286
        },
        {
          "name": "A#4",
          "midi": 70,
          "time": 116.75,
          "velocity": 0.6299212598425197,
          "duration": 0.4739583333333286
        },
        {
          "name": "D#5",
          "midi": 75,
          "time": 116.75,
          "velocity": 0.6299212598425197,
          "duration": 0.4739583333333286
        },
        {
          "name": "G#4",
          "midi": 68,
          "time": 117.5,
          "velocity": 0.6299212598425197,
          "duration": 0.4739583333333286
        },
        {
          "name": "G#4",
          "midi": 68,
          "time": 118,
          "velocity": 0.6299212598425197,
          "duration": 1.89895833333334
        },
        {
          "name": "G#5",
          "midi": 80,
          "time": 118,
          "velocity": 0.6299212598425197,
          "duration": 1.89895833333334
        },
        {
          "name": "F4",
          "midi": 65,
          "time": 120,
          "velocity": 0.6299212598425197,
          "duration": 0.3552083333333371
        },
        {
          "name": "A#4",
          "midi": 70,
          "time": 120,
          "velocity": 0.6299212598425197,
          "duration": 0.3552083333333371
        },
        {
          "name": "F5",
          "midi": 77,
          "time": 120,
          "velocity": 0.6299212598425197,
          "duration": 0.3552083333333371
        },
        {
          "name": "F4",
          "midi": 65,
          "time": 120.375,
          "velocity": 0.6299212598425197,
          "duration": 0.3552083333333371
        },
        {
          "name": "A#4",
          "midi": 70,
          "time": 120.375,
          "velocity": 0.6299212598425197,
          "duration": 0.3552083333333371
        },
        {
          "name": "F5",
          "midi": 77,
          "time": 120.375,
          "velocity": 0.6299212598425197,
          "duration": 0.3552083333333371
        },
        {
          "name": "D#4",
          "midi": 63,
          "time": 120.75,
          "velocity": 0.6299212598425197,
          "duration": 0.4739583333333286
        },
        {
          "name": "A#4",
          "midi": 70,
          "time": 120.75,
          "velocity": 0.6299212598425197,
          "duration": 0.4739583333333286
        },
        {
          "name": "D#5",
          "midi": 75,
          "time": 120.75,
          "velocity": 0.6299212598425197,
          "duration": 0.4739583333333286
        },
        {
          "name": "G#4",
          "midi": 68,
          "time": 121.5,
          "velocity": 0.6299212598425197,
          "duration": 0.4739583333333286
        },
        {
          "name": "G#4",
          "midi": 68,
          "time": 122,
          "velocity": 0.6299212598425197,
          "duration": 0.23645833333333144
        },
        {
          "name": "G#5",
          "midi": 80,
          "time": 122,
          "velocity": 0.6299212598425197,
          "duration": 0.23645833333333144
        },
        {
          "name": "G#4",
          "midi": 68,
          "time": 122.25,
          "velocity": 0.6299212598425197,
          "duration": 0.11770833333333997
        },
        {
          "name": "A#4",
          "midi": 70,
          "time": 122.375,
          "velocity": 0.6299212598425197,
          "duration": 0.11770833333333997
        },
        {
          "name": "C#5",
          "midi": 73,
          "time": 122.5,
          "velocity": 0.6299212598425197,
          "duration": 0.11770833333333997
        },
        {
          "name": "A#4",
          "midi": 70,
          "time": 122.625,
          "velocity": 0.6299212598425197,
          "duration": 0.11770833333333997
        },
        {
          "name": "F5",
          "midi": 77,
          "time": 122.75,
          "velocity": 0.6299212598425197,
          "duration": 0.23645833333333144
        },
        {
          "name": "G#4",
          "midi": 68,
          "time": 123,
          "velocity": 0.6299212598425197,
          "duration": 0.11770833333333997
        },
        {
          "name": "A#4",
          "midi": 70,
          "time": 123.125,
          "velocity": 0.6299212598425197,
          "duration": 0.11770833333333997
        },
        {
          "name": "C#5",
          "midi": 73,
          "time": 123.25,
          "velocity": 0.6299212598425197,
          "duration": 0.11770833333333997
        },
        {
          "name": "A#4",
          "midi": 70,
          "time": 123.375,
          "velocity": 0.6299212598425197,
          "duration": 0.11770833333333997
        },
        {
          "name": "F5",
          "midi": 77,
          "time": 123.5,
          "velocity": 0.6299212598425197,
          "duration": 0.23645833333333144
        },
        {
          "name": "G#4",
          "midi": 68,
          "time": 123.75,
          "velocity": 0.6299212598425197,
          "duration": 0.23645833333333144
        },
        {
          "name": "F4",
          "midi": 65,
          "time": 124,
          "velocity": 0.6299212598425197,
          "duration": 0.3552083333333371
        },
        {
          "name": "A#4",
          "midi": 70,
          "time": 124,
          "velocity": 0.6299212598425197,
          "duration": 0.3552083333333371
        },
        {
          "name": "F5",
          "midi": 77,
          "time": 124,
          "velocity": 0.6299212598425197,
          "duration": 0.3552083333333371
        },
        {
          "name": "F4",
          "midi": 65,
          "time": 124.375,
          "velocity": 0.6299212598425197,
          "duration": 0.3552083333333371
        },
        {
          "name": "A#4",
          "midi": 70,
          "time": 124.375,
          "velocity": 0.6299212598425197,
          "duration": 0.3552083333333371
        },
        {
          "name": "F5",
          "midi": 77,
          "time": 124.375,
          "velocity": 0.6299212598425197,
          "duration": 0.3552083333333371
        },
        {
          "name": "D#4",
          "midi": 63,
          "time": 124.75,
          "velocity": 0.6299212598425197,
          "duration": 0.4739583333333286
        },
        {
          "name": "A#4",
          "midi": 70,
          "time": 124.75,
          "velocity": 0.6299212598425197,
          "duration": 0.4739583333333286
        },
        {
          "name": "D#5",
          "midi": 75,
          "time": 124.75,
          "velocity": 0.6299212598425197,
          "duration": 0.4739583333333286
        },
        {
          "name": "G#4",
          "midi": 68,
          "time": 125.5,
          "velocity": 0.6299212598425197,
          "duration": 0.4739583333333286
        },
        {
          "name": "G#4",
          "midi": 68,
          "time": 126,
          "velocity": 0.6299212598425197,
          "duration": 0.23645833333333144
        },
        {
          "name": "G#5",
          "midi": 80,
          "time": 126,
          "velocity": 0.6299212598425197,
          "duration": 0.23645833333333144
        },
        {
          "name": "G#4",
          "midi": 68,
          "time": 126.25,
          "velocity": 0.6299212598425197,
          "duration": 0.11770833333333997
        },
        {
          "name": "A#4",
          "midi": 70,
          "time": 126.375,
          "velocity": 0.6299212598425197,
          "duration": 0.11770833333333997
        },
        {
          "name": "C#5",
          "midi": 73,
          "time": 126.5,
          "velocity": 0.6299212598425197,
          "duration": 0.11770833333333997
        },
        {
          "name": "A#4",
          "midi": 70,
          "time": 126.625,
          "velocity": 0.6299212598425197,
          "duration": 0.11770833333333997
        },
        {
          "name": "F5",
          "midi": 77,
          "time": 126.75,
          "velocity": 0.6299212598425197,
          "duration": 0.23645833333333144
        },
        {
          "name": "G#4",
          "midi": 68,
          "time": 127,
          "velocity": 0.6299212598425197,
          "duration": 0.11770833333333997
        },
        {
          "name": "A#4",
          "midi": 70,
          "time": 127.125,
          "velocity": 0.6299212598425197,
          "duration": 0.11770833333333997
        },
        {
          "name": "C#5",
          "midi": 73,
          "time": 127.25,
          "velocity": 0.6299212598425197,
          "duration": 0.11770833333333997
        },
        {
          "name": "A#4",
          "midi": 70,
          "time": 127.375,
          "velocity": 0.6299212598425197,
          "duration": 0.11770833333333997
        },
        {
          "name": "F5",
          "midi": 77,
          "time": 127.5,
          "velocity": 0.6299212598425197,
          "duration": 0.23645833333333144
        },
        {
          "name": "G#4",
          "midi": 68,
          "time": 127.75,
          "velocity": 0.6299212598425197,
          "duration": 0.23645833333333144
        },
        {
          "name": "F4",
          "midi": 65,
          "time": 128,
          "velocity": 0.6299212598425197,
          "duration": 0.3552083333333371
        },
        {
          "name": "A#4",
          "midi": 70,
          "time": 128,
          "velocity": 0.6299212598425197,
          "duration": 0.3552083333333371
        },
        {
          "name": "F5",
          "midi": 77,
          "time": 128,
          "velocity": 0.6299212598425197,
          "duration": 0.3552083333333371
        },
        {
          "name": "F4",
          "midi": 65,
          "time": 128.375,
          "velocity": 0.6299212598425197,
          "duration": 0.3552083333333371
        },
        {
          "name": "A#4",
          "midi": 70,
          "time": 128.375,
          "velocity": 0.6299212598425197,
          "duration": 0.3552083333333371
        },
        {
          "name": "F5",
          "midi": 77,
          "time": 128.375,
          "velocity": 0.6299212598425197,
          "duration": 0.3552083333333371
        },
        {
          "name": "D#4",
          "midi": 63,
          "time": 128.75,
          "velocity": 0.6299212598425197,
          "duration": 0.4739583333333428
        },
        {
          "name": "A#4",
          "midi": 70,
          "time": 128.75,
          "velocity": 0.6299212598425197,
          "duration": 0.4739583333333428
        },
        {
          "name": "D#5",
          "midi": 75,
          "time": 128.75,
          "velocity": 0.6299212598425197,
          "duration": 0.4739583333333428
        },
        {
          "name": "A#4",
          "midi": 70,
          "time": 130.25,
          "velocity": 0.6299212598425197,
          "duration": 0.23645833333333144
        },
        {
          "name": "C#5",
          "midi": 73,
          "time": 130.5,
          "velocity": 0.6299212598425197,
          "duration": 0.23645833333333144
        },
        {
          "name": "A#4",
          "midi": 70,
          "time": 130.75,
          "velocity": 0.6299212598425197,
          "duration": 0.23645833333333144
        },
        {
          "name": "C#5",
          "midi": 73,
          "time": 131,
          "velocity": 0.6299212598425197,
          "duration": 0.23645833333333144
        },
        {
          "name": "D#5",
          "midi": 75,
          "time": 131.25,
          "velocity": 0.6299212598425197,
          "duration": 0.9489583333333371
        },
        {
          "name": "C5",
          "midi": 72,
          "time": 132.25,
          "velocity": 0.6299212598425197,
          "duration": 0.23645833333333144
        },
        {
          "name": "A#4",
          "midi": 70,
          "time": 132.5,
          "velocity": 0.6299212598425197,
          "duration": 0.23645833333333144
        },
        {
          "name": "C5",
          "midi": 72,
          "time": 132.75,
          "velocity": 0.6299212598425197,
          "duration": 0.11770833333332575
        },
        {
          "name": "A#4",
          "midi": 70,
          "time": 132.875,
          "velocity": 0.6299212598425197,
          "duration": 0.11770833333332575
        },
        {
          "name": "G#4",
          "midi": 68,
          "time": 133,
          "velocity": 0.6299212598425197,
          "duration": 0.4739583333333428
        },
        {
          "name": "A#4",
          "midi": 70,
          "time": 134.25,
          "velocity": 0.6299212598425197,
          "duration": 0.23645833333333144
        },
        {
          "name": "A#4",
          "midi": 70,
          "time": 134.5,
          "velocity": 0.6299212598425197,
          "duration": 0.23645833333333144
        },
        {
          "name": "C5",
          "midi": 72,
          "time": 134.75,
          "velocity": 0.6299212598425197,
          "duration": 0.23645833333333144
        },
        {
          "name": "C#5",
          "midi": 73,
          "time": 135,
          "velocity": 0.6299212598425197,
          "duration": 0.23645833333333144
        },
        {
          "name": "A#4",
          "midi": 70,
          "time": 135.25,
          "velocity": 0.6299212598425197,
          "duration": 0.23645833333333144
        },
        {
          "name": "G#4",
          "midi": 68,
          "time": 135.5,
          "velocity": 0.6299212598425197,
          "duration": 0.4739583333333428
        },
        {
          "name": "G#5",
          "midi": 80,
          "time": 136.25,
          "velocity": 0.6299212598425197,
          "duration": 0.23645833333333144
        },
        {
          "name": "G#5",
          "midi": 80,
          "time": 136.5,
          "velocity": 0.6299212598425197,
          "duration": 0.23645833333333144
        },
        {
          "name": "D#5",
          "midi": 75,
          "time": 136.75,
          "velocity": 0.6299212598425197,
          "duration": 0.4739583333333428
        },
        {
          "name": "F5",
          "midi": 77,
          "time": 137.25,
          "velocity": 0.6299212598425197,
          "duration": 0.23645833333333144
        },
        {
          "name": "D#5",
          "midi": 75,
          "time": 137.5,
          "velocity": 0.6299212598425197,
          "duration": 0.23645833333333144
        },
        {
          "name": "C#5",
          "midi": 73,
          "time": 137.75,
          "velocity": 0.6299212598425197,
          "duration": 0.23645833333333144
        },
        {
          "name": "A#4",
          "midi": 70,
          "time": 138.25,
          "velocity": 0.6299212598425197,
          "duration": 0.23645833333333144
        },
        {
          "name": "C#5",
          "midi": 73,
          "time": 138.5,
          "velocity": 0.6299212598425197,
          "duration": 0.23645833333333144
        },
        {
          "name": "A#4",
          "midi": 70,
          "time": 138.75,
          "velocity": 0.6299212598425197,
          "duration": 0.23645833333333144
        },
        {
          "name": "C#5",
          "midi": 73,
          "time": 139,
          "velocity": 0.6299212598425197,
          "duration": 0.23645833333333144
        },
        {
          "name": "A#4",
          "midi": 70,
          "time": 139.25,
          "velocity": 0.6299212598425197,
          "duration": 0.23645833333333144
        },
        {
          "name": "C#5",
          "midi": 73,
          "time": 139.5,
          "velocity": 0.6299212598425197,
          "duration": 0.23645833333333144
        },
        {
          "name": "D#5",
          "midi": 75,
          "time": 139.75,
          "velocity": 0.6299212598425197,
          "duration": 0.4739583333333428
        },
        {
          "name": "C5",
          "midi": 72,
          "time": 140.25,
          "velocity": 0.6299212598425197,
          "duration": 0.23645833333333144
        },
        {
          "name": "A#4",
          "midi": 70,
          "time": 140.5,
          "velocity": 0.6299212598425197,
          "duration": 0.23645833333333144
        },
        {
          "name": "C5",
          "midi": 72,
          "time": 140.75,
          "velocity": 0.6299212598425197,
          "duration": 0.11770833333332575
        },
        {
          "name": "A#4",
          "midi": 70,
          "time": 140.875,
          "velocity": 0.6299212598425197,
          "duration": 0.11770833333332575
        },
        {
          "name": "G#4",
          "midi": 68,
          "time": 141,
          "velocity": 0.6299212598425197,
          "duration": 0.4739583333333428
        },
        {
          "name": "A#4",
          "midi": 70,
          "time": 142.25,
          "velocity": 0.6299212598425197,
          "duration": 0.23645833333333144
        },
        {
          "name": "A#4",
          "midi": 70,
          "time": 142.5,
          "velocity": 0.6299212598425197,
          "duration": 0.23645833333333144
        },
        {
          "name": "C5",
          "midi": 72,
          "time": 142.75,
          "velocity": 0.6299212598425197,
          "duration": 0.23645833333333144
        },
        {
          "name": "C#5",
          "midi": 73,
          "time": 143,
          "velocity": 0.6299212598425197,
          "duration": 0.23645833333333144
        },
        {
          "name": "A#4",
          "midi": 70,
          "time": 143.25,
          "velocity": 0.6299212598425197,
          "duration": 0.23645833333333144
        },
        {
          "name": "G#4",
          "midi": 68,
          "time": 143.5,
          "velocity": 0.6299212598425197,
          "duration": 0.4739583333333428
        },
        {
          "name": "D#5",
          "midi": 75,
          "time": 144.25,
          "velocity": 0.6299212598425197,
          "duration": 0.23645833333333144
        },
        {
          "name": "F5",
          "midi": 77,
          "time": 144.5,
          "velocity": 0.6299212598425197,
          "duration": 0.23645833333333144
        },
        {
          "name": "F5",
          "midi": 77,
          "time": 144.75,
          "velocity": 0.6299212598425197,
          "duration": 0.4739583333333428
        },
        {
          "name": "D#5",
          "midi": 75,
          "time": 145.25,
          "velocity": 0.6299212598425197,
          "duration": 0.4739583333333428
        },
        {
          "name": "C#5",
          "midi": 73,
          "time": 146,
          "velocity": 0.6299212598425197,
          "duration": 0.9489583333333371
        },
        {
          "name": "D#5",
          "midi": 75,
          "time": 147.25,
          "velocity": 0.6299212598425197,
          "duration": 0.23645833333333144
        },
        {
          "name": "F5",
          "midi": 77,
          "time": 147.5,
          "velocity": 0.6299212598425197,
          "duration": 0.23645833333333144
        },
        {
          "name": "C#5",
          "midi": 73,
          "time": 147.75,
          "velocity": 0.6299212598425197,
          "duration": 0.23645833333333144
        },
        {
          "name": "D#5",
          "midi": 75,
          "time": 148,
          "velocity": 0.6299212598425197,
          "duration": 0.23645833333333144
        },
        {
          "name": "D#5",
          "midi": 75,
          "time": 148.25,
          "velocity": 0.6299212598425197,
          "duration": 0.23645833333333144
        },
        {
          "name": "D#5",
          "midi": 75,
          "time": 148.5,
          "velocity": 0.6299212598425197,
          "duration": 0.23645833333333144
        },
        {
          "name": "F5",
          "midi": 77,
          "time": 148.75,
          "velocity": 0.6299212598425197,
          "duration": 0.23645833333333144
        },
        {
          "name": "D#5",
          "midi": 75,
          "time": 149,
          "velocity": 0.6299212598425197,
          "duration": 0.4739583333333428
        },
        {
          "name": "G#4",
          "midi": 68,
          "time": 149.5,
          "velocity": 0.6299212598425197,
          "duration": 0.4739583333333428
        },
        {
          "name": "A#4",
          "midi": 70,
          "time": 151,
          "velocity": 0.6299212598425197,
          "duration": 0.23645833333333144
        },
        {
          "name": "C5",
          "midi": 72,
          "time": 151.25,
          "velocity": 0.6299212598425197,
          "duration": 0.23645833333333144
        },
        {
          "name": "C#5",
          "midi": 73,
          "time": 151.5,
          "velocity": 0.6299212598425197,
          "duration": 0.23645833333333144
        },
        {
          "name": "A#4",
          "midi": 70,
          "time": 151.75,
          "velocity": 0.6299212598425197,
          "duration": 0.4739583333333428
        },
        {
          "name": "D#5",
          "midi": 75,
          "time": 152.25,
          "velocity": 0.6614173228346457,
          "duration": 0.23645833333333144
        },
        {
          "name": "F5",
          "midi": 77,
          "time": 152.5,
          "velocity": 0.6929133858267716,
          "duration": 0.23645833333333144
        },
        {
          "name": "D#5",
          "midi": 75,
          "time": 152.75,
          "velocity": 0.7244094488188977,
          "duration": 0.4739583333333428
        },
        {
          "name": "G#4",
          "midi": 68,
          "time": 153.5,
          "velocity": 0.8188976377952756,
          "duration": 0.11770833333332575
        },
        {
          "name": "A#4",
          "midi": 70,
          "time": 153.625,
          "velocity": 0.8346456692913385,
          "duration": 0.11770833333332575
        },
        {
          "name": "C#5",
          "midi": 73,
          "time": 153.75,
          "velocity": 0.8503937007874016,
          "duration": 0.11770833333332575
        },
        {
          "name": "A#4",
          "midi": 70,
          "time": 153.875,
          "velocity": 0.8661417322834646,
          "duration": 0.11770833333332575
        },
        {
          "name": "F4",
          "midi": 65,
          "time": 154,
          "velocity": 0.8818897637795275,
          "duration": 0.3552083333333371
        },
        {
          "name": "A#4",
          "midi": 70,
          "time": 154,
          "velocity": 0.8818897637795275,
          "duration": 0.3552083333333371
        },
        {
          "name": "C#5",
          "midi": 73,
          "time": 154,
          "velocity": 0.8818897637795275,
          "duration": 0.3552083333333371
        },
        {
          "name": "F5",
          "midi": 77,
          "time": 154,
          "velocity": 0.8818897637795275,
          "duration": 0.3552083333333371
        },
        {
          "name": "F4",
          "midi": 65,
          "time": 154.375,
          "velocity": 0.8818897637795275,
          "duration": 0.3552083333333371
        },
        {
          "name": "A#4",
          "midi": 70,
          "time": 154.375,
          "velocity": 0.8818897637795275,
          "duration": 0.3552083333333371
        },
        {
          "name": "C#5",
          "midi": 73,
          "time": 154.375,
          "velocity": 0.8818897637795275,
          "duration": 0.3552083333333371
        },
        {
          "name": "F5",
          "midi": 77,
          "time": 154.375,
          "velocity": 0.8818897637795275,
          "duration": 0.3552083333333371
        },
        {
          "name": "D#4",
          "midi": 63,
          "time": 154.75,
          "velocity": 0.8818897637795275,
          "duration": 0.4739583333333428
        },
        {
          "name": "G#4",
          "midi": 68,
          "time": 154.75,
          "velocity": 0.8818897637795275,
          "duration": 0.4739583333333428
        },
        {
          "name": "C5",
          "midi": 72,
          "time": 154.75,
          "velocity": 0.8818897637795275,
          "duration": 0.4739583333333428
        },
        {
          "name": "D#5",
          "midi": 75,
          "time": 154.75,
          "velocity": 0.8818897637795275,
          "duration": 0.4739583333333428
        },
        {
          "name": "G#4",
          "midi": 68,
          "time": 155.5,
          "velocity": 0.8818897637795275,
          "duration": 0.11770833333332575
        },
        {
          "name": "A#4",
          "midi": 70,
          "time": 155.625,
          "velocity": 0.8818897637795275,
          "duration": 0.11770833333332575
        },
        {
          "name": "C#5",
          "midi": 73,
          "time": 155.75,
          "velocity": 0.8818897637795275,
          "duration": 0.11770833333332575
        },
        {
          "name": "A#4",
          "midi": 70,
          "time": 155.875,
          "velocity": 0.8818897637795275,
          "duration": 0.11770833333332575
        },
        {
          "name": "D#4",
          "midi": 63,
          "time": 156,
          "velocity": 0.8818897637795275,
          "duration": 0.3552083333333371
        },
        {
          "name": "G#4",
          "midi": 68,
          "time": 156,
          "velocity": 0.8818897637795275,
          "duration": 0.3552083333333371
        },
        {
          "name": "C5",
          "midi": 72,
          "time": 156,
          "velocity": 0.8818897637795275,
          "duration": 0.3552083333333371
        },
        {
          "name": "D#5",
          "midi": 75,
          "time": 156,
          "velocity": 0.8818897637795275,
          "duration": 0.3552083333333371
        },
        {
          "name": "D#4",
          "midi": 63,
          "time": 156.375,
          "velocity": 0.8818897637795275,
          "duration": 0.3552083333333371
        },
        {
          "name": "G#4",
          "midi": 68,
          "time": 156.375,
          "velocity": 0.8818897637795275,
          "duration": 0.3552083333333371
        },
        {
          "name": "C5",
          "midi": 72,
          "time": 156.375,
          "velocity": 0.8818897637795275,
          "duration": 0.3552083333333371
        },
        {
          "name": "D#5",
          "midi": 75,
          "time": 156.375,
          "velocity": 0.8818897637795275,
          "duration": 0.3552083333333371
        },
        {
          "name": "C#4",
          "midi": 61,
          "time": 156.75,
          "velocity": 0.8818897637795275,
          "duration": 0.3552083333333371
        },
        {
          "name": "F4",
          "midi": 65,
          "time": 156.75,
          "velocity": 0.8818897637795275,
          "duration": 0.3552083333333371
        },
        {
          "name": "A#4",
          "midi": 70,
          "time": 156.75,
          "velocity": 0.8818897637795275,
          "duration": 0.3552083333333371
        },
        {
          "name": "C#5",
          "midi": 73,
          "time": 156.75,
          "velocity": 0.8818897637795275,
          "duration": 0.3552083333333371
        },
        {
          "name": "C5",
          "midi": 72,
          "time": 157.125,
          "velocity": 0.8818897637795275,
          "duration": 0.11770833333332575
        },
        {
          "name": "A#4",
          "midi": 70,
          "time": 157.25,
          "velocity": 0.8818897637795275,
          "duration": 0.23645833333333144
        },
        {
          "name": "G#4",
          "midi": 68,
          "time": 157.5,
          "velocity": 0.8818897637795275,
          "duration": 0.11770833333332575
        },
        {
          "name": "A#4",
          "midi": 70,
          "time": 157.625,
          "velocity": 0.8818897637795275,
          "duration": 0.11770833333332575
        },
        {
          "name": "C#5",
          "midi": 73,
          "time": 157.75,
          "velocity": 0.8818897637795275,
          "duration": 0.11770833333332575
        },
        {
          "name": "A#4",
          "midi": 70,
          "time": 157.875,
          "velocity": 0.8818897637795275,
          "duration": 0.11770833333332575
        },
        {
          "name": "C#4",
          "midi": 61,
          "time": 158,
          "velocity": 0.8818897637795275,
          "duration": 0.4739583333333428
        },
        {
          "name": "F4",
          "midi": 65,
          "time": 158,
          "velocity": 0.8818897637795275,
          "duration": 0.4739583333333428
        },
        {
          "name": "A#4",
          "midi": 70,
          "time": 158,
          "velocity": 0.8818897637795275,
          "duration": 0.4739583333333428
        },
        {
          "name": "C#5",
          "midi": 73,
          "time": 158,
          "velocity": 0.8818897637795275,
          "duration": 0.4739583333333428
        },
        {
          "name": "F4",
          "midi": 65,
          "time": 158.5,
          "velocity": 0.8818897637795275,
          "duration": 0.23645833333333144
        },
        {
          "name": "A#4",
          "midi": 70,
          "time": 158.5,
          "velocity": 0.8818897637795275,
          "duration": 0.23645833333333144
        },
        {
          "name": "D#5",
          "midi": 75,
          "time": 158.5,
          "velocity": 0.8818897637795275,
          "duration": 0.23645833333333144
        },
        {
          "name": "A#4",
          "midi": 70,
          "time": 158.75,
          "velocity": 0.8818897637795275,
          "duration": 0.05833333333333712
        },
        {
          "name": "C4",
          "midi": 60,
          "time": 158.8125,
          "velocity": 0.8818897637795275,
          "duration": 0.29583333333332007
        },
        {
          "name": "D#4",
          "midi": 63,
          "time": 158.8125,
          "velocity": 0.8818897637795275,
          "duration": 0.29583333333332007
        },
        {
          "name": "G#4",
          "midi": 68,
          "time": 158.8125,
          "velocity": 0.8818897637795275,
          "duration": 0.29583333333332007
        },
        {
          "name": "C5",
          "midi": 72,
          "time": 158.8125,
          "velocity": 0.8818897637795275,
          "duration": 0.29583333333332007
        },
        {
          "name": "A#4",
          "midi": 70,
          "time": 159.125,
          "velocity": 0.8818897637795275,
          "duration": 0.11770833333332575
        },
        {
          "name": "G#4",
          "midi": 68,
          "time": 159.25,
          "velocity": 0.8818897637795275,
          "duration": 0.4739583333333428
        },
        {
          "name": "G#4",
          "midi": 68,
          "time": 159.75,
          "velocity": 0.8818897637795275,
          "duration": 0.23645833333333144
        },
        {
          "name": "D#4",
          "midi": 63,
          "time": 160,
          "velocity": 0.8818897637795275,
          "duration": 0.4739583333333428
        },
        {
          "name": "G#4",
          "midi": 68,
          "time": 160,
          "velocity": 0.8818897637795275,
          "duration": 0.4739583333333428
        },
        {
          "name": "C5",
          "midi": 72,
          "time": 160,
          "velocity": 0.8818897637795275,
          "duration": 0.4739583333333428
        },
        {
          "name": "D#5",
          "midi": 75,
          "time": 160,
          "velocity": 0.8818897637795275,
          "duration": 0.4739583333333428
        },
        {
          "name": "C#4",
          "midi": 61,
          "time": 160.5,
          "velocity": 0.8818897637795275,
          "duration": 0.4739583333333428
        },
        {
          "name": "F4",
          "midi": 65,
          "time": 160.5,
          "velocity": 0.8818897637795275,
          "duration": 0.4739583333333428
        },
        {
          "name": "A#4",
          "midi": 70,
          "time": 160.5,
          "velocity": 0.8818897637795275,
          "duration": 0.4739583333333428
        },
        {
          "name": "C#5",
          "midi": 73,
          "time": 160.5,
          "velocity": 0.8818897637795275,
          "duration": 0.4739583333333428
        },
        {
          "name": "G#4",
          "midi": 68,
          "time": 161.5,
          "velocity": 0.8818897637795275,
          "duration": 0.11770833333332575
        },
        {
          "name": "A#4",
          "midi": 70,
          "time": 161.625,
          "velocity": 0.8818897637795275,
          "duration": 0.11770833333332575
        },
        {
          "name": "C#5",
          "midi": 73,
          "time": 161.75,
          "velocity": 0.8818897637795275,
          "duration": 0.11770833333332575
        },
        {
          "name": "A#4",
          "midi": 70,
          "time": 161.875,
          "velocity": 0.8818897637795275,
          "duration": 0.11770833333332575
        },
        {
          "name": "F4",
          "midi": 65,
          "time": 162,
          "velocity": 0.8818897637795275,
          "duration": 0.3552083333333371
        },
        {
          "name": "A#4",
          "midi": 70,
          "time": 162,
          "velocity": 0.8818897637795275,
          "duration": 0.3552083333333371
        },
        {
          "name": "C#5",
          "midi": 73,
          "time": 162,
          "velocity": 0.8818897637795275,
          "duration": 0.3552083333333371
        },
        {
          "name": "F5",
          "midi": 77,
          "time": 162,
          "velocity": 0.8818897637795275,
          "duration": 0.3552083333333371
        },
        {
          "name": "F4",
          "midi": 65,
          "time": 162.375,
          "velocity": 0.8818897637795275,
          "duration": 0.3552083333333371
        },
        {
          "name": "A#4",
          "midi": 70,
          "time": 162.375,
          "velocity": 0.8818897637795275,
          "duration": 0.3552083333333371
        },
        {
          "name": "C#5",
          "midi": 73,
          "time": 162.375,
          "velocity": 0.8818897637795275,
          "duration": 0.3552083333333371
        },
        {
          "name": "F5",
          "midi": 77,
          "time": 162.375,
          "velocity": 0.8818897637795275,
          "duration": 0.3552083333333371
        },
        {
          "name": "D#4",
          "midi": 63,
          "time": 162.75,
          "velocity": 0.8818897637795275,
          "duration": 0.4739583333333428
        },
        {
          "name": "G#4",
          "midi": 68,
          "time": 162.75,
          "velocity": 0.8818897637795275,
          "duration": 0.4739583333333428
        },
        {
          "name": "C5",
          "midi": 72,
          "time": 162.75,
          "velocity": 0.8818897637795275,
          "duration": 0.4739583333333428
        },
        {
          "name": "D#5",
          "midi": 75,
          "time": 162.75,
          "velocity": 0.8818897637795275,
          "duration": 0.4739583333333428
        },
        {
          "name": "G#4",
          "midi": 68,
          "time": 163.5,
          "velocity": 0.8818897637795275,
          "duration": 0.11770833333332575
        },
        {
          "name": "A#4",
          "midi": 70,
          "time": 163.625,
          "velocity": 0.8818897637795275,
          "duration": 0.11770833333332575
        },
        {
          "name": "C#5",
          "midi": 73,
          "time": 163.75,
          "velocity": 0.8818897637795275,
          "duration": 0.11770833333332575
        },
        {
          "name": "A#4",
          "midi": 70,
          "time": 163.875,
          "velocity": 0.8818897637795275,
          "duration": 0.11770833333332575
        },
        {
          "name": "G#4",
          "midi": 68,
          "time": 164,
          "velocity": 0.8818897637795275,
          "duration": 0.4739583333333428
        },
        {
          "name": "C5",
          "midi": 72,
          "time": 164,
          "velocity": 0.8818897637795275,
          "duration": 0.4739583333333428
        },
        {
          "name": "F5",
          "midi": 77,
          "time": 164,
          "velocity": 0.8818897637795275,
          "duration": 0.4739583333333428
        },
        {
          "name": "G#5",
          "midi": 80,
          "time": 164,
          "velocity": 0.8818897637795275,
          "duration": 0.4739583333333428
        },
        {
          "name": "C5",
          "midi": 72,
          "time": 164.5,
          "velocity": 0.8818897637795275,
          "duration": 0.23645833333333144
        },
        {
          "name": "C#4",
          "midi": 61,
          "time": 164.75,
          "velocity": 0.8818897637795275,
          "duration": 0.3552083333333371
        },
        {
          "name": "F4",
          "midi": 65,
          "time": 164.75,
          "velocity": 0.8818897637795275,
          "duration": 0.3552083333333371
        },
        {
          "name": "A#4",
          "midi": 70,
          "time": 164.75,
          "velocity": 0.8818897637795275,
          "duration": 0.3552083333333371
        },
        {
          "name": "C#5",
          "midi": 73,
          "time": 164.75,
          "velocity": 0.8818897637795275,
          "duration": 0.3552083333333371
        },
        {
          "name": "C5",
          "midi": 72,
          "time": 165.125,
          "velocity": 0.8818897637795275,
          "duration": 0.11770833333332575
        },
        {
          "name": "A#4",
          "midi": 70,
          "time": 165.25,
          "velocity": 0.8818897637795275,
          "duration": 0.23645833333333144
        },
        {
          "name": "G#4",
          "midi": 68,
          "time": 165.5,
          "velocity": 0.8818897637795275,
          "duration": 0.11770833333332575
        },
        {
          "name": "A#4",
          "midi": 70,
          "time": 165.625,
          "velocity": 0.8818897637795275,
          "duration": 0.11770833333332575
        },
        {
          "name": "C#5",
          "midi": 73,
          "time": 165.75,
          "velocity": 0.8818897637795275,
          "duration": 0.11770833333332575
        },
        {
          "name": "A#4",
          "midi": 70,
          "time": 165.875,
          "velocity": 0.8818897637795275,
          "duration": 0.11770833333332575
        },
        {
          "name": "C#4",
          "midi": 61,
          "time": 166,
          "velocity": 0.8818897637795275,
          "duration": 0.4739583333333428
        },
        {
          "name": "F4",
          "midi": 65,
          "time": 166,
          "velocity": 0.8818897637795275,
          "duration": 0.4739583333333428
        },
        {
          "name": "A#4",
          "midi": 70,
          "time": 166,
          "velocity": 0.8818897637795275,
          "duration": 0.4739583333333428
        },
        {
          "name": "C#5",
          "midi": 73,
          "time": 166,
          "velocity": 0.8818897637795275,
          "duration": 0.4739583333333428
        },
        {
          "name": "F4",
          "midi": 65,
          "time": 166.5,
          "velocity": 0.8818897637795275,
          "duration": 0.23645833333333144
        },
        {
          "name": "A#4",
          "midi": 70,
          "time": 166.5,
          "velocity": 0.8818897637795275,
          "duration": 0.23645833333333144
        },
        {
          "name": "D#5",
          "midi": 75,
          "time": 166.5,
          "velocity": 0.8818897637795275,
          "duration": 0.23645833333333144
        },
        {
          "name": "A#4",
          "midi": 70,
          "time": 166.75,
          "velocity": 0.8818897637795275,
          "duration": 0.05833333333333712
        },
        {
          "name": "C4",
          "midi": 60,
          "time": 166.8125,
          "velocity": 0.8818897637795275,
          "duration": 0.29583333333332007
        },
        {
          "name": "D#4",
          "midi": 63,
          "time": 166.8125,
          "velocity": 0.8818897637795275,
          "duration": 0.29583333333332007
        },
        {
          "name": "G#4",
          "midi": 68,
          "time": 166.8125,
          "velocity": 0.8818897637795275,
          "duration": 0.29583333333332007
        },
        {
          "name": "C5",
          "midi": 72,
          "time": 166.8125,
          "velocity": 0.8818897637795275,
          "duration": 0.29583333333332007
        },
        {
          "name": "A#4",
          "midi": 70,
          "time": 167.125,
          "velocity": 0.8818897637795275,
          "duration": 0.11770833333332575
        },
        {
          "name": "G#4",
          "midi": 68,
          "time": 167.25,
          "velocity": 0.8818897637795275,
          "duration": 0.4739583333333428
        },
        {
          "name": "G#4",
          "midi": 68,
          "time": 167.75,
          "velocity": 0.8818897637795275,
          "duration": 0.23645833333333144
        },
        {
          "name": "D#4",
          "midi": 63,
          "time": 168,
          "velocity": 0.8818897637795275,
          "duration": 0.4739583333333428
        },
        {
          "name": "G#4",
          "midi": 68,
          "time": 168,
          "velocity": 0.8818897637795275,
          "duration": 0.4739583333333428
        },
        {
          "name": "C5",
          "midi": 72,
          "time": 168,
          "velocity": 0.8818897637795275,
          "duration": 0.4739583333333428
        },
        {
          "name": "D#5",
          "midi": 75,
          "time": 168,
          "velocity": 0.8818897637795275,
          "duration": 0.4739583333333428
        },
        {
          "name": "C#4",
          "midi": 61,
          "time": 168.5,
          "velocity": 0.8818897637795275,
          "duration": 0.4739583333333428
        },
        {
          "name": "F4",
          "midi": 65,
          "time": 168.5,
          "velocity": 0.8818897637795275,
          "duration": 0.4739583333333428
        },
        {
          "name": "A#4",
          "midi": 70,
          "time": 168.5,
          "velocity": 0.8818897637795275,
          "duration": 0.4739583333333428
        },
        {
          "name": "C#5",
          "midi": 73,
          "time": 168.5,
          "velocity": 0.8818897637795275,
          "duration": 0.4739583333333428
        },
        {
          "name": "G#4",
          "midi": 68,
          "time": 169.5,
          "velocity": 0.8818897637795275,
          "duration": 0.11770833333332575
        },
        {
          "name": "A#4",
          "midi": 70,
          "time": 169.625,
          "velocity": 0.8818897637795275,
          "duration": 0.11770833333332575
        },
        {
          "name": "C#5",
          "midi": 73,
          "time": 169.75,
          "velocity": 0.8818897637795275,
          "duration": 0.11770833333332575
        },
        {
          "name": "A#4",
          "midi": 70,
          "time": 169.875,
          "velocity": 0.8818897637795275,
          "duration": 0.11770833333332575
        },
        {
          "name": "F4",
          "midi": 65,
          "time": 170,
          "velocity": 0.8818897637795275,
          "duration": 0.3552083333333371
        },
        {
          "name": "A#4",
          "midi": 70,
          "time": 170,
          "velocity": 0.8818897637795275,
          "duration": 0.3552083333333371
        },
        {
          "name": "C#5",
          "midi": 73,
          "time": 170,
          "velocity": 0.8818897637795275,
          "duration": 0.3552083333333371
        },
        {
          "name": "F5",
          "midi": 77,
          "time": 170,
          "velocity": 0.8818897637795275,
          "duration": 0.3552083333333371
        },
        {
          "name": "F4",
          "midi": 65,
          "time": 170.375,
          "velocity": 0.8818897637795275,
          "duration": 0.3552083333333371
        },
        {
          "name": "A#4",
          "midi": 70,
          "time": 170.375,
          "velocity": 0.8818897637795275,
          "duration": 0.3552083333333371
        },
        {
          "name": "C#5",
          "midi": 73,
          "time": 170.375,
          "velocity": 0.8818897637795275,
          "duration": 0.3552083333333371
        },
        {
          "name": "F5",
          "midi": 77,
          "time": 170.375,
          "velocity": 0.8818897637795275,
          "duration": 0.3552083333333371
        },
        {
          "name": "D#4",
          "midi": 63,
          "time": 170.75,
          "velocity": 0.8818897637795275,
          "duration": 0.4739583333333428
        },
        {
          "name": "G#4",
          "midi": 68,
          "time": 170.75,
          "velocity": 0.8818897637795275,
          "duration": 0.4739583333333428
        },
        {
          "name": "C5",
          "midi": 72,
          "time": 170.75,
          "velocity": 0.8818897637795275,
          "duration": 0.4739583333333428
        },
        {
          "name": "D#5",
          "midi": 75,
          "time": 170.75,
          "velocity": 0.8818897637795275,
          "duration": 0.4739583333333428
        },
        {
          "name": "G#4",
          "midi": 68,
          "time": 171.5,
          "velocity": 0.8818897637795275,
          "duration": 0.11770833333332575
        },
        {
          "name": "A#4",
          "midi": 70,
          "time": 171.625,
          "velocity": 0.8818897637795275,
          "duration": 0.11770833333332575
        },
        {
          "name": "C#5",
          "midi": 73,
          "time": 171.75,
          "velocity": 0.8818897637795275,
          "duration": 0.11770833333332575
        },
        {
          "name": "A#4",
          "midi": 70,
          "time": 171.875,
          "velocity": 0.8818897637795275,
          "duration": 0.11770833333332575
        },
        {
          "name": "D#4",
          "midi": 63,
          "time": 172,
          "velocity": 0.8818897637795275,
          "duration": 0.3552083333333371
        },
        {
          "name": "G#4",
          "midi": 68,
          "time": 172,
          "velocity": 0.8818897637795275,
          "duration": 0.3552083333333371
        },
        {
          "name": "C5",
          "midi": 72,
          "time": 172,
          "velocity": 0.8818897637795275,
          "duration": 0.3552083333333371
        },
        {
          "name": "D#5",
          "midi": 75,
          "time": 172,
          "velocity": 0.8818897637795275,
          "duration": 0.3552083333333371
        },
        {
          "name": "D#4",
          "midi": 63,
          "time": 172.375,
          "velocity": 0.8818897637795275,
          "duration": 0.3552083333333371
        },
        {
          "name": "G#4",
          "midi": 68,
          "time": 172.375,
          "velocity": 0.8818897637795275,
          "duration": 0.3552083333333371
        },
        {
          "name": "C5",
          "midi": 72,
          "time": 172.375,
          "velocity": 0.8818897637795275,
          "duration": 0.3552083333333371
        },
        {
          "name": "D#5",
          "midi": 75,
          "time": 172.375,
          "velocity": 0.8818897637795275,
          "duration": 0.3552083333333371
        },
        {
          "name": "C#4",
          "midi": 61,
          "time": 172.75,
          "velocity": 0.8818897637795275,
          "duration": 0.3552083333333371
        },
        {
          "name": "F4",
          "midi": 65,
          "time": 172.75,
          "velocity": 0.8818897637795275,
          "duration": 0.3552083333333371
        },
        {
          "name": "A#4",
          "midi": 70,
          "time": 172.75,
          "velocity": 0.8818897637795275,
          "duration": 0.3552083333333371
        },
        {
          "name": "C#5",
          "midi": 73,
          "time": 172.75,
          "velocity": 0.8818897637795275,
          "duration": 0.3552083333333371
        },
        {
          "name": "C5",
          "midi": 72,
          "time": 173.125,
          "velocity": 0.8818897637795275,
          "duration": 0.11770833333332575
        },
        {
          "name": "A#4",
          "midi": 70,
          "time": 173.25,
          "velocity": 0.8818897637795275,
          "duration": 0.23645833333333144
        },
        {
          "name": "G#4",
          "midi": 68,
          "time": 173.5,
          "velocity": 0.8818897637795275,
          "duration": 0.11770833333332575
        },
        {
          "name": "A#4",
          "midi": 70,
          "time": 173.625,
          "velocity": 0.8818897637795275,
          "duration": 0.11770833333332575
        },
        {
          "name": "C#5",
          "midi": 73,
          "time": 173.75,
          "velocity": 0.8818897637795275,
          "duration": 0.11770833333332575
        },
        {
          "name": "A#4",
          "midi": 70,
          "time": 173.875,
          "velocity": 0.8818897637795275,
          "duration": 0.11770833333332575
        },
        {
          "name": "C#4",
          "midi": 61,
          "time": 174,
          "velocity": 0.8818897637795275,
          "duration": 0.4739583333333428
        },
        {
          "name": "F4",
          "midi": 65,
          "time": 174,
          "velocity": 0.8818897637795275,
          "duration": 0.4739583333333428
        },
        {
          "name": "A#4",
          "midi": 70,
          "time": 174,
          "velocity": 0.8818897637795275,
          "duration": 0.4739583333333428
        },
        {
          "name": "C#5",
          "midi": 73,
          "time": 174,
          "velocity": 0.8818897637795275,
          "duration": 0.4739583333333428
        },
        {
          "name": "F4",
          "midi": 65,
          "time": 174.5,
          "velocity": 0.8818897637795275,
          "duration": 0.23645833333333144
        },
        {
          "name": "A#4",
          "midi": 70,
          "time": 174.5,
          "velocity": 0.8818897637795275,
          "duration": 0.23645833333333144
        },
        {
          "name": "D#5",
          "midi": 75,
          "time": 174.5,
          "velocity": 0.8818897637795275,
          "duration": 0.23645833333333144
        },
        {
          "name": "A#4",
          "midi": 70,
          "time": 174.75,
          "velocity": 0.8818897637795275,
          "duration": 0.05833333333333712
        },
        {
          "name": "C4",
          "midi": 60,
          "time": 174.8125,
          "velocity": 0.8818897637795275,
          "duration": 0.29583333333332007
        },
        {
          "name": "D#4",
          "midi": 63,
          "time": 174.8125,
          "velocity": 0.8818897637795275,
          "duration": 0.29583333333332007
        },
        {
          "name": "G#4",
          "midi": 68,
          "time": 174.8125,
          "velocity": 0.8818897637795275,
          "duration": 0.29583333333332007
        },
        {
          "name": "C5",
          "midi": 72,
          "time": 174.8125,
          "velocity": 0.8818897637795275,
          "duration": 0.29583333333332007
        },
        {
          "name": "A#4",
          "midi": 70,
          "time": 175.125,
          "velocity": 0.8818897637795275,
          "duration": 0.11770833333332575
        },
        {
          "name": "G#4",
          "midi": 68,
          "time": 175.25,
          "velocity": 0.8818897637795275,
          "duration": 0.4739583333333428
        },
        {
          "name": "G#4",
          "midi": 68,
          "time": 175.75,
          "velocity": 0.8818897637795275,
          "duration": 0.23645833333333144
        },
        {
          "name": "D#4",
          "midi": 63,
          "time": 176,
          "velocity": 0.8818897637795275,
          "duration": 0.4739583333333428
        },
        {
          "name": "G#4",
          "midi": 68,
          "time": 176,
          "velocity": 0.8818897637795275,
          "duration": 0.4739583333333428
        },
        {
          "name": "C5",
          "midi": 72,
          "time": 176,
          "velocity": 0.8818897637795275,
          "duration": 0.4739583333333428
        },
        {
          "name": "D#5",
          "midi": 75,
          "time": 176,
          "velocity": 0.8818897637795275,
          "duration": 0.4739583333333428
        },
        {
          "name": "C#4",
          "midi": 61,
          "time": 176.5,
          "velocity": 0.8818897637795275,
          "duration": 0.4739583333333428
        },
        {
          "name": "F4",
          "midi": 65,
          "time": 176.5,
          "velocity": 0.8818897637795275,
          "duration": 0.4739583333333428
        },
        {
          "name": "A#4",
          "midi": 70,
          "time": 176.5,
          "velocity": 0.8818897637795275,
          "duration": 0.4739583333333428
        },
        {
          "name": "C#5",
          "midi": 73,
          "time": 176.5,
          "velocity": 0.8818897637795275,
          "duration": 0.4739583333333428
        },
        {
          "name": "G#4",
          "midi": 68,
          "time": 177.5,
          "velocity": 0.8818897637795275,
          "duration": 0.11770833333332575
        },
        {
          "name": "A#4",
          "midi": 70,
          "time": 177.625,
          "velocity": 0.8818897637795275,
          "duration": 0.11770833333332575
        },
        {
          "name": "C#5",
          "midi": 73,
          "time": 177.75,
          "velocity": 0.8818897637795275,
          "duration": 0.11770833333332575
        },
        {
          "name": "A#4",
          "midi": 70,
          "time": 177.875,
          "velocity": 0.8818897637795275,
          "duration": 0.11770833333332575
        },
        {
          "name": "F4",
          "midi": 65,
          "time": 178,
          "velocity": 0.8818897637795275,
          "duration": 0.3552083333333371
        },
        {
          "name": "A#4",
          "midi": 70,
          "time": 178,
          "velocity": 0.8818897637795275,
          "duration": 0.3552083333333371
        },
        {
          "name": "C#5",
          "midi": 73,
          "time": 178,
          "velocity": 0.8818897637795275,
          "duration": 0.3552083333333371
        },
        {
          "name": "F5",
          "midi": 77,
          "time": 178,
          "velocity": 0.8818897637795275,
          "duration": 0.3552083333333371
        },
        {
          "name": "F4",
          "midi": 65,
          "time": 178.375,
          "velocity": 0.8818897637795275,
          "duration": 0.3552083333333371
        },
        {
          "name": "A#4",
          "midi": 70,
          "time": 178.375,
          "velocity": 0.8818897637795275,
          "duration": 0.3552083333333371
        },
        {
          "name": "C#5",
          "midi": 73,
          "time": 178.375,
          "velocity": 0.8818897637795275,
          "duration": 0.3552083333333371
        },
        {
          "name": "F5",
          "midi": 77,
          "time": 178.375,
          "velocity": 0.8818897637795275,
          "duration": 0.3552083333333371
        },
        {
          "name": "D#4",
          "midi": 63,
          "time": 178.75,
          "velocity": 0.8818897637795275,
          "duration": 0.4739583333333428
        },
        {
          "name": "G#4",
          "midi": 68,
          "time": 178.75,
          "velocity": 0.8818897637795275,
          "duration": 0.4739583333333428
        },
        {
          "name": "C5",
          "midi": 72,
          "time": 178.75,
          "velocity": 0.8818897637795275,
          "duration": 0.4739583333333428
        },
        {
          "name": "D#5",
          "midi": 75,
          "time": 178.75,
          "velocity": 0.8818897637795275,
          "duration": 0.4739583333333428
        },
        {
          "name": "G#4",
          "midi": 68,
          "time": 179.5,
          "velocity": 0.8818897637795275,
          "duration": 0.11770833333332575
        },
        {
          "name": "A#4",
          "midi": 70,
          "time": 179.625,
          "velocity": 0.8818897637795275,
          "duration": 0.11770833333332575
        },
        {
          "name": "C#5",
          "midi": 73,
          "time": 179.75,
          "velocity": 0.8818897637795275,
          "duration": 0.11770833333332575
        },
        {
          "name": "A#4",
          "midi": 70,
          "time": 179.875,
          "velocity": 0.8818897637795275,
          "duration": 0.11770833333332575
        },
        {
          "name": "G#4",
          "midi": 68,
          "time": 180,
          "velocity": 0.8818897637795275,
          "duration": 0.4739583333333428
        },
        {
          "name": "C5",
          "midi": 72,
          "time": 180,
          "velocity": 0.8818897637795275,
          "duration": 0.4739583333333428
        },
        {
          "name": "F5",
          "midi": 77,
          "time": 180,
          "velocity": 0.8818897637795275,
          "duration": 0.4739583333333428
        },
        {
          "name": "G#5",
          "midi": 80,
          "time": 180,
          "velocity": 0.8818897637795275,
          "duration": 0.4739583333333428
        },
        {
          "name": "C5",
          "midi": 72,
          "time": 180.5,
          "velocity": 0.8818897637795275,
          "duration": 0.23645833333333144
        },
        {
          "name": "C#4",
          "midi": 61,
          "time": 180.75,
          "velocity": 0.8818897637795275,
          "duration": 0.3552083333333371
        },
        {
          "name": "F4",
          "midi": 65,
          "time": 180.75,
          "velocity": 0.8818897637795275,
          "duration": 0.3552083333333371
        },
        {
          "name": "A#4",
          "midi": 70,
          "time": 180.75,
          "velocity": 0.8818897637795275,
          "duration": 0.3552083333333371
        },
        {
          "name": "C#5",
          "midi": 73,
          "time": 180.75,
          "velocity": 0.8818897637795275,
          "duration": 0.3552083333333371
        },
        {
          "name": "C5",
          "midi": 72,
          "time": 181.125,
          "velocity": 0.8818897637795275,
          "duration": 0.11770833333332575
        },
        {
          "name": "A#4",
          "midi": 70,
          "time": 181.25,
          "velocity": 0.8818897637795275,
          "duration": 0.23645833333333144
        },
        {
          "name": "G#4",
          "midi": 68,
          "time": 181.5,
          "velocity": 0.8818897637795275,
          "duration": 0.11770833333332575
        },
        {
          "name": "A#4",
          "midi": 70,
          "time": 181.625,
          "velocity": 0.8818897637795275,
          "duration": 0.11770833333332575
        },
        {
          "name": "C#5",
          "midi": 73,
          "time": 181.75,
          "velocity": 0.8818897637795275,
          "duration": 0.11770833333332575
        },
        {
          "name": "A#4",
          "midi": 70,
          "time": 181.875,
          "velocity": 0.8818897637795275,
          "duration": 0.11770833333332575
        },
        {
          "name": "C#4",
          "midi": 61,
          "time": 182,
          "velocity": 0.8818897637795275,
          "duration": 0.4739583333333428
        },
        {
          "name": "F4",
          "midi": 65,
          "time": 182,
          "velocity": 0.8818897637795275,
          "duration": 0.4739583333333428
        },
        {
          "name": "A#4",
          "midi": 70,
          "time": 182,
          "velocity": 0.8818897637795275,
          "duration": 0.4739583333333428
        },
        {
          "name": "C#5",
          "midi": 73,
          "time": 182,
          "velocity": 0.8818897637795275,
          "duration": 0.4739583333333428
        },
        {
          "name": "F4",
          "midi": 65,
          "time": 182.5,
          "velocity": 0.8818897637795275,
          "duration": 0.23645833333333144
        },
        {
          "name": "A#4",
          "midi": 70,
          "time": 182.5,
          "velocity": 0.8818897637795275,
          "duration": 0.23645833333333144
        },
        {
          "name": "D#5",
          "midi": 75,
          "time": 182.5,
          "velocity": 0.8818897637795275,
          "duration": 0.23645833333333144
        },
        {
          "name": "A#4",
          "midi": 70,
          "time": 182.75,
          "velocity": 0.8818897637795275,
          "duration": 0.05833333333333712
        },
        {
          "name": "C4",
          "midi": 60,
          "time": 182.8125,
          "velocity": 0.8818897637795275,
          "duration": 0.29583333333332007
        },
        {
          "name": "D#4",
          "midi": 63,
          "time": 182.8125,
          "velocity": 0.8818897637795275,
          "duration": 0.29583333333332007
        },
        {
          "name": "G#4",
          "midi": 68,
          "time": 182.8125,
          "velocity": 0.8818897637795275,
          "duration": 0.29583333333332007
        },
        {
          "name": "C5",
          "midi": 72,
          "time": 182.8125,
          "velocity": 0.8818897637795275,
          "duration": 0.29583333333332007
        },
        {
          "name": "A#4",
          "midi": 70,
          "time": 183.125,
          "velocity": 0.8818897637795275,
          "duration": 0.11770833333332575
        },
        {
          "name": "G#4",
          "midi": 68,
          "time": 183.25,
          "velocity": 0.8818897637795275,
          "duration": 0.4739583333333428
        },
        {
          "name": "G#4",
          "midi": 68,
          "time": 183.75,
          "velocity": 0.8818897637795275,
          "duration": 0.23645833333333144
        },
        {
          "name": "D#4",
          "midi": 63,
          "time": 184,
          "velocity": 0.8818897637795275,
          "duration": 0.4739583333333428
        },
        {
          "name": "G#4",
          "midi": 68,
          "time": 184,
          "velocity": 0.8818897637795275,
          "duration": 0.4739583333333428
        },
        {
          "name": "C5",
          "midi": 72,
          "time": 184,
          "velocity": 0.8818897637795275,
          "duration": 0.4739583333333428
        },
        {
          "name": "D#5",
          "midi": 75,
          "time": 184,
          "velocity": 0.8818897637795275,
          "duration": 0.4739583333333428
        },
        {
          "name": "C#4",
          "midi": 61,
          "time": 184.5,
          "velocity": 0.8818897637795275,
          "duration": 0.4739583333333428
        },
        {
          "name": "F4",
          "midi": 65,
          "time": 184.5,
          "velocity": 0.8818897637795275,
          "duration": 0.4739583333333428
        },
        {
          "name": "A#4",
          "midi": 70,
          "time": 184.5,
          "velocity": 0.8818897637795275,
          "duration": 0.4739583333333428
        },
        {
          "name": "C#5",
          "midi": 73,
          "time": 184.5,
          "velocity": 0.8818897637795275,
          "duration": 0.4739583333333428
        },
        {
          "name": "G#4",
          "midi": 68,
          "time": 185.5,
          "velocity": 0.8818897637795275,
          "duration": 0.11770833333332575
        },
        {
          "name": "A#4",
          "midi": 70,
          "time": 185.625,
          "velocity": 0.8818897637795275,
          "duration": 0.11770833333332575
        },
        {
          "name": "C#5",
          "midi": 73,
          "time": 185.75,
          "velocity": 0.8818897637795275,
          "duration": 0.11770833333332575
        },
        {
          "name": "A#4",
          "midi": 70,
          "time": 185.875,
          "velocity": 0.8818897637795275,
          "duration": 0.11770833333332575
        },
        {
          "name": "F4",
          "midi": 65,
          "time": 186,
          "velocity": 0.8818897637795275,
          "duration": 0.3552083333333371
        },
        {
          "name": "A#4",
          "midi": 70,
          "time": 186,
          "velocity": 0.8818897637795275,
          "duration": 0.3552083333333371
        },
        {
          "name": "C#5",
          "midi": 73,
          "time": 186,
          "velocity": 0.8818897637795275,
          "duration": 0.3552083333333371
        },
        {
          "name": "F5",
          "midi": 77,
          "time": 186,
          "velocity": 0.8818897637795275,
          "duration": 0.3552083333333371
        },
        {
          "name": "F4",
          "midi": 65,
          "time": 186.375,
          "velocity": 0.8818897637795275,
          "duration": 0.3552083333333371
        },
        {
          "name": "A#4",
          "midi": 70,
          "time": 186.375,
          "velocity": 0.8818897637795275,
          "duration": 0.3552083333333371
        },
        {
          "name": "C#5",
          "midi": 73,
          "time": 186.375,
          "velocity": 0.8818897637795275,
          "duration": 0.3552083333333371
        },
        {
          "name": "F5",
          "midi": 77,
          "time": 186.375,
          "velocity": 0.8818897637795275,
          "duration": 0.3552083333333371
        },
        {
          "name": "D#4",
          "midi": 63,
          "time": 186.75,
          "velocity": 0.8818897637795275,
          "duration": 0.4739583333333428
        },
        {
          "name": "G#4",
          "midi": 68,
          "time": 186.75,
          "velocity": 0.8818897637795275,
          "duration": 0.4739583333333428
        },
        {
          "name": "C5",
          "midi": 72,
          "time": 186.75,
          "velocity": 0.8818897637795275,
          "duration": 0.4739583333333428
        },
        {
          "name": "D#5",
          "midi": 75,
          "time": 186.75,
          "velocity": 0.8818897637795275,
          "duration": 0.4739583333333428
        },
        {
          "name": "G#4",
          "midi": 68,
          "time": 187.5,
          "velocity": 0.8818897637795275,
          "duration": 0.11770833333332575
        },
        {
          "name": "A#4",
          "midi": 70,
          "time": 187.625,
          "velocity": 0.8818897637795275,
          "duration": 0.11770833333332575
        },
        {
          "name": "C#5",
          "midi": 73,
          "time": 187.75,
          "velocity": 0.8818897637795275,
          "duration": 0.11770833333332575
        },
        {
          "name": "A#4",
          "midi": 70,
          "time": 187.875,
          "velocity": 0.8818897637795275,
          "duration": 0.11770833333332575
        },
        {
          "name": "D#4",
          "midi": 63,
          "time": 188,
          "velocity": 0.8818897637795275,
          "duration": 0.3552083333333371
        },
        {
          "name": "G#4",
          "midi": 68,
          "time": 188,
          "velocity": 0.8818897637795275,
          "duration": 0.3552083333333371
        },
        {
          "name": "C5",
          "midi": 72,
          "time": 188,
          "velocity": 0.8818897637795275,
          "duration": 0.3552083333333371
        },
        {
          "name": "D#5",
          "midi": 75,
          "time": 188,
          "velocity": 0.8818897637795275,
          "duration": 0.3552083333333371
        },
        {
          "name": "D#4",
          "midi": 63,
          "time": 188.375,
          "velocity": 0.8818897637795275,
          "duration": 0.3552083333333371
        },
        {
          "name": "G#4",
          "midi": 68,
          "time": 188.375,
          "velocity": 0.8818897637795275,
          "duration": 0.3552083333333371
        },
        {
          "name": "C5",
          "midi": 72,
          "time": 188.375,
          "velocity": 0.8818897637795275,
          "duration": 0.3552083333333371
        },
        {
          "name": "D#5",
          "midi": 75,
          "time": 188.375,
          "velocity": 0.8818897637795275,
          "duration": 0.3552083333333371
        },
        {
          "name": "C#4",
          "midi": 61,
          "time": 188.75,
          "velocity": 0.8818897637795275,
          "duration": 0.3552083333333371
        },
        {
          "name": "F4",
          "midi": 65,
          "time": 188.75,
          "velocity": 0.8818897637795275,
          "duration": 0.3552083333333371
        },
        {
          "name": "A#4",
          "midi": 70,
          "time": 188.75,
          "velocity": 0.8818897637795275,
          "duration": 0.3552083333333371
        },
        {
          "name": "C#5",
          "midi": 73,
          "time": 188.75,
          "velocity": 0.8818897637795275,
          "duration": 0.3552083333333371
        },
        {
          "name": "C5",
          "midi": 72,
          "time": 189.125,
          "velocity": 0.8818897637795275,
          "duration": 0.11770833333332575
        },
        {
          "name": "A#4",
          "midi": 70,
          "time": 189.25,
          "velocity": 0.8818897637795275,
          "duration": 0.23645833333333144
        },
        {
          "name": "G#4",
          "midi": 68,
          "time": 189.5,
          "velocity": 0.8818897637795275,
          "duration": 0.11770833333332575
        },
        {
          "name": "A#4",
          "midi": 70,
          "time": 189.625,
          "velocity": 0.8818897637795275,
          "duration": 0.11770833333332575
        },
        {
          "name": "C#5",
          "midi": 73,
          "time": 189.75,
          "velocity": 0.8818897637795275,
          "duration": 0.11770833333332575
        },
        {
          "name": "A#4",
          "midi": 70,
          "time": 189.875,
          "velocity": 0.8818897637795275,
          "duration": 0.11770833333332575
        },
        {
          "name": "C#4",
          "midi": 61,
          "time": 190,
          "velocity": 0.8818897637795275,
          "duration": 0.4739583333333428
        },
        {
          "name": "F4",
          "midi": 65,
          "time": 190,
          "velocity": 0.8818897637795275,
          "duration": 0.4739583333333428
        },
        {
          "name": "A#4",
          "midi": 70,
          "time": 190,
          "velocity": 0.8818897637795275,
          "duration": 0.4739583333333428
        },
        {
          "name": "C#5",
          "midi": 73,
          "time": 190,
          "velocity": 0.8818897637795275,
          "duration": 0.4739583333333428
        },
        {
          "name": "F4",
          "midi": 65,
          "time": 190.5,
          "velocity": 0.8818897637795275,
          "duration": 0.23645833333333144
        },
        {
          "name": "A#4",
          "midi": 70,
          "time": 190.5,
          "velocity": 0.8818897637795275,
          "duration": 0.23645833333333144
        },
        {
          "name": "D#5",
          "midi": 75,
          "time": 190.5,
          "velocity": 0.8818897637795275,
          "duration": 0.23645833333333144
        },
        {
          "name": "A#4",
          "midi": 70,
          "time": 190.75,
          "velocity": 0.8818897637795275,
          "duration": 0.05833333333333712
        },
        {
          "name": "C4",
          "midi": 60,
          "time": 190.8125,
          "velocity": 0.8818897637795275,
          "duration": 0.29583333333332007
        },
        {
          "name": "D#4",
          "midi": 63,
          "time": 190.8125,
          "velocity": 0.8818897637795275,
          "duration": 0.29583333333332007
        },
        {
          "name": "G#4",
          "midi": 68,
          "time": 190.8125,
          "velocity": 0.8818897637795275,
          "duration": 0.29583333333332007
        },
        {
          "name": "C5",
          "midi": 72,
          "time": 190.8125,
          "velocity": 0.8818897637795275,
          "duration": 0.29583333333332007
        },
        {
          "name": "A#4",
          "midi": 70,
          "time": 191.125,
          "velocity": 0.8818897637795275,
          "duration": 0.11770833333332575
        },
        {
          "name": "G#4",
          "midi": 68,
          "time": 191.25,
          "velocity": 0.8818897637795275,
          "duration": 0.4739583333333428
        },
        {
          "name": "G#4",
          "midi": 68,
          "time": 191.75,
          "velocity": 0.8818897637795275,
          "duration": 0.23645833333333144
        },
        {
          "name": "D#4",
          "midi": 63,
          "time": 192,
          "velocity": 0.8818897637795275,
          "duration": 0.4739583333333428
        },
        {
          "name": "G#4",
          "midi": 68,
          "time": 192,
          "velocity": 0.8818897637795275,
          "duration": 0.4739583333333428
        },
        {
          "name": "C5",
          "midi": 72,
          "time": 192,
          "velocity": 0.8818897637795275,
          "duration": 0.4739583333333428
        },
        {
          "name": "D#5",
          "midi": 75,
          "time": 192,
          "velocity": 0.8818897637795275,
          "duration": 0.4739583333333428
        },
        {
          "name": "C#4",
          "midi": 61,
          "time": 192.5,
          "velocity": 0.8818897637795275,
          "duration": 0.4739583333333428
        },
        {
          "name": "F4",
          "midi": 65,
          "time": 192.5,
          "velocity": 0.8818897637795275,
          "duration": 0.4739583333333428
        },
        {
          "name": "A#4",
          "midi": 70,
          "time": 192.5,
          "velocity": 0.8818897637795275,
          "duration": 0.4739583333333428
        },
        {
          "name": "C#5",
          "midi": 73,
          "time": 192.5,
          "velocity": 0.8818897637795275,
          "duration": 0.4739583333333428
        },
        {
          "name": "G#4",
          "midi": 68,
          "time": 193.5,
          "velocity": 0.8818897637795275,
          "duration": 0.11770833333332575
        },
        {
          "name": "A#4",
          "midi": 70,
          "time": 193.625,
          "velocity": 0.8818897637795275,
          "duration": 0.11770833333332575
        },
        {
          "name": "C#5",
          "midi": 73,
          "time": 193.75,
          "velocity": 0.8818897637795275,
          "duration": 0.11770833333332575
        },
        {
          "name": "A#4",
          "midi": 70,
          "time": 193.875,
          "velocity": 0.8818897637795275,
          "duration": 0.11770833333332575
        },
        {
          "name": "F4",
          "midi": 65,
          "time": 194,
          "velocity": 0.8818897637795275,
          "duration": 0.3552083333333371
        },
        {
          "name": "A#4",
          "midi": 70,
          "time": 194,
          "velocity": 0.8818897637795275,
          "duration": 0.3552083333333371
        },
        {
          "name": "C#5",
          "midi": 73,
          "time": 194,
          "velocity": 0.8818897637795275,
          "duration": 0.3552083333333371
        },
        {
          "name": "F5",
          "midi": 77,
          "time": 194,
          "velocity": 0.8818897637795275,
          "duration": 0.3552083333333371
        },
        {
          "name": "F4",
          "midi": 65,
          "time": 194.375,
          "velocity": 0.8818897637795275,
          "duration": 0.3552083333333371
        },
        {
          "name": "A#4",
          "midi": 70,
          "time": 194.375,
          "velocity": 0.8818897637795275,
          "duration": 0.3552083333333371
        },
        {
          "name": "C#5",
          "midi": 73,
          "time": 194.375,
          "velocity": 0.8818897637795275,
          "duration": 0.3552083333333371
        },
        {
          "name": "F5",
          "midi": 77,
          "time": 194.375,
          "velocity": 0.8818897637795275,
          "duration": 0.3552083333333371
        },
        {
          "name": "D#4",
          "midi": 63,
          "time": 194.75,
          "velocity": 0.8818897637795275,
          "duration": 0.4739583333333428
        },
        {
          "name": "G#4",
          "midi": 68,
          "time": 194.75,
          "velocity": 0.8818897637795275,
          "duration": 0.4739583333333428
        },
        {
          "name": "C5",
          "midi": 72,
          "time": 194.75,
          "velocity": 0.8818897637795275,
          "duration": 0.4739583333333428
        },
        {
          "name": "D#5",
          "midi": 75,
          "time": 194.75,
          "velocity": 0.8818897637795275,
          "duration": 0.4739583333333428
        },
        {
          "name": "G#4",
          "midi": 68,
          "time": 195.5,
          "velocity": 0.8818897637795275,
          "duration": 0.11770833333332575
        },
        {
          "name": "A#4",
          "midi": 70,
          "time": 195.625,
          "velocity": 0.8818897637795275,
          "duration": 0.11770833333332575
        },
        {
          "name": "C#5",
          "midi": 73,
          "time": 195.75,
          "velocity": 0.8818897637795275,
          "duration": 0.11770833333332575
        },
        {
          "name": "A#4",
          "midi": 70,
          "time": 195.875,
          "velocity": 0.8818897637795275,
          "duration": 0.11770833333332575
        },
        {
          "name": "G#4",
          "midi": 68,
          "time": 196,
          "velocity": 0.8818897637795275,
          "duration": 0.4739583333333428
        },
        {
          "name": "C5",
          "midi": 72,
          "time": 196,
          "velocity": 0.8818897637795275,
          "duration": 0.4739583333333428
        },
        {
          "name": "F5",
          "midi": 77,
          "time": 196,
          "velocity": 0.8818897637795275,
          "duration": 0.4739583333333428
        },
        {
          "name": "G#5",
          "midi": 80,
          "time": 196,
          "velocity": 0.8818897637795275,
          "duration": 0.4739583333333428
        },
        {
          "name": "C5",
          "midi": 72,
          "time": 196.5,
          "velocity": 0.8818897637795275,
          "duration": 0.23645833333333144
        },
        {
          "name": "C#4",
          "midi": 61,
          "time": 196.75,
          "velocity": 0.8818897637795275,
          "duration": 0.3552083333333371
        },
        {
          "name": "F4",
          "midi": 65,
          "time": 196.75,
          "velocity": 0.8818897637795275,
          "duration": 0.3552083333333371
        },
        {
          "name": "A#4",
          "midi": 70,
          "time": 196.75,
          "velocity": 0.8818897637795275,
          "duration": 0.3552083333333371
        },
        {
          "name": "C#5",
          "midi": 73,
          "time": 196.75,
          "velocity": 0.8818897637795275,
          "duration": 0.3552083333333371
        },
        {
          "name": "C5",
          "midi": 72,
          "time": 197.125,
          "velocity": 0.8818897637795275,
          "duration": 0.11770833333332575
        },
        {
          "name": "A#4",
          "midi": 70,
          "time": 197.25,
          "velocity": 0.8818897637795275,
          "duration": 0.23645833333333144
        },
        {
          "name": "G#4",
          "midi": 68,
          "time": 197.5,
          "velocity": 0.8818897637795275,
          "duration": 0.11770833333332575
        },
        {
          "name": "A#4",
          "midi": 70,
          "time": 197.625,
          "velocity": 0.8818897637795275,
          "duration": 0.11770833333332575
        },
        {
          "name": "C#5",
          "midi": 73,
          "time": 197.75,
          "velocity": 0.8818897637795275,
          "duration": 0.11770833333332575
        },
        {
          "name": "A#4",
          "midi": 70,
          "time": 197.875,
          "velocity": 0.8818897637795275,
          "duration": 0.11770833333332575
        },
        {
          "name": "C#4",
          "midi": 61,
          "time": 198,
          "velocity": 0.8818897637795275,
          "duration": 0.4739583333333428
        },
        {
          "name": "F4",
          "midi": 65,
          "time": 198,
          "velocity": 0.8818897637795275,
          "duration": 0.4739583333333428
        },
        {
          "name": "A#4",
          "midi": 70,
          "time": 198,
          "velocity": 0.8818897637795275,
          "duration": 0.4739583333333428
        },
        {
          "name": "C#5",
          "midi": 73,
          "time": 198,
          "velocity": 0.8818897637795275,
          "duration": 0.4739583333333428
        },
        {
          "name": "F4",
          "midi": 65,
          "time": 198.5,
          "velocity": 0.8818897637795275,
          "duration": 0.23645833333333144
        },
        {
          "name": "A#4",
          "midi": 70,
          "time": 198.5,
          "velocity": 0.8818897637795275,
          "duration": 0.23645833333333144
        },
        {
          "name": "D#5",
          "midi": 75,
          "time": 198.5,
          "velocity": 0.8818897637795275,
          "duration": 0.23645833333333144
        },
        {
          "name": "A#4",
          "midi": 70,
          "time": 198.75,
          "velocity": 0.8818897637795275,
          "duration": 0.05833333333333712
        },
        {
          "name": "C4",
          "midi": 60,
          "time": 198.8125,
          "velocity": 0.8818897637795275,
          "duration": 0.29583333333332007
        },
        {
          "name": "D#4",
          "midi": 63,
          "time": 198.8125,
          "velocity": 0.8818897637795275,
          "duration": 0.29583333333332007
        },
        {
          "name": "G#4",
          "midi": 68,
          "time": 198.8125,
          "velocity": 0.8818897637795275,
          "duration": 0.29583333333332007
        },
        {
          "name": "C5",
          "midi": 72,
          "time": 198.8125,
          "velocity": 0.8818897637795275,
          "duration": 0.29583333333332007
        },
        {
          "name": "A#4",
          "midi": 70,
          "time": 199.125,
          "velocity": 0.8818897637795275,
          "duration": 0.11770833333332575
        },
        {
          "name": "G#4",
          "midi": 68,
          "time": 199.25,
          "velocity": 0.8818897637795275,
          "duration": 0.4739583333333428
        },
        {
          "name": "G#4",
          "midi": 68,
          "time": 199.75,
          "velocity": 0.8818897637795275,
          "duration": 0.23645833333333144
        },
        {
          "name": "D#4",
          "midi": 63,
          "time": 200,
          "velocity": 0.8818897637795275,
          "duration": 0.4739583333333428
        },
        {
          "name": "G#4",
          "midi": 68,
          "time": 200,
          "velocity": 0.8818897637795275,
          "duration": 0.4739583333333428
        },
        {
          "name": "C5",
          "midi": 72,
          "time": 200,
          "velocity": 0.8818897637795275,
          "duration": 0.4739583333333428
        },
        {
          "name": "D#5",
          "midi": 75,
          "time": 200,
          "velocity": 0.8818897637795275,
          "duration": 0.4739583333333428
        },
        {
          "name": "C#4",
          "midi": 61,
          "time": 200.5,
          "velocity": 0.8818897637795275,
          "duration": 0.4739583333333428
        },
        {
          "name": "F4",
          "midi": 65,
          "time": 200.5,
          "velocity": 0.8818897637795275,
          "duration": 0.4739583333333428
        },
        {
          "name": "A#4",
          "midi": 70,
          "time": 200.5,
          "velocity": 0.8818897637795275,
          "duration": 0.4739583333333428
        },
        {
          "name": "C#5",
          "midi": 73,
          "time": 200.5,
          "velocity": 0.8818897637795275,
          "duration": 0.4739583333333428
        }
      ],
      "controlChanges": {
        "7": [
          {
            "number": 7,
            "time": 0,
            "value": 0.7874015748031497
          }
        ],
        "10": [
          {
            "number": 10,
            "time": 0,
            "value": 0.5039370078740157
          }
        ],
        "91": [
          {
            "number": 91,
            "time": 0,
            "value": 0
          }
        ],
        "93": [
          {
            "number": 93,
            "time": 0,
            "value": 0
          }
        ],
        "121": [
          {
            "number": 121,
            "time": 0,
            "value": 0
          }
        ]
      },
      "id": 0,
      "name": "Piano",
      "instrumentNumber": 0,
      "instrument": "acoustic grand piano",
      "instrumentFamily": "piano",
      "channelNumber": 0,
      "isPercussion": false
    },
    {
      "startTime": 0.875,
      "duration": 201.94895833333504,
      "length": 1485,
      "notes": [
        {
          "name": "A#1",
          "midi": 34,
          "time": 0.875,
          "velocity": 0.6299212598425197,
          "duration": 0.1177083333333333
        },
        {
          "name": "A#1",
          "midi": 34,
          "time": 1,
          "velocity": 0.6299212598425197,
          "duration": 0.23645833333333321
        },
        {
          "name": "A#1",
          "midi": 34,
          "time": 1.2499999999999998,
          "velocity": 0.6299212598425197,
          "duration": 0.1177083333333333
        },
        {
          "name": "A#1",
          "midi": 34,
          "time": 1.3749999999999998,
          "velocity": 0.6299212598425197,
          "duration": 0.23645833333333344
        },
        {
          "name": "A#1",
          "midi": 34,
          "time": 1.6249999999999998,
          "velocity": 0.6299212598425197,
          "duration": 0.1177083333333333
        },
        {
          "name": "A#1",
          "midi": 34,
          "time": 1.7499999999999998,
          "velocity": 0.6299212598425197,
          "duration": 0.1177083333333333
        },
        {
          "name": "A#1",
          "midi": 34,
          "time": 1.8749999999999998,
          "velocity": 0.6299212598425197,
          "duration": 0.1177083333333333
        },
        {
          "name": "A#1",
          "midi": 34,
          "time": 1.9999999999999998,
          "velocity": 0.6299212598425197,
          "duration": 0.23645833333333344
        },
        {
          "name": "A#2",
          "midi": 46,
          "time": 1.9999999999999998,
          "velocity": 0.6299212598425197,
          "duration": 0.23645833333333344
        },
        {
          "name": "C#2",
          "midi": 37,
          "time": 2.25,
          "velocity": 0.6299212598425197,
          "duration": 0.1177083333333333
        },
        {
          "name": "F2",
          "midi": 41,
          "time": 2.375,
          "velocity": 0.6299212598425197,
          "duration": 0.1177083333333333
        },
        {
          "name": "F2",
          "midi": 41,
          "time": 2.5,
          "velocity": 0.6299212598425197,
          "duration": 0.23645833333333321
        },
        {
          "name": "A#2",
          "midi": 46,
          "time": 2.5,
          "velocity": 0.6299212598425197,
          "duration": 0.23645833333333321
        },
        {
          "name": "G#1",
          "midi": 32,
          "time": 2.75,
          "velocity": 0.6299212598425197,
          "duration": 0.23645833333333321
        },
        {
          "name": "G#2",
          "midi": 44,
          "time": 2.75,
          "velocity": 0.6299212598425197,
          "duration": 0.23645833333333321
        },
        {
          "name": "C3",
          "midi": 48,
          "time": 3,
          "velocity": 0.6299212598425197,
          "duration": 0.1177083333333333
        },
        {
          "name": "D#3",
          "midi": 51,
          "time": 3.125,
          "velocity": 0.6299212598425197,
          "duration": 0.1177083333333333
        },
        {
          "name": "G#3",
          "midi": 56,
          "time": 3.25,
          "velocity": 0.6299212598425197,
          "duration": 0.23645833333333321
        },
        {
          "name": "D#3",
          "midi": 51,
          "time": 3.5,
          "velocity": 0.6299212598425197,
          "duration": 0.1177083333333333
        },
        {
          "name": "C3",
          "midi": 48,
          "time": 3.625,
          "velocity": 0.6299212598425197,
          "duration": 0.1177083333333333
        },
        {
          "name": "G#2",
          "midi": 44,
          "time": 3.75,
          "velocity": 0.6299212598425197,
          "duration": 0.23645833333333321
        },
        {
          "name": "F2",
          "midi": 41,
          "time": 4,
          "velocity": 0.6299212598425197,
          "duration": 0.23645833333333321
        },
        {
          "name": "F3",
          "midi": 53,
          "time": 4,
          "velocity": 0.6299212598425197,
          "duration": 0.23645833333333321
        },
        {
          "name": "G#2",
          "midi": 44,
          "time": 4.25,
          "velocity": 0.6299212598425197,
          "duration": 0.11770833333333375
        },
        {
          "name": "C3",
          "midi": 48,
          "time": 4.375,
          "velocity": 0.6299212598425197,
          "duration": 0.11770833333333375
        },
        {
          "name": "D#3",
          "midi": 51,
          "time": 4.5,
          "velocity": 0.6299212598425197,
          "duration": 0.23645833333333321
        },
        {
          "name": "F3",
          "midi": 53,
          "time": 4.5,
          "velocity": 0.6299212598425197,
          "duration": 0.23645833333333321
        },
        {
          "name": "A#1",
          "midi": 34,
          "time": 4.75,
          "velocity": 0.6299212598425197,
          "duration": 0.23645833333333321
        },
        {
          "name": "A#2",
          "midi": 46,
          "time": 4.75,
          "velocity": 0.6299212598425197,
          "duration": 0.23645833333333321
        },
        {
          "name": "C#3",
          "midi": 49,
          "time": 5,
          "velocity": 0.6299212598425197,
          "duration": 0.11770833333333375
        },
        {
          "name": "F3",
          "midi": 53,
          "time": 5.125,
          "velocity": 0.6299212598425197,
          "duration": 0.11770833333333375
        },
        {
          "name": "A#3",
          "midi": 58,
          "time": 5.25,
          "velocity": 0.6299212598425197,
          "duration": 0.23645833333333321
        },
        {
          "name": "G#3",
          "midi": 56,
          "time": 5.5,
          "velocity": 0.6299212598425197,
          "duration": 0.11770833333333375
        },
        {
          "name": "F#3",
          "midi": 54,
          "time": 5.625,
          "velocity": 0.6299212598425197,
          "duration": 0.11770833333333375
        },
        {
          "name": "D#3",
          "midi": 51,
          "time": 5.75,
          "velocity": 0.6299212598425197,
          "duration": 0.23645833333333321
        },
        {
          "name": "A#1",
          "midi": 34,
          "time": 6,
          "velocity": 0.6299212598425197,
          "duration": 0.23645833333333321
        },
        {
          "name": "A#2",
          "midi": 46,
          "time": 6,
          "velocity": 0.6299212598425197,
          "duration": 0.23645833333333321
        },
        {
          "name": "C#2",
          "midi": 37,
          "time": 6.25,
          "velocity": 0.6299212598425197,
          "duration": 0.11770833333333375
        },
        {
          "name": "F2",
          "midi": 41,
          "time": 6.375,
          "velocity": 0.6299212598425197,
          "duration": 0.11770833333333375
        },
        {
          "name": "F2",
          "midi": 41,
          "time": 6.5,
          "velocity": 0.6299212598425197,
          "duration": 0.23645833333333321
        },
        {
          "name": "A#2",
          "midi": 46,
          "time": 6.5,
          "velocity": 0.6299212598425197,
          "duration": 0.23645833333333321
        },
        {
          "name": "G#1",
          "midi": 32,
          "time": 6.75,
          "velocity": 0.6299212598425197,
          "duration": 0.23645833333333321
        },
        {
          "name": "G#2",
          "midi": 44,
          "time": 6.75,
          "velocity": 0.6299212598425197,
          "duration": 0.23645833333333321
        },
        {
          "name": "C3",
          "midi": 48,
          "time": 7,
          "velocity": 0.6299212598425197,
          "duration": 0.11770833333333375
        },
        {
          "name": "D#3",
          "midi": 51,
          "time": 7.125,
          "velocity": 0.6299212598425197,
          "duration": 0.11770833333333375
        },
        {
          "name": "G#3",
          "midi": 56,
          "time": 7.25,
          "velocity": 0.6299212598425197,
          "duration": 0.23645833333333321
        },
        {
          "name": "D#3",
          "midi": 51,
          "time": 7.5,
          "velocity": 0.6299212598425197,
          "duration": 0.11770833333333375
        },
        {
          "name": "C3",
          "midi": 48,
          "time": 7.625,
          "velocity": 0.6299212598425197,
          "duration": 0.11770833333333375
        },
        {
          "name": "G#2",
          "midi": 44,
          "time": 7.75,
          "velocity": 0.6299212598425197,
          "duration": 0.23645833333333321
        },
        {
          "name": "F2",
          "midi": 41,
          "time": 8,
          "velocity": 0.6299212598425197,
          "duration": 0.236458333333335
        },
        {
          "name": "D#3",
          "midi": 51,
          "time": 8,
          "velocity": 0.6299212598425197,
          "duration": 0.236458333333335
        },
        {
          "name": "G#2",
          "midi": 44,
          "time": 8.250000000000002,
          "velocity": 0.6299212598425197,
          "duration": 0.11770833333333286
        },
        {
          "name": "C3",
          "midi": 48,
          "time": 8.375000000000002,
          "velocity": 0.6299212598425197,
          "duration": 0.11770833333333286
        },
        {
          "name": "C3",
          "midi": 48,
          "time": 8.500000000000002,
          "velocity": 0.6299212598425197,
          "duration": 0.23645833333333321
        },
        {
          "name": "F3",
          "midi": 53,
          "time": 8.500000000000002,
          "velocity": 0.6299212598425197,
          "duration": 0.23645833333333321
        },
        {
          "name": "C#2",
          "midi": 37,
          "time": 8.750000000000002,
          "velocity": 0.6299212598425197,
          "duration": 0.236458333333335
        },
        {
          "name": "C#3",
          "midi": 49,
          "time": 8.750000000000002,
          "velocity": 0.6299212598425197,
          "duration": 0.236458333333335
        },
        {
          "name": "F3",
          "midi": 53,
          "time": 9.000000000000004,
          "velocity": 0.6299212598425197,
          "duration": 0.11770833333333286
        },
        {
          "name": "G#3",
          "midi": 56,
          "time": 9.125000000000004,
          "velocity": 0.6299212598425197,
          "duration": 0.11770833333333286
        },
        {
          "name": "C#4",
          "midi": 61,
          "time": 9.250000000000004,
          "velocity": 0.6299212598425197,
          "duration": 0.23645833333333321
        },
        {
          "name": "G#3",
          "midi": 56,
          "time": 9.500000000000004,
          "velocity": 0.6299212598425197,
          "duration": 0.11770833333333286
        },
        {
          "name": "F3",
          "midi": 53,
          "time": 9.625000000000004,
          "velocity": 0.6299212598425197,
          "duration": 0.11770833333333286
        },
        {
          "name": "C#3",
          "midi": 49,
          "time": 9.750000000000004,
          "velocity": 0.6299212598425197,
          "duration": 0.23645833333333321
        },
        {
          "name": "A#1",
          "midi": 34,
          "time": 10.000000000000004,
          "velocity": 0.6299212598425197,
          "duration": 0.236458333333335
        },
        {
          "name": "A#2",
          "midi": 46,
          "time": 10.000000000000004,
          "velocity": 0.6299212598425197,
          "duration": 0.236458333333335
        },
        {
          "name": "C#2",
          "midi": 37,
          "time": 10.250000000000005,
          "velocity": 0.6299212598425197,
          "duration": 0.11770833333333286
        },
        {
          "name": "F2",
          "midi": 41,
          "time": 10.375000000000005,
          "velocity": 0.6299212598425197,
          "duration": 0.11770833333333286
        },
        {
          "name": "F2",
          "midi": 41,
          "time": 10.500000000000005,
          "velocity": 0.6299212598425197,
          "duration": 0.23645833333333321
        },
        {
          "name": "A#2",
          "midi": 46,
          "time": 10.500000000000005,
          "velocity": 0.6299212598425197,
          "duration": 0.23645833333333321
        },
        {
          "name": "G#1",
          "midi": 32,
          "time": 10.750000000000005,
          "velocity": 0.6299212598425197,
          "duration": 0.236458333333335
        },
        {
          "name": "G#2",
          "midi": 44,
          "time": 10.750000000000005,
          "velocity": 0.6299212598425197,
          "duration": 0.236458333333335
        },
        {
          "name": "C3",
          "midi": 48,
          "time": 11.000000000000007,
          "velocity": 0.6299212598425197,
          "duration": 0.11770833333333286
        },
        {
          "name": "D#3",
          "midi": 51,
          "time": 11.125000000000007,
          "velocity": 0.6299212598425197,
          "duration": 0.11770833333333286
        },
        {
          "name": "G#3",
          "midi": 56,
          "time": 11.250000000000007,
          "velocity": 0.6299212598425197,
          "duration": 0.23645833333333321
        },
        {
          "name": "D#3",
          "midi": 51,
          "time": 11.500000000000007,
          "velocity": 0.6299212598425197,
          "duration": 0.11770833333333286
        },
        {
          "name": "C3",
          "midi": 48,
          "time": 11.625000000000007,
          "velocity": 0.6299212598425197,
          "duration": 0.11770833333333286
        },
        {
          "name": "G#2",
          "midi": 44,
          "time": 11.750000000000007,
          "velocity": 0.6299212598425197,
          "duration": 0.23645833333333321
        },
        {
          "name": "F2",
          "midi": 41,
          "time": 12.000000000000007,
          "velocity": 0.6299212598425197,
          "duration": 0.236458333333335
        },
        {
          "name": "F3",
          "midi": 53,
          "time": 12.000000000000007,
          "velocity": 0.6299212598425197,
          "duration": 0.236458333333335
        },
        {
          "name": "G#2",
          "midi": 44,
          "time": 12.250000000000009,
          "velocity": 0.6299212598425197,
          "duration": 0.11770833333333286
        },
        {
          "name": "C3",
          "midi": 48,
          "time": 12.375000000000009,
          "velocity": 0.6299212598425197,
          "duration": 0.11770833333333286
        },
        {
          "name": "D#3",
          "midi": 51,
          "time": 12.500000000000009,
          "velocity": 0.6299212598425197,
          "duration": 0.23645833333333321
        },
        {
          "name": "F3",
          "midi": 53,
          "time": 12.500000000000009,
          "velocity": 0.6299212598425197,
          "duration": 0.23645833333333321
        },
        {
          "name": "A#1",
          "midi": 34,
          "time": 12.750000000000009,
          "velocity": 0.6299212598425197,
          "duration": 0.236458333333335
        },
        {
          "name": "A#2",
          "midi": 46,
          "time": 12.750000000000009,
          "velocity": 0.6299212598425197,
          "duration": 0.236458333333335
        },
        {
          "name": "C#3",
          "midi": 49,
          "time": 13.00000000000001,
          "velocity": 0.6299212598425197,
          "duration": 0.11770833333333286
        },
        {
          "name": "F3",
          "midi": 53,
          "time": 13.12500000000001,
          "velocity": 0.6299212598425197,
          "duration": 0.11770833333333286
        },
        {
          "name": "A#3",
          "midi": 58,
          "time": 13.25000000000001,
          "velocity": 0.6299212598425197,
          "duration": 0.23645833333333321
        },
        {
          "name": "G#3",
          "midi": 56,
          "time": 13.50000000000001,
          "velocity": 0.6299212598425197,
          "duration": 0.11770833333333286
        },
        {
          "name": "F#3",
          "midi": 54,
          "time": 13.62500000000001,
          "velocity": 0.6299212598425197,
          "duration": 0.11770833333333286
        },
        {
          "name": "D#3",
          "midi": 51,
          "time": 13.75000000000001,
          "velocity": 0.6299212598425197,
          "duration": 0.23645833333333321
        },
        {
          "name": "A#1",
          "midi": 34,
          "time": 14.00000000000001,
          "velocity": 0.6299212598425197,
          "duration": 0.236458333333335
        },
        {
          "name": "A#2",
          "midi": 46,
          "time": 14.00000000000001,
          "velocity": 0.6299212598425197,
          "duration": 0.236458333333335
        },
        {
          "name": "C#2",
          "midi": 37,
          "time": 14.250000000000012,
          "velocity": 0.6299212598425197,
          "duration": 0.11770833333333286
        },
        {
          "name": "F2",
          "midi": 41,
          "time": 14.375000000000012,
          "velocity": 0.6299212598425197,
          "duration": 0.11770833333333286
        },
        {
          "name": "F2",
          "midi": 41,
          "time": 14.500000000000012,
          "velocity": 0.6299212598425197,
          "duration": 0.23645833333333321
        },
        {
          "name": "A#2",
          "midi": 46,
          "time": 14.500000000000012,
          "velocity": 0.6299212598425197,
          "duration": 0.23645833333333321
        },
        {
          "name": "G#1",
          "midi": 32,
          "time": 14.750000000000012,
          "velocity": 0.6299212598425197,
          "duration": 0.236458333333335
        },
        {
          "name": "G#2",
          "midi": 44,
          "time": 14.750000000000012,
          "velocity": 0.6299212598425197,
          "duration": 0.236458333333335
        },
        {
          "name": "C3",
          "midi": 48,
          "time": 15.000000000000014,
          "velocity": 0.6299212598425197,
          "duration": 0.11770833333333286
        },
        {
          "name": "D#3",
          "midi": 51,
          "time": 15.125000000000014,
          "velocity": 0.6299212598425197,
          "duration": 0.11770833333333286
        },
        {
          "name": "G#3",
          "midi": 56,
          "time": 15.250000000000014,
          "velocity": 0.6299212598425197,
          "duration": 0.23645833333333321
        },
        {
          "name": "D#3",
          "midi": 51,
          "time": 15.500000000000014,
          "velocity": 0.6299212598425197,
          "duration": 0.11770833333333286
        },
        {
          "name": "C3",
          "midi": 48,
          "time": 15.625000000000014,
          "velocity": 0.6299212598425197,
          "duration": 0.11770833333333286
        },
        {
          "name": "G#2",
          "midi": 44,
          "time": 15.750000000000014,
          "velocity": 0.6299212598425197,
          "duration": 0.23645833333333321
        },
        {
          "name": "F2",
          "midi": 41,
          "time": 16.000000000000014,
          "velocity": 0.6299212598425197,
          "duration": 0.23645833333333144
        },
        {
          "name": "D#3",
          "midi": 51,
          "time": 16.000000000000014,
          "velocity": 0.6299212598425197,
          "duration": 0.23645833333333144
        },
        {
          "name": "G#2",
          "midi": 44,
          "time": 16.25000000000001,
          "velocity": 0.6299212598425197,
          "duration": 0.11770833333333286
        },
        {
          "name": "C3",
          "midi": 48,
          "time": 16.37500000000001,
          "velocity": 0.6299212598425197,
          "duration": 0.11770833333333286
        },
        {
          "name": "C3",
          "midi": 48,
          "time": 16.50000000000001,
          "velocity": 0.6299212598425197,
          "duration": 0.236458333333335
        },
        {
          "name": "F3",
          "midi": 53,
          "time": 16.50000000000001,
          "velocity": 0.6299212598425197,
          "duration": 0.236458333333335
        },
        {
          "name": "C#2",
          "midi": 37,
          "time": 16.75000000000001,
          "velocity": 0.6299212598425197,
          "duration": 0.23645833333333144
        },
        {
          "name": "C#3",
          "midi": 49,
          "time": 16.75000000000001,
          "velocity": 0.6299212598425197,
          "duration": 0.23645833333333144
        },
        {
          "name": "F3",
          "midi": 53,
          "time": 17.000000000000007,
          "velocity": 0.6299212598425197,
          "duration": 0.11770833333333286
        },
        {
          "name": "G#3",
          "midi": 56,
          "time": 17.125000000000007,
          "velocity": 0.6299212598425197,
          "duration": 0.11770833333333286
        },
        {
          "name": "C#4",
          "midi": 61,
          "time": 17.250000000000007,
          "velocity": 0.6299212598425197,
          "duration": 0.236458333333335
        },
        {
          "name": "G#3",
          "midi": 56,
          "time": 17.500000000000007,
          "velocity": 0.6299212598425197,
          "duration": 0.11770833333333286
        },
        {
          "name": "F3",
          "midi": 53,
          "time": 17.625000000000007,
          "velocity": 0.6299212598425197,
          "duration": 0.11770833333333286
        },
        {
          "name": "C#3",
          "midi": 49,
          "time": 17.750000000000007,
          "velocity": 0.6299212598425197,
          "duration": 0.236458333333335
        },
        {
          "name": "A#1",
          "midi": 34,
          "time": 18.000000000000007,
          "velocity": 0.6299212598425197,
          "duration": 0.23645833333333144
        },
        {
          "name": "A#2",
          "midi": 46,
          "time": 18.000000000000007,
          "velocity": 0.6299212598425197,
          "duration": 0.23645833333333144
        },
        {
          "name": "C#2",
          "midi": 37,
          "time": 18.250000000000004,
          "velocity": 0.6299212598425197,
          "duration": 0.11770833333333286
        },
        {
          "name": "F2",
          "midi": 41,
          "time": 18.375000000000004,
          "velocity": 0.6299212598425197,
          "duration": 0.11770833333333286
        },
        {
          "name": "F2",
          "midi": 41,
          "time": 18.500000000000004,
          "velocity": 0.6299212598425197,
          "duration": 0.236458333333335
        },
        {
          "name": "A#2",
          "midi": 46,
          "time": 18.500000000000004,
          "velocity": 0.6299212598425197,
          "duration": 0.236458333333335
        },
        {
          "name": "A#1",
          "midi": 34,
          "time": 18.750000000000004,
          "velocity": 0.6299212598425197,
          "duration": 0.236458333333335
        },
        {
          "name": "A#2",
          "midi": 46,
          "time": 18.750000000000004,
          "velocity": 0.6299212598425197,
          "duration": 0.236458333333335
        },
        {
          "name": "C#3",
          "midi": 49,
          "time": 19.000000000000004,
          "velocity": 0.6299212598425197,
          "duration": 0.11770833333333286
        },
        {
          "name": "F3",
          "midi": 53,
          "time": 19.125000000000004,
          "velocity": 0.6299212598425197,
          "duration": 0.11770833333333286
        },
        {
          "name": "A#3",
          "midi": 58,
          "time": 19.250000000000004,
          "velocity": 0.6299212598425197,
          "duration": 0.236458333333335
        },
        {
          "name": "F3",
          "midi": 53,
          "time": 19.500000000000004,
          "velocity": 0.6299212598425197,
          "duration": 0.11770833333333286
        },
        {
          "name": "C#3",
          "midi": 49,
          "time": 19.625000000000004,
          "velocity": 0.6299212598425197,
          "duration": 0.11770833333333286
        },
        {
          "name": "A#2",
          "midi": 46,
          "time": 19.750000000000004,
          "velocity": 0.6299212598425197,
          "duration": 0.236458333333335
        },
        {
          "name": "G#1",
          "midi": 32,
          "time": 20.000000000000004,
          "velocity": 0.6299212598425197,
          "duration": 0.23645833333333144
        },
        {
          "name": "G#2",
          "midi": 44,
          "time": 20.000000000000004,
          "velocity": 0.6299212598425197,
          "duration": 0.23645833333333144
        },
        {
          "name": "C2",
          "midi": 36,
          "time": 20.25,
          "velocity": 0.6299212598425197,
          "duration": 0.11770833333333286
        },
        {
          "name": "D#2",
          "midi": 39,
          "time": 20.375,
          "velocity": 0.6299212598425197,
          "duration": 0.11770833333333286
        },
        {
          "name": "D#2",
          "midi": 39,
          "time": 20.5,
          "velocity": 0.6299212598425197,
          "duration": 0.236458333333335
        },
        {
          "name": "G#2",
          "midi": 44,
          "time": 20.5,
          "velocity": 0.6299212598425197,
          "duration": 0.236458333333335
        },
        {
          "name": "G#1",
          "midi": 32,
          "time": 20.75,
          "velocity": 0.6299212598425197,
          "duration": 0.236458333333335
        },
        {
          "name": "G#2",
          "midi": 44,
          "time": 20.75,
          "velocity": 0.6299212598425197,
          "duration": 0.236458333333335
        },
        {
          "name": "C3",
          "midi": 48,
          "time": 21,
          "velocity": 0.6299212598425197,
          "duration": 0.11770833333333286
        },
        {
          "name": "D#3",
          "midi": 51,
          "time": 21.125,
          "velocity": 0.6299212598425197,
          "duration": 0.11770833333333286
        },
        {
          "name": "G#3",
          "midi": 56,
          "time": 21.25,
          "velocity": 0.6299212598425197,
          "duration": 0.236458333333335
        },
        {
          "name": "D#3",
          "midi": 51,
          "time": 21.5,
          "velocity": 0.6299212598425197,
          "duration": 0.11770833333333286
        },
        {
          "name": "C3",
          "midi": 48,
          "time": 21.625,
          "velocity": 0.6299212598425197,
          "duration": 0.11770833333333286
        },
        {
          "name": "G#2",
          "midi": 44,
          "time": 21.75,
          "velocity": 0.6299212598425197,
          "duration": 0.236458333333335
        },
        {
          "name": "F#1",
          "midi": 30,
          "time": 22,
          "velocity": 0.6299212598425197,
          "duration": 0.23645833333333144
        },
        {
          "name": "F#2",
          "midi": 42,
          "time": 22,
          "velocity": 0.6299212598425197,
          "duration": 0.23645833333333144
        },
        {
          "name": "A#1",
          "midi": 34,
          "time": 22.249999999999996,
          "velocity": 0.6299212598425197,
          "duration": 0.11770833333333286
        },
        {
          "name": "C#2",
          "midi": 37,
          "time": 22.374999999999996,
          "velocity": 0.6299212598425197,
          "duration": 0.11770833333333286
        },
        {
          "name": "C#2",
          "midi": 37,
          "time": 22.499999999999996,
          "velocity": 0.6299212598425197,
          "duration": 0.236458333333335
        },
        {
          "name": "F#2",
          "midi": 42,
          "time": 22.499999999999996,
          "velocity": 0.6299212598425197,
          "duration": 0.236458333333335
        },
        {
          "name": "F#1",
          "midi": 30,
          "time": 22.749999999999996,
          "velocity": 0.6299212598425197,
          "duration": 0.236458333333335
        },
        {
          "name": "F#2",
          "midi": 42,
          "time": 22.749999999999996,
          "velocity": 0.6299212598425197,
          "duration": 0.236458333333335
        },
        {
          "name": "A#2",
          "midi": 46,
          "time": 22.999999999999996,
          "velocity": 0.6299212598425197,
          "duration": 0.11770833333333286
        },
        {
          "name": "C#3",
          "midi": 49,
          "time": 23.124999999999996,
          "velocity": 0.6299212598425197,
          "duration": 0.11770833333333286
        },
        {
          "name": "F#3",
          "midi": 54,
          "time": 23.249999999999996,
          "velocity": 0.6299212598425197,
          "duration": 0.236458333333335
        },
        {
          "name": "C#3",
          "midi": 49,
          "time": 23.499999999999996,
          "velocity": 0.6299212598425197,
          "duration": 0.11770833333333286
        },
        {
          "name": "A#2",
          "midi": 46,
          "time": 23.624999999999996,
          "velocity": 0.6299212598425197,
          "duration": 0.11770833333333286
        },
        {
          "name": "F#2",
          "midi": 42,
          "time": 23.749999999999996,
          "velocity": 0.6299212598425197,
          "duration": 0.236458333333335
        },
        {
          "name": "G#1",
          "midi": 32,
          "time": 23.999999999999996,
          "velocity": 0.6299212598425197,
          "duration": 0.23645833333333144
        },
        {
          "name": "G#2",
          "midi": 44,
          "time": 23.999999999999996,
          "velocity": 0.6299212598425197,
          "duration": 0.23645833333333144
        },
        {
          "name": "C2",
          "midi": 36,
          "time": 24.249999999999993,
          "velocity": 0.6299212598425197,
          "duration": 0.11770833333333286
        },
        {
          "name": "D#2",
          "midi": 39,
          "time": 24.374999999999993,
          "velocity": 0.6299212598425197,
          "duration": 0.11770833333333286
        },
        {
          "name": "D#2",
          "midi": 39,
          "time": 24.499999999999993,
          "velocity": 0.6299212598425197,
          "duration": 0.236458333333335
        },
        {
          "name": "G#2",
          "midi": 44,
          "time": 24.499999999999993,
          "velocity": 0.6299212598425197,
          "duration": 0.236458333333335
        },
        {
          "name": "G#1",
          "midi": 32,
          "time": 24.749999999999993,
          "velocity": 0.6299212598425197,
          "duration": 0.236458333333335
        },
        {
          "name": "G#2",
          "midi": 44,
          "time": 24.749999999999993,
          "velocity": 0.6299212598425197,
          "duration": 0.236458333333335
        },
        {
          "name": "C3",
          "midi": 48,
          "time": 24.999999999999993,
          "velocity": 0.6299212598425197,
          "duration": 0.11770833333333286
        },
        {
          "name": "D#3",
          "midi": 51,
          "time": 25.124999999999993,
          "velocity": 0.6299212598425197,
          "duration": 0.11770833333333286
        },
        {
          "name": "G#3",
          "midi": 56,
          "time": 25.249999999999993,
          "velocity": 0.6299212598425197,
          "duration": 0.236458333333335
        },
        {
          "name": "D#3",
          "midi": 51,
          "time": 25.499999999999993,
          "velocity": 0.6299212598425197,
          "duration": 0.11770833333333286
        },
        {
          "name": "C3",
          "midi": 48,
          "time": 25.624999999999993,
          "velocity": 0.6299212598425197,
          "duration": 0.11770833333333286
        },
        {
          "name": "G#2",
          "midi": 44,
          "time": 25.749999999999993,
          "velocity": 0.6299212598425197,
          "duration": 0.236458333333335
        },
        {
          "name": "A#1",
          "midi": 34,
          "time": 25.999999999999993,
          "velocity": 0.6299212598425197,
          "duration": 0.23645833333333144
        },
        {
          "name": "A#2",
          "midi": 46,
          "time": 25.999999999999993,
          "velocity": 0.6299212598425197,
          "duration": 0.23645833333333144
        },
        {
          "name": "C#2",
          "midi": 37,
          "time": 26.24999999999999,
          "velocity": 0.6299212598425197,
          "duration": 0.11770833333333286
        },
        {
          "name": "F2",
          "midi": 41,
          "time": 26.37499999999999,
          "velocity": 0.6299212598425197,
          "duration": 0.11770833333333286
        },
        {
          "name": "F2",
          "midi": 41,
          "time": 26.49999999999999,
          "velocity": 0.6299212598425197,
          "duration": 0.236458333333335
        },
        {
          "name": "A#2",
          "midi": 46,
          "time": 26.49999999999999,
          "velocity": 0.6299212598425197,
          "duration": 0.236458333333335
        },
        {
          "name": "A#1",
          "midi": 34,
          "time": 26.74999999999999,
          "velocity": 0.6299212598425197,
          "duration": 0.236458333333335
        },
        {
          "name": "A#2",
          "midi": 46,
          "time": 26.74999999999999,
          "velocity": 0.6299212598425197,
          "duration": 0.236458333333335
        },
        {
          "name": "C#3",
          "midi": 49,
          "time": 26.99999999999999,
          "velocity": 0.6299212598425197,
          "duration": 0.11770833333333286
        },
        {
          "name": "F3",
          "midi": 53,
          "time": 27.12499999999999,
          "velocity": 0.6299212598425197,
          "duration": 0.11770833333333286
        },
        {
          "name": "A#3",
          "midi": 58,
          "time": 27.24999999999999,
          "velocity": 0.6299212598425197,
          "duration": 0.236458333333335
        },
        {
          "name": "F3",
          "midi": 53,
          "time": 27.49999999999999,
          "velocity": 0.6299212598425197,
          "duration": 0.11770833333333286
        },
        {
          "name": "C#3",
          "midi": 49,
          "time": 27.62499999999999,
          "velocity": 0.6299212598425197,
          "duration": 0.11770833333333286
        },
        {
          "name": "A#2",
          "midi": 46,
          "time": 27.74999999999999,
          "velocity": 0.6299212598425197,
          "duration": 0.236458333333335
        },
        {
          "name": "G#1",
          "midi": 32,
          "time": 27.99999999999999,
          "velocity": 0.6299212598425197,
          "duration": 0.23645833333333144
        },
        {
          "name": "G#2",
          "midi": 44,
          "time": 27.99999999999999,
          "velocity": 0.6299212598425197,
          "duration": 0.23645833333333144
        },
        {
          "name": "C2",
          "midi": 36,
          "time": 28.249999999999986,
          "velocity": 0.6299212598425197,
          "duration": 0.11770833333333286
        },
        {
          "name": "D#2",
          "midi": 39,
          "time": 28.374999999999986,
          "velocity": 0.6299212598425197,
          "duration": 0.11770833333333286
        },
        {
          "name": "D#2",
          "midi": 39,
          "time": 28.499999999999986,
          "velocity": 0.6299212598425197,
          "duration": 0.236458333333335
        },
        {
          "name": "G#2",
          "midi": 44,
          "time": 28.499999999999986,
          "velocity": 0.6299212598425197,
          "duration": 0.236458333333335
        },
        {
          "name": "G#1",
          "midi": 32,
          "time": 28.749999999999986,
          "velocity": 0.6299212598425197,
          "duration": 0.236458333333335
        },
        {
          "name": "G#2",
          "midi": 44,
          "time": 28.749999999999986,
          "velocity": 0.6299212598425197,
          "duration": 0.236458333333335
        },
        {
          "name": "C3",
          "midi": 48,
          "time": 28.999999999999986,
          "velocity": 0.6299212598425197,
          "duration": 0.11770833333333286
        },
        {
          "name": "D#3",
          "midi": 51,
          "time": 29.124999999999986,
          "velocity": 0.6299212598425197,
          "duration": 0.11770833333333286
        },
        {
          "name": "G#3",
          "midi": 56,
          "time": 29.249999999999986,
          "velocity": 0.6299212598425197,
          "duration": 0.236458333333335
        },
        {
          "name": "D#3",
          "midi": 51,
          "time": 29.499999999999986,
          "velocity": 0.6299212598425197,
          "duration": 0.11770833333333286
        },
        {
          "name": "C3",
          "midi": 48,
          "time": 29.624999999999986,
          "velocity": 0.6299212598425197,
          "duration": 0.11770833333333286
        },
        {
          "name": "G#2",
          "midi": 44,
          "time": 29.749999999999986,
          "velocity": 0.6299212598425197,
          "duration": 0.236458333333335
        },
        {
          "name": "F#1",
          "midi": 30,
          "time": 29.999999999999986,
          "velocity": 0.6299212598425197,
          "duration": 0.23645833333333144
        },
        {
          "name": "F#2",
          "midi": 42,
          "time": 29.999999999999986,
          "velocity": 0.6299212598425197,
          "duration": 0.23645833333333144
        },
        {
          "name": "A#1",
          "midi": 34,
          "time": 30.249999999999982,
          "velocity": 0.6299212598425197,
          "duration": 0.11770833333333286
        },
        {
          "name": "C#2",
          "midi": 37,
          "time": 30.374999999999982,
          "velocity": 0.6299212598425197,
          "duration": 0.11770833333333286
        },
        {
          "name": "C#2",
          "midi": 37,
          "time": 30.499999999999982,
          "velocity": 0.6299212598425197,
          "duration": 0.236458333333335
        },
        {
          "name": "F#2",
          "midi": 42,
          "time": 30.499999999999982,
          "velocity": 0.6299212598425197,
          "duration": 0.236458333333335
        },
        {
          "name": "F#1",
          "midi": 30,
          "time": 30.749999999999982,
          "velocity": 0.6299212598425197,
          "duration": 0.236458333333335
        },
        {
          "name": "F#2",
          "midi": 42,
          "time": 30.749999999999982,
          "velocity": 0.6299212598425197,
          "duration": 0.236458333333335
        },
        {
          "name": "A#2",
          "midi": 46,
          "time": 30.999999999999982,
          "velocity": 0.6299212598425197,
          "duration": 0.11770833333333286
        },
        {
          "name": "C#3",
          "midi": 49,
          "time": 31.124999999999982,
          "velocity": 0.6299212598425197,
          "duration": 0.11770833333333286
        },
        {
          "name": "F#3",
          "midi": 54,
          "time": 31.249999999999982,
          "velocity": 0.6299212598425197,
          "duration": 0.236458333333335
        },
        {
          "name": "C#3",
          "midi": 49,
          "time": 31.499999999999982,
          "velocity": 0.6299212598425197,
          "duration": 0.11770833333333286
        },
        {
          "name": "A#2",
          "midi": 46,
          "time": 31.624999999999982,
          "velocity": 0.6299212598425197,
          "duration": 0.11770833333333286
        },
        {
          "name": "F#2",
          "midi": 42,
          "time": 31.749999999999982,
          "velocity": 0.6299212598425197,
          "duration": 0.236458333333335
        },
        {
          "name": "G#1",
          "midi": 32,
          "time": 31.999999999999982,
          "velocity": 0.6299212598425197,
          "duration": 0.236458333333335
        },
        {
          "name": "G#2",
          "midi": 44,
          "time": 31.999999999999982,
          "velocity": 0.6299212598425197,
          "duration": 0.236458333333335
        },
        {
          "name": "C2",
          "midi": 36,
          "time": 32.249999999999986,
          "velocity": 0.6299212598425197,
          "duration": 0.11770833333333286
        },
        {
          "name": "D#2",
          "midi": 39,
          "time": 32.374999999999986,
          "velocity": 0.6299212598425197,
          "duration": 0.11770833333333286
        },
        {
          "name": "D#2",
          "midi": 39,
          "time": 32.499999999999986,
          "velocity": 0.6299212598425197,
          "duration": 0.23645833333333144
        },
        {
          "name": "G#2",
          "midi": 44,
          "time": 32.499999999999986,
          "velocity": 0.6299212598425197,
          "duration": 0.23645833333333144
        },
        {
          "name": "G#1",
          "midi": 32,
          "time": 32.749999999999986,
          "velocity": 0.6299212598425197,
          "duration": 0.23645833333333144
        },
        {
          "name": "G#2",
          "midi": 44,
          "time": 32.749999999999986,
          "velocity": 0.6299212598425197,
          "duration": 0.23645833333333144
        },
        {
          "name": "C3",
          "midi": 48,
          "time": 32.999999999999986,
          "velocity": 0.6299212598425197,
          "duration": 0.11770833333333286
        },
        {
          "name": "D#3",
          "midi": 51,
          "time": 33.124999999999986,
          "velocity": 0.6299212598425197,
          "duration": 0.11770833333333286
        },
        {
          "name": "G#3",
          "midi": 56,
          "time": 33.249999999999986,
          "velocity": 0.6299212598425197,
          "duration": 0.23645833333333144
        },
        {
          "name": "D#3",
          "midi": 51,
          "time": 33.499999999999986,
          "velocity": 0.6299212598425197,
          "duration": 0.11770833333333286
        },
        {
          "name": "C3",
          "midi": 48,
          "time": 33.624999999999986,
          "velocity": 0.6299212598425197,
          "duration": 0.11770833333333286
        },
        {
          "name": "G#2",
          "midi": 44,
          "time": 33.749999999999986,
          "velocity": 0.6299212598425197,
          "duration": 0.23645833333333144
        },
        {
          "name": "A#1",
          "midi": 34,
          "time": 33.999999999999986,
          "velocity": 0.6299212598425197,
          "duration": 0.23645833333333144
        },
        {
          "name": "A#2",
          "midi": 46,
          "time": 33.999999999999986,
          "velocity": 0.6299212598425197,
          "duration": 0.23645833333333144
        },
        {
          "name": "C#2",
          "midi": 37,
          "time": 34.249999999999986,
          "velocity": 0.6299212598425197,
          "duration": 0.11770833333333286
        },
        {
          "name": "F2",
          "midi": 41,
          "time": 34.374999999999986,
          "velocity": 0.6299212598425197,
          "duration": 0.11770833333333286
        },
        {
          "name": "F2",
          "midi": 41,
          "time": 34.499999999999986,
          "velocity": 0.6299212598425197,
          "duration": 0.23645833333333144
        },
        {
          "name": "A#2",
          "midi": 46,
          "time": 34.499999999999986,
          "velocity": 0.6299212598425197,
          "duration": 0.23645833333333144
        },
        {
          "name": "A#1",
          "midi": 34,
          "time": 34.749999999999986,
          "velocity": 0.6299212598425197,
          "duration": 0.23645833333333144
        },
        {
          "name": "A#2",
          "midi": 46,
          "time": 34.749999999999986,
          "velocity": 0.6299212598425197,
          "duration": 0.23645833333333144
        },
        {
          "name": "C#3",
          "midi": 49,
          "time": 34.999999999999986,
          "velocity": 0.6299212598425197,
          "duration": 0.11770833333333286
        },
        {
          "name": "F3",
          "midi": 53,
          "time": 35.124999999999986,
          "velocity": 0.6299212598425197,
          "duration": 0.11770833333333286
        },
        {
          "name": "A#3",
          "midi": 58,
          "time": 35.249999999999986,
          "velocity": 0.6299212598425197,
          "duration": 0.23645833333333144
        },
        {
          "name": "F3",
          "midi": 53,
          "time": 35.499999999999986,
          "velocity": 0.6299212598425197,
          "duration": 0.11770833333333286
        },
        {
          "name": "C#3",
          "midi": 49,
          "time": 35.624999999999986,
          "velocity": 0.6299212598425197,
          "duration": 0.11770833333333286
        },
        {
          "name": "A#2",
          "midi": 46,
          "time": 35.749999999999986,
          "velocity": 0.6299212598425197,
          "duration": 0.23645833333333144
        },
        {
          "name": "G#1",
          "midi": 32,
          "time": 35.999999999999986,
          "velocity": 0.6299212598425197,
          "duration": 0.23645833333333144
        },
        {
          "name": "G#2",
          "midi": 44,
          "time": 35.999999999999986,
          "velocity": 0.6299212598425197,
          "duration": 0.23645833333333144
        },
        {
          "name": "C2",
          "midi": 36,
          "time": 36.249999999999986,
          "velocity": 0.6299212598425197,
          "duration": 0.11770833333333286
        },
        {
          "name": "D#2",
          "midi": 39,
          "time": 36.374999999999986,
          "velocity": 0.6299212598425197,
          "duration": 0.11770833333333286
        },
        {
          "name": "D#2",
          "midi": 39,
          "time": 36.499999999999986,
          "velocity": 0.6299212598425197,
          "duration": 0.23645833333333144
        },
        {
          "name": "G#2",
          "midi": 44,
          "time": 36.499999999999986,
          "velocity": 0.6299212598425197,
          "duration": 0.23645833333333144
        },
        {
          "name": "G#1",
          "midi": 32,
          "time": 36.749999999999986,
          "velocity": 0.6299212598425197,
          "duration": 0.23645833333333144
        },
        {
          "name": "G#2",
          "midi": 44,
          "time": 36.749999999999986,
          "velocity": 0.6299212598425197,
          "duration": 0.23645833333333144
        },
        {
          "name": "C3",
          "midi": 48,
          "time": 36.999999999999986,
          "velocity": 0.6299212598425197,
          "duration": 0.11770833333333286
        },
        {
          "name": "D#3",
          "midi": 51,
          "time": 37.124999999999986,
          "velocity": 0.6299212598425197,
          "duration": 0.11770833333333286
        },
        {
          "name": "G#3",
          "midi": 56,
          "time": 37.249999999999986,
          "velocity": 0.6299212598425197,
          "duration": 0.23645833333333144
        },
        {
          "name": "D#3",
          "midi": 51,
          "time": 37.499999999999986,
          "velocity": 0.6299212598425197,
          "duration": 0.11770833333333286
        },
        {
          "name": "C3",
          "midi": 48,
          "time": 37.624999999999986,
          "velocity": 0.6299212598425197,
          "duration": 0.11770833333333286
        },
        {
          "name": "G#2",
          "midi": 44,
          "time": 37.749999999999986,
          "velocity": 0.6299212598425197,
          "duration": 0.23645833333333144
        },
        {
          "name": "F#1",
          "midi": 30,
          "time": 37.999999999999986,
          "velocity": 0.6299212598425197,
          "duration": 0.23645833333333144
        },
        {
          "name": "F#2",
          "midi": 42,
          "time": 37.999999999999986,
          "velocity": 0.6299212598425197,
          "duration": 0.23645833333333144
        },
        {
          "name": "A#1",
          "midi": 34,
          "time": 38.249999999999986,
          "velocity": 0.6299212598425197,
          "duration": 0.11770833333333286
        },
        {
          "name": "C#2",
          "midi": 37,
          "time": 38.374999999999986,
          "velocity": 0.6299212598425197,
          "duration": 0.11770833333333286
        },
        {
          "name": "C#2",
          "midi": 37,
          "time": 38.499999999999986,
          "velocity": 0.6299212598425197,
          "duration": 0.23645833333333144
        },
        {
          "name": "F#2",
          "midi": 42,
          "time": 38.499999999999986,
          "velocity": 0.6299212598425197,
          "duration": 0.23645833333333144
        },
        {
          "name": "F#1",
          "midi": 30,
          "time": 38.749999999999986,
          "velocity": 0.6299212598425197,
          "duration": 0.23645833333333144
        },
        {
          "name": "F#2",
          "midi": 42,
          "time": 38.749999999999986,
          "velocity": 0.6299212598425197,
          "duration": 0.23645833333333144
        },
        {
          "name": "A#2",
          "midi": 46,
          "time": 38.999999999999986,
          "velocity": 0.6299212598425197,
          "duration": 0.11770833333333286
        },
        {
          "name": "C#3",
          "midi": 49,
          "time": 39.124999999999986,
          "velocity": 0.6299212598425197,
          "duration": 0.11770833333333286
        },
        {
          "name": "F#3",
          "midi": 54,
          "time": 39.249999999999986,
          "velocity": 0.6299212598425197,
          "duration": 0.23645833333333144
        },
        {
          "name": "C#3",
          "midi": 49,
          "time": 39.499999999999986,
          "velocity": 0.6299212598425197,
          "duration": 0.11770833333333286
        },
        {
          "name": "A#2",
          "midi": 46,
          "time": 39.624999999999986,
          "velocity": 0.6299212598425197,
          "duration": 0.11770833333333286
        },
        {
          "name": "F#2",
          "midi": 42,
          "time": 39.749999999999986,
          "velocity": 0.6299212598425197,
          "duration": 0.23645833333333144
        },
        {
          "name": "G#1",
          "midi": 32,
          "time": 39.999999999999986,
          "velocity": 0.6299212598425197,
          "duration": 0.23645833333333144
        },
        {
          "name": "G#2",
          "midi": 44,
          "time": 39.999999999999986,
          "velocity": 0.6299212598425197,
          "duration": 0.23645833333333144
        },
        {
          "name": "C2",
          "midi": 36,
          "time": 40.249999999999986,
          "velocity": 0.6614173228346457,
          "duration": 0.11770833333333286
        },
        {
          "name": "D#2",
          "midi": 39,
          "time": 40.374999999999986,
          "velocity": 0.6771653543307087,
          "duration": 0.11770833333333286
        },
        {
          "name": "D#2",
          "midi": 39,
          "time": 40.499999999999986,
          "velocity": 0.6929133858267716,
          "duration": 0.23645833333333144
        },
        {
          "name": "G#2",
          "midi": 44,
          "time": 40.499999999999986,
          "velocity": 0.6929133858267716,
          "duration": 0.23645833333333144
        },
        {
          "name": "G#1",
          "midi": 32,
          "time": 40.749999999999986,
          "velocity": 0.7244094488188977,
          "duration": 0.23645833333333144
        },
        {
          "name": "G#2",
          "midi": 44,
          "time": 40.749999999999986,
          "velocity": 0.7244094488188977,
          "duration": 0.23645833333333144
        },
        {
          "name": "G#1",
          "midi": 32,
          "time": 40.999999999999986,
          "velocity": 1,
          "duration": 0.12395833333333428
        },
        {
          "name": "G#2",
          "midi": 44,
          "time": 40.999999999999986,
          "velocity": 1,
          "duration": 0.12395833333333428
        },
        {
          "name": "G#1",
          "midi": 32,
          "time": 41.124999999999986,
          "velocity": 1,
          "duration": 0.24895833333333428
        },
        {
          "name": "G#2",
          "midi": 44,
          "time": 41.124999999999986,
          "velocity": 1,
          "duration": 0.24895833333333428
        },
        {
          "name": "G#1",
          "midi": 32,
          "time": 41.374999999999986,
          "velocity": 1,
          "duration": 0.12395833333333428
        },
        {
          "name": "G#2",
          "midi": 44,
          "time": 41.374999999999986,
          "velocity": 1,
          "duration": 0.12395833333333428
        },
        {
          "name": "A#1",
          "midi": 34,
          "time": 41.499999999999986,
          "velocity": 1,
          "duration": 0.24895833333333428
        },
        {
          "name": "A#2",
          "midi": 46,
          "time": 41.499999999999986,
          "velocity": 1,
          "duration": 0.24895833333333428
        },
        {
          "name": "A#1",
          "midi": 34,
          "time": 41.749999999999986,
          "velocity": 1,
          "duration": 0.12395833333333428
        },
        {
          "name": "A#2",
          "midi": 46,
          "time": 41.749999999999986,
          "velocity": 1,
          "duration": 0.12395833333333428
        },
        {
          "name": "A#1",
          "midi": 34,
          "time": 41.874999999999986,
          "velocity": 0.8661417322834646,
          "duration": 0.11770833333333286
        },
        {
          "name": "A#2",
          "midi": 46,
          "time": 41.874999999999986,
          "velocity": 0.8661417322834646,
          "duration": 0.11770833333333286
        },
        {
          "name": "A#1",
          "midi": 34,
          "time": 41.999999999999986,
          "velocity": 0.8818897637795275,
          "duration": 0.23645833333333144
        },
        {
          "name": "A#2",
          "midi": 46,
          "time": 41.999999999999986,
          "velocity": 0.8818897637795275,
          "duration": 0.23645833333333144
        },
        {
          "name": "C#2",
          "midi": 37,
          "time": 42.249999999999986,
          "velocity": 0.8818897637795275,
          "duration": 0.11770833333333286
        },
        {
          "name": "F2",
          "midi": 41,
          "time": 42.374999999999986,
          "velocity": 0.8818897637795275,
          "duration": 0.11770833333333286
        },
        {
          "name": "F2",
          "midi": 41,
          "time": 42.499999999999986,
          "velocity": 0.8818897637795275,
          "duration": 0.23645833333333144
        },
        {
          "name": "A#2",
          "midi": 46,
          "time": 42.499999999999986,
          "velocity": 0.8818897637795275,
          "duration": 0.23645833333333144
        },
        {
          "name": "G#1",
          "midi": 32,
          "time": 42.749999999999986,
          "velocity": 0.8818897637795275,
          "duration": 0.23645833333333144
        },
        {
          "name": "G#2",
          "midi": 44,
          "time": 42.749999999999986,
          "velocity": 0.8818897637795275,
          "duration": 0.23645833333333144
        },
        {
          "name": "C3",
          "midi": 48,
          "time": 42.999999999999986,
          "velocity": 0.8818897637795275,
          "duration": 0.11770833333333286
        },
        {
          "name": "D#3",
          "midi": 51,
          "time": 43.124999999999986,
          "velocity": 0.8818897637795275,
          "duration": 0.11770833333333286
        },
        {
          "name": "G#3",
          "midi": 56,
          "time": 43.249999999999986,
          "velocity": 0.8818897637795275,
          "duration": 0.23645833333333144
        },
        {
          "name": "D#3",
          "midi": 51,
          "time": 43.499999999999986,
          "velocity": 0.8818897637795275,
          "duration": 0.11770833333333286
        },
        {
          "name": "C3",
          "midi": 48,
          "time": 43.624999999999986,
          "velocity": 0.8818897637795275,
          "duration": 0.11770833333333286
        },
        {
          "name": "G#2",
          "midi": 44,
          "time": 43.749999999999986,
          "velocity": 0.8818897637795275,
          "duration": 0.23645833333333144
        },
        {
          "name": "F2",
          "midi": 41,
          "time": 43.999999999999986,
          "velocity": 0.8818897637795275,
          "duration": 0.23645833333333144
        },
        {
          "name": "F3",
          "midi": 53,
          "time": 43.999999999999986,
          "velocity": 0.8818897637795275,
          "duration": 0.23645833333333144
        },
        {
          "name": "G#2",
          "midi": 44,
          "time": 44.249999999999986,
          "velocity": 0.8818897637795275,
          "duration": 0.11770833333333286
        },
        {
          "name": "C3",
          "midi": 48,
          "time": 44.374999999999986,
          "velocity": 0.8818897637795275,
          "duration": 0.11770833333333286
        },
        {
          "name": "D#3",
          "midi": 51,
          "time": 44.499999999999986,
          "velocity": 0.8818897637795275,
          "duration": 0.23645833333333144
        },
        {
          "name": "F3",
          "midi": 53,
          "time": 44.499999999999986,
          "velocity": 0.8818897637795275,
          "duration": 0.23645833333333144
        },
        {
          "name": "A#1",
          "midi": 34,
          "time": 44.749999999999986,
          "velocity": 0.8818897637795275,
          "duration": 0.23645833333333144
        },
        {
          "name": "A#2",
          "midi": 46,
          "time": 44.749999999999986,
          "velocity": 0.8818897637795275,
          "duration": 0.23645833333333144
        },
        {
          "name": "C#3",
          "midi": 49,
          "time": 44.999999999999986,
          "velocity": 0.8818897637795275,
          "duration": 0.11770833333333286
        },
        {
          "name": "F3",
          "midi": 53,
          "time": 45.124999999999986,
          "velocity": 0.8818897637795275,
          "duration": 0.11770833333333286
        },
        {
          "name": "A#3",
          "midi": 58,
          "time": 45.249999999999986,
          "velocity": 0.8818897637795275,
          "duration": 0.23645833333333144
        },
        {
          "name": "G#3",
          "midi": 56,
          "time": 45.499999999999986,
          "velocity": 0.8818897637795275,
          "duration": 0.11770833333333286
        },
        {
          "name": "F#3",
          "midi": 54,
          "time": 45.624999999999986,
          "velocity": 0.8818897637795275,
          "duration": 0.11770833333333286
        },
        {
          "name": "D#3",
          "midi": 51,
          "time": 45.749999999999986,
          "velocity": 0.8818897637795275,
          "duration": 0.23645833333333144
        },
        {
          "name": "A#1",
          "midi": 34,
          "time": 45.999999999999986,
          "velocity": 0.8818897637795275,
          "duration": 0.23645833333333144
        },
        {
          "name": "A#2",
          "midi": 46,
          "time": 45.999999999999986,
          "velocity": 0.8818897637795275,
          "duration": 0.23645833333333144
        },
        {
          "name": "C#2",
          "midi": 37,
          "time": 46.249999999999986,
          "velocity": 0.8818897637795275,
          "duration": 0.11770833333333286
        },
        {
          "name": "F2",
          "midi": 41,
          "time": 46.374999999999986,
          "velocity": 0.8818897637795275,
          "duration": 0.11770833333333286
        },
        {
          "name": "F2",
          "midi": 41,
          "time": 46.499999999999986,
          "velocity": 0.8818897637795275,
          "duration": 0.23645833333333144
        },
        {
          "name": "A#2",
          "midi": 46,
          "time": 46.499999999999986,
          "velocity": 0.8818897637795275,
          "duration": 0.23645833333333144
        },
        {
          "name": "G#1",
          "midi": 32,
          "time": 46.749999999999986,
          "velocity": 0.8818897637795275,
          "duration": 0.23645833333333144
        },
        {
          "name": "G#2",
          "midi": 44,
          "time": 46.749999999999986,
          "velocity": 0.8818897637795275,
          "duration": 0.23645833333333144
        },
        {
          "name": "C3",
          "midi": 48,
          "time": 46.999999999999986,
          "velocity": 0.8818897637795275,
          "duration": 0.11770833333333286
        },
        {
          "name": "D#3",
          "midi": 51,
          "time": 47.124999999999986,
          "velocity": 0.8818897637795275,
          "duration": 0.11770833333333286
        },
        {
          "name": "G#3",
          "midi": 56,
          "time": 47.249999999999986,
          "velocity": 0.8818897637795275,
          "duration": 0.23645833333333144
        },
        {
          "name": "D#3",
          "midi": 51,
          "time": 47.499999999999986,
          "velocity": 0.8818897637795275,
          "duration": 0.11770833333333286
        },
        {
          "name": "C3",
          "midi": 48,
          "time": 47.624999999999986,
          "velocity": 0.8818897637795275,
          "duration": 0.11770833333333286
        },
        {
          "name": "G#2",
          "midi": 44,
          "time": 47.749999999999986,
          "velocity": 0.8818897637795275,
          "duration": 0.23645833333333144
        },
        {
          "name": "F2",
          "midi": 41,
          "time": 47.999999999999986,
          "velocity": 0.8818897637795275,
          "duration": 0.23645833333333144
        },
        {
          "name": "F3",
          "midi": 53,
          "time": 47.999999999999986,
          "velocity": 0.8818897637795275,
          "duration": 0.23645833333333144
        },
        {
          "name": "G#2",
          "midi": 44,
          "time": 48.249999999999986,
          "velocity": 0.8818897637795275,
          "duration": 0.11770833333333286
        },
        {
          "name": "C3",
          "midi": 48,
          "time": 48.374999999999986,
          "velocity": 0.8818897637795275,
          "duration": 0.11770833333333286
        },
        {
          "name": "A#1",
          "midi": 34,
          "time": 48.499999999999986,
          "velocity": 0.8818897637795275,
          "duration": 0.23645833333333144
        },
        {
          "name": "A#2",
          "midi": 46,
          "time": 48.499999999999986,
          "velocity": 0.8818897637795275,
          "duration": 0.23645833333333144
        },
        {
          "name": "C#2",
          "midi": 37,
          "time": 48.749999999999986,
          "velocity": 0.8818897637795275,
          "duration": 0.11770833333333286
        },
        {
          "name": "F2",
          "midi": 41,
          "time": 48.874999999999986,
          "velocity": 0.8818897637795275,
          "duration": 0.11770833333333286
        },
        {
          "name": "A#1",
          "midi": 34,
          "time": 48.999999999999986,
          "velocity": 1,
          "duration": 0.12395833333333428
        },
        {
          "name": "A#2",
          "midi": 46,
          "time": 48.999999999999986,
          "velocity": 1,
          "duration": 0.12395833333333428
        },
        {
          "name": "A#1",
          "midi": 34,
          "time": 49.124999999999986,
          "velocity": 1,
          "duration": 0.24895833333333428
        },
        {
          "name": "A#2",
          "midi": 46,
          "time": 49.124999999999986,
          "velocity": 1,
          "duration": 0.24895833333333428
        },
        {
          "name": "A#1",
          "midi": 34,
          "time": 49.374999999999986,
          "velocity": 1,
          "duration": 0.12395833333333428
        },
        {
          "name": "A#2",
          "midi": 46,
          "time": 49.374999999999986,
          "velocity": 1,
          "duration": 0.12395833333333428
        },
        {
          "name": "A#1",
          "midi": 34,
          "time": 49.499999999999986,
          "velocity": 1,
          "duration": 0.24895833333333428
        },
        {
          "name": "A#2",
          "midi": 46,
          "time": 49.499999999999986,
          "velocity": 1,
          "duration": 0.24895833333333428
        },
        {
          "name": "A#1",
          "midi": 34,
          "time": 49.749999999999986,
          "velocity": 1,
          "duration": 0.12395833333333428
        },
        {
          "name": "A#2",
          "midi": 46,
          "time": 49.749999999999986,
          "velocity": 1,
          "duration": 0.12395833333333428
        },
        {
          "name": "A#1",
          "midi": 34,
          "time": 49.874999999999986,
          "velocity": 0.8818897637795275,
          "duration": 0.11770833333333286
        },
        {
          "name": "A#2",
          "midi": 46,
          "time": 49.874999999999986,
          "velocity": 0.8818897637795275,
          "duration": 0.11770833333333286
        },
        {
          "name": "A#1",
          "midi": 34,
          "time": 49.999999999999986,
          "velocity": 0.8818897637795275,
          "duration": 0.23645833333333144
        },
        {
          "name": "A#2",
          "midi": 46,
          "time": 49.999999999999986,
          "velocity": 0.8818897637795275,
          "duration": 0.23645833333333144
        },
        {
          "name": "C#2",
          "midi": 37,
          "time": 50.249999999999986,
          "velocity": 0.8818897637795275,
          "duration": 0.11770833333333286
        },
        {
          "name": "F2",
          "midi": 41,
          "time": 50.374999999999986,
          "velocity": 0.8818897637795275,
          "duration": 0.11770833333333286
        },
        {
          "name": "F2",
          "midi": 41,
          "time": 50.499999999999986,
          "velocity": 0.8818897637795275,
          "duration": 0.23645833333333144
        },
        {
          "name": "A#2",
          "midi": 46,
          "time": 50.499999999999986,
          "velocity": 0.8818897637795275,
          "duration": 0.23645833333333144
        },
        {
          "name": "G#1",
          "midi": 32,
          "time": 50.749999999999986,
          "velocity": 0.8818897637795275,
          "duration": 0.23645833333333144
        },
        {
          "name": "G#2",
          "midi": 44,
          "time": 50.749999999999986,
          "velocity": 0.8818897637795275,
          "duration": 0.23645833333333144
        },
        {
          "name": "C3",
          "midi": 48,
          "time": 50.999999999999986,
          "velocity": 0.8818897637795275,
          "duration": 0.11770833333333286
        },
        {
          "name": "D#3",
          "midi": 51,
          "time": 51.124999999999986,
          "velocity": 0.8818897637795275,
          "duration": 0.11770833333333286
        },
        {
          "name": "G#3",
          "midi": 56,
          "time": 51.249999999999986,
          "velocity": 0.8818897637795275,
          "duration": 0.23645833333333144
        },
        {
          "name": "D#3",
          "midi": 51,
          "time": 51.499999999999986,
          "velocity": 0.8818897637795275,
          "duration": 0.11770833333333286
        },
        {
          "name": "C3",
          "midi": 48,
          "time": 51.624999999999986,
          "velocity": 0.8818897637795275,
          "duration": 0.11770833333333286
        },
        {
          "name": "G#2",
          "midi": 44,
          "time": 51.749999999999986,
          "velocity": 0.8818897637795275,
          "duration": 0.23645833333333144
        },
        {
          "name": "F2",
          "midi": 41,
          "time": 51.999999999999986,
          "velocity": 0.8818897637795275,
          "duration": 0.23645833333333144
        },
        {
          "name": "F3",
          "midi": 53,
          "time": 51.999999999999986,
          "velocity": 0.8818897637795275,
          "duration": 0.23645833333333144
        },
        {
          "name": "G#2",
          "midi": 44,
          "time": 52.249999999999986,
          "velocity": 0.8818897637795275,
          "duration": 0.11770833333333286
        },
        {
          "name": "C3",
          "midi": 48,
          "time": 52.374999999999986,
          "velocity": 0.8818897637795275,
          "duration": 0.11770833333333286
        },
        {
          "name": "D#3",
          "midi": 51,
          "time": 52.499999999999986,
          "velocity": 0.8818897637795275,
          "duration": 0.23645833333333144
        },
        {
          "name": "F3",
          "midi": 53,
          "time": 52.499999999999986,
          "velocity": 0.8818897637795275,
          "duration": 0.23645833333333144
        },
        {
          "name": "A#1",
          "midi": 34,
          "time": 52.749999999999986,
          "velocity": 0.8818897637795275,
          "duration": 0.23645833333333144
        },
        {
          "name": "A#2",
          "midi": 46,
          "time": 52.749999999999986,
          "velocity": 0.8818897637795275,
          "duration": 0.23645833333333144
        },
        {
          "name": "C#3",
          "midi": 49,
          "time": 52.999999999999986,
          "velocity": 0.8818897637795275,
          "duration": 0.11770833333333286
        },
        {
          "name": "F3",
          "midi": 53,
          "time": 53.124999999999986,
          "velocity": 0.8818897637795275,
          "duration": 0.11770833333333286
        },
        {
          "name": "A#3",
          "midi": 58,
          "time": 53.249999999999986,
          "velocity": 0.8818897637795275,
          "duration": 0.23645833333333144
        },
        {
          "name": "G#3",
          "midi": 56,
          "time": 53.499999999999986,
          "velocity": 0.8818897637795275,
          "duration": 0.11770833333333286
        },
        {
          "name": "F#3",
          "midi": 54,
          "time": 53.624999999999986,
          "velocity": 0.8818897637795275,
          "duration": 0.11770833333333286
        },
        {
          "name": "D#3",
          "midi": 51,
          "time": 53.749999999999986,
          "velocity": 0.8818897637795275,
          "duration": 0.23645833333333144
        },
        {
          "name": "A#1",
          "midi": 34,
          "time": 53.999999999999986,
          "velocity": 0.8818897637795275,
          "duration": 0.23645833333333144
        },
        {
          "name": "A#2",
          "midi": 46,
          "time": 53.999999999999986,
          "velocity": 0.8818897637795275,
          "duration": 0.23645833333333144
        },
        {
          "name": "C#2",
          "midi": 37,
          "time": 54.249999999999986,
          "velocity": 0.8818897637795275,
          "duration": 0.11770833333333286
        },
        {
          "name": "F2",
          "midi": 41,
          "time": 54.374999999999986,
          "velocity": 0.8818897637795275,
          "duration": 0.11770833333333286
        },
        {
          "name": "F2",
          "midi": 41,
          "time": 54.499999999999986,
          "velocity": 0.8818897637795275,
          "duration": 0.23645833333333144
        },
        {
          "name": "A#2",
          "midi": 46,
          "time": 54.499999999999986,
          "velocity": 0.8818897637795275,
          "duration": 0.23645833333333144
        },
        {
          "name": "G#1",
          "midi": 32,
          "time": 54.749999999999986,
          "velocity": 0.8818897637795275,
          "duration": 0.23645833333333144
        },
        {
          "name": "G#2",
          "midi": 44,
          "time": 54.749999999999986,
          "velocity": 0.8818897637795275,
          "duration": 0.23645833333333144
        },
        {
          "name": "C3",
          "midi": 48,
          "time": 54.999999999999986,
          "velocity": 0.8818897637795275,
          "duration": 0.11770833333333286
        },
        {
          "name": "D#3",
          "midi": 51,
          "time": 55.124999999999986,
          "velocity": 0.8818897637795275,
          "duration": 0.11770833333333286
        },
        {
          "name": "G#3",
          "midi": 56,
          "time": 55.249999999999986,
          "velocity": 0.8818897637795275,
          "duration": 0.23645833333333144
        },
        {
          "name": "D#3",
          "midi": 51,
          "time": 55.499999999999986,
          "velocity": 0.8818897637795275,
          "duration": 0.11770833333333286
        },
        {
          "name": "C3",
          "midi": 48,
          "time": 55.624999999999986,
          "velocity": 0.8818897637795275,
          "duration": 0.11770833333333286
        },
        {
          "name": "G#2",
          "midi": 44,
          "time": 55.749999999999986,
          "velocity": 0.8818897637795275,
          "duration": 0.23645833333333144
        },
        {
          "name": "F2",
          "midi": 41,
          "time": 55.999999999999986,
          "velocity": 0.8818897637795275,
          "duration": 0.23645833333333144
        },
        {
          "name": "F3",
          "midi": 53,
          "time": 55.999999999999986,
          "velocity": 0.8818897637795275,
          "duration": 0.23645833333333144
        },
        {
          "name": "G#2",
          "midi": 44,
          "time": 56.249999999999986,
          "velocity": 0.8818897637795275,
          "duration": 0.11770833333333286
        },
        {
          "name": "C3",
          "midi": 48,
          "time": 56.374999999999986,
          "velocity": 0.8818897637795275,
          "duration": 0.11770833333333286
        },
        {
          "name": "A#1",
          "midi": 34,
          "time": 56.499999999999986,
          "velocity": 0.8818897637795275,
          "duration": 0.23645833333333144
        },
        {
          "name": "A#2",
          "midi": 46,
          "time": 56.499999999999986,
          "velocity": 0.8818897637795275,
          "duration": 0.23645833333333144
        },
        {
          "name": "C#2",
          "midi": 37,
          "time": 56.749999999999986,
          "velocity": 0.8818897637795275,
          "duration": 0.11770833333333286
        },
        {
          "name": "F2",
          "midi": 41,
          "time": 56.874999999999986,
          "velocity": 0.8818897637795275,
          "duration": 0.11770833333333286
        },
        {
          "name": "A#1",
          "midi": 34,
          "time": 56.999999999999986,
          "velocity": 1,
          "duration": 0.12395833333333428
        },
        {
          "name": "A#2",
          "midi": 46,
          "time": 56.999999999999986,
          "velocity": 1,
          "duration": 0.12395833333333428
        },
        {
          "name": "A#1",
          "midi": 34,
          "time": 57.124999999999986,
          "velocity": 1,
          "duration": 0.24895833333333428
        },
        {
          "name": "A#2",
          "midi": 46,
          "time": 57.124999999999986,
          "velocity": 1,
          "duration": 0.24895833333333428
        },
        {
          "name": "A#1",
          "midi": 34,
          "time": 57.374999999999986,
          "velocity": 1,
          "duration": 0.12395833333333428
        },
        {
          "name": "A#2",
          "midi": 46,
          "time": 57.374999999999986,
          "velocity": 1,
          "duration": 0.12395833333333428
        },
        {
          "name": "A#1",
          "midi": 34,
          "time": 57.499999999999986,
          "velocity": 1,
          "duration": 0.4989583333333343
        },
        {
          "name": "A#2",
          "midi": 46,
          "time": 57.499999999999986,
          "velocity": 1,
          "duration": 0.4989583333333343
        },
        {
          "name": "A#1",
          "midi": 34,
          "time": 57.999999999999986,
          "velocity": 0.6299212598425197,
          "duration": 0.23645833333333144
        },
        {
          "name": "A#2",
          "midi": 46,
          "time": 57.999999999999986,
          "velocity": 0.6299212598425197,
          "duration": 0.23645833333333144
        },
        {
          "name": "C#2",
          "midi": 37,
          "time": 58.249999999999986,
          "velocity": 0.6299212598425197,
          "duration": 0.11770833333333286
        },
        {
          "name": "F2",
          "midi": 41,
          "time": 58.374999999999986,
          "velocity": 0.6299212598425197,
          "duration": 0.11770833333333286
        },
        {
          "name": "F2",
          "midi": 41,
          "time": 58.499999999999986,
          "velocity": 0.6299212598425197,
          "duration": 0.23645833333333144
        },
        {
          "name": "A#2",
          "midi": 46,
          "time": 58.499999999999986,
          "velocity": 0.6299212598425197,
          "duration": 0.23645833333333144
        },
        {
          "name": "A#1",
          "midi": 34,
          "time": 58.749999999999986,
          "velocity": 0.6299212598425197,
          "duration": 0.23645833333333144
        },
        {
          "name": "A#2",
          "midi": 46,
          "time": 58.749999999999986,
          "velocity": 0.6299212598425197,
          "duration": 0.23645833333333144
        },
        {
          "name": "C#3",
          "midi": 49,
          "time": 58.999999999999986,
          "velocity": 0.6299212598425197,
          "duration": 0.11770833333333286
        },
        {
          "name": "F3",
          "midi": 53,
          "time": 59.124999999999986,
          "velocity": 0.6299212598425197,
          "duration": 0.11770833333333286
        },
        {
          "name": "A#3",
          "midi": 58,
          "time": 59.249999999999986,
          "velocity": 0.6299212598425197,
          "duration": 0.23645833333333144
        },
        {
          "name": "F3",
          "midi": 53,
          "time": 59.499999999999986,
          "velocity": 0.6299212598425197,
          "duration": 0.11770833333333286
        },
        {
          "name": "C#3",
          "midi": 49,
          "time": 59.624999999999986,
          "velocity": 0.6299212598425197,
          "duration": 0.11770833333333286
        },
        {
          "name": "A#2",
          "midi": 46,
          "time": 59.749999999999986,
          "velocity": 0.6299212598425197,
          "duration": 0.23645833333333144
        },
        {
          "name": "G#1",
          "midi": 32,
          "time": 59.999999999999986,
          "velocity": 0.6299212598425197,
          "duration": 0.23645833333333144
        },
        {
          "name": "G#2",
          "midi": 44,
          "time": 59.999999999999986,
          "velocity": 0.6299212598425197,
          "duration": 0.23645833333333144
        },
        {
          "name": "C2",
          "midi": 36,
          "time": 60.249999999999986,
          "velocity": 0.6299212598425197,
          "duration": 0.11770833333333286
        },
        {
          "name": "D#2",
          "midi": 39,
          "time": 60.374999999999986,
          "velocity": 0.6299212598425197,
          "duration": 0.11770833333333286
        },
        {
          "name": "D#2",
          "midi": 39,
          "time": 60.499999999999986,
          "velocity": 0.6299212598425197,
          "duration": 0.23645833333333144
        },
        {
          "name": "G#2",
          "midi": 44,
          "time": 60.499999999999986,
          "velocity": 0.6299212598425197,
          "duration": 0.23645833333333144
        },
        {
          "name": "G#1",
          "midi": 32,
          "time": 60.749999999999986,
          "velocity": 0.6299212598425197,
          "duration": 0.23645833333333144
        },
        {
          "name": "G#2",
          "midi": 44,
          "time": 60.749999999999986,
          "velocity": 0.6299212598425197,
          "duration": 0.23645833333333144
        },
        {
          "name": "C3",
          "midi": 48,
          "time": 60.999999999999986,
          "velocity": 0.6299212598425197,
          "duration": 0.11770833333333286
        },
        {
          "name": "D#3",
          "midi": 51,
          "time": 61.124999999999986,
          "velocity": 0.6299212598425197,
          "duration": 0.11770833333333286
        },
        {
          "name": "G#3",
          "midi": 56,
          "time": 61.249999999999986,
          "velocity": 0.6299212598425197,
          "duration": 0.23645833333333144
        },
        {
          "name": "D#3",
          "midi": 51,
          "time": 61.499999999999986,
          "velocity": 0.6299212598425197,
          "duration": 0.11770833333333286
        },
        {
          "name": "C3",
          "midi": 48,
          "time": 61.624999999999986,
          "velocity": 0.6299212598425197,
          "duration": 0.11770833333333286
        },
        {
          "name": "G#2",
          "midi": 44,
          "time": 61.749999999999986,
          "velocity": 0.6299212598425197,
          "duration": 0.23645833333333144
        },
        {
          "name": "F#1",
          "midi": 30,
          "time": 61.999999999999986,
          "velocity": 0.6299212598425197,
          "duration": 0.23645833333333144
        },
        {
          "name": "F#2",
          "midi": 42,
          "time": 61.999999999999986,
          "velocity": 0.6299212598425197,
          "duration": 0.23645833333333144
        },
        {
          "name": "A#1",
          "midi": 34,
          "time": 62.249999999999986,
          "velocity": 0.6299212598425197,
          "duration": 0.11770833333333286
        },
        {
          "name": "C#2",
          "midi": 37,
          "time": 62.374999999999986,
          "velocity": 0.6299212598425197,
          "duration": 0.11770833333333286
        },
        {
          "name": "C#2",
          "midi": 37,
          "time": 62.499999999999986,
          "velocity": 0.6299212598425197,
          "duration": 0.23645833333333144
        },
        {
          "name": "F#2",
          "midi": 42,
          "time": 62.499999999999986,
          "velocity": 0.6299212598425197,
          "duration": 0.23645833333333144
        },
        {
          "name": "F#1",
          "midi": 30,
          "time": 62.749999999999986,
          "velocity": 0.6299212598425197,
          "duration": 0.23645833333333144
        },
        {
          "name": "F#2",
          "midi": 42,
          "time": 62.749999999999986,
          "velocity": 0.6299212598425197,
          "duration": 0.23645833333333144
        },
        {
          "name": "A#2",
          "midi": 46,
          "time": 62.999999999999986,
          "velocity": 0.6299212598425197,
          "duration": 0.11770833333333286
        },
        {
          "name": "C#3",
          "midi": 49,
          "time": 63.124999999999986,
          "velocity": 0.6299212598425197,
          "duration": 0.11770833333333286
        },
        {
          "name": "F#3",
          "midi": 54,
          "time": 63.249999999999986,
          "velocity": 0.6299212598425197,
          "duration": 0.23645833333333144
        },
        {
          "name": "C#3",
          "midi": 49,
          "time": 63.499999999999986,
          "velocity": 0.6299212598425197,
          "duration": 0.11770833333333286
        },
        {
          "name": "A#2",
          "midi": 46,
          "time": 63.624999999999986,
          "velocity": 0.6299212598425197,
          "duration": 0.11770833333333286
        },
        {
          "name": "F#2",
          "midi": 42,
          "time": 63.749999999999986,
          "velocity": 0.6299212598425197,
          "duration": 0.23645833333333144
        },
        {
          "name": "G#1",
          "midi": 32,
          "time": 63.999999999999986,
          "velocity": 0.6299212598425197,
          "duration": 0.23645833333333144
        },
        {
          "name": "G#2",
          "midi": 44,
          "time": 63.999999999999986,
          "velocity": 0.6299212598425197,
          "duration": 0.23645833333333144
        },
        {
          "name": "C2",
          "midi": 36,
          "time": 64.24999999999999,
          "velocity": 0.6299212598425197,
          "duration": 0.11770833333333997
        },
        {
          "name": "D#2",
          "midi": 39,
          "time": 64.37499999999999,
          "velocity": 0.6299212598425197,
          "duration": 0.11770833333333997
        },
        {
          "name": "D#2",
          "midi": 39,
          "time": 64.49999999999999,
          "velocity": 0.6299212598425197,
          "duration": 0.23645833333333144
        },
        {
          "name": "G#2",
          "midi": 44,
          "time": 64.49999999999999,
          "velocity": 0.6299212598425197,
          "duration": 0.23645833333333144
        },
        {
          "name": "G#1",
          "midi": 32,
          "time": 64.74999999999999,
          "velocity": 0.6299212598425197,
          "duration": 0.23645833333333144
        },
        {
          "name": "G#2",
          "midi": 44,
          "time": 64.74999999999999,
          "velocity": 0.6299212598425197,
          "duration": 0.23645833333333144
        },
        {
          "name": "C3",
          "midi": 48,
          "time": 64.99999999999999,
          "velocity": 0.6299212598425197,
          "duration": 0.11770833333333997
        },
        {
          "name": "D#3",
          "midi": 51,
          "time": 65.12499999999999,
          "velocity": 0.6299212598425197,
          "duration": 0.11770833333333997
        },
        {
          "name": "G#3",
          "midi": 56,
          "time": 65.24999999999999,
          "velocity": 0.6299212598425197,
          "duration": 0.23645833333333144
        },
        {
          "name": "D#3",
          "midi": 51,
          "time": 65.49999999999999,
          "velocity": 0.6299212598425197,
          "duration": 0.11770833333333997
        },
        {
          "name": "C3",
          "midi": 48,
          "time": 65.62499999999999,
          "velocity": 0.6299212598425197,
          "duration": 0.11770833333333997
        },
        {
          "name": "G#2",
          "midi": 44,
          "time": 65.74999999999999,
          "velocity": 0.6299212598425197,
          "duration": 0.23645833333333144
        },
        {
          "name": "A#1",
          "midi": 34,
          "time": 65.99999999999999,
          "velocity": 0.6299212598425197,
          "duration": 0.23645833333333144
        },
        {
          "name": "A#2",
          "midi": 46,
          "time": 65.99999999999999,
          "velocity": 0.6299212598425197,
          "duration": 0.23645833333333144
        },
        {
          "name": "C#2",
          "midi": 37,
          "time": 66.24999999999999,
          "velocity": 0.6299212598425197,
          "duration": 0.11770833333333997
        },
        {
          "name": "F2",
          "midi": 41,
          "time": 66.37499999999999,
          "velocity": 0.6299212598425197,
          "duration": 0.11770833333333997
        },
        {
          "name": "F2",
          "midi": 41,
          "time": 66.49999999999999,
          "velocity": 0.6299212598425197,
          "duration": 0.23645833333333144
        },
        {
          "name": "A#2",
          "midi": 46,
          "time": 66.49999999999999,
          "velocity": 0.6299212598425197,
          "duration": 0.23645833333333144
        },
        {
          "name": "A#1",
          "midi": 34,
          "time": 66.74999999999999,
          "velocity": 0.6299212598425197,
          "duration": 0.23645833333333144
        },
        {
          "name": "A#2",
          "midi": 46,
          "time": 66.74999999999999,
          "velocity": 0.6299212598425197,
          "duration": 0.23645833333333144
        },
        {
          "name": "C#3",
          "midi": 49,
          "time": 66.99999999999999,
          "velocity": 0.6299212598425197,
          "duration": 0.11770833333333997
        },
        {
          "name": "F3",
          "midi": 53,
          "time": 67.12499999999999,
          "velocity": 0.6299212598425197,
          "duration": 0.11770833333333997
        },
        {
          "name": "A#3",
          "midi": 58,
          "time": 67.24999999999999,
          "velocity": 0.6299212598425197,
          "duration": 0.23645833333333144
        },
        {
          "name": "F3",
          "midi": 53,
          "time": 67.49999999999999,
          "velocity": 0.6299212598425197,
          "duration": 0.11770833333333997
        },
        {
          "name": "C#3",
          "midi": 49,
          "time": 67.62499999999999,
          "velocity": 0.6299212598425197,
          "duration": 0.11770833333333997
        },
        {
          "name": "A#2",
          "midi": 46,
          "time": 67.74999999999999,
          "velocity": 0.6299212598425197,
          "duration": 0.23645833333333144
        },
        {
          "name": "G#1",
          "midi": 32,
          "time": 67.99999999999999,
          "velocity": 0.6299212598425197,
          "duration": 0.23645833333333144
        },
        {
          "name": "G#2",
          "midi": 44,
          "time": 67.99999999999999,
          "velocity": 0.6299212598425197,
          "duration": 0.23645833333333144
        },
        {
          "name": "C2",
          "midi": 36,
          "time": 68.24999999999999,
          "velocity": 0.6299212598425197,
          "duration": 0.11770833333333997
        },
        {
          "name": "D#2",
          "midi": 39,
          "time": 68.37499999999999,
          "velocity": 0.6299212598425197,
          "duration": 0.11770833333333997
        },
        {
          "name": "D#2",
          "midi": 39,
          "time": 68.49999999999999,
          "velocity": 0.6299212598425197,
          "duration": 0.23645833333333144
        },
        {
          "name": "G#2",
          "midi": 44,
          "time": 68.49999999999999,
          "velocity": 0.6299212598425197,
          "duration": 0.23645833333333144
        },
        {
          "name": "G#1",
          "midi": 32,
          "time": 68.74999999999999,
          "velocity": 0.6299212598425197,
          "duration": 0.23645833333333144
        },
        {
          "name": "G#2",
          "midi": 44,
          "time": 68.74999999999999,
          "velocity": 0.6299212598425197,
          "duration": 0.23645833333333144
        },
        {
          "name": "C3",
          "midi": 48,
          "time": 68.99999999999999,
          "velocity": 0.6299212598425197,
          "duration": 0.11770833333333997
        },
        {
          "name": "D#3",
          "midi": 51,
          "time": 69.12499999999999,
          "velocity": 0.6299212598425197,
          "duration": 0.11770833333333997
        },
        {
          "name": "G#3",
          "midi": 56,
          "time": 69.24999999999999,
          "velocity": 0.6299212598425197,
          "duration": 0.23645833333333144
        },
        {
          "name": "D#3",
          "midi": 51,
          "time": 69.49999999999999,
          "velocity": 0.6299212598425197,
          "duration": 0.11770833333333997
        },
        {
          "name": "C3",
          "midi": 48,
          "time": 69.62499999999999,
          "velocity": 0.6299212598425197,
          "duration": 0.11770833333333997
        },
        {
          "name": "G#2",
          "midi": 44,
          "time": 69.74999999999999,
          "velocity": 0.6299212598425197,
          "duration": 0.23645833333333144
        },
        {
          "name": "F#1",
          "midi": 30,
          "time": 69.99999999999999,
          "velocity": 0.6299212598425197,
          "duration": 0.23645833333333144
        },
        {
          "name": "F#2",
          "midi": 42,
          "time": 69.99999999999999,
          "velocity": 0.6299212598425197,
          "duration": 0.23645833333333144
        },
        {
          "name": "A#1",
          "midi": 34,
          "time": 70.24999999999999,
          "velocity": 0.6299212598425197,
          "duration": 0.11770833333333997
        },
        {
          "name": "C#2",
          "midi": 37,
          "time": 70.37499999999999,
          "velocity": 0.6299212598425197,
          "duration": 0.11770833333333997
        },
        {
          "name": "C#2",
          "midi": 37,
          "time": 70.49999999999999,
          "velocity": 0.6299212598425197,
          "duration": 0.23645833333333144
        },
        {
          "name": "F#2",
          "midi": 42,
          "time": 70.49999999999999,
          "velocity": 0.6299212598425197,
          "duration": 0.23645833333333144
        },
        {
          "name": "F#1",
          "midi": 30,
          "time": 70.74999999999999,
          "velocity": 0.6299212598425197,
          "duration": 0.23645833333333144
        },
        {
          "name": "F#2",
          "midi": 42,
          "time": 70.74999999999999,
          "velocity": 0.6299212598425197,
          "duration": 0.23645833333333144
        },
        {
          "name": "A#2",
          "midi": 46,
          "time": 70.99999999999999,
          "velocity": 0.6299212598425197,
          "duration": 0.11770833333333997
        },
        {
          "name": "C#3",
          "midi": 49,
          "time": 71.12499999999999,
          "velocity": 0.6299212598425197,
          "duration": 0.11770833333333997
        },
        {
          "name": "F#3",
          "midi": 54,
          "time": 71.24999999999999,
          "velocity": 0.6299212598425197,
          "duration": 0.23645833333333144
        },
        {
          "name": "C#3",
          "midi": 49,
          "time": 71.49999999999999,
          "velocity": 0.6299212598425197,
          "duration": 0.11770833333333997
        },
        {
          "name": "A#2",
          "midi": 46,
          "time": 71.62499999999999,
          "velocity": 0.6299212598425197,
          "duration": 0.11770833333333997
        },
        {
          "name": "F#2",
          "midi": 42,
          "time": 71.74999999999999,
          "velocity": 0.6299212598425197,
          "duration": 0.23645833333333144
        },
        {
          "name": "G#1",
          "midi": 32,
          "time": 71.99999999999999,
          "velocity": 0.6299212598425197,
          "duration": 0.23645833333333144
        },
        {
          "name": "G#2",
          "midi": 44,
          "time": 71.99999999999999,
          "velocity": 0.6299212598425197,
          "duration": 0.23645833333333144
        },
        {
          "name": "C2",
          "midi": 36,
          "time": 72.24999999999999,
          "velocity": 0.6299212598425197,
          "duration": 0.11770833333333997
        },
        {
          "name": "D#2",
          "midi": 39,
          "time": 72.37499999999999,
          "velocity": 0.6299212598425197,
          "duration": 0.11770833333333997
        },
        {
          "name": "D#2",
          "midi": 39,
          "time": 72.49999999999999,
          "velocity": 0.6299212598425197,
          "duration": 0.23645833333333144
        },
        {
          "name": "G#2",
          "midi": 44,
          "time": 72.49999999999999,
          "velocity": 0.6299212598425197,
          "duration": 0.23645833333333144
        },
        {
          "name": "G#1",
          "midi": 32,
          "time": 72.74999999999999,
          "velocity": 0.6299212598425197,
          "duration": 0.23645833333333144
        },
        {
          "name": "G#2",
          "midi": 44,
          "time": 72.74999999999999,
          "velocity": 0.6299212598425197,
          "duration": 0.23645833333333144
        },
        {
          "name": "C3",
          "midi": 48,
          "time": 72.99999999999999,
          "velocity": 0.6299212598425197,
          "duration": 0.11770833333333997
        },
        {
          "name": "D#3",
          "midi": 51,
          "time": 73.12499999999999,
          "velocity": 0.6299212598425197,
          "duration": 0.11770833333333997
        },
        {
          "name": "G#3",
          "midi": 56,
          "time": 73.24999999999999,
          "velocity": 0.6299212598425197,
          "duration": 0.23645833333333144
        },
        {
          "name": "D#3",
          "midi": 51,
          "time": 73.49999999999999,
          "velocity": 0.6299212598425197,
          "duration": 0.11770833333333997
        },
        {
          "name": "C3",
          "midi": 48,
          "time": 73.62499999999999,
          "velocity": 0.6299212598425197,
          "duration": 0.11770833333333997
        },
        {
          "name": "G#2",
          "midi": 44,
          "time": 73.74999999999999,
          "velocity": 0.6299212598425197,
          "duration": 0.23645833333333144
        },
        {
          "name": "A#1",
          "midi": 34,
          "time": 73.99999999999999,
          "velocity": 0.6299212598425197,
          "duration": 0.23645833333333144
        },
        {
          "name": "A#2",
          "midi": 46,
          "time": 73.99999999999999,
          "velocity": 0.6299212598425197,
          "duration": 0.23645833333333144
        },
        {
          "name": "C#2",
          "midi": 37,
          "time": 74.24999999999999,
          "velocity": 0.6299212598425197,
          "duration": 0.11770833333333997
        },
        {
          "name": "F2",
          "midi": 41,
          "time": 74.37499999999999,
          "velocity": 0.6299212598425197,
          "duration": 0.11770833333333997
        },
        {
          "name": "F2",
          "midi": 41,
          "time": 74.49999999999999,
          "velocity": 0.6299212598425197,
          "duration": 0.23645833333333144
        },
        {
          "name": "A#2",
          "midi": 46,
          "time": 74.49999999999999,
          "velocity": 0.6299212598425197,
          "duration": 0.23645833333333144
        },
        {
          "name": "A#1",
          "midi": 34,
          "time": 74.74999999999999,
          "velocity": 0.6299212598425197,
          "duration": 0.23645833333333144
        },
        {
          "name": "A#2",
          "midi": 46,
          "time": 74.74999999999999,
          "velocity": 0.6299212598425197,
          "duration": 0.23645833333333144
        },
        {
          "name": "C#3",
          "midi": 49,
          "time": 74.99999999999999,
          "velocity": 0.6299212598425197,
          "duration": 0.11770833333333997
        },
        {
          "name": "F3",
          "midi": 53,
          "time": 75.12499999999999,
          "velocity": 0.6299212598425197,
          "duration": 0.11770833333333997
        },
        {
          "name": "A#3",
          "midi": 58,
          "time": 75.24999999999999,
          "velocity": 0.6299212598425197,
          "duration": 0.23645833333333144
        },
        {
          "name": "F3",
          "midi": 53,
          "time": 75.49999999999999,
          "velocity": 0.6299212598425197,
          "duration": 0.11770833333333997
        },
        {
          "name": "C#3",
          "midi": 49,
          "time": 75.62499999999999,
          "velocity": 0.6299212598425197,
          "duration": 0.11770833333333997
        },
        {
          "name": "A#2",
          "midi": 46,
          "time": 75.74999999999999,
          "velocity": 0.6299212598425197,
          "duration": 0.23645833333333144
        },
        {
          "name": "G#1",
          "midi": 32,
          "time": 75.99999999999999,
          "velocity": 0.6299212598425197,
          "duration": 0.23645833333333144
        },
        {
          "name": "G#2",
          "midi": 44,
          "time": 75.99999999999999,
          "velocity": 0.6299212598425197,
          "duration": 0.23645833333333144
        },
        {
          "name": "C2",
          "midi": 36,
          "time": 76.24999999999999,
          "velocity": 0.6299212598425197,
          "duration": 0.11770833333333997
        },
        {
          "name": "D#2",
          "midi": 39,
          "time": 76.37499999999999,
          "velocity": 0.6299212598425197,
          "duration": 0.11770833333333997
        },
        {
          "name": "D#2",
          "midi": 39,
          "time": 76.49999999999999,
          "velocity": 0.6299212598425197,
          "duration": 0.23645833333333144
        },
        {
          "name": "G#2",
          "midi": 44,
          "time": 76.49999999999999,
          "velocity": 0.6299212598425197,
          "duration": 0.23645833333333144
        },
        {
          "name": "G#1",
          "midi": 32,
          "time": 76.74999999999999,
          "velocity": 0.6299212598425197,
          "duration": 0.23645833333333144
        },
        {
          "name": "G#2",
          "midi": 44,
          "time": 76.74999999999999,
          "velocity": 0.6299212598425197,
          "duration": 0.23645833333333144
        },
        {
          "name": "C3",
          "midi": 48,
          "time": 76.99999999999999,
          "velocity": 0.6299212598425197,
          "duration": 0.11770833333333997
        },
        {
          "name": "D#3",
          "midi": 51,
          "time": 77.12499999999999,
          "velocity": 0.6299212598425197,
          "duration": 0.11770833333333997
        },
        {
          "name": "G#3",
          "midi": 56,
          "time": 77.24999999999999,
          "velocity": 0.6299212598425197,
          "duration": 0.23645833333333144
        },
        {
          "name": "D#3",
          "midi": 51,
          "time": 77.49999999999999,
          "velocity": 0.6299212598425197,
          "duration": 0.11770833333333997
        },
        {
          "name": "C3",
          "midi": 48,
          "time": 77.62499999999999,
          "velocity": 0.6299212598425197,
          "duration": 0.11770833333333997
        },
        {
          "name": "G#2",
          "midi": 44,
          "time": 77.74999999999999,
          "velocity": 0.6299212598425197,
          "duration": 0.23645833333333144
        },
        {
          "name": "F#1",
          "midi": 30,
          "time": 77.99999999999999,
          "velocity": 0.6299212598425197,
          "duration": 0.23645833333333144
        },
        {
          "name": "F#2",
          "midi": 42,
          "time": 77.99999999999999,
          "velocity": 0.6299212598425197,
          "duration": 0.23645833333333144
        },
        {
          "name": "A#1",
          "midi": 34,
          "time": 78.24999999999999,
          "velocity": 0.6299212598425197,
          "duration": 0.11770833333333997
        },
        {
          "name": "C#2",
          "midi": 37,
          "time": 78.37499999999999,
          "velocity": 0.6299212598425197,
          "duration": 0.11770833333333997
        },
        {
          "name": "C#2",
          "midi": 37,
          "time": 78.49999999999999,
          "velocity": 0.6299212598425197,
          "duration": 0.23645833333333144
        },
        {
          "name": "F#2",
          "midi": 42,
          "time": 78.49999999999999,
          "velocity": 0.6299212598425197,
          "duration": 0.23645833333333144
        },
        {
          "name": "F#1",
          "midi": 30,
          "time": 78.74999999999999,
          "velocity": 0.6299212598425197,
          "duration": 0.23645833333333144
        },
        {
          "name": "F#2",
          "midi": 42,
          "time": 78.74999999999999,
          "velocity": 0.6299212598425197,
          "duration": 0.23645833333333144
        },
        {
          "name": "A#2",
          "midi": 46,
          "time": 78.99999999999999,
          "velocity": 0.6299212598425197,
          "duration": 0.11770833333333997
        },
        {
          "name": "C#3",
          "midi": 49,
          "time": 79.12499999999999,
          "velocity": 0.6299212598425197,
          "duration": 0.11770833333333997
        },
        {
          "name": "F#3",
          "midi": 54,
          "time": 79.24999999999999,
          "velocity": 0.6299212598425197,
          "duration": 0.23645833333333144
        },
        {
          "name": "C#3",
          "midi": 49,
          "time": 79.49999999999999,
          "velocity": 0.6299212598425197,
          "duration": 0.11770833333333997
        },
        {
          "name": "A#2",
          "midi": 46,
          "time": 79.62499999999999,
          "velocity": 0.6299212598425197,
          "duration": 0.11770833333333997
        },
        {
          "name": "F#2",
          "midi": 42,
          "time": 79.74999999999999,
          "velocity": 0.6299212598425197,
          "duration": 0.23645833333333144
        },
        {
          "name": "G#1",
          "midi": 32,
          "time": 79.99999999999999,
          "velocity": 0.6299212598425197,
          "duration": 0.23645833333333144
        },
        {
          "name": "G#2",
          "midi": 44,
          "time": 79.99999999999999,
          "velocity": 0.6299212598425197,
          "duration": 0.23645833333333144
        },
        {
          "name": "C2",
          "midi": 36,
          "time": 80.24999999999999,
          "velocity": 0.6614173228346457,
          "duration": 0.11770833333333997
        },
        {
          "name": "D#2",
          "midi": 39,
          "time": 80.37499999999999,
          "velocity": 0.6771653543307087,
          "duration": 0.11770833333333997
        },
        {
          "name": "D#2",
          "midi": 39,
          "time": 80.49999999999999,
          "velocity": 0.6929133858267716,
          "duration": 0.23645833333333144
        },
        {
          "name": "G#2",
          "midi": 44,
          "time": 80.49999999999999,
          "velocity": 0.6929133858267716,
          "duration": 0.23645833333333144
        },
        {
          "name": "G#1",
          "midi": 32,
          "time": 80.74999999999999,
          "velocity": 0.7244094488188977,
          "duration": 0.23645833333333144
        },
        {
          "name": "G#2",
          "midi": 44,
          "time": 80.74999999999999,
          "velocity": 0.7244094488188977,
          "duration": 0.23645833333333144
        },
        {
          "name": "G#1",
          "midi": 32,
          "time": 80.99999999999999,
          "velocity": 1,
          "duration": 0.12395833333333428
        },
        {
          "name": "G#2",
          "midi": 44,
          "time": 80.99999999999999,
          "velocity": 1,
          "duration": 0.12395833333333428
        },
        {
          "name": "G#1",
          "midi": 32,
          "time": 81.12499999999999,
          "velocity": 1,
          "duration": 0.24895833333333428
        },
        {
          "name": "G#2",
          "midi": 44,
          "time": 81.12499999999999,
          "velocity": 1,
          "duration": 0.24895833333333428
        },
        {
          "name": "G#1",
          "midi": 32,
          "time": 81.37499999999999,
          "velocity": 1,
          "duration": 0.12395833333333428
        },
        {
          "name": "G#2",
          "midi": 44,
          "time": 81.37499999999999,
          "velocity": 1,
          "duration": 0.12395833333333428
        },
        {
          "name": "A#1",
          "midi": 34,
          "time": 81.49999999999999,
          "velocity": 1,
          "duration": 0.24895833333333428
        },
        {
          "name": "A#2",
          "midi": 46,
          "time": 81.49999999999999,
          "velocity": 1,
          "duration": 0.24895833333333428
        },
        {
          "name": "A#1",
          "midi": 34,
          "time": 81.74999999999999,
          "velocity": 1,
          "duration": 0.12395833333333428
        },
        {
          "name": "A#2",
          "midi": 46,
          "time": 81.74999999999999,
          "velocity": 1,
          "duration": 0.12395833333333428
        },
        {
          "name": "A#1",
          "midi": 34,
          "time": 81.87499999999999,
          "velocity": 0.8661417322834646,
          "duration": 0.11770833333333997
        },
        {
          "name": "A#2",
          "midi": 46,
          "time": 81.87499999999999,
          "velocity": 0.8661417322834646,
          "duration": 0.11770833333333997
        },
        {
          "name": "A#1",
          "midi": 34,
          "time": 81.99999999999999,
          "velocity": 0.8818897637795275,
          "duration": 0.23645833333333144
        },
        {
          "name": "A#2",
          "midi": 46,
          "time": 81.99999999999999,
          "velocity": 0.8818897637795275,
          "duration": 0.23645833333333144
        },
        {
          "name": "C#2",
          "midi": 37,
          "time": 82.24999999999999,
          "velocity": 0.8818897637795275,
          "duration": 0.11770833333333997
        },
        {
          "name": "F2",
          "midi": 41,
          "time": 82.37499999999999,
          "velocity": 0.8818897637795275,
          "duration": 0.11770833333333997
        },
        {
          "name": "F2",
          "midi": 41,
          "time": 82.49999999999999,
          "velocity": 0.8818897637795275,
          "duration": 0.23645833333333144
        },
        {
          "name": "A#2",
          "midi": 46,
          "time": 82.49999999999999,
          "velocity": 0.8818897637795275,
          "duration": 0.23645833333333144
        },
        {
          "name": "G#1",
          "midi": 32,
          "time": 82.74999999999999,
          "velocity": 0.8818897637795275,
          "duration": 0.23645833333333144
        },
        {
          "name": "G#2",
          "midi": 44,
          "time": 82.74999999999999,
          "velocity": 0.8818897637795275,
          "duration": 0.23645833333333144
        },
        {
          "name": "C3",
          "midi": 48,
          "time": 82.99999999999999,
          "velocity": 0.8818897637795275,
          "duration": 0.11770833333333997
        },
        {
          "name": "D#3",
          "midi": 51,
          "time": 83.12499999999999,
          "velocity": 0.8818897637795275,
          "duration": 0.11770833333333997
        },
        {
          "name": "G#3",
          "midi": 56,
          "time": 83.24999999999999,
          "velocity": 0.8818897637795275,
          "duration": 0.23645833333333144
        },
        {
          "name": "D#3",
          "midi": 51,
          "time": 83.49999999999999,
          "velocity": 0.8818897637795275,
          "duration": 0.11770833333333997
        },
        {
          "name": "C3",
          "midi": 48,
          "time": 83.62499999999999,
          "velocity": 0.8818897637795275,
          "duration": 0.11770833333333997
        },
        {
          "name": "G#2",
          "midi": 44,
          "time": 83.74999999999999,
          "velocity": 0.8818897637795275,
          "duration": 0.23645833333333144
        },
        {
          "name": "F2",
          "midi": 41,
          "time": 83.99999999999999,
          "velocity": 0.8818897637795275,
          "duration": 0.23645833333333144
        },
        {
          "name": "F3",
          "midi": 53,
          "time": 83.99999999999999,
          "velocity": 0.8818897637795275,
          "duration": 0.23645833333333144
        },
        {
          "name": "G#2",
          "midi": 44,
          "time": 84.24999999999999,
          "velocity": 0.8818897637795275,
          "duration": 0.11770833333333997
        },
        {
          "name": "C3",
          "midi": 48,
          "time": 84.37499999999999,
          "velocity": 0.8818897637795275,
          "duration": 0.11770833333333997
        },
        {
          "name": "D#3",
          "midi": 51,
          "time": 84.49999999999999,
          "velocity": 0.8818897637795275,
          "duration": 0.23645833333333144
        },
        {
          "name": "F3",
          "midi": 53,
          "time": 84.49999999999999,
          "velocity": 0.8818897637795275,
          "duration": 0.23645833333333144
        },
        {
          "name": "A#1",
          "midi": 34,
          "time": 84.74999999999999,
          "velocity": 0.8818897637795275,
          "duration": 0.23645833333333144
        },
        {
          "name": "A#2",
          "midi": 46,
          "time": 84.74999999999999,
          "velocity": 0.8818897637795275,
          "duration": 0.23645833333333144
        },
        {
          "name": "C#3",
          "midi": 49,
          "time": 84.99999999999999,
          "velocity": 0.8818897637795275,
          "duration": 0.11770833333333997
        },
        {
          "name": "F3",
          "midi": 53,
          "time": 85.12499999999999,
          "velocity": 0.8818897637795275,
          "duration": 0.11770833333333997
        },
        {
          "name": "A#3",
          "midi": 58,
          "time": 85.24999999999999,
          "velocity": 0.8818897637795275,
          "duration": 0.23645833333333144
        },
        {
          "name": "G#3",
          "midi": 56,
          "time": 85.49999999999999,
          "velocity": 0.8818897637795275,
          "duration": 0.11770833333333997
        },
        {
          "name": "F#3",
          "midi": 54,
          "time": 85.62499999999999,
          "velocity": 0.8818897637795275,
          "duration": 0.11770833333333997
        },
        {
          "name": "D#3",
          "midi": 51,
          "time": 85.74999999999999,
          "velocity": 0.8818897637795275,
          "duration": 0.23645833333333144
        },
        {
          "name": "A#1",
          "midi": 34,
          "time": 85.99999999999999,
          "velocity": 0.8818897637795275,
          "duration": 0.23645833333333144
        },
        {
          "name": "A#2",
          "midi": 46,
          "time": 85.99999999999999,
          "velocity": 0.8818897637795275,
          "duration": 0.23645833333333144
        },
        {
          "name": "C#2",
          "midi": 37,
          "time": 86.24999999999999,
          "velocity": 0.8818897637795275,
          "duration": 0.11770833333333997
        },
        {
          "name": "F2",
          "midi": 41,
          "time": 86.37499999999999,
          "velocity": 0.8818897637795275,
          "duration": 0.11770833333333997
        },
        {
          "name": "F2",
          "midi": 41,
          "time": 86.49999999999999,
          "velocity": 0.8818897637795275,
          "duration": 0.23645833333333144
        },
        {
          "name": "A#2",
          "midi": 46,
          "time": 86.49999999999999,
          "velocity": 0.8818897637795275,
          "duration": 0.23645833333333144
        },
        {
          "name": "G#1",
          "midi": 32,
          "time": 86.74999999999999,
          "velocity": 0.8818897637795275,
          "duration": 0.23645833333333144
        },
        {
          "name": "G#2",
          "midi": 44,
          "time": 86.74999999999999,
          "velocity": 0.8818897637795275,
          "duration": 0.23645833333333144
        },
        {
          "name": "C3",
          "midi": 48,
          "time": 86.99999999999999,
          "velocity": 0.8818897637795275,
          "duration": 0.11770833333333997
        },
        {
          "name": "D#3",
          "midi": 51,
          "time": 87.12499999999999,
          "velocity": 0.8818897637795275,
          "duration": 0.11770833333333997
        },
        {
          "name": "G#3",
          "midi": 56,
          "time": 87.24999999999999,
          "velocity": 0.8818897637795275,
          "duration": 0.23645833333333144
        },
        {
          "name": "D#3",
          "midi": 51,
          "time": 87.49999999999999,
          "velocity": 0.8818897637795275,
          "duration": 0.11770833333333997
        },
        {
          "name": "C3",
          "midi": 48,
          "time": 87.62499999999999,
          "velocity": 0.8818897637795275,
          "duration": 0.11770833333333997
        },
        {
          "name": "G#2",
          "midi": 44,
          "time": 87.74999999999999,
          "velocity": 0.8818897637795275,
          "duration": 0.23645833333333144
        },
        {
          "name": "F2",
          "midi": 41,
          "time": 87.99999999999999,
          "velocity": 0.8818897637795275,
          "duration": 0.23645833333333144
        },
        {
          "name": "F3",
          "midi": 53,
          "time": 87.99999999999999,
          "velocity": 0.8818897637795275,
          "duration": 0.23645833333333144
        },
        {
          "name": "G#2",
          "midi": 44,
          "time": 88.24999999999999,
          "velocity": 0.8818897637795275,
          "duration": 0.11770833333333997
        },
        {
          "name": "C3",
          "midi": 48,
          "time": 88.37499999999999,
          "velocity": 0.8818897637795275,
          "duration": 0.11770833333333997
        },
        {
          "name": "A#1",
          "midi": 34,
          "time": 88.49999999999999,
          "velocity": 0.8818897637795275,
          "duration": 0.23645833333333144
        },
        {
          "name": "A#2",
          "midi": 46,
          "time": 88.49999999999999,
          "velocity": 0.8818897637795275,
          "duration": 0.23645833333333144
        },
        {
          "name": "C#2",
          "midi": 37,
          "time": 88.74999999999999,
          "velocity": 0.8818897637795275,
          "duration": 0.11770833333333997
        },
        {
          "name": "F2",
          "midi": 41,
          "time": 88.87499999999999,
          "velocity": 0.8818897637795275,
          "duration": 0.11770833333333997
        },
        {
          "name": "A#1",
          "midi": 34,
          "time": 88.99999999999999,
          "velocity": 1,
          "duration": 0.12395833333333428
        },
        {
          "name": "A#2",
          "midi": 46,
          "time": 88.99999999999999,
          "velocity": 1,
          "duration": 0.12395833333333428
        },
        {
          "name": "A#1",
          "midi": 34,
          "time": 89.12499999999999,
          "velocity": 1,
          "duration": 0.24895833333333428
        },
        {
          "name": "A#2",
          "midi": 46,
          "time": 89.12499999999999,
          "velocity": 1,
          "duration": 0.24895833333333428
        },
        {
          "name": "A#1",
          "midi": 34,
          "time": 89.37499999999999,
          "velocity": 1,
          "duration": 0.12395833333333428
        },
        {
          "name": "A#2",
          "midi": 46,
          "time": 89.37499999999999,
          "velocity": 1,
          "duration": 0.12395833333333428
        },
        {
          "name": "A#1",
          "midi": 34,
          "time": 89.49999999999999,
          "velocity": 1,
          "duration": 0.24895833333333428
        },
        {
          "name": "A#2",
          "midi": 46,
          "time": 89.49999999999999,
          "velocity": 1,
          "duration": 0.24895833333333428
        },
        {
          "name": "A#1",
          "midi": 34,
          "time": 89.74999999999999,
          "velocity": 1,
          "duration": 0.12395833333333428
        },
        {
          "name": "A#2",
          "midi": 46,
          "time": 89.74999999999999,
          "velocity": 1,
          "duration": 0.12395833333333428
        },
        {
          "name": "A#1",
          "midi": 34,
          "time": 89.87499999999999,
          "velocity": 0.8818897637795275,
          "duration": 0.11770833333333997
        },
        {
          "name": "A#2",
          "midi": 46,
          "time": 89.87499999999999,
          "velocity": 0.8818897637795275,
          "duration": 0.11770833333333997
        },
        {
          "name": "A#1",
          "midi": 34,
          "time": 89.99999999999999,
          "velocity": 0.8818897637795275,
          "duration": 0.23645833333333144
        },
        {
          "name": "A#2",
          "midi": 46,
          "time": 89.99999999999999,
          "velocity": 0.8818897637795275,
          "duration": 0.23645833333333144
        },
        {
          "name": "C#2",
          "midi": 37,
          "time": 90.24999999999999,
          "velocity": 0.8818897637795275,
          "duration": 0.11770833333333997
        },
        {
          "name": "F2",
          "midi": 41,
          "time": 90.37499999999999,
          "velocity": 0.8818897637795275,
          "duration": 0.11770833333333997
        },
        {
          "name": "F2",
          "midi": 41,
          "time": 90.49999999999999,
          "velocity": 0.8818897637795275,
          "duration": 0.23645833333333144
        },
        {
          "name": "A#2",
          "midi": 46,
          "time": 90.49999999999999,
          "velocity": 0.8818897637795275,
          "duration": 0.23645833333333144
        },
        {
          "name": "G#1",
          "midi": 32,
          "time": 90.74999999999999,
          "velocity": 0.8818897637795275,
          "duration": 0.23645833333333144
        },
        {
          "name": "G#2",
          "midi": 44,
          "time": 90.74999999999999,
          "velocity": 0.8818897637795275,
          "duration": 0.23645833333333144
        },
        {
          "name": "C3",
          "midi": 48,
          "time": 90.99999999999999,
          "velocity": 0.8818897637795275,
          "duration": 0.11770833333333997
        },
        {
          "name": "D#3",
          "midi": 51,
          "time": 91.12499999999999,
          "velocity": 0.8818897637795275,
          "duration": 0.11770833333333997
        },
        {
          "name": "G#3",
          "midi": 56,
          "time": 91.24999999999999,
          "velocity": 0.8818897637795275,
          "duration": 0.23645833333333144
        },
        {
          "name": "D#3",
          "midi": 51,
          "time": 91.49999999999999,
          "velocity": 0.8818897637795275,
          "duration": 0.11770833333333997
        },
        {
          "name": "C3",
          "midi": 48,
          "time": 91.62499999999999,
          "velocity": 0.8818897637795275,
          "duration": 0.11770833333333997
        },
        {
          "name": "G#2",
          "midi": 44,
          "time": 91.74999999999999,
          "velocity": 0.8818897637795275,
          "duration": 0.23645833333333144
        },
        {
          "name": "F2",
          "midi": 41,
          "time": 91.99999999999999,
          "velocity": 0.8818897637795275,
          "duration": 0.23645833333333144
        },
        {
          "name": "F3",
          "midi": 53,
          "time": 91.99999999999999,
          "velocity": 0.8818897637795275,
          "duration": 0.23645833333333144
        },
        {
          "name": "G#2",
          "midi": 44,
          "time": 92.24999999999999,
          "velocity": 0.8818897637795275,
          "duration": 0.11770833333333997
        },
        {
          "name": "C3",
          "midi": 48,
          "time": 92.37499999999999,
          "velocity": 0.8818897637795275,
          "duration": 0.11770833333333997
        },
        {
          "name": "D#3",
          "midi": 51,
          "time": 92.49999999999999,
          "velocity": 0.8818897637795275,
          "duration": 0.23645833333333144
        },
        {
          "name": "F3",
          "midi": 53,
          "time": 92.49999999999999,
          "velocity": 0.8818897637795275,
          "duration": 0.23645833333333144
        },
        {
          "name": "A#1",
          "midi": 34,
          "time": 92.74999999999999,
          "velocity": 0.8818897637795275,
          "duration": 0.23645833333333144
        },
        {
          "name": "A#2",
          "midi": 46,
          "time": 92.74999999999999,
          "velocity": 0.8818897637795275,
          "duration": 0.23645833333333144
        },
        {
          "name": "C#3",
          "midi": 49,
          "time": 92.99999999999999,
          "velocity": 0.8818897637795275,
          "duration": 0.11770833333333997
        },
        {
          "name": "F3",
          "midi": 53,
          "time": 93.12499999999999,
          "velocity": 0.8818897637795275,
          "duration": 0.11770833333333997
        },
        {
          "name": "A#3",
          "midi": 58,
          "time": 93.24999999999999,
          "velocity": 0.8818897637795275,
          "duration": 0.23645833333333144
        },
        {
          "name": "G#3",
          "midi": 56,
          "time": 93.49999999999999,
          "velocity": 0.8818897637795275,
          "duration": 0.11770833333333997
        },
        {
          "name": "F#3",
          "midi": 54,
          "time": 93.62499999999999,
          "velocity": 0.8818897637795275,
          "duration": 0.11770833333333997
        },
        {
          "name": "D#3",
          "midi": 51,
          "time": 93.74999999999999,
          "velocity": 0.8818897637795275,
          "duration": 0.23645833333333144
        },
        {
          "name": "A#1",
          "midi": 34,
          "time": 93.99999999999999,
          "velocity": 0.8818897637795275,
          "duration": 0.23645833333333144
        },
        {
          "name": "A#2",
          "midi": 46,
          "time": 93.99999999999999,
          "velocity": 0.8818897637795275,
          "duration": 0.23645833333333144
        },
        {
          "name": "C#2",
          "midi": 37,
          "time": 94.24999999999999,
          "velocity": 0.8818897637795275,
          "duration": 0.11770833333333997
        },
        {
          "name": "F2",
          "midi": 41,
          "time": 94.37499999999999,
          "velocity": 0.8818897637795275,
          "duration": 0.11770833333333997
        },
        {
          "name": "F2",
          "midi": 41,
          "time": 94.49999999999999,
          "velocity": 0.8818897637795275,
          "duration": 0.23645833333333144
        },
        {
          "name": "A#2",
          "midi": 46,
          "time": 94.49999999999999,
          "velocity": 0.8818897637795275,
          "duration": 0.23645833333333144
        },
        {
          "name": "G#1",
          "midi": 32,
          "time": 94.74999999999999,
          "velocity": 0.8818897637795275,
          "duration": 0.23645833333333144
        },
        {
          "name": "G#2",
          "midi": 44,
          "time": 94.74999999999999,
          "velocity": 0.8818897637795275,
          "duration": 0.23645833333333144
        },
        {
          "name": "C3",
          "midi": 48,
          "time": 94.99999999999999,
          "velocity": 0.8818897637795275,
          "duration": 0.11770833333333997
        },
        {
          "name": "D#3",
          "midi": 51,
          "time": 95.12499999999999,
          "velocity": 0.8818897637795275,
          "duration": 0.11770833333333997
        },
        {
          "name": "G#3",
          "midi": 56,
          "time": 95.24999999999999,
          "velocity": 0.8818897637795275,
          "duration": 0.23645833333333144
        },
        {
          "name": "D#3",
          "midi": 51,
          "time": 95.49999999999999,
          "velocity": 0.8818897637795275,
          "duration": 0.11770833333333997
        },
        {
          "name": "C3",
          "midi": 48,
          "time": 95.62499999999999,
          "velocity": 0.8818897637795275,
          "duration": 0.11770833333333997
        },
        {
          "name": "G#2",
          "midi": 44,
          "time": 95.74999999999999,
          "velocity": 0.8818897637795275,
          "duration": 0.23645833333333144
        },
        {
          "name": "F2",
          "midi": 41,
          "time": 95.99999999999999,
          "velocity": 0.8818897637795275,
          "duration": 0.23645833333333144
        },
        {
          "name": "F3",
          "midi": 53,
          "time": 95.99999999999999,
          "velocity": 0.8818897637795275,
          "duration": 0.23645833333333144
        },
        {
          "name": "G#2",
          "midi": 44,
          "time": 96.24999999999999,
          "velocity": 0.8818897637795275,
          "duration": 0.11770833333333997
        },
        {
          "name": "C3",
          "midi": 48,
          "time": 96.37499999999999,
          "velocity": 0.8818897637795275,
          "duration": 0.11770833333333997
        },
        {
          "name": "A#1",
          "midi": 34,
          "time": 96.49999999999999,
          "velocity": 0.8818897637795275,
          "duration": 0.23645833333333144
        },
        {
          "name": "A#2",
          "midi": 46,
          "time": 96.49999999999999,
          "velocity": 0.8818897637795275,
          "duration": 0.23645833333333144
        },
        {
          "name": "C#2",
          "midi": 37,
          "time": 96.74999999999999,
          "velocity": 0.8818897637795275,
          "duration": 0.11770833333333997
        },
        {
          "name": "F2",
          "midi": 41,
          "time": 96.87499999999999,
          "velocity": 0.8818897637795275,
          "duration": 0.11770833333333997
        },
        {
          "name": "A#1",
          "midi": 34,
          "time": 96.99999999999999,
          "velocity": 1,
          "duration": 0.12395833333333428
        },
        {
          "name": "A#2",
          "midi": 46,
          "time": 96.99999999999999,
          "velocity": 1,
          "duration": 0.12395833333333428
        },
        {
          "name": "A#1",
          "midi": 34,
          "time": 97.12499999999999,
          "velocity": 1,
          "duration": 0.24895833333333428
        },
        {
          "name": "A#2",
          "midi": 46,
          "time": 97.12499999999999,
          "velocity": 1,
          "duration": 0.24895833333333428
        },
        {
          "name": "A#1",
          "midi": 34,
          "time": 97.37499999999999,
          "velocity": 1,
          "duration": 0.12395833333333428
        },
        {
          "name": "A#2",
          "midi": 46,
          "time": 97.37499999999999,
          "velocity": 1,
          "duration": 0.12395833333333428
        },
        {
          "name": "A#1",
          "midi": 34,
          "time": 97.49999999999999,
          "velocity": 1,
          "duration": 0.24895833333333428
        },
        {
          "name": "A#2",
          "midi": 46,
          "time": 97.49999999999999,
          "velocity": 1,
          "duration": 0.24895833333333428
        },
        {
          "name": "A#1",
          "midi": 34,
          "time": 97.74999999999999,
          "velocity": 1,
          "duration": 0.12395833333333428
        },
        {
          "name": "A#2",
          "midi": 46,
          "time": 97.74999999999999,
          "velocity": 1,
          "duration": 0.12395833333333428
        },
        {
          "name": "A#1",
          "midi": 34,
          "time": 97.87499999999999,
          "velocity": 0.8818897637795275,
          "duration": 0.11770833333333997
        },
        {
          "name": "A#2",
          "midi": 46,
          "time": 97.87499999999999,
          "velocity": 0.8818897637795275,
          "duration": 0.11770833333333997
        },
        {
          "name": "A#1",
          "midi": 34,
          "time": 97.99999999999999,
          "velocity": 0.8818897637795275,
          "duration": 0.23645833333333144
        },
        {
          "name": "A#2",
          "midi": 46,
          "time": 97.99999999999999,
          "velocity": 0.8818897637795275,
          "duration": 0.23645833333333144
        },
        {
          "name": "C#2",
          "midi": 37,
          "time": 98.24999999999999,
          "velocity": 0.8818897637795275,
          "duration": 0.11770833333333997
        },
        {
          "name": "F2",
          "midi": 41,
          "time": 98.37499999999999,
          "velocity": 0.8818897637795275,
          "duration": 0.11770833333333997
        },
        {
          "name": "F2",
          "midi": 41,
          "time": 98.49999999999999,
          "velocity": 0.8818897637795275,
          "duration": 0.23645833333333144
        },
        {
          "name": "A#2",
          "midi": 46,
          "time": 98.49999999999999,
          "velocity": 0.8818897637795275,
          "duration": 0.23645833333333144
        },
        {
          "name": "G#1",
          "midi": 32,
          "time": 98.74999999999999,
          "velocity": 0.8818897637795275,
          "duration": 0.23645833333333144
        },
        {
          "name": "G#2",
          "midi": 44,
          "time": 98.74999999999999,
          "velocity": 0.8818897637795275,
          "duration": 0.23645833333333144
        },
        {
          "name": "C3",
          "midi": 48,
          "time": 98.99999999999999,
          "velocity": 0.8818897637795275,
          "duration": 0.11770833333333997
        },
        {
          "name": "D#3",
          "midi": 51,
          "time": 99.12499999999999,
          "velocity": 0.8818897637795275,
          "duration": 0.11770833333333997
        },
        {
          "name": "G#3",
          "midi": 56,
          "time": 99.24999999999999,
          "velocity": 0.8818897637795275,
          "duration": 0.23645833333333144
        },
        {
          "name": "D#3",
          "midi": 51,
          "time": 99.49999999999999,
          "velocity": 0.8818897637795275,
          "duration": 0.11770833333333997
        },
        {
          "name": "C3",
          "midi": 48,
          "time": 99.62499999999999,
          "velocity": 0.8818897637795275,
          "duration": 0.11770833333333997
        },
        {
          "name": "G#2",
          "midi": 44,
          "time": 99.74999999999999,
          "velocity": 0.8818897637795275,
          "duration": 0.23645833333333144
        },
        {
          "name": "F2",
          "midi": 41,
          "time": 99.99999999999999,
          "velocity": 0.8818897637795275,
          "duration": 0.23645833333333144
        },
        {
          "name": "F3",
          "midi": 53,
          "time": 99.99999999999999,
          "velocity": 0.8818897637795275,
          "duration": 0.23645833333333144
        },
        {
          "name": "G#2",
          "midi": 44,
          "time": 100.24999999999999,
          "velocity": 0.8818897637795275,
          "duration": 0.11770833333333997
        },
        {
          "name": "C3",
          "midi": 48,
          "time": 100.37499999999999,
          "velocity": 0.8818897637795275,
          "duration": 0.11770833333333997
        },
        {
          "name": "D#3",
          "midi": 51,
          "time": 100.49999999999999,
          "velocity": 0.8818897637795275,
          "duration": 0.23645833333333144
        },
        {
          "name": "F3",
          "midi": 53,
          "time": 100.49999999999999,
          "velocity": 0.8818897637795275,
          "duration": 0.23645833333333144
        },
        {
          "name": "A#1",
          "midi": 34,
          "time": 100.74999999999999,
          "velocity": 0.8818897637795275,
          "duration": 0.23645833333333144
        },
        {
          "name": "A#2",
          "midi": 46,
          "time": 100.74999999999999,
          "velocity": 0.8818897637795275,
          "duration": 0.23645833333333144
        },
        {
          "name": "C#3",
          "midi": 49,
          "time": 100.99999999999999,
          "velocity": 0.8818897637795275,
          "duration": 0.11770833333333997
        },
        {
          "name": "F3",
          "midi": 53,
          "time": 101.12499999999999,
          "velocity": 0.8818897637795275,
          "duration": 0.11770833333333997
        },
        {
          "name": "A#3",
          "midi": 58,
          "time": 101.24999999999999,
          "velocity": 0.8818897637795275,
          "duration": 0.23645833333333144
        },
        {
          "name": "G#3",
          "midi": 56,
          "time": 101.49999999999999,
          "velocity": 0.8818897637795275,
          "duration": 0.11770833333333997
        },
        {
          "name": "F#3",
          "midi": 54,
          "time": 101.62499999999999,
          "velocity": 0.8818897637795275,
          "duration": 0.11770833333333997
        },
        {
          "name": "D#3",
          "midi": 51,
          "time": 101.74999999999999,
          "velocity": 0.8818897637795275,
          "duration": 0.23645833333333144
        },
        {
          "name": "A#1",
          "midi": 34,
          "time": 101.99999999999999,
          "velocity": 0.8818897637795275,
          "duration": 0.23645833333333144
        },
        {
          "name": "A#2",
          "midi": 46,
          "time": 101.99999999999999,
          "velocity": 0.8818897637795275,
          "duration": 0.23645833333333144
        },
        {
          "name": "C#2",
          "midi": 37,
          "time": 102.24999999999999,
          "velocity": 0.8818897637795275,
          "duration": 0.11770833333333997
        },
        {
          "name": "F2",
          "midi": 41,
          "time": 102.37499999999999,
          "velocity": 0.8818897637795275,
          "duration": 0.11770833333333997
        },
        {
          "name": "F2",
          "midi": 41,
          "time": 102.49999999999999,
          "velocity": 0.8818897637795275,
          "duration": 0.23645833333333144
        },
        {
          "name": "A#2",
          "midi": 46,
          "time": 102.49999999999999,
          "velocity": 0.8818897637795275,
          "duration": 0.23645833333333144
        },
        {
          "name": "G#1",
          "midi": 32,
          "time": 102.74999999999999,
          "velocity": 0.8818897637795275,
          "duration": 0.23645833333333144
        },
        {
          "name": "G#2",
          "midi": 44,
          "time": 102.74999999999999,
          "velocity": 0.8818897637795275,
          "duration": 0.23645833333333144
        },
        {
          "name": "C3",
          "midi": 48,
          "time": 102.99999999999999,
          "velocity": 0.8818897637795275,
          "duration": 0.11770833333333997
        },
        {
          "name": "D#3",
          "midi": 51,
          "time": 103.12499999999999,
          "velocity": 0.8818897637795275,
          "duration": 0.11770833333333997
        },
        {
          "name": "G#3",
          "midi": 56,
          "time": 103.24999999999999,
          "velocity": 0.8818897637795275,
          "duration": 0.23645833333333144
        },
        {
          "name": "D#3",
          "midi": 51,
          "time": 103.49999999999999,
          "velocity": 0.8818897637795275,
          "duration": 0.11770833333333997
        },
        {
          "name": "C3",
          "midi": 48,
          "time": 103.62499999999999,
          "velocity": 0.8818897637795275,
          "duration": 0.11770833333333997
        },
        {
          "name": "G#2",
          "midi": 44,
          "time": 103.74999999999999,
          "velocity": 0.8818897637795275,
          "duration": 0.23645833333333144
        },
        {
          "name": "F2",
          "midi": 41,
          "time": 103.99999999999999,
          "velocity": 0.8818897637795275,
          "duration": 0.23645833333333144
        },
        {
          "name": "F3",
          "midi": 53,
          "time": 103.99999999999999,
          "velocity": 0.8818897637795275,
          "duration": 0.23645833333333144
        },
        {
          "name": "G#2",
          "midi": 44,
          "time": 104.24999999999999,
          "velocity": 0.8818897637795275,
          "duration": 0.11770833333333997
        },
        {
          "name": "C3",
          "midi": 48,
          "time": 104.37499999999999,
          "velocity": 0.8818897637795275,
          "duration": 0.11770833333333997
        },
        {
          "name": "A#1",
          "midi": 34,
          "time": 104.49999999999999,
          "velocity": 0.8818897637795275,
          "duration": 0.23645833333333144
        },
        {
          "name": "A#2",
          "midi": 46,
          "time": 104.49999999999999,
          "velocity": 0.8818897637795275,
          "duration": 0.23645833333333144
        },
        {
          "name": "C#2",
          "midi": 37,
          "time": 104.74999999999999,
          "velocity": 0.8818897637795275,
          "duration": 0.11770833333333997
        },
        {
          "name": "F2",
          "midi": 41,
          "time": 104.87499999999999,
          "velocity": 0.8818897637795275,
          "duration": 0.11770833333333997
        },
        {
          "name": "A#1",
          "midi": 34,
          "time": 104.99999999999999,
          "velocity": 1,
          "duration": 0.12395833333333428
        },
        {
          "name": "A#2",
          "midi": 46,
          "time": 104.99999999999999,
          "velocity": 1,
          "duration": 0.12395833333333428
        },
        {
          "name": "A#1",
          "midi": 34,
          "time": 105.12499999999999,
          "velocity": 1,
          "duration": 0.24895833333333428
        },
        {
          "name": "A#2",
          "midi": 46,
          "time": 105.12499999999999,
          "velocity": 1,
          "duration": 0.24895833333333428
        },
        {
          "name": "A#1",
          "midi": 34,
          "time": 105.37499999999999,
          "velocity": 1,
          "duration": 0.12395833333333428
        },
        {
          "name": "A#2",
          "midi": 46,
          "time": 105.37499999999999,
          "velocity": 1,
          "duration": 0.12395833333333428
        },
        {
          "name": "A#1",
          "midi": 34,
          "time": 105.49999999999999,
          "velocity": 1,
          "duration": 0.24895833333333428
        },
        {
          "name": "A#2",
          "midi": 46,
          "time": 105.49999999999999,
          "velocity": 1,
          "duration": 0.24895833333333428
        },
        {
          "name": "A#1",
          "midi": 34,
          "time": 105.74999999999999,
          "velocity": 1,
          "duration": 0.12395833333333428
        },
        {
          "name": "A#2",
          "midi": 46,
          "time": 105.74999999999999,
          "velocity": 1,
          "duration": 0.12395833333333428
        },
        {
          "name": "A#1",
          "midi": 34,
          "time": 105.87499999999999,
          "velocity": 0.8818897637795275,
          "duration": 0.11770833333333997
        },
        {
          "name": "A#2",
          "midi": 46,
          "time": 105.87499999999999,
          "velocity": 0.8818897637795275,
          "duration": 0.11770833333333997
        },
        {
          "name": "A#1",
          "midi": 34,
          "time": 105.99999999999999,
          "velocity": 0.8818897637795275,
          "duration": 0.23645833333333144
        },
        {
          "name": "A#2",
          "midi": 46,
          "time": 105.99999999999999,
          "velocity": 0.8818897637795275,
          "duration": 0.23645833333333144
        },
        {
          "name": "C#2",
          "midi": 37,
          "time": 106.24999999999999,
          "velocity": 0.8818897637795275,
          "duration": 0.11770833333333997
        },
        {
          "name": "F2",
          "midi": 41,
          "time": 106.37499999999999,
          "velocity": 0.8818897637795275,
          "duration": 0.11770833333333997
        },
        {
          "name": "F2",
          "midi": 41,
          "time": 106.49999999999999,
          "velocity": 0.8818897637795275,
          "duration": 0.23645833333333144
        },
        {
          "name": "A#2",
          "midi": 46,
          "time": 106.49999999999999,
          "velocity": 0.8818897637795275,
          "duration": 0.23645833333333144
        },
        {
          "name": "G#1",
          "midi": 32,
          "time": 106.74999999999999,
          "velocity": 0.8818897637795275,
          "duration": 0.23645833333333144
        },
        {
          "name": "G#2",
          "midi": 44,
          "time": 106.74999999999999,
          "velocity": 0.8818897637795275,
          "duration": 0.23645833333333144
        },
        {
          "name": "C3",
          "midi": 48,
          "time": 106.99999999999999,
          "velocity": 0.8818897637795275,
          "duration": 0.11770833333333997
        },
        {
          "name": "D#3",
          "midi": 51,
          "time": 107.12499999999999,
          "velocity": 0.8818897637795275,
          "duration": 0.11770833333333997
        },
        {
          "name": "G#3",
          "midi": 56,
          "time": 107.24999999999999,
          "velocity": 0.8818897637795275,
          "duration": 0.23645833333333144
        },
        {
          "name": "D#3",
          "midi": 51,
          "time": 107.49999999999999,
          "velocity": 0.8818897637795275,
          "duration": 0.11770833333333997
        },
        {
          "name": "C3",
          "midi": 48,
          "time": 107.62499999999999,
          "velocity": 0.8818897637795275,
          "duration": 0.11770833333333997
        },
        {
          "name": "G#2",
          "midi": 44,
          "time": 107.74999999999999,
          "velocity": 0.8818897637795275,
          "duration": 0.23645833333333144
        },
        {
          "name": "F2",
          "midi": 41,
          "time": 107.99999999999999,
          "velocity": 0.8818897637795275,
          "duration": 0.23645833333333144
        },
        {
          "name": "F3",
          "midi": 53,
          "time": 107.99999999999999,
          "velocity": 0.8818897637795275,
          "duration": 0.23645833333333144
        },
        {
          "name": "G#2",
          "midi": 44,
          "time": 108.24999999999999,
          "velocity": 0.8818897637795275,
          "duration": 0.11770833333333997
        },
        {
          "name": "C3",
          "midi": 48,
          "time": 108.37499999999999,
          "velocity": 0.8818897637795275,
          "duration": 0.11770833333333997
        },
        {
          "name": "D#3",
          "midi": 51,
          "time": 108.49999999999999,
          "velocity": 0.8818897637795275,
          "duration": 0.23645833333333144
        },
        {
          "name": "F3",
          "midi": 53,
          "time": 108.49999999999999,
          "velocity": 0.8818897637795275,
          "duration": 0.23645833333333144
        },
        {
          "name": "A#1",
          "midi": 34,
          "time": 108.74999999999999,
          "velocity": 0.8818897637795275,
          "duration": 0.23645833333333144
        },
        {
          "name": "A#2",
          "midi": 46,
          "time": 108.74999999999999,
          "velocity": 0.8818897637795275,
          "duration": 0.23645833333333144
        },
        {
          "name": "C#3",
          "midi": 49,
          "time": 108.99999999999999,
          "velocity": 0.8818897637795275,
          "duration": 0.11770833333333997
        },
        {
          "name": "F3",
          "midi": 53,
          "time": 109.12499999999999,
          "velocity": 0.8818897637795275,
          "duration": 0.11770833333333997
        },
        {
          "name": "A#3",
          "midi": 58,
          "time": 109.24999999999999,
          "velocity": 0.8818897637795275,
          "duration": 0.23645833333333144
        },
        {
          "name": "G#3",
          "midi": 56,
          "time": 109.49999999999999,
          "velocity": 0.8818897637795275,
          "duration": 0.11770833333333997
        },
        {
          "name": "F#3",
          "midi": 54,
          "time": 109.62499999999999,
          "velocity": 0.8818897637795275,
          "duration": 0.11770833333333997
        },
        {
          "name": "D#3",
          "midi": 51,
          "time": 109.74999999999999,
          "velocity": 0.8818897637795275,
          "duration": 0.23645833333333144
        },
        {
          "name": "A#1",
          "midi": 34,
          "time": 109.99999999999999,
          "velocity": 0.8818897637795275,
          "duration": 0.23645833333333144
        },
        {
          "name": "A#2",
          "midi": 46,
          "time": 109.99999999999999,
          "velocity": 0.8818897637795275,
          "duration": 0.23645833333333144
        },
        {
          "name": "C#2",
          "midi": 37,
          "time": 110.24999999999999,
          "velocity": 0.8818897637795275,
          "duration": 0.11770833333333997
        },
        {
          "name": "F2",
          "midi": 41,
          "time": 110.37499999999999,
          "velocity": 0.8818897637795275,
          "duration": 0.11770833333333997
        },
        {
          "name": "F2",
          "midi": 41,
          "time": 110.49999999999999,
          "velocity": 0.8818897637795275,
          "duration": 0.23645833333333144
        },
        {
          "name": "A#2",
          "midi": 46,
          "time": 110.49999999999999,
          "velocity": 0.8818897637795275,
          "duration": 0.23645833333333144
        },
        {
          "name": "G#1",
          "midi": 32,
          "time": 110.74999999999999,
          "velocity": 0.8818897637795275,
          "duration": 0.23645833333333144
        },
        {
          "name": "G#2",
          "midi": 44,
          "time": 110.74999999999999,
          "velocity": 0.8818897637795275,
          "duration": 0.23645833333333144
        },
        {
          "name": "C3",
          "midi": 48,
          "time": 110.99999999999999,
          "velocity": 0.8818897637795275,
          "duration": 0.11770833333333997
        },
        {
          "name": "D#3",
          "midi": 51,
          "time": 111.12499999999999,
          "velocity": 0.8818897637795275,
          "duration": 0.11770833333333997
        },
        {
          "name": "G#3",
          "midi": 56,
          "time": 111.24999999999999,
          "velocity": 0.8818897637795275,
          "duration": 0.23645833333333144
        },
        {
          "name": "D#3",
          "midi": 51,
          "time": 111.49999999999999,
          "velocity": 0.8818897637795275,
          "duration": 0.11770833333333997
        },
        {
          "name": "C3",
          "midi": 48,
          "time": 111.62499999999999,
          "velocity": 0.8818897637795275,
          "duration": 0.11770833333333997
        },
        {
          "name": "G#2",
          "midi": 44,
          "time": 111.74999999999999,
          "velocity": 0.8818897637795275,
          "duration": 0.23645833333333144
        },
        {
          "name": "F2",
          "midi": 41,
          "time": 111.99999999999999,
          "velocity": 0.8818897637795275,
          "duration": 0.23645833333333144
        },
        {
          "name": "F3",
          "midi": 53,
          "time": 111.99999999999999,
          "velocity": 0.8818897637795275,
          "duration": 0.23645833333333144
        },
        {
          "name": "G#2",
          "midi": 44,
          "time": 112.24999999999999,
          "velocity": 0.8818897637795275,
          "duration": 0.11770833333333997
        },
        {
          "name": "C3",
          "midi": 48,
          "time": 112.37499999999999,
          "velocity": 0.8818897637795275,
          "duration": 0.11770833333333997
        },
        {
          "name": "A#1",
          "midi": 34,
          "time": 112.49999999999999,
          "velocity": 0.8818897637795275,
          "duration": 0.23645833333333144
        },
        {
          "name": "A#2",
          "midi": 46,
          "time": 112.49999999999999,
          "velocity": 0.8818897637795275,
          "duration": 0.23645833333333144
        },
        {
          "name": "C#2",
          "midi": 37,
          "time": 112.74999999999999,
          "velocity": 0.8818897637795275,
          "duration": 0.11770833333333997
        },
        {
          "name": "F2",
          "midi": 41,
          "time": 112.87499999999999,
          "velocity": 0.8818897637795275,
          "duration": 0.11770833333333997
        },
        {
          "name": "A#1",
          "midi": 34,
          "time": 112.99999999999999,
          "velocity": 1,
          "duration": 0.12395833333333428
        },
        {
          "name": "A#2",
          "midi": 46,
          "time": 112.99999999999999,
          "velocity": 1,
          "duration": 0.12395833333333428
        },
        {
          "name": "A#1",
          "midi": 34,
          "time": 113.12499999999999,
          "velocity": 1,
          "duration": 0.24895833333333428
        },
        {
          "name": "A#2",
          "midi": 46,
          "time": 113.12499999999999,
          "velocity": 1,
          "duration": 0.24895833333333428
        },
        {
          "name": "A#1",
          "midi": 34,
          "time": 113.37499999999999,
          "velocity": 1,
          "duration": 0.12395833333333428
        },
        {
          "name": "A#2",
          "midi": 46,
          "time": 113.37499999999999,
          "velocity": 1,
          "duration": 0.12395833333333428
        },
        {
          "name": "A#1",
          "midi": 34,
          "time": 113.49999999999999,
          "velocity": 0.8818897637795275,
          "duration": 0.23645833333333144
        },
        {
          "name": "A#2",
          "midi": 46,
          "time": 113.49999999999999,
          "velocity": 0.8818897637795275,
          "duration": 0.23645833333333144
        },
        {
          "name": "A#1",
          "midi": 34,
          "time": 113.74999999999999,
          "velocity": 0.8818897637795275,
          "duration": 0.23645833333333144
        },
        {
          "name": "A#2",
          "midi": 46,
          "time": 113.74999999999999,
          "velocity": 0.8818897637795275,
          "duration": 0.23645833333333144
        },
        {
          "name": "A#1",
          "midi": 34,
          "time": 113.99999999999999,
          "velocity": 0.6299212598425197,
          "duration": 0.23645833333333144
        },
        {
          "name": "A#2",
          "midi": 46,
          "time": 113.99999999999999,
          "velocity": 0.6299212598425197,
          "duration": 0.23645833333333144
        },
        {
          "name": "C#2",
          "midi": 37,
          "time": 114.24999999999999,
          "velocity": 0.6299212598425197,
          "duration": 0.11770833333333997
        },
        {
          "name": "F2",
          "midi": 41,
          "time": 114.37499999999999,
          "velocity": 0.6299212598425197,
          "duration": 0.11770833333333997
        },
        {
          "name": "F2",
          "midi": 41,
          "time": 114.49999999999999,
          "velocity": 0.6299212598425197,
          "duration": 0.23645833333333144
        },
        {
          "name": "A#2",
          "midi": 46,
          "time": 114.49999999999999,
          "velocity": 0.6299212598425197,
          "duration": 0.23645833333333144
        },
        {
          "name": "A#1",
          "midi": 34,
          "time": 114.74999999999999,
          "velocity": 0.6299212598425197,
          "duration": 0.23645833333333144
        },
        {
          "name": "A#2",
          "midi": 46,
          "time": 114.74999999999999,
          "velocity": 0.6299212598425197,
          "duration": 0.23645833333333144
        },
        {
          "name": "C#3",
          "midi": 49,
          "time": 114.99999999999999,
          "velocity": 0.6299212598425197,
          "duration": 0.11770833333333997
        },
        {
          "name": "F3",
          "midi": 53,
          "time": 115.12499999999999,
          "velocity": 0.6299212598425197,
          "duration": 0.11770833333333997
        },
        {
          "name": "A#3",
          "midi": 58,
          "time": 115.24999999999999,
          "velocity": 0.6299212598425197,
          "duration": 0.23645833333333144
        },
        {
          "name": "F3",
          "midi": 53,
          "time": 115.49999999999999,
          "velocity": 0.6299212598425197,
          "duration": 0.11770833333333997
        },
        {
          "name": "C#3",
          "midi": 49,
          "time": 115.62499999999999,
          "velocity": 0.6299212598425197,
          "duration": 0.11770833333333997
        },
        {
          "name": "A#2",
          "midi": 46,
          "time": 115.74999999999999,
          "velocity": 0.6299212598425197,
          "duration": 0.23645833333333144
        },
        {
          "name": "A#1",
          "midi": 34,
          "time": 115.99999999999999,
          "velocity": 0.6299212598425197,
          "duration": 0.23645833333333144
        },
        {
          "name": "A#2",
          "midi": 46,
          "time": 115.99999999999999,
          "velocity": 0.6299212598425197,
          "duration": 0.23645833333333144
        },
        {
          "name": "C#2",
          "midi": 37,
          "time": 116.24999999999999,
          "velocity": 0.6299212598425197,
          "duration": 0.11770833333333997
        },
        {
          "name": "F2",
          "midi": 41,
          "time": 116.37499999999999,
          "velocity": 0.6299212598425197,
          "duration": 0.11770833333333997
        },
        {
          "name": "F2",
          "midi": 41,
          "time": 116.49999999999999,
          "velocity": 0.6299212598425197,
          "duration": 0.23645833333333144
        },
        {
          "name": "A#2",
          "midi": 46,
          "time": 116.49999999999999,
          "velocity": 0.6299212598425197,
          "duration": 0.23645833333333144
        },
        {
          "name": "A#1",
          "midi": 34,
          "time": 116.74999999999999,
          "velocity": 0.6299212598425197,
          "duration": 0.23645833333333144
        },
        {
          "name": "A#2",
          "midi": 46,
          "time": 116.74999999999999,
          "velocity": 0.6299212598425197,
          "duration": 0.23645833333333144
        },
        {
          "name": "C#3",
          "midi": 49,
          "time": 116.99999999999999,
          "velocity": 0.6299212598425197,
          "duration": 0.11770833333333997
        },
        {
          "name": "F3",
          "midi": 53,
          "time": 117.12499999999999,
          "velocity": 0.6299212598425197,
          "duration": 0.11770833333333997
        },
        {
          "name": "A#3",
          "midi": 58,
          "time": 117.24999999999999,
          "velocity": 0.6299212598425197,
          "duration": 0.23645833333333144
        },
        {
          "name": "F3",
          "midi": 53,
          "time": 117.49999999999999,
          "velocity": 0.6299212598425197,
          "duration": 0.11770833333333997
        },
        {
          "name": "C#3",
          "midi": 49,
          "time": 117.62499999999999,
          "velocity": 0.6299212598425197,
          "duration": 0.11770833333333997
        },
        {
          "name": "A#2",
          "midi": 46,
          "time": 117.74999999999999,
          "velocity": 0.6299212598425197,
          "duration": 0.23645833333333144
        },
        {
          "name": "A#1",
          "midi": 34,
          "time": 117.99999999999999,
          "velocity": 0.6299212598425197,
          "duration": 0.23645833333333144
        },
        {
          "name": "A#2",
          "midi": 46,
          "time": 117.99999999999999,
          "velocity": 0.6299212598425197,
          "duration": 0.23645833333333144
        },
        {
          "name": "C#2",
          "midi": 37,
          "time": 118.24999999999999,
          "velocity": 0.6299212598425197,
          "duration": 0.11770833333333997
        },
        {
          "name": "F2",
          "midi": 41,
          "time": 118.37499999999999,
          "velocity": 0.6299212598425197,
          "duration": 0.11770833333333997
        },
        {
          "name": "F2",
          "midi": 41,
          "time": 118.49999999999999,
          "velocity": 0.6299212598425197,
          "duration": 0.23645833333333144
        },
        {
          "name": "A#2",
          "midi": 46,
          "time": 118.49999999999999,
          "velocity": 0.6299212598425197,
          "duration": 0.23645833333333144
        },
        {
          "name": "A#1",
          "midi": 34,
          "time": 118.74999999999999,
          "velocity": 0.6299212598425197,
          "duration": 0.23645833333333144
        },
        {
          "name": "A#2",
          "midi": 46,
          "time": 118.74999999999999,
          "velocity": 0.6299212598425197,
          "duration": 0.23645833333333144
        },
        {
          "name": "C#3",
          "midi": 49,
          "time": 118.99999999999999,
          "velocity": 0.6299212598425197,
          "duration": 0.11770833333333997
        },
        {
          "name": "F3",
          "midi": 53,
          "time": 119.12499999999999,
          "velocity": 0.6299212598425197,
          "duration": 0.11770833333333997
        },
        {
          "name": "A#3",
          "midi": 58,
          "time": 119.24999999999999,
          "velocity": 0.6299212598425197,
          "duration": 0.23645833333333144
        },
        {
          "name": "F3",
          "midi": 53,
          "time": 119.49999999999999,
          "velocity": 0.6299212598425197,
          "duration": 0.11770833333333997
        },
        {
          "name": "C#3",
          "midi": 49,
          "time": 119.62499999999999,
          "velocity": 0.6299212598425197,
          "duration": 0.11770833333333997
        },
        {
          "name": "A#2",
          "midi": 46,
          "time": 119.74999999999999,
          "velocity": 0.6299212598425197,
          "duration": 0.23645833333333144
        },
        {
          "name": "A#1",
          "midi": 34,
          "time": 119.99999999999999,
          "velocity": 0.6299212598425197,
          "duration": 0.23645833333333144
        },
        {
          "name": "A#2",
          "midi": 46,
          "time": 119.99999999999999,
          "velocity": 0.6299212598425197,
          "duration": 0.23645833333333144
        },
        {
          "name": "C#2",
          "midi": 37,
          "time": 120.24999999999999,
          "velocity": 0.6299212598425197,
          "duration": 0.11770833333333997
        },
        {
          "name": "F2",
          "midi": 41,
          "time": 120.37499999999999,
          "velocity": 0.6299212598425197,
          "duration": 0.11770833333333997
        },
        {
          "name": "F2",
          "midi": 41,
          "time": 120.49999999999999,
          "velocity": 0.6299212598425197,
          "duration": 0.23645833333333144
        },
        {
          "name": "A#2",
          "midi": 46,
          "time": 120.49999999999999,
          "velocity": 0.6299212598425197,
          "duration": 0.23645833333333144
        },
        {
          "name": "A#1",
          "midi": 34,
          "time": 120.74999999999999,
          "velocity": 0.6299212598425197,
          "duration": 0.23645833333333144
        },
        {
          "name": "A#2",
          "midi": 46,
          "time": 120.74999999999999,
          "velocity": 0.6299212598425197,
          "duration": 0.23645833333333144
        },
        {
          "name": "C#3",
          "midi": 49,
          "time": 120.99999999999999,
          "velocity": 0.6299212598425197,
          "duration": 0.11770833333333997
        },
        {
          "name": "F3",
          "midi": 53,
          "time": 121.12499999999999,
          "velocity": 0.6299212598425197,
          "duration": 0.11770833333333997
        },
        {
          "name": "A#3",
          "midi": 58,
          "time": 121.24999999999999,
          "velocity": 0.6299212598425197,
          "duration": 0.23645833333333144
        },
        {
          "name": "F3",
          "midi": 53,
          "time": 121.49999999999999,
          "velocity": 0.6299212598425197,
          "duration": 0.11770833333333997
        },
        {
          "name": "C#3",
          "midi": 49,
          "time": 121.62499999999999,
          "velocity": 0.6299212598425197,
          "duration": 0.11770833333333997
        },
        {
          "name": "A#2",
          "midi": 46,
          "time": 121.74999999999999,
          "velocity": 0.6299212598425197,
          "duration": 0.23645833333333144
        },
        {
          "name": "A#1",
          "midi": 34,
          "time": 121.99999999999999,
          "velocity": 0.6299212598425197,
          "duration": 0.23645833333333144
        },
        {
          "name": "A#2",
          "midi": 46,
          "time": 121.99999999999999,
          "velocity": 0.6299212598425197,
          "duration": 0.23645833333333144
        },
        {
          "name": "C#2",
          "midi": 37,
          "time": 122.24999999999999,
          "velocity": 0.6299212598425197,
          "duration": 0.11770833333333997
        },
        {
          "name": "F2",
          "midi": 41,
          "time": 122.37499999999999,
          "velocity": 0.6299212598425197,
          "duration": 0.11770833333333997
        },
        {
          "name": "F2",
          "midi": 41,
          "time": 122.49999999999999,
          "velocity": 0.6299212598425197,
          "duration": 0.23645833333333144
        },
        {
          "name": "A#2",
          "midi": 46,
          "time": 122.49999999999999,
          "velocity": 0.6299212598425197,
          "duration": 0.23645833333333144
        },
        {
          "name": "A#1",
          "midi": 34,
          "time": 122.74999999999999,
          "velocity": 0.6299212598425197,
          "duration": 0.23645833333333144
        },
        {
          "name": "A#2",
          "midi": 46,
          "time": 122.74999999999999,
          "velocity": 0.6299212598425197,
          "duration": 0.23645833333333144
        },
        {
          "name": "C#3",
          "midi": 49,
          "time": 122.99999999999999,
          "velocity": 0.6299212598425197,
          "duration": 0.11770833333333997
        },
        {
          "name": "F3",
          "midi": 53,
          "time": 123.12499999999999,
          "velocity": 0.6299212598425197,
          "duration": 0.11770833333333997
        },
        {
          "name": "A#3",
          "midi": 58,
          "time": 123.24999999999999,
          "velocity": 0.6299212598425197,
          "duration": 0.23645833333333144
        },
        {
          "name": "F3",
          "midi": 53,
          "time": 123.49999999999999,
          "velocity": 0.6299212598425197,
          "duration": 0.11770833333333997
        },
        {
          "name": "C#3",
          "midi": 49,
          "time": 123.62499999999999,
          "velocity": 0.6299212598425197,
          "duration": 0.11770833333333997
        },
        {
          "name": "A#2",
          "midi": 46,
          "time": 123.74999999999999,
          "velocity": 0.6299212598425197,
          "duration": 0.23645833333333144
        },
        {
          "name": "A#1",
          "midi": 34,
          "time": 123.99999999999999,
          "velocity": 0.6299212598425197,
          "duration": 0.23645833333333144
        },
        {
          "name": "A#2",
          "midi": 46,
          "time": 123.99999999999999,
          "velocity": 0.6299212598425197,
          "duration": 0.23645833333333144
        },
        {
          "name": "C#2",
          "midi": 37,
          "time": 124.24999999999999,
          "velocity": 0.6299212598425197,
          "duration": 0.11770833333333997
        },
        {
          "name": "F2",
          "midi": 41,
          "time": 124.37499999999999,
          "velocity": 0.6299212598425197,
          "duration": 0.11770833333333997
        },
        {
          "name": "F2",
          "midi": 41,
          "time": 124.49999999999999,
          "velocity": 0.6299212598425197,
          "duration": 0.23645833333333144
        },
        {
          "name": "A#2",
          "midi": 46,
          "time": 124.49999999999999,
          "velocity": 0.6299212598425197,
          "duration": 0.23645833333333144
        },
        {
          "name": "A#1",
          "midi": 34,
          "time": 124.74999999999999,
          "velocity": 0.6299212598425197,
          "duration": 0.23645833333333144
        },
        {
          "name": "A#2",
          "midi": 46,
          "time": 124.74999999999999,
          "velocity": 0.6299212598425197,
          "duration": 0.23645833333333144
        },
        {
          "name": "C#3",
          "midi": 49,
          "time": 124.99999999999999,
          "velocity": 0.6299212598425197,
          "duration": 0.11770833333333997
        },
        {
          "name": "F3",
          "midi": 53,
          "time": 125.12499999999999,
          "velocity": 0.6299212598425197,
          "duration": 0.11770833333333997
        },
        {
          "name": "A#3",
          "midi": 58,
          "time": 125.24999999999999,
          "velocity": 0.6299212598425197,
          "duration": 0.23645833333333144
        },
        {
          "name": "F3",
          "midi": 53,
          "time": 125.49999999999999,
          "velocity": 0.6299212598425197,
          "duration": 0.11770833333333997
        },
        {
          "name": "C#3",
          "midi": 49,
          "time": 125.62499999999999,
          "velocity": 0.6299212598425197,
          "duration": 0.11770833333333997
        },
        {
          "name": "A#2",
          "midi": 46,
          "time": 125.74999999999999,
          "velocity": 0.6299212598425197,
          "duration": 0.23645833333333144
        },
        {
          "name": "A#1",
          "midi": 34,
          "time": 125.99999999999999,
          "velocity": 0.6299212598425197,
          "duration": 0.23645833333333144
        },
        {
          "name": "A#2",
          "midi": 46,
          "time": 125.99999999999999,
          "velocity": 0.6299212598425197,
          "duration": 0.23645833333333144
        },
        {
          "name": "C#2",
          "midi": 37,
          "time": 126.24999999999999,
          "velocity": 0.6299212598425197,
          "duration": 0.11770833333333997
        },
        {
          "name": "F2",
          "midi": 41,
          "time": 126.37499999999999,
          "velocity": 0.6299212598425197,
          "duration": 0.11770833333333997
        },
        {
          "name": "F2",
          "midi": 41,
          "time": 126.49999999999999,
          "velocity": 0.6299212598425197,
          "duration": 0.23645833333333144
        },
        {
          "name": "A#2",
          "midi": 46,
          "time": 126.49999999999999,
          "velocity": 0.6299212598425197,
          "duration": 0.23645833333333144
        },
        {
          "name": "A#1",
          "midi": 34,
          "time": 126.74999999999999,
          "velocity": 0.6299212598425197,
          "duration": 0.23645833333333144
        },
        {
          "name": "A#2",
          "midi": 46,
          "time": 126.74999999999999,
          "velocity": 0.6299212598425197,
          "duration": 0.23645833333333144
        },
        {
          "name": "C#3",
          "midi": 49,
          "time": 126.99999999999999,
          "velocity": 0.6299212598425197,
          "duration": 0.11770833333333997
        },
        {
          "name": "F3",
          "midi": 53,
          "time": 127.12499999999999,
          "velocity": 0.6299212598425197,
          "duration": 0.11770833333333997
        },
        {
          "name": "A#3",
          "midi": 58,
          "time": 127.24999999999999,
          "velocity": 0.6299212598425197,
          "duration": 0.23645833333333144
        },
        {
          "name": "F3",
          "midi": 53,
          "time": 127.49999999999999,
          "velocity": 0.6299212598425197,
          "duration": 0.11770833333333997
        },
        {
          "name": "C#3",
          "midi": 49,
          "time": 127.62499999999999,
          "velocity": 0.6299212598425197,
          "duration": 0.11770833333333997
        },
        {
          "name": "A#2",
          "midi": 46,
          "time": 127.74999999999999,
          "velocity": 0.6299212598425197,
          "duration": 0.23645833333333144
        },
        {
          "name": "A#1",
          "midi": 34,
          "time": 127.99999999999999,
          "velocity": 0.6299212598425197,
          "duration": 0.23645833333334565
        },
        {
          "name": "A#2",
          "midi": 46,
          "time": 127.99999999999999,
          "velocity": 0.6299212598425197,
          "duration": 0.23645833333334565
        },
        {
          "name": "C#2",
          "midi": 37,
          "time": 128.25,
          "velocity": 0.6299212598425197,
          "duration": 0.11770833333332575
        },
        {
          "name": "F2",
          "midi": 41,
          "time": 128.375,
          "velocity": 0.6299212598425197,
          "duration": 0.11770833333332575
        },
        {
          "name": "F2",
          "midi": 41,
          "time": 128.5,
          "velocity": 0.6299212598425197,
          "duration": 0.23645833333333144
        },
        {
          "name": "A#2",
          "midi": 46,
          "time": 128.5,
          "velocity": 0.6299212598425197,
          "duration": 0.23645833333333144
        },
        {
          "name": "A#1",
          "midi": 34,
          "time": 128.75,
          "velocity": 0.6299212598425197,
          "duration": 0.23645833333333144
        },
        {
          "name": "A#2",
          "midi": 46,
          "time": 128.75,
          "velocity": 0.6299212598425197,
          "duration": 0.23645833333333144
        },
        {
          "name": "A#1",
          "midi": 34,
          "time": 129,
          "velocity": 0.9448818897637795,
          "duration": 0.12395833333332007
        },
        {
          "name": "A#2",
          "midi": 46,
          "time": 129,
          "velocity": 0.9448818897637795,
          "duration": 0.12395833333332007
        },
        {
          "name": "A#1",
          "midi": 34,
          "time": 129.125,
          "velocity": 0.9448818897637795,
          "duration": 0.24895833333332007
        },
        {
          "name": "A#2",
          "midi": 46,
          "time": 129.125,
          "velocity": 0.9448818897637795,
          "duration": 0.24895833333332007
        },
        {
          "name": "A#1",
          "midi": 34,
          "time": 129.375,
          "velocity": 0.9448818897637795,
          "duration": 0.12395833333332007
        },
        {
          "name": "A#2",
          "midi": 46,
          "time": 129.375,
          "velocity": 0.9448818897637795,
          "duration": 0.12395833333332007
        },
        {
          "name": "A#1",
          "midi": 34,
          "time": 129.5,
          "velocity": 0.6299212598425197,
          "duration": 0.23645833333333144
        },
        {
          "name": "A#2",
          "midi": 46,
          "time": 129.5,
          "velocity": 0.6299212598425197,
          "duration": 0.23645833333333144
        },
        {
          "name": "A#1",
          "midi": 34,
          "time": 129.75,
          "velocity": 0.6299212598425197,
          "duration": 0.23645833333333144
        },
        {
          "name": "A#2",
          "midi": 46,
          "time": 129.75,
          "velocity": 0.6299212598425197,
          "duration": 0.23645833333333144
        },
        {
          "name": "A#1",
          "midi": 34,
          "time": 130,
          "velocity": 0.6299212598425197,
          "duration": 0.23645833333335986
        },
        {
          "name": "A#2",
          "midi": 46,
          "time": 130,
          "velocity": 0.6299212598425197,
          "duration": 0.23645833333335986
        },
        {
          "name": "C#2",
          "midi": 37,
          "time": 130.25000000000003,
          "velocity": 0.6299212598425197,
          "duration": 0.11770833333332575
        },
        {
          "name": "F2",
          "midi": 41,
          "time": 130.37500000000003,
          "velocity": 0.6299212598425197,
          "duration": 0.11770833333332575
        },
        {
          "name": "F2",
          "midi": 41,
          "time": 130.50000000000003,
          "velocity": 0.6299212598425197,
          "duration": 0.23645833333333144
        },
        {
          "name": "A#2",
          "midi": 46,
          "time": 130.50000000000003,
          "velocity": 0.6299212598425197,
          "duration": 0.23645833333333144
        },
        {
          "name": "A#1",
          "midi": 34,
          "time": 130.75000000000003,
          "velocity": 0.6299212598425197,
          "duration": 0.23645833333333144
        },
        {
          "name": "A#2",
          "midi": 46,
          "time": 130.75000000000003,
          "velocity": 0.6299212598425197,
          "duration": 0.23645833333333144
        },
        {
          "name": "C#3",
          "midi": 49,
          "time": 131.00000000000003,
          "velocity": 0.6299212598425197,
          "duration": 0.11770833333332575
        },
        {
          "name": "F3",
          "midi": 53,
          "time": 131.12500000000003,
          "velocity": 0.6299212598425197,
          "duration": 0.11770833333332575
        },
        {
          "name": "A#3",
          "midi": 58,
          "time": 131.25000000000003,
          "velocity": 0.6299212598425197,
          "duration": 0.23645833333333144
        },
        {
          "name": "F3",
          "midi": 53,
          "time": 131.50000000000003,
          "velocity": 0.6299212598425197,
          "duration": 0.11770833333332575
        },
        {
          "name": "C#3",
          "midi": 49,
          "time": 131.62500000000003,
          "velocity": 0.6299212598425197,
          "duration": 0.11770833333332575
        },
        {
          "name": "A#2",
          "midi": 46,
          "time": 131.75000000000003,
          "velocity": 0.6299212598425197,
          "duration": 0.23645833333333144
        },
        {
          "name": "G#1",
          "midi": 32,
          "time": 132.00000000000003,
          "velocity": 0.6299212598425197,
          "duration": 0.23645833333335986
        },
        {
          "name": "G#2",
          "midi": 44,
          "time": 132.00000000000003,
          "velocity": 0.6299212598425197,
          "duration": 0.23645833333335986
        },
        {
          "name": "C2",
          "midi": 36,
          "time": 132.25000000000006,
          "velocity": 0.6299212598425197,
          "duration": 0.11770833333332575
        },
        {
          "name": "D#2",
          "midi": 39,
          "time": 132.37500000000006,
          "velocity": 0.6299212598425197,
          "duration": 0.11770833333332575
        },
        {
          "name": "D#2",
          "midi": 39,
          "time": 132.50000000000006,
          "velocity": 0.6299212598425197,
          "duration": 0.23645833333333144
        },
        {
          "name": "G#2",
          "midi": 44,
          "time": 132.50000000000006,
          "velocity": 0.6299212598425197,
          "duration": 0.23645833333333144
        },
        {
          "name": "G#1",
          "midi": 32,
          "time": 132.75000000000006,
          "velocity": 0.6299212598425197,
          "duration": 0.23645833333333144
        },
        {
          "name": "G#2",
          "midi": 44,
          "time": 132.75000000000006,
          "velocity": 0.6299212598425197,
          "duration": 0.23645833333333144
        },
        {
          "name": "C3",
          "midi": 48,
          "time": 133.00000000000006,
          "velocity": 0.6299212598425197,
          "duration": 0.11770833333332575
        },
        {
          "name": "D#3",
          "midi": 51,
          "time": 133.12500000000006,
          "velocity": 0.6299212598425197,
          "duration": 0.11770833333332575
        },
        {
          "name": "G#3",
          "midi": 56,
          "time": 133.25000000000006,
          "velocity": 0.6299212598425197,
          "duration": 0.23645833333333144
        },
        {
          "name": "D#3",
          "midi": 51,
          "time": 133.50000000000006,
          "velocity": 0.6299212598425197,
          "duration": 0.11770833333332575
        },
        {
          "name": "C3",
          "midi": 48,
          "time": 133.62500000000006,
          "velocity": 0.6299212598425197,
          "duration": 0.11770833333332575
        },
        {
          "name": "G#2",
          "midi": 44,
          "time": 133.75000000000006,
          "velocity": 0.6299212598425197,
          "duration": 0.23645833333333144
        },
        {
          "name": "F#1",
          "midi": 30,
          "time": 134.00000000000006,
          "velocity": 0.6299212598425197,
          "duration": 0.23645833333335986
        },
        {
          "name": "F#2",
          "midi": 42,
          "time": 134.00000000000006,
          "velocity": 0.6299212598425197,
          "duration": 0.23645833333335986
        },
        {
          "name": "A#1",
          "midi": 34,
          "time": 134.25000000000009,
          "velocity": 0.6299212598425197,
          "duration": 0.11770833333332575
        },
        {
          "name": "C#2",
          "midi": 37,
          "time": 134.37500000000009,
          "velocity": 0.6299212598425197,
          "duration": 0.11770833333332575
        },
        {
          "name": "C#2",
          "midi": 37,
          "time": 134.50000000000009,
          "velocity": 0.6299212598425197,
          "duration": 0.23645833333333144
        },
        {
          "name": "F#2",
          "midi": 42,
          "time": 134.50000000000009,
          "velocity": 0.6299212598425197,
          "duration": 0.23645833333333144
        },
        {
          "name": "F#1",
          "midi": 30,
          "time": 134.75000000000009,
          "velocity": 0.6299212598425197,
          "duration": 0.23645833333333144
        },
        {
          "name": "F#2",
          "midi": 42,
          "time": 134.75000000000009,
          "velocity": 0.6299212598425197,
          "duration": 0.23645833333333144
        },
        {
          "name": "A#2",
          "midi": 46,
          "time": 135.00000000000009,
          "velocity": 0.6299212598425197,
          "duration": 0.11770833333332575
        },
        {
          "name": "C#3",
          "midi": 49,
          "time": 135.12500000000009,
          "velocity": 0.6299212598425197,
          "duration": 0.11770833333332575
        },
        {
          "name": "F#3",
          "midi": 54,
          "time": 135.25000000000009,
          "velocity": 0.6299212598425197,
          "duration": 0.23645833333333144
        },
        {
          "name": "C#3",
          "midi": 49,
          "time": 135.50000000000009,
          "velocity": 0.6299212598425197,
          "duration": 0.11770833333332575
        },
        {
          "name": "A#2",
          "midi": 46,
          "time": 135.62500000000009,
          "velocity": 0.6299212598425197,
          "duration": 0.11770833333332575
        },
        {
          "name": "F#2",
          "midi": 42,
          "time": 135.75000000000009,
          "velocity": 0.6299212598425197,
          "duration": 0.23645833333333144
        },
        {
          "name": "G#1",
          "midi": 32,
          "time": 136.00000000000009,
          "velocity": 0.6299212598425197,
          "duration": 0.23645833333335986
        },
        {
          "name": "G#2",
          "midi": 44,
          "time": 136.00000000000009,
          "velocity": 0.6299212598425197,
          "duration": 0.23645833333335986
        },
        {
          "name": "C2",
          "midi": 36,
          "time": 136.2500000000001,
          "velocity": 0.6299212598425197,
          "duration": 0.11770833333332575
        },
        {
          "name": "D#2",
          "midi": 39,
          "time": 136.3750000000001,
          "velocity": 0.6299212598425197,
          "duration": 0.11770833333332575
        },
        {
          "name": "D#2",
          "midi": 39,
          "time": 136.5000000000001,
          "velocity": 0.6299212598425197,
          "duration": 0.23645833333333144
        },
        {
          "name": "G#2",
          "midi": 44,
          "time": 136.5000000000001,
          "velocity": 0.6299212598425197,
          "duration": 0.23645833333333144
        },
        {
          "name": "G#1",
          "midi": 32,
          "time": 136.7500000000001,
          "velocity": 0.6299212598425197,
          "duration": 0.23645833333333144
        },
        {
          "name": "G#2",
          "midi": 44,
          "time": 136.7500000000001,
          "velocity": 0.6299212598425197,
          "duration": 0.23645833333333144
        },
        {
          "name": "C3",
          "midi": 48,
          "time": 137.0000000000001,
          "velocity": 0.6299212598425197,
          "duration": 0.11770833333332575
        },
        {
          "name": "D#3",
          "midi": 51,
          "time": 137.1250000000001,
          "velocity": 0.6299212598425197,
          "duration": 0.11770833333332575
        },
        {
          "name": "G#3",
          "midi": 56,
          "time": 137.2500000000001,
          "velocity": 0.6299212598425197,
          "duration": 0.23645833333333144
        },
        {
          "name": "D#3",
          "midi": 51,
          "time": 137.5000000000001,
          "velocity": 0.6299212598425197,
          "duration": 0.11770833333332575
        },
        {
          "name": "C3",
          "midi": 48,
          "time": 137.6250000000001,
          "velocity": 0.6299212598425197,
          "duration": 0.11770833333332575
        },
        {
          "name": "G#2",
          "midi": 44,
          "time": 137.7500000000001,
          "velocity": 0.6299212598425197,
          "duration": 0.23645833333333144
        },
        {
          "name": "A#1",
          "midi": 34,
          "time": 138.0000000000001,
          "velocity": 0.6299212598425197,
          "duration": 0.23645833333335986
        },
        {
          "name": "A#2",
          "midi": 46,
          "time": 138.0000000000001,
          "velocity": 0.6299212598425197,
          "duration": 0.23645833333335986
        },
        {
          "name": "C#2",
          "midi": 37,
          "time": 138.25000000000014,
          "velocity": 0.6299212598425197,
          "duration": 0.11770833333332575
        },
        {
          "name": "F2",
          "midi": 41,
          "time": 138.37500000000014,
          "velocity": 0.6299212598425197,
          "duration": 0.11770833333332575
        },
        {
          "name": "F2",
          "midi": 41,
          "time": 138.50000000000014,
          "velocity": 0.6299212598425197,
          "duration": 0.23645833333333144
        },
        {
          "name": "A#2",
          "midi": 46,
          "time": 138.50000000000014,
          "velocity": 0.6299212598425197,
          "duration": 0.23645833333333144
        },
        {
          "name": "A#1",
          "midi": 34,
          "time": 138.75000000000014,
          "velocity": 0.6299212598425197,
          "duration": 0.23645833333333144
        },
        {
          "name": "A#2",
          "midi": 46,
          "time": 138.75000000000014,
          "velocity": 0.6299212598425197,
          "duration": 0.23645833333333144
        },
        {
          "name": "C#3",
          "midi": 49,
          "time": 139.00000000000014,
          "velocity": 0.6299212598425197,
          "duration": 0.11770833333332575
        },
        {
          "name": "F3",
          "midi": 53,
          "time": 139.12500000000014,
          "velocity": 0.6299212598425197,
          "duration": 0.11770833333332575
        },
        {
          "name": "A#3",
          "midi": 58,
          "time": 139.25000000000014,
          "velocity": 0.6299212598425197,
          "duration": 0.23645833333333144
        },
        {
          "name": "F3",
          "midi": 53,
          "time": 139.50000000000014,
          "velocity": 0.6299212598425197,
          "duration": 0.11770833333332575
        },
        {
          "name": "C#3",
          "midi": 49,
          "time": 139.62500000000014,
          "velocity": 0.6299212598425197,
          "duration": 0.11770833333332575
        },
        {
          "name": "A#2",
          "midi": 46,
          "time": 139.75000000000014,
          "velocity": 0.6299212598425197,
          "duration": 0.23645833333333144
        },
        {
          "name": "G#1",
          "midi": 32,
          "time": 140.00000000000014,
          "velocity": 0.6299212598425197,
          "duration": 0.23645833333335986
        },
        {
          "name": "G#2",
          "midi": 44,
          "time": 140.00000000000014,
          "velocity": 0.6299212598425197,
          "duration": 0.23645833333335986
        },
        {
          "name": "C2",
          "midi": 36,
          "time": 140.25000000000017,
          "velocity": 0.6299212598425197,
          "duration": 0.11770833333332575
        },
        {
          "name": "D#2",
          "midi": 39,
          "time": 140.37500000000017,
          "velocity": 0.6299212598425197,
          "duration": 0.11770833333332575
        },
        {
          "name": "D#2",
          "midi": 39,
          "time": 140.50000000000017,
          "velocity": 0.6299212598425197,
          "duration": 0.23645833333333144
        },
        {
          "name": "G#2",
          "midi": 44,
          "time": 140.50000000000017,
          "velocity": 0.6299212598425197,
          "duration": 0.23645833333333144
        },
        {
          "name": "G#1",
          "midi": 32,
          "time": 140.75000000000017,
          "velocity": 0.6299212598425197,
          "duration": 0.23645833333333144
        },
        {
          "name": "G#2",
          "midi": 44,
          "time": 140.75000000000017,
          "velocity": 0.6299212598425197,
          "duration": 0.23645833333333144
        },
        {
          "name": "C3",
          "midi": 48,
          "time": 141.00000000000017,
          "velocity": 0.6299212598425197,
          "duration": 0.11770833333332575
        },
        {
          "name": "D#3",
          "midi": 51,
          "time": 141.12500000000017,
          "velocity": 0.6299212598425197,
          "duration": 0.11770833333332575
        },
        {
          "name": "G#3",
          "midi": 56,
          "time": 141.25000000000017,
          "velocity": 0.6299212598425197,
          "duration": 0.23645833333333144
        },
        {
          "name": "D#3",
          "midi": 51,
          "time": 141.50000000000017,
          "velocity": 0.6299212598425197,
          "duration": 0.11770833333332575
        },
        {
          "name": "C3",
          "midi": 48,
          "time": 141.62500000000017,
          "velocity": 0.6299212598425197,
          "duration": 0.11770833333332575
        },
        {
          "name": "G#2",
          "midi": 44,
          "time": 141.75000000000017,
          "velocity": 0.6299212598425197,
          "duration": 0.23645833333333144
        },
        {
          "name": "F#1",
          "midi": 30,
          "time": 142.00000000000017,
          "velocity": 0.6299212598425197,
          "duration": 0.23645833333335986
        },
        {
          "name": "F#2",
          "midi": 42,
          "time": 142.00000000000017,
          "velocity": 0.6299212598425197,
          "duration": 0.23645833333335986
        },
        {
          "name": "A#1",
          "midi": 34,
          "time": 142.2500000000002,
          "velocity": 0.6299212598425197,
          "duration": 0.11770833333332575
        },
        {
          "name": "C#2",
          "midi": 37,
          "time": 142.3750000000002,
          "velocity": 0.6299212598425197,
          "duration": 0.11770833333332575
        },
        {
          "name": "C#2",
          "midi": 37,
          "time": 142.5000000000002,
          "velocity": 0.6299212598425197,
          "duration": 0.23645833333333144
        },
        {
          "name": "F#2",
          "midi": 42,
          "time": 142.5000000000002,
          "velocity": 0.6299212598425197,
          "duration": 0.23645833333333144
        },
        {
          "name": "F#1",
          "midi": 30,
          "time": 142.7500000000002,
          "velocity": 0.6299212598425197,
          "duration": 0.23645833333333144
        },
        {
          "name": "F#2",
          "midi": 42,
          "time": 142.7500000000002,
          "velocity": 0.6299212598425197,
          "duration": 0.23645833333333144
        },
        {
          "name": "A#2",
          "midi": 46,
          "time": 143.0000000000002,
          "velocity": 0.6299212598425197,
          "duration": 0.11770833333332575
        },
        {
          "name": "C#3",
          "midi": 49,
          "time": 143.1250000000002,
          "velocity": 0.6299212598425197,
          "duration": 0.11770833333332575
        },
        {
          "name": "F#3",
          "midi": 54,
          "time": 143.2500000000002,
          "velocity": 0.6299212598425197,
          "duration": 0.23645833333333144
        },
        {
          "name": "C#3",
          "midi": 49,
          "time": 143.5000000000002,
          "velocity": 0.6299212598425197,
          "duration": 0.11770833333332575
        },
        {
          "name": "A#2",
          "midi": 46,
          "time": 143.6250000000002,
          "velocity": 0.6299212598425197,
          "duration": 0.11770833333332575
        },
        {
          "name": "F#2",
          "midi": 42,
          "time": 143.7500000000002,
          "velocity": 0.6299212598425197,
          "duration": 0.23645833333333144
        },
        {
          "name": "G#1",
          "midi": 32,
          "time": 144.0000000000002,
          "velocity": 0.6299212598425197,
          "duration": 0.23645833333335986
        },
        {
          "name": "G#2",
          "midi": 44,
          "time": 144.0000000000002,
          "velocity": 0.6299212598425197,
          "duration": 0.23645833333335986
        },
        {
          "name": "C2",
          "midi": 36,
          "time": 144.25000000000023,
          "velocity": 0.6299212598425197,
          "duration": 0.11770833333332575
        },
        {
          "name": "D#2",
          "midi": 39,
          "time": 144.37500000000023,
          "velocity": 0.6299212598425197,
          "duration": 0.11770833333332575
        },
        {
          "name": "D#2",
          "midi": 39,
          "time": 144.50000000000023,
          "velocity": 0.6299212598425197,
          "duration": 0.23645833333333144
        },
        {
          "name": "G#2",
          "midi": 44,
          "time": 144.50000000000023,
          "velocity": 0.6299212598425197,
          "duration": 0.23645833333333144
        },
        {
          "name": "G#1",
          "midi": 32,
          "time": 144.75000000000023,
          "velocity": 0.6299212598425197,
          "duration": 0.23645833333333144
        },
        {
          "name": "G#2",
          "midi": 44,
          "time": 144.75000000000023,
          "velocity": 0.6299212598425197,
          "duration": 0.23645833333333144
        },
        {
          "name": "C3",
          "midi": 48,
          "time": 145.00000000000023,
          "velocity": 0.6299212598425197,
          "duration": 0.11770833333332575
        },
        {
          "name": "D#3",
          "midi": 51,
          "time": 145.12500000000023,
          "velocity": 0.6299212598425197,
          "duration": 0.11770833333332575
        },
        {
          "name": "G#3",
          "midi": 56,
          "time": 145.25000000000023,
          "velocity": 0.6299212598425197,
          "duration": 0.23645833333333144
        },
        {
          "name": "D#3",
          "midi": 51,
          "time": 145.50000000000023,
          "velocity": 0.6299212598425197,
          "duration": 0.11770833333332575
        },
        {
          "name": "C3",
          "midi": 48,
          "time": 145.62500000000023,
          "velocity": 0.6299212598425197,
          "duration": 0.11770833333332575
        },
        {
          "name": "G#2",
          "midi": 44,
          "time": 145.75000000000023,
          "velocity": 0.6299212598425197,
          "duration": 0.23645833333333144
        },
        {
          "name": "A#1",
          "midi": 34,
          "time": 146.00000000000023,
          "velocity": 0.6299212598425197,
          "duration": 0.23645833333335986
        },
        {
          "name": "A#2",
          "midi": 46,
          "time": 146.00000000000023,
          "velocity": 0.6299212598425197,
          "duration": 0.23645833333335986
        },
        {
          "name": "C#2",
          "midi": 37,
          "time": 146.25000000000026,
          "velocity": 0.6299212598425197,
          "duration": 0.11770833333332575
        },
        {
          "name": "F2",
          "midi": 41,
          "time": 146.37500000000026,
          "velocity": 0.6299212598425197,
          "duration": 0.11770833333332575
        },
        {
          "name": "F2",
          "midi": 41,
          "time": 146.50000000000026,
          "velocity": 0.6299212598425197,
          "duration": 0.23645833333333144
        },
        {
          "name": "A#2",
          "midi": 46,
          "time": 146.50000000000026,
          "velocity": 0.6299212598425197,
          "duration": 0.23645833333333144
        },
        {
          "name": "A#1",
          "midi": 34,
          "time": 146.75000000000026,
          "velocity": 0.6299212598425197,
          "duration": 0.23645833333333144
        },
        {
          "name": "A#2",
          "midi": 46,
          "time": 146.75000000000026,
          "velocity": 0.6299212598425197,
          "duration": 0.23645833333333144
        },
        {
          "name": "C#3",
          "midi": 49,
          "time": 147.00000000000026,
          "velocity": 0.6299212598425197,
          "duration": 0.11770833333332575
        },
        {
          "name": "F3",
          "midi": 53,
          "time": 147.12500000000026,
          "velocity": 0.6299212598425197,
          "duration": 0.11770833333332575
        },
        {
          "name": "A#3",
          "midi": 58,
          "time": 147.25000000000026,
          "velocity": 0.6299212598425197,
          "duration": 0.23645833333333144
        },
        {
          "name": "F3",
          "midi": 53,
          "time": 147.50000000000026,
          "velocity": 0.6299212598425197,
          "duration": 0.11770833333332575
        },
        {
          "name": "C#3",
          "midi": 49,
          "time": 147.62500000000026,
          "velocity": 0.6299212598425197,
          "duration": 0.11770833333332575
        },
        {
          "name": "A#2",
          "midi": 46,
          "time": 147.75000000000026,
          "velocity": 0.6299212598425197,
          "duration": 0.23645833333333144
        },
        {
          "name": "G#1",
          "midi": 32,
          "time": 148.00000000000026,
          "velocity": 0.6299212598425197,
          "duration": 0.23645833333335986
        },
        {
          "name": "G#2",
          "midi": 44,
          "time": 148.00000000000026,
          "velocity": 0.6299212598425197,
          "duration": 0.23645833333335986
        },
        {
          "name": "C2",
          "midi": 36,
          "time": 148.25000000000028,
          "velocity": 0.6299212598425197,
          "duration": 0.11770833333332575
        },
        {
          "name": "D#2",
          "midi": 39,
          "time": 148.37500000000028,
          "velocity": 0.6299212598425197,
          "duration": 0.11770833333332575
        },
        {
          "name": "D#2",
          "midi": 39,
          "time": 148.50000000000028,
          "velocity": 0.6299212598425197,
          "duration": 0.23645833333333144
        },
        {
          "name": "G#2",
          "midi": 44,
          "time": 148.50000000000028,
          "velocity": 0.6299212598425197,
          "duration": 0.23645833333333144
        },
        {
          "name": "G#1",
          "midi": 32,
          "time": 148.75000000000028,
          "velocity": 0.6299212598425197,
          "duration": 0.23645833333333144
        },
        {
          "name": "G#2",
          "midi": 44,
          "time": 148.75000000000028,
          "velocity": 0.6299212598425197,
          "duration": 0.23645833333333144
        },
        {
          "name": "C3",
          "midi": 48,
          "time": 149.00000000000028,
          "velocity": 0.6299212598425197,
          "duration": 0.11770833333332575
        },
        {
          "name": "D#3",
          "midi": 51,
          "time": 149.12500000000028,
          "velocity": 0.6299212598425197,
          "duration": 0.11770833333332575
        },
        {
          "name": "G#3",
          "midi": 56,
          "time": 149.25000000000028,
          "velocity": 0.6299212598425197,
          "duration": 0.23645833333333144
        },
        {
          "name": "D#3",
          "midi": 51,
          "time": 149.50000000000028,
          "velocity": 0.6299212598425197,
          "duration": 0.11770833333332575
        },
        {
          "name": "C3",
          "midi": 48,
          "time": 149.62500000000028,
          "velocity": 0.6299212598425197,
          "duration": 0.11770833333332575
        },
        {
          "name": "G#2",
          "midi": 44,
          "time": 149.75000000000028,
          "velocity": 0.6299212598425197,
          "duration": 0.23645833333333144
        },
        {
          "name": "F#1",
          "midi": 30,
          "time": 150.00000000000028,
          "velocity": 0.6299212598425197,
          "duration": 0.23645833333335986
        },
        {
          "name": "F#2",
          "midi": 42,
          "time": 150.00000000000028,
          "velocity": 0.6299212598425197,
          "duration": 0.23645833333335986
        },
        {
          "name": "A#1",
          "midi": 34,
          "time": 150.2500000000003,
          "velocity": 0.6299212598425197,
          "duration": 0.11770833333332575
        },
        {
          "name": "C#2",
          "midi": 37,
          "time": 150.3750000000003,
          "velocity": 0.6299212598425197,
          "duration": 0.11770833333332575
        },
        {
          "name": "C#2",
          "midi": 37,
          "time": 150.5000000000003,
          "velocity": 0.6299212598425197,
          "duration": 0.23645833333333144
        },
        {
          "name": "F#2",
          "midi": 42,
          "time": 150.5000000000003,
          "velocity": 0.6299212598425197,
          "duration": 0.23645833333333144
        },
        {
          "name": "F#1",
          "midi": 30,
          "time": 150.7500000000003,
          "velocity": 0.6299212598425197,
          "duration": 0.23645833333333144
        },
        {
          "name": "F#2",
          "midi": 42,
          "time": 150.7500000000003,
          "velocity": 0.6299212598425197,
          "duration": 0.23645833333333144
        },
        {
          "name": "A#2",
          "midi": 46,
          "time": 151.0000000000003,
          "velocity": 0.6299212598425197,
          "duration": 0.11770833333332575
        },
        {
          "name": "C#3",
          "midi": 49,
          "time": 151.1250000000003,
          "velocity": 0.6299212598425197,
          "duration": 0.11770833333332575
        },
        {
          "name": "F#3",
          "midi": 54,
          "time": 151.2500000000003,
          "velocity": 0.6299212598425197,
          "duration": 0.23645833333333144
        },
        {
          "name": "C#3",
          "midi": 49,
          "time": 151.5000000000003,
          "velocity": 0.6299212598425197,
          "duration": 0.11770833333332575
        },
        {
          "name": "A#2",
          "midi": 46,
          "time": 151.6250000000003,
          "velocity": 0.6299212598425197,
          "duration": 0.11770833333332575
        },
        {
          "name": "F#2",
          "midi": 42,
          "time": 151.7500000000003,
          "velocity": 0.6299212598425197,
          "duration": 0.23645833333333144
        },
        {
          "name": "G#1",
          "midi": 32,
          "time": 152.0000000000003,
          "velocity": 0.6299212598425197,
          "duration": 0.23645833333335986
        },
        {
          "name": "G#2",
          "midi": 44,
          "time": 152.0000000000003,
          "velocity": 0.6299212598425197,
          "duration": 0.23645833333335986
        },
        {
          "name": "C2",
          "midi": 36,
          "time": 152.25000000000034,
          "velocity": 0.6614173228346457,
          "duration": 0.11770833333332575
        },
        {
          "name": "D#2",
          "midi": 39,
          "time": 152.37500000000034,
          "velocity": 0.6771653543307087,
          "duration": 0.11770833333332575
        },
        {
          "name": "D#2",
          "midi": 39,
          "time": 152.50000000000034,
          "velocity": 0.6929133858267716,
          "duration": 0.23645833333333144
        },
        {
          "name": "G#2",
          "midi": 44,
          "time": 152.50000000000034,
          "velocity": 0.6929133858267716,
          "duration": 0.23645833333333144
        },
        {
          "name": "G#1",
          "midi": 32,
          "time": 152.75000000000034,
          "velocity": 0.7244094488188977,
          "duration": 0.23645833333333144
        },
        {
          "name": "G#2",
          "midi": 44,
          "time": 152.75000000000034,
          "velocity": 0.7244094488188977,
          "duration": 0.23645833333333144
        },
        {
          "name": "G#1",
          "midi": 32,
          "time": 153.00000000000034,
          "velocity": 1,
          "duration": 0.12395833333332007
        },
        {
          "name": "G#2",
          "midi": 44,
          "time": 153.00000000000034,
          "velocity": 1,
          "duration": 0.12395833333332007
        },
        {
          "name": "G#1",
          "midi": 32,
          "time": 153.12500000000034,
          "velocity": 1,
          "duration": 0.24895833333332007
        },
        {
          "name": "G#2",
          "midi": 44,
          "time": 153.12500000000034,
          "velocity": 1,
          "duration": 0.24895833333332007
        },
        {
          "name": "G#1",
          "midi": 32,
          "time": 153.37500000000034,
          "velocity": 1,
          "duration": 0.12395833333332007
        },
        {
          "name": "G#2",
          "midi": 44,
          "time": 153.37500000000034,
          "velocity": 1,
          "duration": 0.12395833333332007
        },
        {
          "name": "A#1",
          "midi": 34,
          "time": 153.50000000000034,
          "velocity": 1,
          "duration": 0.24895833333332007
        },
        {
          "name": "A#2",
          "midi": 46,
          "time": 153.50000000000034,
          "velocity": 1,
          "duration": 0.24895833333332007
        },
        {
          "name": "A#1",
          "midi": 34,
          "time": 153.75000000000034,
          "velocity": 1,
          "duration": 0.12395833333332007
        },
        {
          "name": "A#2",
          "midi": 46,
          "time": 153.75000000000034,
          "velocity": 1,
          "duration": 0.12395833333332007
        },
        {
          "name": "A#1",
          "midi": 34,
          "time": 153.87500000000034,
          "velocity": 0.8661417322834646,
          "duration": 0.11770833333332575
        },
        {
          "name": "A#2",
          "midi": 46,
          "time": 153.87500000000034,
          "velocity": 0.8661417322834646,
          "duration": 0.11770833333332575
        },
        {
          "name": "A#1",
          "midi": 34,
          "time": 154.00000000000034,
          "velocity": 0.8818897637795275,
          "duration": 0.23645833333335986
        },
        {
          "name": "A#2",
          "midi": 46,
          "time": 154.00000000000034,
          "velocity": 0.8818897637795275,
          "duration": 0.23645833333335986
        },
        {
          "name": "C#2",
          "midi": 37,
          "time": 154.25000000000037,
          "velocity": 0.8818897637795275,
          "duration": 0.11770833333332575
        },
        {
          "name": "F2",
          "midi": 41,
          "time": 154.37500000000037,
          "velocity": 0.8818897637795275,
          "duration": 0.11770833333332575
        },
        {
          "name": "F2",
          "midi": 41,
          "time": 154.50000000000037,
          "velocity": 0.8818897637795275,
          "duration": 0.23645833333333144
        },
        {
          "name": "A#2",
          "midi": 46,
          "time": 154.50000000000037,
          "velocity": 0.8818897637795275,
          "duration": 0.23645833333333144
        },
        {
          "name": "G#1",
          "midi": 32,
          "time": 154.75000000000037,
          "velocity": 0.8818897637795275,
          "duration": 0.23645833333335986
        },
        {
          "name": "G#2",
          "midi": 44,
          "time": 154.75000000000037,
          "velocity": 0.8818897637795275,
          "duration": 0.23645833333335986
        },
        {
          "name": "C3",
          "midi": 48,
          "time": 155.0000000000004,
          "velocity": 0.8818897637795275,
          "duration": 0.11770833333332575
        },
        {
          "name": "D#3",
          "midi": 51,
          "time": 155.1250000000004,
          "velocity": 0.8818897637795275,
          "duration": 0.11770833333332575
        },
        {
          "name": "G#3",
          "midi": 56,
          "time": 155.2500000000004,
          "velocity": 0.8818897637795275,
          "duration": 0.23645833333333144
        },
        {
          "name": "D#3",
          "midi": 51,
          "time": 155.5000000000004,
          "velocity": 0.8818897637795275,
          "duration": 0.11770833333332575
        },
        {
          "name": "C3",
          "midi": 48,
          "time": 155.6250000000004,
          "velocity": 0.8818897637795275,
          "duration": 0.11770833333332575
        },
        {
          "name": "G#2",
          "midi": 44,
          "time": 155.7500000000004,
          "velocity": 0.8818897637795275,
          "duration": 0.23645833333333144
        },
        {
          "name": "F2",
          "midi": 41,
          "time": 156.0000000000004,
          "velocity": 0.8818897637795275,
          "duration": 0.23645833333335986
        },
        {
          "name": "F3",
          "midi": 53,
          "time": 156.0000000000004,
          "velocity": 0.8818897637795275,
          "duration": 0.23645833333335986
        },
        {
          "name": "G#2",
          "midi": 44,
          "time": 156.25000000000043,
          "velocity": 0.8818897637795275,
          "duration": 0.11770833333332575
        },
        {
          "name": "C3",
          "midi": 48,
          "time": 156.37500000000043,
          "velocity": 0.8818897637795275,
          "duration": 0.11770833333332575
        },
        {
          "name": "D#3",
          "midi": 51,
          "time": 156.50000000000043,
          "velocity": 0.8818897637795275,
          "duration": 0.23645833333333144
        },
        {
          "name": "F3",
          "midi": 53,
          "time": 156.50000000000043,
          "velocity": 0.8818897637795275,
          "duration": 0.23645833333333144
        },
        {
          "name": "A#1",
          "midi": 34,
          "time": 156.75000000000043,
          "velocity": 0.8818897637795275,
          "duration": 0.23645833333335986
        },
        {
          "name": "A#2",
          "midi": 46,
          "time": 156.75000000000043,
          "velocity": 0.8818897637795275,
          "duration": 0.23645833333335986
        },
        {
          "name": "C#3",
          "midi": 49,
          "time": 157.00000000000045,
          "velocity": 0.8818897637795275,
          "duration": 0.11770833333332575
        },
        {
          "name": "F3",
          "midi": 53,
          "time": 157.12500000000045,
          "velocity": 0.8818897637795275,
          "duration": 0.11770833333332575
        },
        {
          "name": "A#3",
          "midi": 58,
          "time": 157.25000000000045,
          "velocity": 0.8818897637795275,
          "duration": 0.23645833333333144
        },
        {
          "name": "G#3",
          "midi": 56,
          "time": 157.50000000000045,
          "velocity": 0.8818897637795275,
          "duration": 0.11770833333332575
        },
        {
          "name": "F#3",
          "midi": 54,
          "time": 157.62500000000045,
          "velocity": 0.8818897637795275,
          "duration": 0.11770833333332575
        },
        {
          "name": "D#3",
          "midi": 51,
          "time": 157.75000000000045,
          "velocity": 0.8818897637795275,
          "duration": 0.23645833333333144
        },
        {
          "name": "A#1",
          "midi": 34,
          "time": 158.00000000000045,
          "velocity": 0.8818897637795275,
          "duration": 0.23645833333335986
        },
        {
          "name": "A#2",
          "midi": 46,
          "time": 158.00000000000045,
          "velocity": 0.8818897637795275,
          "duration": 0.23645833333335986
        },
        {
          "name": "C#2",
          "midi": 37,
          "time": 158.25000000000048,
          "velocity": 0.8818897637795275,
          "duration": 0.11770833333332575
        },
        {
          "name": "F2",
          "midi": 41,
          "time": 158.37500000000048,
          "velocity": 0.8818897637795275,
          "duration": 0.11770833333332575
        },
        {
          "name": "F2",
          "midi": 41,
          "time": 158.50000000000048,
          "velocity": 0.8818897637795275,
          "duration": 0.23645833333333144
        },
        {
          "name": "A#2",
          "midi": 46,
          "time": 158.50000000000048,
          "velocity": 0.8818897637795275,
          "duration": 0.23645833333333144
        },
        {
          "name": "G#1",
          "midi": 32,
          "time": 158.75000000000048,
          "velocity": 0.8818897637795275,
          "duration": 0.23645833333335986
        },
        {
          "name": "G#2",
          "midi": 44,
          "time": 158.75000000000048,
          "velocity": 0.8818897637795275,
          "duration": 0.23645833333335986
        },
        {
          "name": "C3",
          "midi": 48,
          "time": 159.0000000000005,
          "velocity": 0.8818897637795275,
          "duration": 0.11770833333332575
        },
        {
          "name": "D#3",
          "midi": 51,
          "time": 159.1250000000005,
          "velocity": 0.8818897637795275,
          "duration": 0.11770833333332575
        },
        {
          "name": "G#3",
          "midi": 56,
          "time": 159.2500000000005,
          "velocity": 0.8818897637795275,
          "duration": 0.23645833333333144
        },
        {
          "name": "D#3",
          "midi": 51,
          "time": 159.5000000000005,
          "velocity": 0.8818897637795275,
          "duration": 0.11770833333332575
        },
        {
          "name": "C3",
          "midi": 48,
          "time": 159.6250000000005,
          "velocity": 0.8818897637795275,
          "duration": 0.11770833333332575
        },
        {
          "name": "G#2",
          "midi": 44,
          "time": 159.7500000000005,
          "velocity": 0.8818897637795275,
          "duration": 0.23645833333333144
        },
        {
          "name": "F2",
          "midi": 41,
          "time": 160.0000000000005,
          "velocity": 0.8818897637795275,
          "duration": 0.23645833333335986
        },
        {
          "name": "F3",
          "midi": 53,
          "time": 160.0000000000005,
          "velocity": 0.8818897637795275,
          "duration": 0.23645833333335986
        },
        {
          "name": "G#2",
          "midi": 44,
          "time": 160.25000000000054,
          "velocity": 0.8818897637795275,
          "duration": 0.11770833333332575
        },
        {
          "name": "C3",
          "midi": 48,
          "time": 160.37500000000054,
          "velocity": 0.8818897637795275,
          "duration": 0.11770833333332575
        },
        {
          "name": "A#1",
          "midi": 34,
          "time": 160.50000000000054,
          "velocity": 0.8818897637795275,
          "duration": 0.23645833333335986
        },
        {
          "name": "A#2",
          "midi": 46,
          "time": 160.50000000000054,
          "velocity": 0.8818897637795275,
          "duration": 0.23645833333335986
        },
        {
          "name": "C#2",
          "midi": 37,
          "time": 160.75000000000057,
          "velocity": 0.8818897637795275,
          "duration": 0.11770833333332575
        },
        {
          "name": "F2",
          "midi": 41,
          "time": 160.87500000000057,
          "velocity": 0.8818897637795275,
          "duration": 0.11770833333332575
        },
        {
          "name": "A#1",
          "midi": 34,
          "time": 161.00000000000057,
          "velocity": 1,
          "duration": 0.12395833333332007
        },
        {
          "name": "A#2",
          "midi": 46,
          "time": 161.00000000000057,
          "velocity": 1,
          "duration": 0.12395833333332007
        },
        {
          "name": "A#1",
          "midi": 34,
          "time": 161.12500000000057,
          "velocity": 1,
          "duration": 0.24895833333332007
        },
        {
          "name": "A#2",
          "midi": 46,
          "time": 161.12500000000057,
          "velocity": 1,
          "duration": 0.24895833333332007
        },
        {
          "name": "A#1",
          "midi": 34,
          "time": 161.37500000000057,
          "velocity": 1,
          "duration": 0.12395833333332007
        },
        {
          "name": "A#2",
          "midi": 46,
          "time": 161.37500000000057,
          "velocity": 1,
          "duration": 0.12395833333332007
        },
        {
          "name": "A#1",
          "midi": 34,
          "time": 161.50000000000057,
          "velocity": 1,
          "duration": 0.24895833333332007
        },
        {
          "name": "A#2",
          "midi": 46,
          "time": 161.50000000000057,
          "velocity": 1,
          "duration": 0.24895833333332007
        },
        {
          "name": "A#1",
          "midi": 34,
          "time": 161.75000000000057,
          "velocity": 1,
          "duration": 0.12395833333332007
        },
        {
          "name": "A#2",
          "midi": 46,
          "time": 161.75000000000057,
          "velocity": 1,
          "duration": 0.12395833333332007
        },
        {
          "name": "A#1",
          "midi": 34,
          "time": 161.87500000000057,
          "velocity": 0.8818897637795275,
          "duration": 0.11770833333332575
        },
        {
          "name": "A#2",
          "midi": 46,
          "time": 161.87500000000057,
          "velocity": 0.8818897637795275,
          "duration": 0.11770833333332575
        },
        {
          "name": "A#1",
          "midi": 34,
          "time": 162.00000000000057,
          "velocity": 0.8818897637795275,
          "duration": 0.23645833333335986
        },
        {
          "name": "A#2",
          "midi": 46,
          "time": 162.00000000000057,
          "velocity": 0.8818897637795275,
          "duration": 0.23645833333335986
        },
        {
          "name": "C#2",
          "midi": 37,
          "time": 162.2500000000006,
          "velocity": 0.8818897637795275,
          "duration": 0.11770833333332575
        },
        {
          "name": "F2",
          "midi": 41,
          "time": 162.3750000000006,
          "velocity": 0.8818897637795275,
          "duration": 0.11770833333332575
        },
        {
          "name": "F2",
          "midi": 41,
          "time": 162.5000000000006,
          "velocity": 0.8818897637795275,
          "duration": 0.23645833333333144
        },
        {
          "name": "A#2",
          "midi": 46,
          "time": 162.5000000000006,
          "velocity": 0.8818897637795275,
          "duration": 0.23645833333333144
        },
        {
          "name": "G#1",
          "midi": 32,
          "time": 162.7500000000006,
          "velocity": 0.8818897637795275,
          "duration": 0.23645833333335986
        },
        {
          "name": "G#2",
          "midi": 44,
          "time": 162.7500000000006,
          "velocity": 0.8818897637795275,
          "duration": 0.23645833333335986
        },
        {
          "name": "C3",
          "midi": 48,
          "time": 163.00000000000063,
          "velocity": 0.8818897637795275,
          "duration": 0.11770833333332575
        },
        {
          "name": "D#3",
          "midi": 51,
          "time": 163.12500000000063,
          "velocity": 0.8818897637795275,
          "duration": 0.11770833333332575
        },
        {
          "name": "G#3",
          "midi": 56,
          "time": 163.25000000000063,
          "velocity": 0.8818897637795275,
          "duration": 0.23645833333333144
        },
        {
          "name": "D#3",
          "midi": 51,
          "time": 163.50000000000063,
          "velocity": 0.8818897637795275,
          "duration": 0.11770833333332575
        },
        {
          "name": "C3",
          "midi": 48,
          "time": 163.62500000000063,
          "velocity": 0.8818897637795275,
          "duration": 0.11770833333332575
        },
        {
          "name": "G#2",
          "midi": 44,
          "time": 163.75000000000063,
          "velocity": 0.8818897637795275,
          "duration": 0.23645833333333144
        },
        {
          "name": "F2",
          "midi": 41,
          "time": 164.00000000000063,
          "velocity": 0.8818897637795275,
          "duration": 0.23645833333335986
        },
        {
          "name": "F3",
          "midi": 53,
          "time": 164.00000000000063,
          "velocity": 0.8818897637795275,
          "duration": 0.23645833333335986
        },
        {
          "name": "G#2",
          "midi": 44,
          "time": 164.25000000000065,
          "velocity": 0.8818897637795275,
          "duration": 0.11770833333332575
        },
        {
          "name": "C3",
          "midi": 48,
          "time": 164.37500000000065,
          "velocity": 0.8818897637795275,
          "duration": 0.11770833333332575
        },
        {
          "name": "D#3",
          "midi": 51,
          "time": 164.50000000000065,
          "velocity": 0.8818897637795275,
          "duration": 0.23645833333333144
        },
        {
          "name": "F3",
          "midi": 53,
          "time": 164.50000000000065,
          "velocity": 0.8818897637795275,
          "duration": 0.23645833333333144
        },
        {
          "name": "A#1",
          "midi": 34,
          "time": 164.75000000000065,
          "velocity": 0.8818897637795275,
          "duration": 0.23645833333335986
        },
        {
          "name": "A#2",
          "midi": 46,
          "time": 164.75000000000065,
          "velocity": 0.8818897637795275,
          "duration": 0.23645833333335986
        },
        {
          "name": "C#3",
          "midi": 49,
          "time": 165.00000000000068,
          "velocity": 0.8818897637795275,
          "duration": 0.11770833333332575
        },
        {
          "name": "F3",
          "midi": 53,
          "time": 165.12500000000068,
          "velocity": 0.8818897637795275,
          "duration": 0.11770833333332575
        },
        {
          "name": "A#3",
          "midi": 58,
          "time": 165.25000000000068,
          "velocity": 0.8818897637795275,
          "duration": 0.23645833333333144
        },
        {
          "name": "G#3",
          "midi": 56,
          "time": 165.50000000000068,
          "velocity": 0.8818897637795275,
          "duration": 0.11770833333332575
        },
        {
          "name": "F#3",
          "midi": 54,
          "time": 165.62500000000068,
          "velocity": 0.8818897637795275,
          "duration": 0.11770833333332575
        },
        {
          "name": "D#3",
          "midi": 51,
          "time": 165.75000000000068,
          "velocity": 0.8818897637795275,
          "duration": 0.23645833333333144
        },
        {
          "name": "A#1",
          "midi": 34,
          "time": 166.00000000000068,
          "velocity": 0.8818897637795275,
          "duration": 0.23645833333335986
        },
        {
          "name": "A#2",
          "midi": 46,
          "time": 166.00000000000068,
          "velocity": 0.8818897637795275,
          "duration": 0.23645833333335986
        },
        {
          "name": "C#2",
          "midi": 37,
          "time": 166.2500000000007,
          "velocity": 0.8818897637795275,
          "duration": 0.11770833333332575
        },
        {
          "name": "F2",
          "midi": 41,
          "time": 166.3750000000007,
          "velocity": 0.8818897637795275,
          "duration": 0.11770833333332575
        },
        {
          "name": "F2",
          "midi": 41,
          "time": 166.5000000000007,
          "velocity": 0.8818897637795275,
          "duration": 0.23645833333333144
        },
        {
          "name": "A#2",
          "midi": 46,
          "time": 166.5000000000007,
          "velocity": 0.8818897637795275,
          "duration": 0.23645833333333144
        },
        {
          "name": "G#1",
          "midi": 32,
          "time": 166.7500000000007,
          "velocity": 0.8818897637795275,
          "duration": 0.23645833333335986
        },
        {
          "name": "G#2",
          "midi": 44,
          "time": 166.7500000000007,
          "velocity": 0.8818897637795275,
          "duration": 0.23645833333335986
        },
        {
          "name": "C3",
          "midi": 48,
          "time": 167.00000000000074,
          "velocity": 0.8818897637795275,
          "duration": 0.11770833333332575
        },
        {
          "name": "D#3",
          "midi": 51,
          "time": 167.12500000000074,
          "velocity": 0.8818897637795275,
          "duration": 0.11770833333332575
        },
        {
          "name": "G#3",
          "midi": 56,
          "time": 167.25000000000074,
          "velocity": 0.8818897637795275,
          "duration": 0.23645833333333144
        },
        {
          "name": "D#3",
          "midi": 51,
          "time": 167.50000000000074,
          "velocity": 0.8818897637795275,
          "duration": 0.11770833333332575
        },
        {
          "name": "C3",
          "midi": 48,
          "time": 167.62500000000074,
          "velocity": 0.8818897637795275,
          "duration": 0.11770833333332575
        },
        {
          "name": "G#2",
          "midi": 44,
          "time": 167.75000000000074,
          "velocity": 0.8818897637795275,
          "duration": 0.23645833333333144
        },
        {
          "name": "F2",
          "midi": 41,
          "time": 168.00000000000074,
          "velocity": 0.8818897637795275,
          "duration": 0.23645833333335986
        },
        {
          "name": "F3",
          "midi": 53,
          "time": 168.00000000000074,
          "velocity": 0.8818897637795275,
          "duration": 0.23645833333335986
        },
        {
          "name": "G#2",
          "midi": 44,
          "time": 168.25000000000077,
          "velocity": 0.8818897637795275,
          "duration": 0.11770833333332575
        },
        {
          "name": "C3",
          "midi": 48,
          "time": 168.37500000000077,
          "velocity": 0.8818897637795275,
          "duration": 0.11770833333332575
        },
        {
          "name": "A#1",
          "midi": 34,
          "time": 168.50000000000077,
          "velocity": 0.8818897637795275,
          "duration": 0.23645833333335986
        },
        {
          "name": "A#2",
          "midi": 46,
          "time": 168.50000000000077,
          "velocity": 0.8818897637795275,
          "duration": 0.23645833333335986
        },
        {
          "name": "C#2",
          "midi": 37,
          "time": 168.7500000000008,
          "velocity": 0.8818897637795275,
          "duration": 0.11770833333332575
        },
        {
          "name": "F2",
          "midi": 41,
          "time": 168.8750000000008,
          "velocity": 0.8818897637795275,
          "duration": 0.11770833333332575
        },
        {
          "name": "A#1",
          "midi": 34,
          "time": 169.0000000000008,
          "velocity": 1,
          "duration": 0.12395833333332007
        },
        {
          "name": "A#2",
          "midi": 46,
          "time": 169.0000000000008,
          "velocity": 1,
          "duration": 0.12395833333332007
        },
        {
          "name": "A#1",
          "midi": 34,
          "time": 169.1250000000008,
          "velocity": 1,
          "duration": 0.24895833333332007
        },
        {
          "name": "A#2",
          "midi": 46,
          "time": 169.1250000000008,
          "velocity": 1,
          "duration": 0.24895833333332007
        },
        {
          "name": "A#1",
          "midi": 34,
          "time": 169.3750000000008,
          "velocity": 1,
          "duration": 0.12395833333332007
        },
        {
          "name": "A#2",
          "midi": 46,
          "time": 169.3750000000008,
          "velocity": 1,
          "duration": 0.12395833333332007
        },
        {
          "name": "A#1",
          "midi": 34,
          "time": 169.5000000000008,
          "velocity": 1,
          "duration": 0.24895833333332007
        },
        {
          "name": "A#2",
          "midi": 46,
          "time": 169.5000000000008,
          "velocity": 1,
          "duration": 0.24895833333332007
        },
        {
          "name": "A#1",
          "midi": 34,
          "time": 169.7500000000008,
          "velocity": 1,
          "duration": 0.12395833333332007
        },
        {
          "name": "A#2",
          "midi": 46,
          "time": 169.7500000000008,
          "velocity": 1,
          "duration": 0.12395833333332007
        },
        {
          "name": "A#1",
          "midi": 34,
          "time": 169.8750000000008,
          "velocity": 0.8818897637795275,
          "duration": 0.11770833333332575
        },
        {
          "name": "A#2",
          "midi": 46,
          "time": 169.8750000000008,
          "velocity": 0.8818897637795275,
          "duration": 0.11770833333332575
        },
        {
          "name": "A#1",
          "midi": 34,
          "time": 170.0000000000008,
          "velocity": 0.8818897637795275,
          "duration": 0.23645833333335986
        },
        {
          "name": "A#2",
          "midi": 46,
          "time": 170.0000000000008,
          "velocity": 0.8818897637795275,
          "duration": 0.23645833333335986
        },
        {
          "name": "C#2",
          "midi": 37,
          "time": 170.25000000000082,
          "velocity": 0.8818897637795275,
          "duration": 0.11770833333332575
        },
        {
          "name": "F2",
          "midi": 41,
          "time": 170.37500000000082,
          "velocity": 0.8818897637795275,
          "duration": 0.11770833333332575
        },
        {
          "name": "F2",
          "midi": 41,
          "time": 170.50000000000082,
          "velocity": 0.8818897637795275,
          "duration": 0.23645833333333144
        },
        {
          "name": "A#2",
          "midi": 46,
          "time": 170.50000000000082,
          "velocity": 0.8818897637795275,
          "duration": 0.23645833333333144
        },
        {
          "name": "G#1",
          "midi": 32,
          "time": 170.75000000000082,
          "velocity": 0.8818897637795275,
          "duration": 0.23645833333335986
        },
        {
          "name": "G#2",
          "midi": 44,
          "time": 170.75000000000082,
          "velocity": 0.8818897637795275,
          "duration": 0.23645833333335986
        },
        {
          "name": "C3",
          "midi": 48,
          "time": 171.00000000000085,
          "velocity": 0.8818897637795275,
          "duration": 0.11770833333332575
        },
        {
          "name": "D#3",
          "midi": 51,
          "time": 171.12500000000085,
          "velocity": 0.8818897637795275,
          "duration": 0.11770833333332575
        },
        {
          "name": "G#3",
          "midi": 56,
          "time": 171.25000000000085,
          "velocity": 0.8818897637795275,
          "duration": 0.23645833333333144
        },
        {
          "name": "D#3",
          "midi": 51,
          "time": 171.50000000000085,
          "velocity": 0.8818897637795275,
          "duration": 0.11770833333332575
        },
        {
          "name": "C3",
          "midi": 48,
          "time": 171.62500000000085,
          "velocity": 0.8818897637795275,
          "duration": 0.11770833333332575
        },
        {
          "name": "G#2",
          "midi": 44,
          "time": 171.75000000000085,
          "velocity": 0.8818897637795275,
          "duration": 0.23645833333333144
        },
        {
          "name": "F2",
          "midi": 41,
          "time": 172.00000000000085,
          "velocity": 0.8818897637795275,
          "duration": 0.23645833333335986
        },
        {
          "name": "F3",
          "midi": 53,
          "time": 172.00000000000085,
          "velocity": 0.8818897637795275,
          "duration": 0.23645833333335986
        },
        {
          "name": "G#2",
          "midi": 44,
          "time": 172.25000000000088,
          "velocity": 0.8818897637795275,
          "duration": 0.11770833333332575
        },
        {
          "name": "C3",
          "midi": 48,
          "time": 172.37500000000088,
          "velocity": 0.8818897637795275,
          "duration": 0.11770833333332575
        },
        {
          "name": "D#3",
          "midi": 51,
          "time": 172.50000000000088,
          "velocity": 0.8818897637795275,
          "duration": 0.23645833333333144
        },
        {
          "name": "F3",
          "midi": 53,
          "time": 172.50000000000088,
          "velocity": 0.8818897637795275,
          "duration": 0.23645833333333144
        },
        {
          "name": "A#1",
          "midi": 34,
          "time": 172.75000000000088,
          "velocity": 0.8818897637795275,
          "duration": 0.23645833333335986
        },
        {
          "name": "A#2",
          "midi": 46,
          "time": 172.75000000000088,
          "velocity": 0.8818897637795275,
          "duration": 0.23645833333335986
        },
        {
          "name": "C#3",
          "midi": 49,
          "time": 173.0000000000009,
          "velocity": 0.8818897637795275,
          "duration": 0.11770833333332575
        },
        {
          "name": "F3",
          "midi": 53,
          "time": 173.1250000000009,
          "velocity": 0.8818897637795275,
          "duration": 0.11770833333332575
        },
        {
          "name": "A#3",
          "midi": 58,
          "time": 173.2500000000009,
          "velocity": 0.8818897637795275,
          "duration": 0.23645833333333144
        },
        {
          "name": "G#3",
          "midi": 56,
          "time": 173.5000000000009,
          "velocity": 0.8818897637795275,
          "duration": 0.11770833333332575
        },
        {
          "name": "F#3",
          "midi": 54,
          "time": 173.6250000000009,
          "velocity": 0.8818897637795275,
          "duration": 0.11770833333332575
        },
        {
          "name": "D#3",
          "midi": 51,
          "time": 173.7500000000009,
          "velocity": 0.8818897637795275,
          "duration": 0.23645833333333144
        },
        {
          "name": "A#1",
          "midi": 34,
          "time": 174.0000000000009,
          "velocity": 0.8818897637795275,
          "duration": 0.23645833333335986
        },
        {
          "name": "A#2",
          "midi": 46,
          "time": 174.0000000000009,
          "velocity": 0.8818897637795275,
          "duration": 0.23645833333335986
        },
        {
          "name": "C#2",
          "midi": 37,
          "time": 174.25000000000094,
          "velocity": 0.8818897637795275,
          "duration": 0.11770833333332575
        },
        {
          "name": "F2",
          "midi": 41,
          "time": 174.37500000000094,
          "velocity": 0.8818897637795275,
          "duration": 0.11770833333332575
        },
        {
          "name": "F2",
          "midi": 41,
          "time": 174.50000000000094,
          "velocity": 0.8818897637795275,
          "duration": 0.23645833333333144
        },
        {
          "name": "A#2",
          "midi": 46,
          "time": 174.50000000000094,
          "velocity": 0.8818897637795275,
          "duration": 0.23645833333333144
        },
        {
          "name": "G#1",
          "midi": 32,
          "time": 174.75000000000094,
          "velocity": 0.8818897637795275,
          "duration": 0.23645833333335986
        },
        {
          "name": "G#2",
          "midi": 44,
          "time": 174.75000000000094,
          "velocity": 0.8818897637795275,
          "duration": 0.23645833333335986
        },
        {
          "name": "C3",
          "midi": 48,
          "time": 175.00000000000097,
          "velocity": 0.8818897637795275,
          "duration": 0.11770833333332575
        },
        {
          "name": "D#3",
          "midi": 51,
          "time": 175.12500000000097,
          "velocity": 0.8818897637795275,
          "duration": 0.11770833333332575
        },
        {
          "name": "G#3",
          "midi": 56,
          "time": 175.25000000000097,
          "velocity": 0.8818897637795275,
          "duration": 0.23645833333333144
        },
        {
          "name": "D#3",
          "midi": 51,
          "time": 175.50000000000097,
          "velocity": 0.8818897637795275,
          "duration": 0.11770833333332575
        },
        {
          "name": "C3",
          "midi": 48,
          "time": 175.62500000000097,
          "velocity": 0.8818897637795275,
          "duration": 0.11770833333332575
        },
        {
          "name": "G#2",
          "midi": 44,
          "time": 175.75000000000097,
          "velocity": 0.8818897637795275,
          "duration": 0.23645833333333144
        },
        {
          "name": "F2",
          "midi": 41,
          "time": 176.00000000000097,
          "velocity": 0.8818897637795275,
          "duration": 0.23645833333335986
        },
        {
          "name": "F3",
          "midi": 53,
          "time": 176.00000000000097,
          "velocity": 0.8818897637795275,
          "duration": 0.23645833333335986
        },
        {
          "name": "G#2",
          "midi": 44,
          "time": 176.250000000001,
          "velocity": 0.8818897637795275,
          "duration": 0.11770833333332575
        },
        {
          "name": "C3",
          "midi": 48,
          "time": 176.375000000001,
          "velocity": 0.8818897637795275,
          "duration": 0.11770833333332575
        },
        {
          "name": "A#1",
          "midi": 34,
          "time": 176.500000000001,
          "velocity": 0.8818897637795275,
          "duration": 0.23645833333335986
        },
        {
          "name": "A#2",
          "midi": 46,
          "time": 176.500000000001,
          "velocity": 0.8818897637795275,
          "duration": 0.23645833333335986
        },
        {
          "name": "C#2",
          "midi": 37,
          "time": 176.75000000000102,
          "velocity": 0.8818897637795275,
          "duration": 0.11770833333332575
        },
        {
          "name": "F2",
          "midi": 41,
          "time": 176.87500000000102,
          "velocity": 0.8818897637795275,
          "duration": 0.11770833333332575
        },
        {
          "name": "A#1",
          "midi": 34,
          "time": 177.00000000000102,
          "velocity": 1,
          "duration": 0.12395833333332007
        },
        {
          "name": "A#2",
          "midi": 46,
          "time": 177.00000000000102,
          "velocity": 1,
          "duration": 0.12395833333332007
        },
        {
          "name": "A#1",
          "midi": 34,
          "time": 177.12500000000102,
          "velocity": 1,
          "duration": 0.24895833333332007
        },
        {
          "name": "A#2",
          "midi": 46,
          "time": 177.12500000000102,
          "velocity": 1,
          "duration": 0.24895833333332007
        },
        {
          "name": "A#1",
          "midi": 34,
          "time": 177.37500000000102,
          "velocity": 1,
          "duration": 0.12395833333332007
        },
        {
          "name": "A#2",
          "midi": 46,
          "time": 177.37500000000102,
          "velocity": 1,
          "duration": 0.12395833333332007
        },
        {
          "name": "A#1",
          "midi": 34,
          "time": 177.50000000000102,
          "velocity": 1,
          "duration": 0.24895833333332007
        },
        {
          "name": "A#2",
          "midi": 46,
          "time": 177.50000000000102,
          "velocity": 1,
          "duration": 0.24895833333332007
        },
        {
          "name": "A#1",
          "midi": 34,
          "time": 177.75000000000102,
          "velocity": 1,
          "duration": 0.12395833333332007
        },
        {
          "name": "A#2",
          "midi": 46,
          "time": 177.75000000000102,
          "velocity": 1,
          "duration": 0.12395833333332007
        },
        {
          "name": "A#1",
          "midi": 34,
          "time": 177.87500000000102,
          "velocity": 0.8818897637795275,
          "duration": 0.11770833333332575
        },
        {
          "name": "A#2",
          "midi": 46,
          "time": 177.87500000000102,
          "velocity": 0.8818897637795275,
          "duration": 0.11770833333332575
        },
        {
          "name": "A#1",
          "midi": 34,
          "time": 178.00000000000102,
          "velocity": 0.8818897637795275,
          "duration": 0.23645833333335986
        },
        {
          "name": "A#2",
          "midi": 46,
          "time": 178.00000000000102,
          "velocity": 0.8818897637795275,
          "duration": 0.23645833333335986
        },
        {
          "name": "C#2",
          "midi": 37,
          "time": 178.25000000000105,
          "velocity": 0.8818897637795275,
          "duration": 0.11770833333332575
        },
        {
          "name": "F2",
          "midi": 41,
          "time": 178.37500000000105,
          "velocity": 0.8818897637795275,
          "duration": 0.11770833333332575
        },
        {
          "name": "F2",
          "midi": 41,
          "time": 178.50000000000105,
          "velocity": 0.8818897637795275,
          "duration": 0.23645833333333144
        },
        {
          "name": "A#2",
          "midi": 46,
          "time": 178.50000000000105,
          "velocity": 0.8818897637795275,
          "duration": 0.23645833333333144
        },
        {
          "name": "G#1",
          "midi": 32,
          "time": 178.75000000000105,
          "velocity": 0.8818897637795275,
          "duration": 0.23645833333335986
        },
        {
          "name": "G#2",
          "midi": 44,
          "time": 178.75000000000105,
          "velocity": 0.8818897637795275,
          "duration": 0.23645833333335986
        },
        {
          "name": "C3",
          "midi": 48,
          "time": 179.00000000000108,
          "velocity": 0.8818897637795275,
          "duration": 0.11770833333332575
        },
        {
          "name": "D#3",
          "midi": 51,
          "time": 179.12500000000108,
          "velocity": 0.8818897637795275,
          "duration": 0.11770833333332575
        },
        {
          "name": "G#3",
          "midi": 56,
          "time": 179.25000000000108,
          "velocity": 0.8818897637795275,
          "duration": 0.23645833333333144
        },
        {
          "name": "D#3",
          "midi": 51,
          "time": 179.50000000000108,
          "velocity": 0.8818897637795275,
          "duration": 0.11770833333332575
        },
        {
          "name": "C3",
          "midi": 48,
          "time": 179.62500000000108,
          "velocity": 0.8818897637795275,
          "duration": 0.11770833333332575
        },
        {
          "name": "G#2",
          "midi": 44,
          "time": 179.75000000000108,
          "velocity": 0.8818897637795275,
          "duration": 0.23645833333333144
        },
        {
          "name": "F2",
          "midi": 41,
          "time": 180.00000000000108,
          "velocity": 0.8818897637795275,
          "duration": 0.23645833333335986
        },
        {
          "name": "F3",
          "midi": 53,
          "time": 180.00000000000108,
          "velocity": 0.8818897637795275,
          "duration": 0.23645833333335986
        },
        {
          "name": "G#2",
          "midi": 44,
          "time": 180.2500000000011,
          "velocity": 0.8818897637795275,
          "duration": 0.11770833333332575
        },
        {
          "name": "C3",
          "midi": 48,
          "time": 180.3750000000011,
          "velocity": 0.8818897637795275,
          "duration": 0.11770833333332575
        },
        {
          "name": "D#3",
          "midi": 51,
          "time": 180.5000000000011,
          "velocity": 0.8818897637795275,
          "duration": 0.23645833333333144
        },
        {
          "name": "F3",
          "midi": 53,
          "time": 180.5000000000011,
          "velocity": 0.8818897637795275,
          "duration": 0.23645833333333144
        },
        {
          "name": "A#1",
          "midi": 34,
          "time": 180.7500000000011,
          "velocity": 0.8818897637795275,
          "duration": 0.23645833333335986
        },
        {
          "name": "A#2",
          "midi": 46,
          "time": 180.7500000000011,
          "velocity": 0.8818897637795275,
          "duration": 0.23645833333335986
        },
        {
          "name": "C#3",
          "midi": 49,
          "time": 181.00000000000114,
          "velocity": 0.8818897637795275,
          "duration": 0.11770833333332575
        },
        {
          "name": "F3",
          "midi": 53,
          "time": 181.12500000000114,
          "velocity": 0.8818897637795275,
          "duration": 0.11770833333332575
        },
        {
          "name": "A#3",
          "midi": 58,
          "time": 181.25000000000114,
          "velocity": 0.8818897637795275,
          "duration": 0.23645833333333144
        },
        {
          "name": "G#3",
          "midi": 56,
          "time": 181.50000000000114,
          "velocity": 0.8818897637795275,
          "duration": 0.11770833333332575
        },
        {
          "name": "F#3",
          "midi": 54,
          "time": 181.62500000000114,
          "velocity": 0.8818897637795275,
          "duration": 0.11770833333332575
        },
        {
          "name": "D#3",
          "midi": 51,
          "time": 181.75000000000114,
          "velocity": 0.8818897637795275,
          "duration": 0.23645833333333144
        },
        {
          "name": "A#1",
          "midi": 34,
          "time": 182.00000000000114,
          "velocity": 0.8818897637795275,
          "duration": 0.23645833333335986
        },
        {
          "name": "A#2",
          "midi": 46,
          "time": 182.00000000000114,
          "velocity": 0.8818897637795275,
          "duration": 0.23645833333335986
        },
        {
          "name": "C#2",
          "midi": 37,
          "time": 182.25000000000117,
          "velocity": 0.8818897637795275,
          "duration": 0.11770833333332575
        },
        {
          "name": "F2",
          "midi": 41,
          "time": 182.37500000000117,
          "velocity": 0.8818897637795275,
          "duration": 0.11770833333332575
        },
        {
          "name": "F2",
          "midi": 41,
          "time": 182.50000000000117,
          "velocity": 0.8818897637795275,
          "duration": 0.23645833333333144
        },
        {
          "name": "A#2",
          "midi": 46,
          "time": 182.50000000000117,
          "velocity": 0.8818897637795275,
          "duration": 0.23645833333333144
        },
        {
          "name": "G#1",
          "midi": 32,
          "time": 182.75000000000117,
          "velocity": 0.8818897637795275,
          "duration": 0.23645833333335986
        },
        {
          "name": "G#2",
          "midi": 44,
          "time": 182.75000000000117,
          "velocity": 0.8818897637795275,
          "duration": 0.23645833333335986
        },
        {
          "name": "C3",
          "midi": 48,
          "time": 183.0000000000012,
          "velocity": 0.8818897637795275,
          "duration": 0.11770833333332575
        },
        {
          "name": "D#3",
          "midi": 51,
          "time": 183.1250000000012,
          "velocity": 0.8818897637795275,
          "duration": 0.11770833333332575
        },
        {
          "name": "G#3",
          "midi": 56,
          "time": 183.2500000000012,
          "velocity": 0.8818897637795275,
          "duration": 0.23645833333333144
        },
        {
          "name": "D#3",
          "midi": 51,
          "time": 183.5000000000012,
          "velocity": 0.8818897637795275,
          "duration": 0.11770833333332575
        },
        {
          "name": "C3",
          "midi": 48,
          "time": 183.6250000000012,
          "velocity": 0.8818897637795275,
          "duration": 0.11770833333332575
        },
        {
          "name": "G#2",
          "midi": 44,
          "time": 183.7500000000012,
          "velocity": 0.8818897637795275,
          "duration": 0.23645833333333144
        },
        {
          "name": "F2",
          "midi": 41,
          "time": 184.0000000000012,
          "velocity": 0.8818897637795275,
          "duration": 0.23645833333335986
        },
        {
          "name": "F3",
          "midi": 53,
          "time": 184.0000000000012,
          "velocity": 0.8818897637795275,
          "duration": 0.23645833333335986
        },
        {
          "name": "G#2",
          "midi": 44,
          "time": 184.25000000000122,
          "velocity": 0.8818897637795275,
          "duration": 0.11770833333332575
        },
        {
          "name": "C3",
          "midi": 48,
          "time": 184.37500000000122,
          "velocity": 0.8818897637795275,
          "duration": 0.11770833333332575
        },
        {
          "name": "A#1",
          "midi": 34,
          "time": 184.50000000000122,
          "velocity": 0.8818897637795275,
          "duration": 0.23645833333335986
        },
        {
          "name": "A#2",
          "midi": 46,
          "time": 184.50000000000122,
          "velocity": 0.8818897637795275,
          "duration": 0.23645833333335986
        },
        {
          "name": "C#2",
          "midi": 37,
          "time": 184.75000000000125,
          "velocity": 0.8818897637795275,
          "duration": 0.11770833333332575
        },
        {
          "name": "F2",
          "midi": 41,
          "time": 184.87500000000125,
          "velocity": 0.8818897637795275,
          "duration": 0.11770833333332575
        },
        {
          "name": "A#1",
          "midi": 34,
          "time": 185.00000000000125,
          "velocity": 1,
          "duration": 0.12395833333332007
        },
        {
          "name": "A#2",
          "midi": 46,
          "time": 185.00000000000125,
          "velocity": 1,
          "duration": 0.12395833333332007
        },
        {
          "name": "A#1",
          "midi": 34,
          "time": 185.12500000000125,
          "velocity": 1,
          "duration": 0.24895833333332007
        },
        {
          "name": "A#2",
          "midi": 46,
          "time": 185.12500000000125,
          "velocity": 1,
          "duration": 0.24895833333332007
        },
        {
          "name": "A#1",
          "midi": 34,
          "time": 185.37500000000125,
          "velocity": 1,
          "duration": 0.12395833333332007
        },
        {
          "name": "A#2",
          "midi": 46,
          "time": 185.37500000000125,
          "velocity": 1,
          "duration": 0.12395833333332007
        },
        {
          "name": "A#1",
          "midi": 34,
          "time": 185.50000000000125,
          "velocity": 1,
          "duration": 0.24895833333332007
        },
        {
          "name": "A#2",
          "midi": 46,
          "time": 185.50000000000125,
          "velocity": 1,
          "duration": 0.24895833333332007
        },
        {
          "name": "A#1",
          "midi": 34,
          "time": 185.75000000000125,
          "velocity": 1,
          "duration": 0.12395833333332007
        },
        {
          "name": "A#2",
          "midi": 46,
          "time": 185.75000000000125,
          "velocity": 1,
          "duration": 0.12395833333332007
        },
        {
          "name": "A#1",
          "midi": 34,
          "time": 185.87500000000125,
          "velocity": 0.8818897637795275,
          "duration": 0.11770833333332575
        },
        {
          "name": "A#2",
          "midi": 46,
          "time": 185.87500000000125,
          "velocity": 0.8818897637795275,
          "duration": 0.11770833333332575
        },
        {
          "name": "A#1",
          "midi": 34,
          "time": 186.00000000000125,
          "velocity": 0.8818897637795275,
          "duration": 0.23645833333335986
        },
        {
          "name": "A#2",
          "midi": 46,
          "time": 186.00000000000125,
          "velocity": 0.8818897637795275,
          "duration": 0.23645833333335986
        },
        {
          "name": "C#2",
          "midi": 37,
          "time": 186.25000000000128,
          "velocity": 0.8818897637795275,
          "duration": 0.11770833333332575
        },
        {
          "name": "F2",
          "midi": 41,
          "time": 186.37500000000128,
          "velocity": 0.8818897637795275,
          "duration": 0.11770833333332575
        },
        {
          "name": "F2",
          "midi": 41,
          "time": 186.50000000000128,
          "velocity": 0.8818897637795275,
          "duration": 0.23645833333333144
        },
        {
          "name": "A#2",
          "midi": 46,
          "time": 186.50000000000128,
          "velocity": 0.8818897637795275,
          "duration": 0.23645833333333144
        },
        {
          "name": "G#1",
          "midi": 32,
          "time": 186.75000000000128,
          "velocity": 0.8818897637795275,
          "duration": 0.23645833333335986
        },
        {
          "name": "G#2",
          "midi": 44,
          "time": 186.75000000000128,
          "velocity": 0.8818897637795275,
          "duration": 0.23645833333335986
        },
        {
          "name": "C3",
          "midi": 48,
          "time": 187.0000000000013,
          "velocity": 0.8818897637795275,
          "duration": 0.11770833333332575
        },
        {
          "name": "D#3",
          "midi": 51,
          "time": 187.1250000000013,
          "velocity": 0.8818897637795275,
          "duration": 0.11770833333332575
        },
        {
          "name": "G#3",
          "midi": 56,
          "time": 187.2500000000013,
          "velocity": 0.8818897637795275,
          "duration": 0.23645833333333144
        },
        {
          "name": "D#3",
          "midi": 51,
          "time": 187.5000000000013,
          "velocity": 0.8818897637795275,
          "duration": 0.11770833333332575
        },
        {
          "name": "C3",
          "midi": 48,
          "time": 187.6250000000013,
          "velocity": 0.8818897637795275,
          "duration": 0.11770833333332575
        },
        {
          "name": "G#2",
          "midi": 44,
          "time": 187.7500000000013,
          "velocity": 0.8818897637795275,
          "duration": 0.23645833333333144
        },
        {
          "name": "F2",
          "midi": 41,
          "time": 188.0000000000013,
          "velocity": 0.8818897637795275,
          "duration": 0.23645833333335986
        },
        {
          "name": "F3",
          "midi": 53,
          "time": 188.0000000000013,
          "velocity": 0.8818897637795275,
          "duration": 0.23645833333335986
        },
        {
          "name": "G#2",
          "midi": 44,
          "time": 188.25000000000134,
          "velocity": 0.8818897637795275,
          "duration": 0.11770833333332575
        },
        {
          "name": "C3",
          "midi": 48,
          "time": 188.37500000000134,
          "velocity": 0.8818897637795275,
          "duration": 0.11770833333332575
        },
        {
          "name": "D#3",
          "midi": 51,
          "time": 188.50000000000134,
          "velocity": 0.8818897637795275,
          "duration": 0.23645833333333144
        },
        {
          "name": "F3",
          "midi": 53,
          "time": 188.50000000000134,
          "velocity": 0.8818897637795275,
          "duration": 0.23645833333333144
        },
        {
          "name": "A#1",
          "midi": 34,
          "time": 188.75000000000134,
          "velocity": 0.8818897637795275,
          "duration": 0.23645833333335986
        },
        {
          "name": "A#2",
          "midi": 46,
          "time": 188.75000000000134,
          "velocity": 0.8818897637795275,
          "duration": 0.23645833333335986
        },
        {
          "name": "C#3",
          "midi": 49,
          "time": 189.00000000000136,
          "velocity": 0.8818897637795275,
          "duration": 0.11770833333332575
        },
        {
          "name": "F3",
          "midi": 53,
          "time": 189.12500000000136,
          "velocity": 0.8818897637795275,
          "duration": 0.11770833333332575
        },
        {
          "name": "A#3",
          "midi": 58,
          "time": 189.25000000000136,
          "velocity": 0.8818897637795275,
          "duration": 0.23645833333333144
        },
        {
          "name": "G#3",
          "midi": 56,
          "time": 189.50000000000136,
          "velocity": 0.8818897637795275,
          "duration": 0.11770833333332575
        },
        {
          "name": "F#3",
          "midi": 54,
          "time": 189.62500000000136,
          "velocity": 0.8818897637795275,
          "duration": 0.11770833333332575
        },
        {
          "name": "D#3",
          "midi": 51,
          "time": 189.75000000000136,
          "velocity": 0.8818897637795275,
          "duration": 0.23645833333333144
        },
        {
          "name": "A#1",
          "midi": 34,
          "time": 190.00000000000136,
          "velocity": 0.8818897637795275,
          "duration": 0.23645833333335986
        },
        {
          "name": "A#2",
          "midi": 46,
          "time": 190.00000000000136,
          "velocity": 0.8818897637795275,
          "duration": 0.23645833333335986
        },
        {
          "name": "C#2",
          "midi": 37,
          "time": 190.2500000000014,
          "velocity": 0.8818897637795275,
          "duration": 0.11770833333332575
        },
        {
          "name": "F2",
          "midi": 41,
          "time": 190.3750000000014,
          "velocity": 0.8818897637795275,
          "duration": 0.11770833333332575
        },
        {
          "name": "F2",
          "midi": 41,
          "time": 190.5000000000014,
          "velocity": 0.8818897637795275,
          "duration": 0.23645833333333144
        },
        {
          "name": "A#2",
          "midi": 46,
          "time": 190.5000000000014,
          "velocity": 0.8818897637795275,
          "duration": 0.23645833333333144
        },
        {
          "name": "G#1",
          "midi": 32,
          "time": 190.7500000000014,
          "velocity": 0.8818897637795275,
          "duration": 0.23645833333335986
        },
        {
          "name": "G#2",
          "midi": 44,
          "time": 190.7500000000014,
          "velocity": 0.8818897637795275,
          "duration": 0.23645833333335986
        },
        {
          "name": "C3",
          "midi": 48,
          "time": 191.00000000000142,
          "velocity": 0.8818897637795275,
          "duration": 0.11770833333332575
        },
        {
          "name": "D#3",
          "midi": 51,
          "time": 191.12500000000142,
          "velocity": 0.8818897637795275,
          "duration": 0.11770833333332575
        },
        {
          "name": "G#3",
          "midi": 56,
          "time": 191.25000000000142,
          "velocity": 0.8818897637795275,
          "duration": 0.23645833333333144
        },
        {
          "name": "D#3",
          "midi": 51,
          "time": 191.50000000000142,
          "velocity": 0.8818897637795275,
          "duration": 0.11770833333332575
        },
        {
          "name": "C3",
          "midi": 48,
          "time": 191.62500000000142,
          "velocity": 0.8818897637795275,
          "duration": 0.11770833333332575
        },
        {
          "name": "G#2",
          "midi": 44,
          "time": 191.75000000000142,
          "velocity": 0.8818897637795275,
          "duration": 0.23645833333333144
        },
        {
          "name": "F2",
          "midi": 41,
          "time": 192.00000000000142,
          "velocity": 0.8818897637795275,
          "duration": 0.23645833333335986
        },
        {
          "name": "F3",
          "midi": 53,
          "time": 192.00000000000142,
          "velocity": 0.8818897637795275,
          "duration": 0.23645833333335986
        },
        {
          "name": "G#2",
          "midi": 44,
          "time": 192.25000000000145,
          "velocity": 0.8818897637795275,
          "duration": 0.11770833333332575
        },
        {
          "name": "C3",
          "midi": 48,
          "time": 192.37500000000145,
          "velocity": 0.8818897637795275,
          "duration": 0.11770833333332575
        },
        {
          "name": "A#1",
          "midi": 34,
          "time": 192.50000000000145,
          "velocity": 0.8818897637795275,
          "duration": 0.23645833333335986
        },
        {
          "name": "A#2",
          "midi": 46,
          "time": 192.50000000000145,
          "velocity": 0.8818897637795275,
          "duration": 0.23645833333335986
        },
        {
          "name": "C#2",
          "midi": 37,
          "time": 192.75000000000148,
          "velocity": 0.8818897637795275,
          "duration": 0.11770833333332575
        },
        {
          "name": "F2",
          "midi": 41,
          "time": 192.87500000000148,
          "velocity": 0.8818897637795275,
          "duration": 0.11770833333332575
        },
        {
          "name": "A#1",
          "midi": 34,
          "time": 193.00000000000148,
          "velocity": 0.8818897637795275,
          "duration": 0.11770833333332575
        },
        {
          "name": "A#2",
          "midi": 46,
          "time": 193.00000000000148,
          "velocity": 0.8818897637795275,
          "duration": 0.11770833333332575
        },
        {
          "name": "A#1",
          "midi": 34,
          "time": 193.12500000000148,
          "velocity": 0.8818897637795275,
          "duration": 0.23645833333333144
        },
        {
          "name": "A#2",
          "midi": 46,
          "time": 193.12500000000148,
          "velocity": 0.8818897637795275,
          "duration": 0.23645833333333144
        },
        {
          "name": "A#1",
          "midi": 34,
          "time": 193.37500000000148,
          "velocity": 0.8818897637795275,
          "duration": 0.11770833333332575
        },
        {
          "name": "A#2",
          "midi": 46,
          "time": 193.37500000000148,
          "velocity": 0.8818897637795275,
          "duration": 0.11770833333332575
        },
        {
          "name": "A#1",
          "midi": 34,
          "time": 193.50000000000148,
          "velocity": 0.8818897637795275,
          "duration": 0.23645833333333144
        },
        {
          "name": "A#2",
          "midi": 46,
          "time": 193.50000000000148,
          "velocity": 0.8818897637795275,
          "duration": 0.23645833333333144
        },
        {
          "name": "A#1",
          "midi": 34,
          "time": 193.75000000000148,
          "velocity": 0.8818897637795275,
          "duration": 0.11770833333332575
        },
        {
          "name": "A#2",
          "midi": 46,
          "time": 193.75000000000148,
          "velocity": 0.8818897637795275,
          "duration": 0.11770833333332575
        },
        {
          "name": "A#1",
          "midi": 34,
          "time": 193.87500000000148,
          "velocity": 0.8818897637795275,
          "duration": 0.11770833333332575
        },
        {
          "name": "A#2",
          "midi": 46,
          "time": 193.87500000000148,
          "velocity": 0.8818897637795275,
          "duration": 0.11770833333332575
        },
        {
          "name": "A#1",
          "midi": 34,
          "time": 194.00000000000148,
          "velocity": 0.8818897637795275,
          "duration": 0.23645833333335986
        },
        {
          "name": "A#2",
          "midi": 46,
          "time": 194.00000000000148,
          "velocity": 0.8818897637795275,
          "duration": 0.23645833333335986
        },
        {
          "name": "C#2",
          "midi": 37,
          "time": 194.2500000000015,
          "velocity": 0.8818897637795275,
          "duration": 0.11770833333332575
        },
        {
          "name": "F2",
          "midi": 41,
          "time": 194.3750000000015,
          "velocity": 0.8818897637795275,
          "duration": 0.11770833333332575
        },
        {
          "name": "F2",
          "midi": 41,
          "time": 194.5000000000015,
          "velocity": 0.8818897637795275,
          "duration": 0.23645833333333144
        },
        {
          "name": "A#2",
          "midi": 46,
          "time": 194.5000000000015,
          "velocity": 0.8818897637795275,
          "duration": 0.23645833333333144
        },
        {
          "name": "G#1",
          "midi": 32,
          "time": 194.7500000000015,
          "velocity": 0.8818897637795275,
          "duration": 0.23645833333335986
        },
        {
          "name": "G#2",
          "midi": 44,
          "time": 194.7500000000015,
          "velocity": 0.8818897637795275,
          "duration": 0.23645833333335986
        },
        {
          "name": "C3",
          "midi": 48,
          "time": 195.00000000000153,
          "velocity": 0.8818897637795275,
          "duration": 0.11770833333332575
        },
        {
          "name": "D#3",
          "midi": 51,
          "time": 195.12500000000153,
          "velocity": 0.8818897637795275,
          "duration": 0.11770833333332575
        },
        {
          "name": "G#3",
          "midi": 56,
          "time": 195.25000000000153,
          "velocity": 0.8818897637795275,
          "duration": 0.23645833333333144
        },
        {
          "name": "D#3",
          "midi": 51,
          "time": 195.50000000000153,
          "velocity": 0.8818897637795275,
          "duration": 0.11770833333332575
        },
        {
          "name": "C3",
          "midi": 48,
          "time": 195.62500000000153,
          "velocity": 0.8818897637795275,
          "duration": 0.11770833333332575
        },
        {
          "name": "G#2",
          "midi": 44,
          "time": 195.75000000000153,
          "velocity": 0.8818897637795275,
          "duration": 0.23645833333333144
        },
        {
          "name": "F2",
          "midi": 41,
          "time": 196.00000000000153,
          "velocity": 0.8818897637795275,
          "duration": 0.23645833333335986
        },
        {
          "name": "F3",
          "midi": 53,
          "time": 196.00000000000153,
          "velocity": 0.8818897637795275,
          "duration": 0.23645833333335986
        },
        {
          "name": "G#2",
          "midi": 44,
          "time": 196.25000000000156,
          "velocity": 0.8818897637795275,
          "duration": 0.11770833333332575
        },
        {
          "name": "C3",
          "midi": 48,
          "time": 196.37500000000156,
          "velocity": 0.8818897637795275,
          "duration": 0.11770833333332575
        },
        {
          "name": "D#3",
          "midi": 51,
          "time": 196.50000000000156,
          "velocity": 0.8818897637795275,
          "duration": 0.23645833333333144
        },
        {
          "name": "F3",
          "midi": 53,
          "time": 196.50000000000156,
          "velocity": 0.8818897637795275,
          "duration": 0.23645833333333144
        },
        {
          "name": "A#1",
          "midi": 34,
          "time": 196.75000000000156,
          "velocity": 0.8818897637795275,
          "duration": 0.23645833333335986
        },
        {
          "name": "A#2",
          "midi": 46,
          "time": 196.75000000000156,
          "velocity": 0.8818897637795275,
          "duration": 0.23645833333335986
        },
        {
          "name": "C#3",
          "midi": 49,
          "time": 197.0000000000016,
          "velocity": 0.8818897637795275,
          "duration": 0.11770833333332575
        },
        {
          "name": "F3",
          "midi": 53,
          "time": 197.1250000000016,
          "velocity": 0.8818897637795275,
          "duration": 0.11770833333332575
        },
        {
          "name": "A#3",
          "midi": 58,
          "time": 197.2500000000016,
          "velocity": 0.8818897637795275,
          "duration": 0.23645833333333144
        },
        {
          "name": "G#3",
          "midi": 56,
          "time": 197.5000000000016,
          "velocity": 0.8818897637795275,
          "duration": 0.11770833333332575
        },
        {
          "name": "F#3",
          "midi": 54,
          "time": 197.6250000000016,
          "velocity": 0.8818897637795275,
          "duration": 0.11770833333332575
        },
        {
          "name": "D#3",
          "midi": 51,
          "time": 197.7500000000016,
          "velocity": 0.8818897637795275,
          "duration": 0.23645833333333144
        },
        {
          "name": "A#1",
          "midi": 34,
          "time": 198.0000000000016,
          "velocity": 0.8818897637795275,
          "duration": 0.23645833333335986
        },
        {
          "name": "A#2",
          "midi": 46,
          "time": 198.0000000000016,
          "velocity": 0.8818897637795275,
          "duration": 0.23645833333335986
        },
        {
          "name": "C#2",
          "midi": 37,
          "time": 198.25000000000162,
          "velocity": 0.8818897637795275,
          "duration": 0.11770833333332575
        },
        {
          "name": "F2",
          "midi": 41,
          "time": 198.37500000000162,
          "velocity": 0.8818897637795275,
          "duration": 0.11770833333332575
        },
        {
          "name": "F2",
          "midi": 41,
          "time": 198.50000000000162,
          "velocity": 0.8818897637795275,
          "duration": 0.23645833333333144
        },
        {
          "name": "A#2",
          "midi": 46,
          "time": 198.50000000000162,
          "velocity": 0.8818897637795275,
          "duration": 0.23645833333333144
        },
        {
          "name": "G#1",
          "midi": 32,
          "time": 198.75000000000162,
          "velocity": 0.8818897637795275,
          "duration": 0.23645833333335986
        },
        {
          "name": "G#2",
          "midi": 44,
          "time": 198.75000000000162,
          "velocity": 0.8818897637795275,
          "duration": 0.23645833333335986
        },
        {
          "name": "C3",
          "midi": 48,
          "time": 199.00000000000165,
          "velocity": 0.8818897637795275,
          "duration": 0.11770833333332575
        },
        {
          "name": "D#3",
          "midi": 51,
          "time": 199.12500000000165,
          "velocity": 0.8818897637795275,
          "duration": 0.11770833333332575
        },
        {
          "name": "G#3",
          "midi": 56,
          "time": 199.25000000000165,
          "velocity": 0.8818897637795275,
          "duration": 0.23645833333333144
        },
        {
          "name": "D#3",
          "midi": 51,
          "time": 199.50000000000165,
          "velocity": 0.8818897637795275,
          "duration": 0.11770833333332575
        },
        {
          "name": "C3",
          "midi": 48,
          "time": 199.62500000000165,
          "velocity": 0.8818897637795275,
          "duration": 0.11770833333332575
        },
        {
          "name": "G#2",
          "midi": 44,
          "time": 199.75000000000165,
          "velocity": 0.8818897637795275,
          "duration": 0.23645833333333144
        },
        {
          "name": "F2",
          "midi": 41,
          "time": 200.00000000000165,
          "velocity": 0.8818897637795275,
          "duration": 0.23645833333335986
        },
        {
          "name": "F3",
          "midi": 53,
          "time": 200.00000000000165,
          "velocity": 0.8818897637795275,
          "duration": 0.23645833333335986
        },
        {
          "name": "G#2",
          "midi": 44,
          "time": 200.25000000000168,
          "velocity": 0.8818897637795275,
          "duration": 0.11770833333332575
        },
        {
          "name": "C3",
          "midi": 48,
          "time": 200.37500000000168,
          "velocity": 0.8818897637795275,
          "duration": 0.11770833333332575
        },
        {
          "name": "A#1",
          "midi": 34,
          "time": 200.50000000000168,
          "velocity": 0.8818897637795275,
          "duration": 0.23645833333335986
        },
        {
          "name": "A#2",
          "midi": 46,
          "time": 200.50000000000168,
          "velocity": 0.8818897637795275,
          "duration": 0.23645833333335986
        },
        {
          "name": "C#2",
          "midi": 37,
          "time": 200.7500000000017,
          "velocity": 0.8818897637795275,
          "duration": 0.11770833333332575
        },
        {
          "name": "F2",
          "midi": 41,
          "time": 200.8750000000017,
          "velocity": 0.8818897637795275,
          "duration": 0.11770833333332575
        },
        {
          "name": "A#1",
          "midi": 34,
          "time": 201.0000000000017,
          "velocity": 0.8818897637795275,
          "duration": 0.9489583333333371
        },
        {
          "name": "A#2",
          "midi": 46,
          "time": 201.0000000000017,
          "velocity": 0.8818897637795275,
          "duration": 0.9489583333333371
        }
      ],
      "controlChanges": {
        "64": [
          {
            "number": 64,
            "time": 2.002083333333333,
            "value": 1
          },
          {
            "number": 64,
            "time": 2.7510416666666666,
            "value": 0
          },
          {
            "number": 64,
            "time": 2.752083333333333,
            "value": 1
          },
          {
            "number": 64,
            "time": 4.001041666666667,
            "value": 0
          },
          {
            "number": 64,
            "time": 4.002083333333333,
            "value": 1
          },
          {
            "number": 64,
            "time": 4.751041666666667,
            "value": 0
          },
          {
            "number": 64,
            "time": 4.752083333333333,
            "value": 1
          },
          {
            "number": 64,
            "time": 6.001041666666667,
            "value": 0
          },
          {
            "number": 64,
            "time": 6.002083333333333,
            "value": 1
          },
          {
            "number": 64,
            "time": 6.751041666666667,
            "value": 0
          },
          {
            "number": 64,
            "time": 6.752083333333333,
            "value": 1
          },
          {
            "number": 64,
            "time": 8.001041666666667,
            "value": 0
          },
          {
            "number": 64,
            "time": 8.002083333333335,
            "value": 1
          },
          {
            "number": 64,
            "time": 8.75104166666667,
            "value": 0
          },
          {
            "number": 64,
            "time": 8.752083333333337,
            "value": 1
          },
          {
            "number": 64,
            "time": 10.001041666666671,
            "value": 0
          },
          {
            "number": 64,
            "time": 10.002083333333339,
            "value": 1
          },
          {
            "number": 64,
            "time": 10.751041666666673,
            "value": 0
          },
          {
            "number": 64,
            "time": 10.75208333333334,
            "value": 1
          },
          {
            "number": 64,
            "time": 12.001041666666675,
            "value": 0
          },
          {
            "number": 64,
            "time": 12.002083333333342,
            "value": 1
          },
          {
            "number": 64,
            "time": 12.751041666666676,
            "value": 0
          },
          {
            "number": 64,
            "time": 12.752083333333344,
            "value": 1
          },
          {
            "number": 64,
            "time": 14.001041666666678,
            "value": 0
          },
          {
            "number": 64,
            "time": 14.002083333333346,
            "value": 1
          },
          {
            "number": 64,
            "time": 14.75104166666668,
            "value": 0
          },
          {
            "number": 64,
            "time": 14.752083333333347,
            "value": 1
          },
          {
            "number": 64,
            "time": 16.00104166666668,
            "value": 0
          },
          {
            "number": 64,
            "time": 16.002083333333346,
            "value": 1
          },
          {
            "number": 64,
            "time": 16.751041666666676,
            "value": 0
          },
          {
            "number": 64,
            "time": 16.752083333333342,
            "value": 1
          },
          {
            "number": 64,
            "time": 18.001041666666673,
            "value": 0
          },
          {
            "number": 64,
            "time": 18.00208333333334,
            "value": 1
          },
          {
            "number": 64,
            "time": 20.00104166666667,
            "value": 0
          },
          {
            "number": 64,
            "time": 20.002083333333335,
            "value": 1
          },
          {
            "number": 64,
            "time": 22.001041666666666,
            "value": 0
          },
          {
            "number": 64,
            "time": 22.00208333333333,
            "value": 1
          },
          {
            "number": 64,
            "time": 24.001041666666662,
            "value": 0
          },
          {
            "number": 64,
            "time": 24.002083333333328,
            "value": 1
          },
          {
            "number": 64,
            "time": 26.00104166666666,
            "value": 0
          },
          {
            "number": 64,
            "time": 26.002083333333324,
            "value": 1
          },
          {
            "number": 64,
            "time": 28.001041666666655,
            "value": 0
          },
          {
            "number": 64,
            "time": 28.00208333333332,
            "value": 1
          },
          {
            "number": 64,
            "time": 30.00104166666665,
            "value": 0
          },
          {
            "number": 64,
            "time": 30.002083333333317,
            "value": 1
          },
          {
            "number": 64,
            "time": 32.00104166666665,
            "value": 0
          },
          {
            "number": 64,
            "time": 32.00208333333332,
            "value": 1
          },
          {
            "number": 64,
            "time": 34.00104166666665,
            "value": 0
          },
          {
            "number": 64,
            "time": 34.00208333333332,
            "value": 1
          },
          {
            "number": 64,
            "time": 36.00104166666665,
            "value": 0
          },
          {
            "number": 64,
            "time": 36.00208333333332,
            "value": 1
          },
          {
            "number": 64,
            "time": 38.00104166666665,
            "value": 0
          },
          {
            "number": 64,
            "time": 38.00208333333332,
            "value": 1
          },
          {
            "number": 64,
            "time": 40.00104166666665,
            "value": 0
          },
          {
            "number": 64,
            "time": 40.00208333333332,
            "value": 1
          },
          {
            "number": 64,
            "time": 42.00104166666665,
            "value": 0
          },
          {
            "number": 64,
            "time": 42.00208333333332,
            "value": 1
          },
          {
            "number": 64,
            "time": 42.75104166666665,
            "value": 0
          },
          {
            "number": 64,
            "time": 42.75208333333332,
            "value": 1
          },
          {
            "number": 64,
            "time": 44.00104166666665,
            "value": 0
          },
          {
            "number": 64,
            "time": 44.00208333333332,
            "value": 1
          },
          {
            "number": 64,
            "time": 44.75104166666665,
            "value": 0
          },
          {
            "number": 64,
            "time": 44.75208333333332,
            "value": 1
          },
          {
            "number": 64,
            "time": 46.00104166666665,
            "value": 0
          },
          {
            "number": 64,
            "time": 46.00208333333332,
            "value": 1
          },
          {
            "number": 64,
            "time": 46.75104166666665,
            "value": 0
          },
          {
            "number": 64,
            "time": 46.75208333333332,
            "value": 1
          },
          {
            "number": 64,
            "time": 48.00104166666665,
            "value": 0
          },
          {
            "number": 64,
            "time": 48.00208333333332,
            "value": 1
          },
          {
            "number": 64,
            "time": 48.50104166666665,
            "value": 0
          },
          {
            "number": 64,
            "time": 48.50208333333332,
            "value": 1
          },
          {
            "number": 64,
            "time": 50.00104166666665,
            "value": 0
          },
          {
            "number": 64,
            "time": 50.00208333333332,
            "value": 1
          },
          {
            "number": 64,
            "time": 50.75104166666665,
            "value": 0
          },
          {
            "number": 64,
            "time": 50.75208333333332,
            "value": 1
          },
          {
            "number": 64,
            "time": 52.00104166666665,
            "value": 0
          },
          {
            "number": 64,
            "time": 52.00208333333332,
            "value": 1
          },
          {
            "number": 64,
            "time": 52.75104166666665,
            "value": 0
          },
          {
            "number": 64,
            "time": 52.75208333333332,
            "value": 1
          },
          {
            "number": 64,
            "time": 54.00104166666665,
            "value": 0
          },
          {
            "number": 64,
            "time": 54.00208333333332,
            "value": 1
          },
          {
            "number": 64,
            "time": 54.75104166666665,
            "value": 0
          },
          {
            "number": 64,
            "time": 54.75208333333332,
            "value": 1
          },
          {
            "number": 64,
            "time": 56.00104166666665,
            "value": 0
          },
          {
            "number": 64,
            "time": 56.00208333333332,
            "value": 1
          },
          {
            "number": 64,
            "time": 56.50104166666665,
            "value": 0
          },
          {
            "number": 64,
            "time": 56.50208333333332,
            "value": 1
          },
          {
            "number": 64,
            "time": 58.00104166666665,
            "value": 0
          },
          {
            "number": 64,
            "time": 58.00208333333332,
            "value": 1
          },
          {
            "number": 64,
            "time": 60.00104166666665,
            "value": 0
          },
          {
            "number": 64,
            "time": 60.00208333333332,
            "value": 1
          },
          {
            "number": 64,
            "time": 62.00104166666665,
            "value": 0
          },
          {
            "number": 64,
            "time": 62.00208333333332,
            "value": 1
          },
          {
            "number": 64,
            "time": 64.00104166666665,
            "value": 0
          },
          {
            "number": 64,
            "time": 64.00208333333332,
            "value": 1
          },
          {
            "number": 64,
            "time": 66.00104166666665,
            "value": 0
          },
          {
            "number": 64,
            "time": 66.00208333333332,
            "value": 1
          },
          {
            "number": 64,
            "time": 68.00104166666665,
            "value": 0
          },
          {
            "number": 64,
            "time": 68.00208333333332,
            "value": 1
          },
          {
            "number": 64,
            "time": 70.00104166666665,
            "value": 0
          },
          {
            "number": 64,
            "time": 70.00208333333332,
            "value": 1
          },
          {
            "number": 64,
            "time": 72.00104166666665,
            "value": 0
          },
          {
            "number": 64,
            "time": 72.00208333333332,
            "value": 1
          },
          {
            "number": 64,
            "time": 74.00104166666665,
            "value": 0
          },
          {
            "number": 64,
            "time": 74.00208333333332,
            "value": 1
          },
          {
            "number": 64,
            "time": 76.00104166666665,
            "value": 0
          },
          {
            "number": 64,
            "time": 76.00208333333332,
            "value": 1
          },
          {
            "number": 64,
            "time": 78.00104166666665,
            "value": 0
          },
          {
            "number": 64,
            "time": 78.00208333333332,
            "value": 1
          },
          {
            "number": 64,
            "time": 80.00104166666665,
            "value": 0
          },
          {
            "number": 64,
            "time": 80.00208333333332,
            "value": 1
          },
          {
            "number": 64,
            "time": 82.00104166666665,
            "value": 0
          },
          {
            "number": 64,
            "time": 82.00208333333332,
            "value": 1
          },
          {
            "number": 64,
            "time": 82.75104166666665,
            "value": 0
          },
          {
            "number": 64,
            "time": 82.75208333333332,
            "value": 1
          },
          {
            "number": 64,
            "time": 84.00104166666665,
            "value": 0
          },
          {
            "number": 64,
            "time": 84.00208333333332,
            "value": 1
          },
          {
            "number": 64,
            "time": 84.75104166666665,
            "value": 0
          },
          {
            "number": 64,
            "time": 84.75208333333332,
            "value": 1
          },
          {
            "number": 64,
            "time": 86.00104166666665,
            "value": 0
          },
          {
            "number": 64,
            "time": 86.00208333333332,
            "value": 1
          },
          {
            "number": 64,
            "time": 86.75104166666665,
            "value": 0
          },
          {
            "number": 64,
            "time": 86.75208333333332,
            "value": 1
          },
          {
            "number": 64,
            "time": 88.00104166666665,
            "value": 0
          },
          {
            "number": 64,
            "time": 88.00208333333332,
            "value": 1
          },
          {
            "number": 64,
            "time": 88.50104166666665,
            "value": 0
          },
          {
            "number": 64,
            "time": 88.50208333333332,
            "value": 1
          },
          {
            "number": 64,
            "time": 90.00104166666665,
            "value": 0
          },
          {
            "number": 64,
            "time": 90.00208333333332,
            "value": 1
          },
          {
            "number": 64,
            "time": 90.75104166666665,
            "value": 0
          },
          {
            "number": 64,
            "time": 90.75208333333332,
            "value": 1
          },
          {
            "number": 64,
            "time": 92.00104166666665,
            "value": 0
          },
          {
            "number": 64,
            "time": 92.00208333333332,
            "value": 1
          },
          {
            "number": 64,
            "time": 92.75104166666665,
            "value": 0
          },
          {
            "number": 64,
            "time": 92.75208333333332,
            "value": 1
          },
          {
            "number": 64,
            "time": 94.00104166666665,
            "value": 0
          },
          {
            "number": 64,
            "time": 94.00208333333332,
            "value": 1
          },
          {
            "number": 64,
            "time": 94.75104166666665,
            "value": 0
          },
          {
            "number": 64,
            "time": 94.75208333333332,
            "value": 1
          },
          {
            "number": 64,
            "time": 96.00104166666665,
            "value": 0
          },
          {
            "number": 64,
            "time": 96.00208333333332,
            "value": 1
          },
          {
            "number": 64,
            "time": 96.50104166666665,
            "value": 0
          },
          {
            "number": 64,
            "time": 96.50208333333332,
            "value": 1
          },
          {
            "number": 64,
            "time": 98.00104166666665,
            "value": 0
          },
          {
            "number": 64,
            "time": 98.00208333333332,
            "value": 1
          },
          {
            "number": 64,
            "time": 98.75104166666665,
            "value": 0
          },
          {
            "number": 64,
            "time": 98.75208333333332,
            "value": 1
          },
          {
            "number": 64,
            "time": 100.00104166666665,
            "value": 0
          },
          {
            "number": 64,
            "time": 100.00208333333332,
            "value": 1
          },
          {
            "number": 64,
            "time": 100.75104166666665,
            "value": 0
          },
          {
            "number": 64,
            "time": 100.75208333333332,
            "value": 1
          },
          {
            "number": 64,
            "time": 102.00104166666665,
            "value": 0
          },
          {
            "number": 64,
            "time": 102.00208333333332,
            "value": 1
          },
          {
            "number": 64,
            "time": 102.75104166666665,
            "value": 0
          },
          {
            "number": 64,
            "time": 102.75208333333332,
            "value": 1
          },
          {
            "number": 64,
            "time": 104.00104166666665,
            "value": 0
          },
          {
            "number": 64,
            "time": 104.00208333333332,
            "value": 1
          },
          {
            "number": 64,
            "time": 104.50104166666665,
            "value": 0
          },
          {
            "number": 64,
            "time": 104.50208333333332,
            "value": 1
          },
          {
            "number": 64,
            "time": 106.00104166666665,
            "value": 0
          },
          {
            "number": 64,
            "time": 106.00208333333332,
            "value": 1
          },
          {
            "number": 64,
            "time": 106.75104166666665,
            "value": 0
          },
          {
            "number": 64,
            "time": 106.75208333333332,
            "value": 1
          },
          {
            "number": 64,
            "time": 108.00104166666665,
            "value": 0
          },
          {
            "number": 64,
            "time": 108.00208333333332,
            "value": 1
          },
          {
            "number": 64,
            "time": 108.75104166666665,
            "value": 0
          },
          {
            "number": 64,
            "time": 108.75208333333332,
            "value": 1
          },
          {
            "number": 64,
            "time": 110.00104166666665,
            "value": 0
          },
          {
            "number": 64,
            "time": 110.00208333333332,
            "value": 1
          },
          {
            "number": 64,
            "time": 110.75104166666665,
            "value": 0
          },
          {
            "number": 64,
            "time": 110.75208333333332,
            "value": 1
          },
          {
            "number": 64,
            "time": 112.00104166666665,
            "value": 0
          },
          {
            "number": 64,
            "time": 112.00208333333332,
            "value": 1
          },
          {
            "number": 64,
            "time": 112.50104166666665,
            "value": 0
          },
          {
            "number": 64,
            "time": 112.50208333333332,
            "value": 1
          },
          {
            "number": 64,
            "time": 114.00104166666665,
            "value": 0
          },
          {
            "number": 64,
            "time": 114.00208333333332,
            "value": 1
          },
          {
            "number": 64,
            "time": 116.00104166666665,
            "value": 0
          },
          {
            "number": 64,
            "time": 116.00208333333332,
            "value": 1
          },
          {
            "number": 64,
            "time": 118.00104166666665,
            "value": 0
          },
          {
            "number": 64,
            "time": 118.00208333333332,
            "value": 1
          },
          {
            "number": 64,
            "time": 120.00104166666665,
            "value": 0
          },
          {
            "number": 64,
            "time": 120.00208333333332,
            "value": 1
          },
          {
            "number": 64,
            "time": 122.00104166666665,
            "value": 0
          },
          {
            "number": 64,
            "time": 122.00208333333332,
            "value": 1
          },
          {
            "number": 64,
            "time": 124.00104166666665,
            "value": 0
          },
          {
            "number": 64,
            "time": 124.00208333333332,
            "value": 1
          },
          {
            "number": 64,
            "time": 126.00104166666665,
            "value": 0
          },
          {
            "number": 64,
            "time": 126.00208333333332,
            "value": 1
          },
          {
            "number": 64,
            "time": 128.00104166666665,
            "value": 0
          },
          {
            "number": 64,
            "time": 128.00208333333333,
            "value": 1
          },
          {
            "number": 64,
            "time": 130.00104166666668,
            "value": 0
          },
          {
            "number": 64,
            "time": 130.00208333333336,
            "value": 1
          },
          {
            "number": 64,
            "time": 132.0010416666667,
            "value": 0
          },
          {
            "number": 64,
            "time": 132.0020833333334,
            "value": 1
          },
          {
            "number": 64,
            "time": 134.00104166666674,
            "value": 0
          },
          {
            "number": 64,
            "time": 134.00208333333342,
            "value": 1
          },
          {
            "number": 64,
            "time": 136.00104166666677,
            "value": 0
          },
          {
            "number": 64,
            "time": 136.00208333333345,
            "value": 1
          },
          {
            "number": 64,
            "time": 138.0010416666668,
            "value": 0
          },
          {
            "number": 64,
            "time": 138.00208333333347,
            "value": 1
          },
          {
            "number": 64,
            "time": 140.00104166666682,
            "value": 0
          },
          {
            "number": 64,
            "time": 140.0020833333335,
            "value": 1
          },
          {
            "number": 64,
            "time": 142.00104166666685,
            "value": 0
          },
          {
            "number": 64,
            "time": 142.00208333333353,
            "value": 1
          },
          {
            "number": 64,
            "time": 144.00104166666688,
            "value": 0
          },
          {
            "number": 64,
            "time": 144.00208333333356,
            "value": 1
          },
          {
            "number": 64,
            "time": 146.0010416666669,
            "value": 0
          },
          {
            "number": 64,
            "time": 146.0020833333336,
            "value": 1
          },
          {
            "number": 64,
            "time": 148.00104166666694,
            "value": 0
          },
          {
            "number": 64,
            "time": 148.00208333333362,
            "value": 1
          },
          {
            "number": 64,
            "time": 150.00104166666696,
            "value": 0
          },
          {
            "number": 64,
            "time": 150.00208333333364,
            "value": 1
          },
          {
            "number": 64,
            "time": 152.001041666667,
            "value": 0
          },
          {
            "number": 64,
            "time": 152.00208333333367,
            "value": 1
          },
          {
            "number": 64,
            "time": 154.00104166666702,
            "value": 0
          },
          {
            "number": 64,
            "time": 154.0020833333337,
            "value": 1
          },
          {
            "number": 64,
            "time": 154.75104166666705,
            "value": 0
          },
          {
            "number": 64,
            "time": 154.75208333333373,
            "value": 1
          },
          {
            "number": 64,
            "time": 156.00104166666708,
            "value": 0
          },
          {
            "number": 64,
            "time": 156.00208333333376,
            "value": 1
          },
          {
            "number": 64,
            "time": 156.7510416666671,
            "value": 0
          },
          {
            "number": 64,
            "time": 156.7520833333338,
            "value": 1
          },
          {
            "number": 64,
            "time": 158.00104166666713,
            "value": 0
          },
          {
            "number": 64,
            "time": 158.00208333333381,
            "value": 1
          },
          {
            "number": 64,
            "time": 158.75104166666716,
            "value": 0
          },
          {
            "number": 64,
            "time": 158.75208333333384,
            "value": 1
          },
          {
            "number": 64,
            "time": 160.0010416666672,
            "value": 0
          },
          {
            "number": 64,
            "time": 160.00208333333387,
            "value": 1
          },
          {
            "number": 64,
            "time": 160.50104166666722,
            "value": 0
          },
          {
            "number": 64,
            "time": 160.5020833333339,
            "value": 1
          },
          {
            "number": 64,
            "time": 162.00104166666725,
            "value": 0
          },
          {
            "number": 64,
            "time": 162.00208333333393,
            "value": 1
          },
          {
            "number": 64,
            "time": 162.75104166666728,
            "value": 0
          },
          {
            "number": 64,
            "time": 162.75208333333396,
            "value": 1
          },
          {
            "number": 64,
            "time": 164.0010416666673,
            "value": 0
          },
          {
            "number": 64,
            "time": 164.00208333333399,
            "value": 1
          },
          {
            "number": 64,
            "time": 164.75104166666733,
            "value": 0
          },
          {
            "number": 64,
            "time": 164.752083333334,
            "value": 1
          },
          {
            "number": 64,
            "time": 166.00104166666736,
            "value": 0
          },
          {
            "number": 64,
            "time": 166.00208333333404,
            "value": 1
          },
          {
            "number": 64,
            "time": 166.7510416666674,
            "value": 0
          },
          {
            "number": 64,
            "time": 166.75208333333407,
            "value": 1
          },
          {
            "number": 64,
            "time": 168.00104166666742,
            "value": 0
          },
          {
            "number": 64,
            "time": 168.0020833333341,
            "value": 1
          },
          {
            "number": 64,
            "time": 168.50104166666745,
            "value": 0
          },
          {
            "number": 64,
            "time": 168.50208333333413,
            "value": 1
          },
          {
            "number": 64,
            "time": 170.00104166666748,
            "value": 0
          },
          {
            "number": 64,
            "time": 170.00208333333416,
            "value": 1
          },
          {
            "number": 64,
            "time": 170.7510416666675,
            "value": 0
          },
          {
            "number": 64,
            "time": 170.75208333333418,
            "value": 1
          },
          {
            "number": 64,
            "time": 172.00104166666753,
            "value": 0
          },
          {
            "number": 64,
            "time": 172.0020833333342,
            "value": 1
          },
          {
            "number": 64,
            "time": 172.75104166666756,
            "value": 0
          },
          {
            "number": 64,
            "time": 172.75208333333424,
            "value": 1
          },
          {
            "number": 64,
            "time": 174.0010416666676,
            "value": 0
          },
          {
            "number": 64,
            "time": 174.00208333333427,
            "value": 1
          },
          {
            "number": 64,
            "time": 174.75104166666762,
            "value": 0
          },
          {
            "number": 64,
            "time": 174.7520833333343,
            "value": 1
          },
          {
            "number": 64,
            "time": 176.00104166666765,
            "value": 0
          },
          {
            "number": 64,
            "time": 176.00208333333433,
            "value": 1
          },
          {
            "number": 64,
            "time": 176.50104166666767,
            "value": 0
          },
          {
            "number": 64,
            "time": 176.50208333333435,
            "value": 1
          },
          {
            "number": 64,
            "time": 178.0010416666677,
            "value": 0
          },
          {
            "number": 64,
            "time": 178.00208333333438,
            "value": 1
          },
          {
            "number": 64,
            "time": 178.75104166666773,
            "value": 0
          },
          {
            "number": 64,
            "time": 178.7520833333344,
            "value": 1
          },
          {
            "number": 64,
            "time": 180.00104166666776,
            "value": 0
          },
          {
            "number": 64,
            "time": 180.00208333333444,
            "value": 1
          },
          {
            "number": 64,
            "time": 180.7510416666678,
            "value": 0
          },
          {
            "number": 64,
            "time": 180.75208333333447,
            "value": 1
          },
          {
            "number": 64,
            "time": 182.00104166666782,
            "value": 0
          },
          {
            "number": 64,
            "time": 182.0020833333345,
            "value": 1
          },
          {
            "number": 64,
            "time": 182.75104166666785,
            "value": 0
          },
          {
            "number": 64,
            "time": 182.75208333333453,
            "value": 1
          },
          {
            "number": 64,
            "time": 184.00104166666787,
            "value": 0
          },
          {
            "number": 64,
            "time": 184.00208333333455,
            "value": 1
          },
          {
            "number": 64,
            "time": 184.5010416666679,
            "value": 0
          },
          {
            "number": 64,
            "time": 184.50208333333458,
            "value": 1
          },
          {
            "number": 64,
            "time": 186.00104166666793,
            "value": 0
          },
          {
            "number": 64,
            "time": 186.0020833333346,
            "value": 1
          },
          {
            "number": 64,
            "time": 186.75104166666796,
            "value": 0
          },
          {
            "number": 64,
            "time": 186.75208333333464,
            "value": 1
          },
          {
            "number": 64,
            "time": 188.001041666668,
            "value": 0
          },
          {
            "number": 64,
            "time": 188.00208333333467,
            "value": 1
          },
          {
            "number": 64,
            "time": 188.75104166666802,
            "value": 0
          },
          {
            "number": 64,
            "time": 188.7520833333347,
            "value": 1
          },
          {
            "number": 64,
            "time": 190.00104166666804,
            "value": 0
          },
          {
            "number": 64,
            "time": 190.00208333333472,
            "value": 1
          },
          {
            "number": 64,
            "time": 190.75104166666807,
            "value": 0
          },
          {
            "number": 64,
            "time": 190.75208333333475,
            "value": 1
          },
          {
            "number": 64,
            "time": 192.0010416666681,
            "value": 0
          },
          {
            "number": 64,
            "time": 192.00208333333478,
            "value": 1
          },
          {
            "number": 64,
            "time": 192.50104166666813,
            "value": 0
          },
          {
            "number": 64,
            "time": 192.5020833333348,
            "value": 1
          },
          {
            "number": 64,
            "time": 194.00104166666816,
            "value": 0
          },
          {
            "number": 64,
            "time": 194.00208333333484,
            "value": 1
          },
          {
            "number": 64,
            "time": 194.7510416666682,
            "value": 0
          },
          {
            "number": 64,
            "time": 194.75208333333487,
            "value": 1
          },
          {
            "number": 64,
            "time": 196.00104166666821,
            "value": 0
          },
          {
            "number": 64,
            "time": 196.0020833333349,
            "value": 1
          },
          {
            "number": 64,
            "time": 196.75104166666824,
            "value": 0
          },
          {
            "number": 64,
            "time": 196.75208333333492,
            "value": 1
          },
          {
            "number": 64,
            "time": 198.00104166666827,
            "value": 0
          },
          {
            "number": 64,
            "time": 198.00208333333495,
            "value": 1
          },
          {
            "number": 64,
            "time": 198.7510416666683,
            "value": 0
          },
          {
            "number": 64,
            "time": 198.75208333333498,
            "value": 1
          },
          {
            "number": 64,
            "time": 200.00104166666833,
            "value": 0
          },
          {
            "number": 64,
            "time": 200.002083333335,
            "value": 1
          },
          {
            "number": 64,
            "time": 200.50104166666836,
            "value": 0
          },
          {
            "number": 64,
            "time": 200.50208333333504,
            "value": 1
          },
          {
            "number": 64,
            "time": 202.0000000000017,
            "value": 0
          }
        ]
      },
      "id": 1,
      "name": "Piano",
      "channelNumber": 0,
      "isPercussion": false
    }
  ]
}